<svg height="512pt" viewBox="0 -24 512.001 512" width="512pt" xmlns="http://www.w3.org/2000/svg"><path d="m504.425781 142.390625h-67.535156l3.386719-42.316406c.167968-2.105469-.550782-4.1875-1.988282-5.742188-1.433593-1.550781-3.449218-2.433593-5.5625-2.433593h-48.472656c-2.113281 0-4.132812.882812-5.566406 2.433593-1.433594 1.554688-2.152344 3.636719-1.984375 5.742188l3.386719 42.316406h-17.550782v-69.714844c0-11.960937-4.429687-23.417969-12.472656-32.269531l-7.722656-8.492188v-24.339843c0-4.183594-3.390625-7.574219-7.574219-7.574219-4.183593 0-7.574219 3.390625-7.574219 7.574219v24.339843l-7.722656 8.492188c-8.042968 8.851562-12.476562 20.308594-12.476562 32.269531v69.714844h-140.136719c2.273437-1.308594 3.808594-3.753906 3.808594-6.5625 0-4.183594-3.390625-7.574219-7.574219-7.574219h-12.625v-20.066406l38.734375-48.417969c1.820313-2.273437 2.175781-5.390625.914063-8.011719-1.261719-2.625-3.917969-4.292968-6.828126-4.292968h-80.789062c-2.910156 0-5.5625 1.667968-6.824219 4.292968-1.261719 2.621094-.90625 5.738282.910157 8.011719l38.734374 48.417969v20.0625h-12.621093c-4.183594 0-7.574219 3.390625-7.574219 7.574219 0 2.8125 1.535156 5.257812 3.804688 6.566406h-111.355469c-4.183594 0-7.574219 3.390625-7.574219 7.574219v38.375c0 4.183594 3.390625 7.574218 7.574219 7.574218h8.582031v160.753907c0 4.183593 3.394531 7.574219 7.574219 7.574219 4.183593 0 7.574219-3.390626 7.574219-7.574219v-160.753907h63.621093c4.183594 0 7.574219-3.390624 7.574219-7.574218s-3.390625-7.574219-7.574219-7.574219h-79.777343v-23.226563h481.703124v23.226563h-366.546874c-4.183594 0-7.574219 3.390625-7.574219 7.574219s3.390625 7.574218 7.574219 7.574218h350.390624v19.355469c0 4.183594 3.390626 7.574219 7.574219 7.574219 4.183594 0 7.574219-3.390625 7.574219-7.574219v-19.355469h8.582031c4.183594 0 7.574219-3.390624 7.574219-7.574218v-38.375c0-4.183594-3.390625-7.574219-7.574219-7.574219zm-336.894531-79.777344-24.636719 30.792969-24.632812-30.792969zm154.613281 79.777344v-69.714844c0-8.183593 3.035157-16.023437 8.535157-22.078125l4.089843-4.5 4.085938 4.5c5.503906 6.054688 8.539062 13.894532 8.539062 22.078125v69.714844zm73.140625 0-2.828125-35.34375h32.066407l-2.828126 35.34375zm0 0"/><path d="m488.269531 242.871094c-4.183593 0-7.574219 3.390625-7.574219 7.574218v198.941407h-41.40625v-11.609375c0-3.347656-2.191406-6.292969-5.394531-7.253906l-45.097656-13.53125v-67.578126h32.820313c4.183593 0 7.574218-3.390624 7.574218-7.574218s-3.390625-7.574219-7.574218-7.574219h-32.820313v-61.601563h53.019531c4.179688 0 7.574219-3.390624 7.574219-7.574218v-34.335938c0-4.183594-3.394531-7.574218-7.574219-7.574218h-121.183594c-4.183593 0-7.574218 3.390624-7.574218 7.574218v34.335938c0 4.183594 3.390625 7.574218 7.574218 7.574218h53.015626v61.601563h-32.820313c-4.183594 0-7.574219 3.390625-7.574219 7.574219s3.390625 7.574218 7.574219 7.574218h32.820313v67.578126l-45.09375 13.53125c-3.203126.960937-5.398438 3.90625-5.398438 7.253906v11.609375h-134.3125v-11.609375c0-3.347656-2.195312-6.292969-5.398438-7.253906l-45.09375-13.53125v-67.578126h32.820313c4.183594 0 7.574219-3.390624 7.574219-7.574218s-3.390625-7.574219-7.574219-7.574219h-32.820313v-61.601563h53.015626c4.183593 0 7.574218-3.390624 7.574218-7.574218v-34.335938c0-4.183594-3.390625-7.574218-7.574218-7.574218h-121.183594c-4.179688 0-7.574219 3.390624-7.574219 7.574218v34.335938c0 4.183594 3.394531 7.574218 7.574219 7.574218h53.019531v61.601563h-32.820313c-4.183593 0-7.574218 3.390625-7.574218 7.574219s3.390625 7.574218 7.574218 7.574218h32.820313v67.578126l-45.09375 13.53125c-3.203125.960937-5.398437 3.90625-5.398437 7.253906v11.609375h-41.40625v-57.527344c0-4.183594-3.390626-7.574219-7.574219-7.574219-4.179688 0-7.574219 3.390625-7.574219 7.574219v65.105469c0 4.183594 3.394531 7.574218 7.574219 7.574218h464.539062c4.179688 0 7.574219-3.390624 7.574219-7.574218v-206.519532c0-4.183593-3.390625-7.574218-7.574219-7.574218zm-160.066406-4.542969h106.035156v19.1875h-106.035156zm-250.445313 0h106.039063v19.1875h-106.039063zm10.101563 211.058594v-5.976563l42.917969-12.875 42.917968 12.875v5.976563zm250.445313 0v-5.976563l42.917968-12.875 42.917969 12.875v5.976563zm0 0"/></svg>