<svg height="512pt" viewBox="0 0 512 512.001" width="512pt" xmlns="http://www.w3.org/2000/svg"><path d="m348.070312 305.21875h19.238282c4.132812 0 7.484375-3.351562 7.484375-7.484375s-3.351563-7.484375-7.484375-7.484375h-19.238282c-4.136718 0-7.484374 3.351562-7.484374 7.484375 0 4.136719 3.347656 7.484375 7.484374 7.484375zm0 0"/><path d="m367.308594 372.804688h-19.238282c-4.136718 0-7.484374 3.351562-7.484374 7.484374 0 4.136719 3.347656 7.488282 7.484374 7.488282h19.238282c4.132812 0 7.484375-3.351563 7.484375-7.488282 0-4.132812-3.347657-7.484374-7.484375-7.484374zm0 0"/><path d="m367.308594 455.363281h-19.238282c-4.136718 0-7.484374 3.351563-7.484374 7.484375 0 4.132813 3.347656 7.484375 7.484374 7.484375h19.238282c4.132812 0 7.484375-3.351562 7.484375-7.484375 0-4.132812-3.347657-7.484375-7.484375-7.484375zm0 0"/><path d="m499.078125 214.289062h-37.945313v-130.710937c0-5.683594-4.621093-10.304687-10.300781-10.304687h-29.199219v-3.390626c0-5.679687-4.621093-10.300781-10.300781-10.300781h-36.992187c-5.679688 0-10.300782 4.621094-10.300782 10.300781v32.191407h-29.085937c-5.679687 0-10.300781 4.621093-10.300781 10.304687v101.910156h-113.417969v-20.785156h60.195313c14.398437 0 26.113281-11.714844 26.113281-26.113281v-141.28125c0-14.394531-11.714844-26.109375-26.113281-26.109375h-25.75c-4.132813 0-7.484376 3.351562-7.484376 7.484375s3.347657 7.484375 7.484376 7.484375h25.75c6.144531 0 11.144531 5 11.144531 11.140625v107.898437h-207.453125v-107.898437c0-6.140625 5-11.140625 11.140625-11.140625h124.605469c4.132812 0 7.484374-3.351562 7.484374-7.484375s-3.351562-7.484375-7.484374-7.484375h-124.605469c-14.394531 0-26.109375 11.714844-26.109375 26.109375v141.285156c0 14.394531 11.714844 26.109375 26.109375 26.109375h58.503906v20.785156h-132.292969c-6.878906 0-12.472656 5.597657-12.472656 12.476563v25.015625c0 6.878906 5.597656 12.476562 12.472656 12.476562h17.152344v240.257813c0 4.132813 3.351562 7.484375 7.484375 7.484375h32.703125c4.132812 0 7.484375-3.351562 7.484375-7.484375v-69.058594c0-4.132812-3.351563-7.484375-7.484375-7.484375-4.136719 0-7.484375 3.351563-7.484375 7.484375v61.574219h-17.734375v-232.777344h17.730469v136.523438c0 4.132812 3.351562 7.484375 7.484375 7.484375 4.136718 0 7.488281-3.347657 7.488281-7.484375v-136.523438h181.378906v74.445313c0 .105469.011719.207031.015625.3125-.003906.105469-.015625.207031-.015625.3125v81.929687c0 .105469.011719.207032.015625.3125-.003906.105469-.015625.207032-.015625.3125v81.929688c0 4.132812 3.351563 7.484375 7.484375 7.484375l208.285156.707031c4.132813 0 7.484376-3.351562 7.484376-7.484375v-240.261719h17.148437c6.878906 0 12.476563-5.59375 12.476563-12.472656v-25.019531c-.003907-6.875-5.597657-12.472657-12.476563-12.472657zm-423.957031-46.894531v-18.417969h207.449218v18.417969c0 6.144531-4.996093 11.140625-11.140624 11.140625h-185.167969c-6.140625 0-11.140625-5-11.140625-11.140625zm84.613281 46.351563v-20.058594h36.53125v20.058594zm179.886719-45.191406h24.417968v45.191406h-24.417968zm0-23.550782h24.417968v8.582032h-24.417968zm82.011718 8.035156h24.53125v60.707032h-24.53125zm24.53125-14.96875h-24.53125v-14.65625h24.53125zm0-49.828124v20.203124h-24.53125v-20.203124zm-39.5-13.691407v139.195313h-27.542968v-104.1875c0-.425782-.046875-.839844-.113282-1.246094v-33.761719zm-42.625 42.496094v12.988281h-24.417968v-12.988281zm-90.390624 229.765625h160.609374v66.957031h-160.609374zm160.609374-15.597656h-160.609374v-66.960938h160.609374zm-160.609374 98.152344h160.609374v66.957031h-160.609374zm193.3125 67.664062h-17.734376v-232.777344h17.734376zm29.621093-247.746094h-481.613281v-20.027344h481.613281zm0 0"/></svg>