<svg height="511pt" viewBox="0 -40 511.998 511" width="511pt" xmlns="http://www.w3.org/2000/svg"><path d="m217.371094 48.609375-1.402344-.011719h-.003906c-.019532 0-.035156 0-.054688 0-32.25.003906-62.5 12.640625-85.167968 35.585938-22.664063 22.941406-34.929688 53.355468-34.539063 85.640625.792969 65.191406 56.347656 118.226562 123.835937 118.226562h84.058594c17.394532 0 31.546875-14.152343 31.546875-31.550781v-8.015625c0-4.140625-3.355469-7.5-7.5-7.5-4.140625 0-7.5 3.359375-7.5 7.5v8.015625c0 9.125-7.421875 16.550781-16.546875 16.550781h-84.058594c-59.320312 0-108.144531-46.390625-108.835937-103.410156-.34375-28.242187 10.386719-54.847656 30.207031-74.914063 19.828125-20.070312 46.277344-31.121093 74.488282-31.128906l1.335937.007813c57.023437.691406 103.410156 49.519531 103.410156 108.839843v43.976563c0 4.144531 3.359375 7.5 7.5 7.5s7.5-3.355469 7.5-7.5v-43.976563c0-67.492187-53.035156-123.046874-118.273437-123.835937zm0 0"/><path d="m280.046875 208.921875c-12.976563 0-23.53125 10.554687-23.53125 23.53125s10.558594 23.53125 23.53125 23.53125c12.976563 0 23.53125-10.554687 23.53125-23.53125s-10.554687-23.53125-23.53125-23.53125zm0 32.0625c-4.703125 0-8.53125-3.828125-8.53125-8.53125s3.828125-8.53125 8.53125-8.53125c4.707031 0 8.53125 3.828125 8.53125 8.53125s-3.824219 8.53125-8.53125 8.53125zm0 0"/><path d="m303.582031 172.445312c0-50.027343-38.828125-91.195312-86.601562-91.777343l-1.089844-.003907c-.023437 0-.042969 0-.0625 0-23.582031.023438-45.699219 9.277344-62.277344 26.054688-16.59375 16.796875-25.574219 39.066406-25.285156 62.714844.578125 47.722656 41.75 86.550781 91.773437 86.550781h11.914063c4.140625 0 7.5-3.359375 7.5-7.5s-3.359375-7.5-7.5-7.5h-11.914063c-41.851562 0-76.296874-32.179687-76.773437-71.734375-.242187-19.605469 7.203125-38.066406 20.957031-51.992188 13.734375-13.898437 32.058594-21.570312 51.597656-21.59375l1.027344.003907c39.554688.480469 71.730469 34.921875 71.730469 76.777343v11.910157c0 4.144531 3.359375 7.5 7.5 7.5 4.144531 0 7.5-3.355469 7.5-7.5v-11.910157zm0 0"/><path d="m496.484375 289.082031h-112.742187v-116.636719c0-15.914062-2.152344-31.347656-6.160157-46.015624l7.269531-2.238282c6.371094-1.960937 11.648438-6.558594 14.476563-12.605468 2.792969-5.972657 2.941406-12.855469.410156-18.890626-7.808593-18.597656-18.285156-35.914062-31.140625-51.464843-4.152344-5.019531-10.289062-8.074219-16.84375-8.386719-6.660156-.3125-13.164062 2.203125-17.867187 6.90625l-5.445313 5.441406c-29.335937-27.289062-68.050781-44.164062-110.441406-44.679687-45.609375-.5546878-88.507812 16.898437-120.75 49.140625-32.242188 32.246094-49.695312 75.128906-49.140625 120.753906.4375 36.046875 12.710937 69.441406 33.15625 96.671875-8.398437 3.441406-14.738281 10.910156-16.585937 19.996094h-25.117188c-21.8125.003906-39.5625 17.753906-39.5625 39.570312v10.019531c0 35.074219 28.535156 63.613282 63.613281 63.613282h116.351563c6.558594 0 12.730468 2.554687 17.371094 7.191406l17.972656 17.976562c4.445312 4.445313 10.355468 6.894532 16.644531 6.894532s12.199219-2.449219 16.636719-6.890625c4.445312-4.445313 6.894531-10.351563 6.894531-16.640625 0-6.285156-2.449219-12.195313-6.894531-16.636719l-17.976563-17.976563c-13.527343-13.53125-31.511719-20.984374-50.648437-20.984374h-92.308594c-4.140625 0-7.5 3.359374-7.5 7.5 0 4.144531 3.359375 7.5 7.5 7.5h92.308594c15.128906 0 29.347656 5.894531 40.042968 16.589843l17.976563 17.976563c1.613281 1.613281 2.5 3.753906 2.5 6.03125 0 2.28125-.886719 4.421875-2.503906 6.035156-1.609375 1.609375-3.75 2.496094-6.027344 2.496094-2.28125 0-4.421875-.886719-6.03125-2.5l-17.980469-17.980469c-7.476562-7.46875-17.414062-11.582031-27.976562-11.582031h-116.351563c-16.414062 0-30.941406-8.1875-39.75-20.679688 5.097657 2.3125 10.75 3.613282 16.703125 3.613282h15.035156c4.140626 0 7.5-3.355469 7.5-7.5 0-4.140626-3.359374-7.5-7.5-7.5h-15.035156c-14.097656 0-25.566406-11.46875-25.566406-25.566407 0-14.097656 11.46875-25.566406 25.566406-25.566406h25.253906c3.878907 10.519531 14 18.035156 25.847657 18.035156h55.3125c22.21875 10.273438 46.996093 16.035157 73.058593 16.035157h132.152344c17.398438 0 31.546875-14.152344 31.546875-31.550782v-.515625h81.195313v32.582031c0 8.554688 6.960937 15.515626 15.515625 15.515626h16.03125c8.558593 0 15.515625-6.960938 15.515625-15.515626v-32.066406c.003906-8.554687-6.957032-15.515625-15.511719-15.515625zm-404.816406 16.03125c-6.914063 0-12.539063-5.625-12.539063-12.539062 0-6.914063 5.625-12.542969 12.539063-12.542969h.367187c8.59375 9.359375 18.238282 17.78125 28.75 25.082031zm277.074219-.515625c0 9.125-7.421876 16.550782-16.546876 16.550782h-132.15625c-85.519531 0-155.921874-67.703126-156.929687-150.921876-.503906-41.550781 15.386719-80.601562 44.746094-109.964843 28.910156-28.910157 67.214843-44.761719 108.046875-44.761719.636718 0 1.277344.003906 1.917968.015625 83.21875 1.007813 150.921876 71.40625 150.921876 156.929687zm4.253906-192.453125c-7.738282-20.984375-19.386719-40.054687-34.027344-56.265625l5.523438-5.519531c1.722656-1.722656 4.109374-2.648437 6.554687-2.53125 2.375.113281 4.503906 1.164063 5.988281 2.960937 11.917969 14.417969 21.632813 30.46875 28.871094 47.710938.910156 2.167969.851562 4.558594-.164062 6.730469-1.039063 2.222656-2.972657 3.90625-5.304688 4.625zm124.003906 224.519531c0 .28125-.230469.515626-.515625.515626h-16.03125c-.285156 0-.515625-.230469-.515625-.515626v-32.582031h16.546875c.285156 0 .515625.230469.515625.515625zm0 0"/></svg>