<svg height="512pt" viewBox="-65 0 511 512" width="512pt" xmlns="http://www.w3.org/2000/svg"><path d="m370.5 0h-240c-5.523438 0-10 4.476562-10 10s4.476562 10 10 10h230v472h-20v-10.007812c0-5.519532-4.476562-9.996094-10-9.996094s-10 4.476562-10 9.996094v10.007812h-260v-432h260v341.996094c0 5.519531 4.476562 10 10 10s10-4.480469 10-10v-351.996094c0-5.523438-4.476562-10-10-10h-280c-5.523438 0-10 4.476562-10 10v442h-20v-472h30c5.523438 0 10-4.476562 10-10s-4.476562-10-10-10h-40c-5.523438 0-10 4.476562-10 10v492c0 5.523438 4.476562 10 10 10h360c5.523438 0 10-4.476562 10-10v-492c0-5.523438-4.476562-10-10-10zm0 0"/><path d="m250.496094 276c0 16.542969 13.457031 30 30 30 16.542968 0 30.003906-13.457031 30.003906-30s-13.460938-30-30.003906-30c-16.542969 0-30 13.457031-30 30zm40.003906 0c0 5.515625-4.488281 10-10.003906 10-5.511719 0-10-4.484375-10-10s4.488281-10 10-10c5.515625 0 10.003906 4.484375 10.003906 10zm0 0"/><path d="m140.5 150v292c0 5.519531 4.476562 10 10 10h80c5.523438 0 10-4.480469 10-10v-292c0-27.570312-22.429688-50-50-50s-50 22.429688-50 50zm20 282v-146h60v146zm60-282v116h-60v-116c0-16.539062 13.457031-30 30-30s30 13.460938 30 30zm0 0"/><path d="m90.503906 20c5.523438 0 10-4.476562 10-10s-4.476562-10-10-10h-.007812c-5.523438 0-9.996094 4.476562-9.996094 10s4.480469 10 10.003906 10zm0 0"/><path d="m330.5 431.996094c-5.523438 0-10 4.480468-10 10.003906 0 5.519531 4.476562 10 10 10s10-4.480469 10-10v-.007812c0-5.523438-4.476562-9.996094-10-9.996094zm0 0"/></svg>