<svg height="512pt" viewBox="0 0 512.00081 512" width="512pt" xmlns="http://www.w3.org/2000/svg"><path d="m421.242188 220.289062c-2.03125-6.140624-7.773438-10.289062-14.242188-10.289062h-302c-6.46875 0-12.207031 4.148438-14.242188 10.289062l-90 272c-1.511718 4.570313-.7382808 9.589844 2.082032 13.496094 2.820312 3.902344 7.34375 6.214844 12.160156 6.214844h482c4.816406 0 9.339844-2.3125 12.160156-6.214844 2.820313-3.90625 3.59375-8.925781 2.082032-13.496094zm5.03125 110.710938h-155.273438v-91h125.164062zm-310.4375-91h125.164062v91h-155.273438zm-40.035157 121h165.199219v121h-205.238281zm195.199219 121v-121h165.199219l40.039062 121zm0 0"/><path d="m331 135c0 8.285156 6.714844 15 15 15s15-6.714844 15-15c0-24.8125 20.1875-45 45-45 8.285156 0 15-6.714844 15-15s-6.714844-15-15-15c-24.8125 0-45-20.1875-45-45 0-8.285156-6.714844-15-15-15s-15 6.714844-15 15c0 24.8125-20.1875 45-45 45-8.285156 0-15 6.714844-15 15s6.714844 15 15 15c24.8125 0 45 20.1875 45 45zm15-75.046875c4.28125 5.699219 9.351562 10.769531 15.046875 15.046875-5.699219 4.28125-10.765625 9.351562-15.046875 15.046875-4.277344-5.699219-9.347656-10.765625-15.046875-15.046875 5.699219-4.277344 10.769531-9.347656 15.046875-15.046875zm0 0"/><path d="m106 120c24.8125 0 45 20.1875 45 45 0 8.285156 6.714844 15 15 15s15-6.714844 15-15c0-24.8125 20.1875-45 45-45 8.285156 0 15-6.714844 15-15s-6.714844-15-15-15c-24.8125 0-45-20.1875-45-45 0-8.285156-6.714844-15-15-15s-15 6.714844-15 15c0 24.8125-20.1875 45-45 45-8.285156 0-15 6.714844-15 15s6.714844 15 15 15zm60-30.046875c4.28125 5.699219 9.351562 10.769531 15.046875 15.046875-5.699219 4.28125-10.765625 9.351562-15.046875 15.046875-4.277344-5.699219-9.347656-10.765625-15.046875-15.046875 5.699219-4.277344 10.769531-9.347656 15.046875-15.046875zm0 0"/></svg>