<svg height="512pt" viewBox="0 -69 512.00052 512" width="512pt" xmlns="http://www.w3.org/2000/svg"><path d="m485.480469 141.417969h-47.539063c-4.144531 0-7.5 3.355469-7.5 7.5s3.355469 7.5 7.5 7.5h47.539063c6.351562 0 11.519531 5.167969 11.519531 11.523437v18.679688h-25.207031c-4.144531 0-7.5 3.355468-7.5 7.5 0 4.140625 3.355469 7.5 7.5 7.5h25.207031v80.410156l-39.113281 10.492188h-156.570313c-4.144531 0-7.5 3.355468-7.5 7.5 0 4.140624 3.355469 7.5 7.5 7.5h156.011719l39.671875 17.105468v23.269532c0 6.355468-5.167969 11.523437-11.519531 11.523437h-362.398438c-6.355469 0-11.523437-5.167969-11.523437-11.523437v-69.1875h87.082031c4.144531 0 7.5-3.359376 7.5-7.5 0-4.144532-3.355469-7.5-7.5-7.5h-87.082031v-8.214844c0-4.140625-3.355469-7.5-7.5-7.5-4.140625 0-7.5 3.359375-7.5 7.5v92.402344c0 14.625 11.898437 26.523437 26.523437 26.523437h362.398438c14.621093 0 26.519531-11.898437 26.519531-26.523437v-28.203126c0-2.996093-1.78125-5.703124-4.53125-6.890624l-25.8125-11.128907 24.789062-6.648437c3.273438-.882813 5.554688-3.851563 5.554688-7.246094v-119.839844c0-14.625-11.898438-26.523437-26.519531-26.523437zm0 0"/><path d="m415.441406 206.484375v-179.960937c0-14.625-11.894531-26.523438-26.519531-26.523438h-100.464844c-.082031 0-.160156 0-.242187 0h-121.15625c-4.144532 0-7.5 3.359375-7.5 7.5 0 4.144531 3.355468 7.5 7.5 7.5h49.410156c6.160156 8.34375 13.207031 19.769531 15.964844 31.265625 2.851562 11.886719.421875 20.992187-7.417969 27.84375-11.230469 9.804687-27.550781 10.019531-36.285156 9.285156-18.976563-1.59375-38.394531-7.015625-57.71875-16.113281-10.503907-4.949219-20.808594-10.628906-31.714844-16.636719-25.285156-13.9375-51.335937-28.289062-80.078125-33.027343 1.992188-1.632813 4.535156-2.613282 7.304688-2.613282h110.535156c4.140625 0 7.5-3.359375 7.5-7.5 0-4.144531-3.359375-7.49999975-7.5-7.49999975h-110.535156c-14.625 0-26.523438 11.89453175-26.523438 26.51953175v108.378906.277344 51.851562.292969 19.160156c0 14.625 11.898438 26.519531 26.523438 26.519531h362.398437c14.621094 0 26.519531-11.894531 26.519531-26.519531zm-15-179.960937v81.574218c-6.722656 8.558594-14.316406 16.519532-22.601562 23.699219-30.097656 26.105469-69.652344 42.652344-111.375 46.59375-64.292969 6.046875-131.757813-17.9375-198.277344-13.488281-19.089844 1.285156-37.246094 5.054687-53.1875 11.007812v-34.757812c6.277344-1.242188 12.660156-2.324219 19.046875-3.222656 53.144531-7.511719 106.742187-3.820313 156.742187 1.285156l2.449219.253906c15.265625 1.570312 31.054688 3.191406 46.898438 1.691406 19.582031-1.859375 36.25-8.5 48.191406-19.199218 24.039063-21.535157 26.566406-55.792969 20.921875-80.664063-1.925781-8.515625-4.875-17.195313-8.9375-26.296875h88.609375c6.351563 0 11.519531 5.167969 11.519531 11.523438zm-275.820312 54.324218c20.945312 9.863282 42.09375 15.75 62.847656 17.492188 2.527344.214844 5.011719.320312 7.453125.320312 16.054687-.003906 30.050781-4.601562 39.960937-13.253906 18.429688-16.101562 18.171876-41.324219-.226562-70.40625h49.082031c5.183594 10.488281 8.753907 20.210938 10.882813 29.609375 5.910156 26.035156-.488282 52.011719-16.300782 66.175781-12.050781 10.800782-28.1875 14.355469-39.601562 15.441406-14.367188 1.363282-29.402344-.1875-43.945312-1.679687l-2.460938-.253906c-50.941406-5.203125-105.628906-8.949219-160.363281-1.21875-5.671875.800781-11.34375 1.738281-16.949219 2.796875v-93.730469c26.949219 4.023437 52.386719 18.042969 77.058594 31.636719 10.628906 5.859375 21.625 11.921875 32.5625 17.070312zm-109.621094 125.636719v-14.4375c15.746094-6.652344 34.371094-10.847656 54.191406-12.179687 65.515625-4.390626 131 19.816406 198.679688 13.457031 44.8125-4.234375 87.359375-22.058594 119.796875-50.191407 4.449219-3.855468 8.714843-7.921874 12.773437-12.171874v75.523437c0 6.351563-5.167968 11.519531-11.519531 11.519531h-362.398437c-6.355469 0-11.523438-5.167968-11.523438-11.519531zm0 0"/></svg>