<?xml version="1.0" encoding="iso-8859-1"?>
<!-- Generator: Adobe Illustrator 19.0.0, SVG Export Plug-In . SVG Version: 6.00 Build 0)  -->
<svg version="1.1" id="Capa_1" xmlns="http://www.w3.org/2000/svg" xmlns:xlink="http://www.w3.org/1999/xlink" x="0px" y="0px"
	 viewBox="0 0 512 512" style="enable-background:new 0 0 512 512;" xml:space="preserve">
<g>
	<g>
		<g>
			<path d="M44.306,218.849h80.573c69.847,0,138.318-19.171,198.008-55.442c55.327-33.618,101.08-80.705,133.1-136.775l4.549,14.554
				c1.003,3.209,3.962,5.265,7.156,5.265c0.74,0,1.494-0.111,2.239-0.343c3.953-1.236,6.157-5.442,4.921-9.396l-9.827-31.447
				c-1.234-3.953-5.433-6.157-9.396-4.922l-31.447,9.827c-3.953,1.235-6.157,5.441-4.921,9.395c1.235,3.953,5.437,6.158,9.396,4.922
				l13.736-4.292C377.101,133.876,256.872,203.849,124.88,203.849H44.306c-4.143,0-7.5,3.358-7.5,7.5
				C36.806,215.491,40.163,218.849,44.306,218.849z"/>
			<path d="M504.5,497h-66.275V238.528c0-4.142-3.357-7.5-7.5-7.5s-7.5,3.358-7.5,7.5V497h-43.242V182.228
				c0-1.217,0.99-2.207,2.207-2.207h38.828c1.217,0,2.207,0.99,2.207,2.207v28.15c0,4.142,3.357,7.5,7.5,7.5s7.5-3.358,7.5-7.5
				v-28.15c0-9.488-7.719-17.207-17.207-17.207H382.19c-9.488,0-17.207,7.719-17.207,17.207V497h-23.828V240.47
				c0-9.488-7.719-17.207-17.207-17.207H285.12c-9.488,0-17.207,7.719-17.207,17.207v101.438c0,4.142,3.357,7.5,7.5,7.5
				s7.5-3.358,7.5-7.5V240.47c0-1.217,0.99-2.207,2.207-2.207h38.828c1.217,0,2.207,0.99,2.207,2.207V497h-43.242V370.543
				c0-4.142-3.357-7.5-7.5-7.5s-7.5,3.358-7.5,7.5V497h-23.828V289.005c0-9.488-7.719-17.207-17.207-17.207H188.05
				c-9.488,0-17.207,7.719-17.207,17.207V497h-23.828v-42.491c0-4.142-3.357-7.5-7.5-7.5s-7.5,3.358-7.5,7.5V497H88.773V318.126
				c0-1.217,0.99-2.207,2.207-2.207h38.828c1.217,0,2.207,0.99,2.207,2.207v107.262c0,4.142,3.357,7.5,7.5,7.5s7.5-3.358,7.5-7.5
				V318.126c0-9.488-7.719-17.207-17.207-17.207H90.98c-9.488,0-17.207,7.719-17.207,17.207V497H7.5c-4.143,0-7.5,3.358-7.5,7.5
				c0,4.142,3.357,7.5,7.5,7.5h497c4.143,0,7.5-3.358,7.5-7.5C512,500.358,508.643,497,504.5,497z M229.086,497h-43.242V289.005
				c0-1.217,0.99-2.207,2.207-2.207h38.828c1.217,0,2.207,0.99,2.207,2.207V497z"/>
		</g>
	</g>
</g>
<g>
</g>
<g>
</g>
<g>
</g>
<g>
</g>
<g>
</g>
<g>
</g>
<g>
</g>
<g>
</g>
<g>
</g>
<g>
</g>
<g>
</g>
<g>
</g>
<g>
</g>
<g>
</g>
<g>
</g>
</svg>
