<?xml version="1.0" standalone="no"?>
<!DOCTYPE svg PUBLIC "-//W3C//DTD SVG 1.1//EN" "http://www.w3.org/Graphics/SVG/1.1/DTD/svg11.dtd" >
<svg>
<metadata>
Created by FontForge 20090622 at Sun May 19 11:16:45 2019
 By deploy user
Copyright (c) 2019 by MadeType. All rights reserved.
</metadata>
<defs>
<font id="MADECoachella-Thin" horiz-adv-x="286" >
  <font-face 
    font-family="MADE Coachella"
    font-weight="250"
    font-stretch="normal"
    units-per-em="1000"
    panose-1="2 0 5 3 0 0 0 2 0 4"
    ascent="800"
    descent="-200"
    x-height="527"
    cap-height="700"
    bbox="-50 -381 1250 937"
    underline-thickness="50"
    underline-position="-50"
    unicode-range="U+0020-U+F6C3"
  />
<missing-glyph horiz-adv-x="300" 
 />
    <glyph glyph-name=".notdef" horiz-adv-x="300" 
 />
    <glyph glyph-name=".null" horiz-adv-x="0" 
 />
    <glyph glyph-name="nonmarkingreturn" horiz-adv-x="333" 
 />
    <glyph glyph-name="space" unicode=" " horiz-adv-x="300" 
 />
    <glyph glyph-name="exclam" unicode="!" horiz-adv-x="226" 
d="M117 240h-8l-11 54.5t-17 125.5t-9 164q3 120 41 120t41 -120q1 -73 -8 -159t-19 -135zM113 99q22 0 37.5 -15.5t15.5 -37.5t-15.5 -37.5t-37.5 -15.5t-37.5 15.5t-15.5 37.5t15.5 37.5t37.5 15.5z" />
    <glyph glyph-name="quotedbl" unicode="&#x22;" horiz-adv-x="239" 
d="M72 704q15 0 24 -19t9 -53q0 -30 -7 -69t-14 -63l-7 -24h-9q-28 89 -28 156q0 34 9 53t23 19zM167 704q14 0 23 -19t9 -53q0 -30 -6.5 -69t-13.5 -63l-7 -24h-10q-28 89 -28 156q0 33 9.5 52.5t23.5 19.5z" />
    <glyph glyph-name="numbersign" unicode="#" horiz-adv-x="690" 
d="M662 461h-152l-57 -220h157l-8 -24h-155l-56 -216h-24l56 216h-221l-56 -216h-24l56 216h-158l9 24h155l57 220h-169l8 24h167l56 216h24l-56 -216h222l56 216h23l-56 -216h154zM429 241l57 220h-221l-57 -220h221z" />
    <glyph glyph-name="dollar" unicode="$" horiz-adv-x="578" 
d="M345 380q69 -32 107.5 -58t59.5 -66t14 -94q-11 -82 -75 -124.5t-158 -44.5v-75h-22v75q-82 4 -221 48v161h9q36 -111 84.5 -151.5t127.5 -42.5v311q-48 21 -81 40.5t-62.5 46t-42 61.5t-7.5 78q9 78 63.5 115.5t129.5 41.5v80h22v-79q65 0 206 -50v-144h-10
q-36 102 -79.5 140t-116.5 39v-284zM152 587q-8 -60 23 -99t96 -73v272q-106 -7 -119 -100zM437 87q26 76 -11.5 128t-132.5 95v-301q119 5 144 78z" />
    <glyph glyph-name="percent" unicode="%" horiz-adv-x="853" 
d="M219 704q77 0 123.5 -48t46.5 -124t-47 -124.5t-123 -48.5t-122.5 48.5t-46.5 124.5t46.5 124t122.5 48zM219 371q43 0 70 41.5t27 119.5t-27 119.5t-70 41.5t-69.5 -41.5t-26.5 -119.5t26.5 -119.5t69.5 -41.5zM633 339q76 0 123 -48.5t47 -123.5q0 -76 -47 -124.5
t-123 -48.5t-122.5 48.5t-46.5 124.5q0 75 46.5 123.5t122.5 48.5zM633 5q43 0 70 42t27 120t-27 119.5t-70 41.5t-69.5 -41.5t-26.5 -119.5t26.5 -120t69.5 -42zM701 701h-21l-536 -700h21z" />
    <glyph glyph-name="ampersand" unicode="&#x26;" horiz-adv-x="704" 
d="M633 13h51v-13h-138l-58 62q-69 -69 -175 -69q-112 0 -188.5 47t-73.5 137q2 69 49.5 114t125.5 61q-58 67 -83.5 108t-31.5 82q-11 78 38 119.5t135 41.5q96 0 141 -43.5t38 -106.5q-14 -116 -168 -176l229 -250q23 38 39 90q18 56 19.5 89t-13 49.5t-47.5 20.5v11h157
v-11q-38 -10 -53.5 -36t-49.5 -126q-20 -56 -44 -95zM284 688q-69 0 -99.5 -54t8.5 -121q38 -63 99 -133q60 46 89 119t5 131t-102 58zM321 13q94 -4 159 58l-249 276q-31 -12 -55 -41t-37 -65t-10 -75.5t21.5 -72t62.5 -55t108 -25.5z" />
    <glyph glyph-name="quotesingle" unicode="'" horiz-adv-x="145" 
d="M72 704q14 0 23.5 -19.5t9.5 -52.5q0 -30 -7 -69t-14 -63l-7 -24h-10q-27 89 -27 156q0 34 9 53t23 19z" />
    <glyph glyph-name="parenleft" unicode="(" horiz-adv-x="435" 
d="M385 777q-52 -28 -96.5 -68t-83.5 -97.5t-61 -138t-22 -174.5t22 -174.5t61 -138t83.5 -97.5t96.5 -68v-10q-155 52 -245 182t-90 306t90 306t245 182v-10z" />
    <glyph glyph-name="parenright" unicode=")" horiz-adv-x="435" 
d="M50 787q155 -52 245 -182t90 -306t-90 -306t-245 -182v10q52 28 96.5 68t83.5 97.5t61 138t22 174.5t-22 174.5t-61 138t-83.5 97.5t-96.5 68v10z" />
    <glyph glyph-name="asterisk" unicode="*" horiz-adv-x="427" 
d="M367 609l-14 -5l-137 -21l99 -98l8 -11l-38 -29l-9 12l-62 124l-63 -124l-9 -12l-38 29l8 11l99 98l-137 21l-14 5l15 45l14 -4l123 -64l-22 137v15h47v-15l-22 -137l124 64l13 4z" />
    <glyph glyph-name="plus" unicode="+" horiz-adv-x="454" 
d="M404 341v-24h-165v-164h-24v164h-165v24h165v165h24v-165h165z" />
    <glyph glyph-name="comma" unicode="," horiz-adv-x="207" 
d="M103 99q22 0 38 -15.5t16 -37.5q0 -35 -27 -70t-52 -50l-3 5q15 12 30 33t20 34q-8 -5 -22 -5q-22 0 -37.5 15.5t-15.5 37.5t15.5 37.5t37.5 15.5z" />
    <glyph glyph-name="hyphen" unicode="-" horiz-adv-x="473" 
d="M60 341h353v-24h-353v24z" />
    <glyph glyph-name="period" unicode="." horiz-adv-x="207" 
d="M104 99q22 0 37.5 -15.5t15.5 -37.5t-15.5 -37.5t-37.5 -15.5t-38 15.5t-16 37.5t16 37.5t38 15.5z" />
    <glyph glyph-name="slash" unicode="/" horiz-adv-x="372" 
d="M298 700h24l-248 -778h-24z" />
    <glyph glyph-name="zero" unicode="0" horiz-adv-x="643" 
d="M321 703q121 0 196.5 -95t75.5 -260t-76 -260t-196 -95t-195.5 95t-75.5 260t75.5 260t195.5 95zM321 8q83 0 140.5 84.5t57.5 255.5t-57.5 255.5t-140.5 84.5q-82 0 -139.5 -84.5t-57.5 -255.5t57.5 -255.5t139.5 -84.5z" />
    <glyph glyph-name="one" unicode="1" horiz-adv-x="296" 
d="M182 13h64v-13h-196v13h65v567h-65v13l120 107h12v-687z" />
    <glyph glyph-name="two" unicode="2" horiz-adv-x="544" 
d="M483 112h11v-112h-444v13l98.5 105l83 88.5l61 68t51 62.5t32.5 52t26 56.5t13 56.5q13 83 -18.5 134.5t-100.5 51.5q-78 0 -121.5 -42.5t-73.5 -150.5h-10v158q141 50 196 50q115 0 168.5 -59.5t27.5 -165.5q-11 -45 -47 -97.5t-96 -111t-112.5 -104.5l-128.5 -108h384
v55z" />
    <glyph glyph-name="three" unicode="3" horiz-adv-x="559" 
d="M290 371q121 -6 171.5 -55.5t46.5 -129.5q-5 -97 -70.5 -145t-178.5 -48q-59 0 -209 47v162h11q37 -110 82.5 -152t121.5 -42q63 0 111 43.5t55 128.5q7 91 -47 133.5t-145 50.5v16q165 17 181 158q8 79 -34 114.5t-105 35.5q-66 0 -109 -36.5t-78 -140.5h-11v146
q140 46 193 46q105 0 161 -39.5t50 -118.5q-10 -149 -197 -170v-4z" />
    <glyph glyph-name="four" unicode="4" horiz-adv-x="577" 
d="M537 180h-90v-167h65v-13h-196v13h64v167h-350v13q115 72 167 211t13 283v13h84q25 -371 -251 -507h337v108l58 243h9v-351h90v-13z" />
    <glyph glyph-name="five" unicode="5" horiz-adv-x="554" 
d="M106 376q123 51 212 43t138 -62t47 -139q-2 -101 -64 -163t-170 -62q-67 0 -209 46v171h10q33 -110 78 -156t122 -46q71 0 113 52.5t44 144.5q3 74 -35.5 122.5t-113.5 60.5t-184 -25l24 337h323v55h11v-112h-326z" />
    <glyph glyph-name="six" unicode="6" horiz-adv-x="605" 
d="M348 450q103 -10 155 -70t52 -151q0 -111 -63 -173.5t-172 -62.5q-129 0 -199.5 86t-70.5 240q0 187 80 285.5t210 98.5q50 0 176 -45v-155h-10q-26 104 -65.5 144.5t-98.5 40.5q-192 0 -213 -295q33 26 98.5 44t120.5 13zM320 8q78 0 121.5 60.5t43.5 160.5
q0 75 -37 124t-92 64t-116.5 6t-111.5 -41q-2 -40 -2 -63q0 -144 53.5 -227.5t140.5 -83.5z" />
    <glyph glyph-name="seven" unicode="7" horiz-adv-x="533" 
d="M40 700h453v-13l-38 -62l-42 -69t-38.5 -69.5t-38.5 -79.5t-31.5 -84t-27 -97.5t-15.5 -105t-7 -120.5h-75q0 371 277 643h-406v-55h-11v112z" />
    <glyph glyph-name="eight" unicode="8" horiz-adv-x="612" 
d="M364 372q96 -10 148 -60t49 -129q-3 -93 -76 -141.5t-179 -48.5t-178.5 48t-76.5 142q-3 79 49 129t148 60v4q-74 12 -115.5 52.5t-41.5 108.5q0 75 61.5 120.5t153.5 45.5q93 0 154.5 -45.5t61.5 -120.5q0 -68 -42 -108.5t-116 -52.5v-4zM152 538q0 -80 46.5 -119
t107.5 -39t107.5 39t46.5 119q0 77 -44.5 113.5t-109.5 36.5t-109.5 -36.5t-44.5 -113.5zM306 8q75 0 130.5 47t55.5 132q0 84 -53 130.5t-133 46.5t-133 -46.5t-53 -130.5q0 -85 55.5 -132t130.5 -47z" />
    <glyph glyph-name="nine" unicode="9" horiz-adv-x="605" 
d="M293 703q128 0 195 -85.5t67 -239.5q0 -187 -80 -286t-210 -99q-48 0 -176 46v154h10q26 -104 65.5 -144.5t98.5 -40.5q192 0 213 295q-33 -25 -98.5 -43t-120.5 -13q-103 9 -155 69t-52 151q0 110 66.5 173t176.5 63zM120 467q0 -75 37 -124t92 -64t116.5 -6t111.5 41
q2 40 2 64q0 145 -50 227.5t-136 82.5q-79 0 -126 -61t-47 -160z" />
    <glyph glyph-name="colon" unicode=":" horiz-adv-x="226" 
d="M113 99q22 0 37.5 -15.5t15.5 -37.5t-15.5 -37.5t-37.5 -15.5t-37.5 15.5t-15.5 37.5t15.5 37.5t37.5 15.5zM113 421q-22 0 -37.5 15.5t-15.5 37.5t15.5 37.5t37.5 15.5t37.5 -15.5t15.5 -37.5t-15.5 -37.5t-37.5 -15.5z" />
    <glyph glyph-name="semicolon" unicode=";" horiz-adv-x="226" 
d="M113 421q-22 0 -37.5 15.5t-15.5 37.5t15.5 37.5t37.5 15.5t37.5 -15.5t15.5 -37.5t-15.5 -37.5t-37.5 -15.5zM113 99q22 0 37.5 -15.5t15.5 -37.5q0 -35 -27 -70t-52 -50l-3 5q15 12 30 33t20 34q-8 -5 -21 -5q-22 0 -37.5 15.5t-15.5 37.5t15.5 37.5t37.5 15.5z" />
    <glyph glyph-name="less" unicode="&#x3c;" horiz-adv-x="464" 
d="M404 485v-24l-326 -122l326 -121v-24l-354 132v27z" />
    <glyph glyph-name="equal" unicode="=" horiz-adv-x="473" 
d="M60 401h353v-23h-353v23zM60 257v24h353v-24h-353z" />
    <glyph glyph-name="greater" unicode="&#x3e;" horiz-adv-x="464" 
d="M60 485l354 -132v-27l-354 -132v24l327 121l-327 122v24z" />
    <glyph glyph-name="question" unicode="?" horiz-adv-x="512" 
d="M240 701q103 0 162.5 -44t59.5 -126q0 -95 -62 -151.5t-178 -69.5v-70h-14v83q78 8 122.5 64.5t44.5 135.5q0 84 -39.5 125t-107.5 41q-123 0 -169 -185h-9v160q120 37 190 37zM227 99q22 0 37.5 -15.5t15.5 -37.5t-15.5 -37.5t-37.5 -15.5t-37.5 15.5t-15.5 37.5
t15.5 37.5t37.5 15.5z" />
    <glyph glyph-name="at" unicode="@" horiz-adv-x="1100" 
d="M576 752q221 0 347.5 -121t126.5 -319q0 -146 -54.5 -232t-143.5 -86q-60 0 -95 35t-35 92q-12 -44 -68.5 -86t-138.5 -42q-45 0 -89 17.5t-81 50t-60 86t-23 119.5q0 129 77.5 201.5t175.5 72.5q82 0 138.5 -42t68.5 -86v116h130v-13h-57v-372q0 -60 21 -84t63 -22
q57 3 106 75t49 200q0 191 -123 307.5t-335 116.5q-246 0 -378 -128.5t-132 -350.5q0 -104 44 -203.5t124 -150.5q117 -75 295.5 -85.5t312.5 46.5l6 -15q-121 -46 -254 -47t-223.5 25t-145.5 63q-83 55 -129 157.5t-46 209.5q0 41 5 82t20 91.5t38.5 94.5t64.5 86.5
t94.5 73t131.5 49t172 18.5zM582 43q53 8 89.5 34.5t50.5 57.5v155v108q-14 31 -50.5 57.5t-89.5 34.5q-97 14 -165 -44.5t-68 -179.5t68 -179t165 -44z" />
    <glyph glyph-name="A" unicode="A" horiz-adv-x="746" 
d="M673 13h63v-13h-215v13h58l-86 205h-334l-35 -89q-18 -45 -3 -77t53 -39v-13h-164v13q26 8 54 39t47 79l227 569h36zM164 231h323l-166 393z" />
    <glyph glyph-name="B" unicode="B" horiz-adv-x="734" 
d="M433 369q116 5 183.5 -41t67.5 -139q0 -55 -21 -93t-61.5 -58.5t-90 -29t-115.5 -8.5h-328v13h65v674h-73v13h279q136 0 211.5 -39t75.5 -134q0 -72 -55 -113t-138 -42v-3zM215 679v-306h130q195 0 195 154q0 39 -12.5 67.5t-31 44.5t-46 25.5t-51.5 12t-54 2.5h-130z
M394 22q30 0 55 3t54 13t48.5 27.5t33 49t13.5 74.5q0 171 -212 171h-171v-338h179z" />
    <glyph glyph-name="C" unicode="C" horiz-adv-x="769" 
d="M708 152l11 -9q-37 -60 -114 -105t-190 -45q-151 0 -258 97.5t-107 257.5q0 111 53.5 193.5t136.5 122t181 39.5q110 0 278 -65v-197h-12q-29 131 -95.5 188.5t-148.5 57.5q-58 0 -112 -21t-99 -61t-70.5 -107t-22.5 -150q4 -97 51 -168t115.5 -105t149.5 -35
q160 -1 253 112z" />
    <glyph glyph-name="D" unicode="D" horiz-adv-x="811" 
d="M325 700q102 0 180 -18.5t136.5 -59t89 -109t30.5 -163.5t-30.5 -163.5t-89 -109t-136.5 -59t-180 -18.5h-265v13h65v674h-65v13h265zM353 22q313 0 313 328q0 329 -313 329h-147v-657h147z" />
    <glyph glyph-name="E" unicode="E" horiz-adv-x="656" 
d="M594 226h12v-226h-546v13h65v674h-65v13h529v-226h-12q-12 107 -54.5 156t-145.5 49h-171v-322h154q64 0 88 19t37 76h9v-203h-9q-13 57 -37 76t-88 19h-154v-322h188q103 0 145.5 49t54.5 155z" />
    <glyph glyph-name="F" unicode="F" horiz-adv-x="631" 
d="M60 700h521v-226h-12q-12 107 -54.5 156t-145.5 49h-163v-330h148q64 0 88.5 19t36.5 76h10v-203h-10q-12 57 -36.5 76t-88.5 19h-148v-323h108v-13h-254v13h65v674h-65v13z" />
    <glyph glyph-name="G" unicode="G" horiz-adv-x="779" 
d="M574 313h201v-14h-56v-299h-13v124q-96 -131 -291 -131q-151 0 -258 97.5t-107 257.5q0 111 53.5 193.5t136.5 122t181 39.5q112 0 278 -65v-197h-12q-28 131 -95 188.5t-149 57.5q-46 0 -90 -13t-84 -40.5t-69.5 -66.5t-46 -95.5t-13.5 -123.5q6 -145 98.5 -232
t217.5 -90q113 -4 183 50v223h-65v14z" />
    <glyph glyph-name="H" unicode="H" horiz-adv-x="815" 
d="M755 687h-65v-674h65v-13h-211v13h65v323h-403v-323h65v-13h-211v13h65v674h-65v13h211v-13h-65v-330h403v330h-65v13h211v-13z" />
    <glyph glyph-name="I" unicode="I" horiz-adv-x="331" 
d="M271 687h-64v-674h64v-13h-211v13h65v674h-65v13h211v-13z" />
    <glyph glyph-name="J" unicode="J" horiz-adv-x="579" 
d="M519 700v-13h-65v-426q0 -146 -48.5 -207t-174.5 -61q-64 0 -191 52v181h10q33 -121 76.5 -169.5t104.5 -48.5q74 0 107.5 42.5t33.5 144.5v492h-114v13h261z" />
    <glyph glyph-name="K" unicode="K" horiz-adv-x="775" 
d="M681 13h74v-13h-236v13h56l-239 361l-130 -133v-228h65v-13h-211v13h64v674h-64v13h211v-13h-65v-424l279 283q50 51 62.5 83.5t-4.5 45t-54 12.5v13h215v-13q-47 -11 -89.5 -43t-119.5 -109l-94 -96z" />
    <glyph glyph-name="L" unicode="L" horiz-adv-x="662" 
d="M610 226h12v-226h-562v13h65v674h-65v13h211v-13h-64v-665h204q103 0 145.5 49t53.5 155z" />
    <glyph glyph-name="M" unicode="M" horiz-adv-x="982" 
d="M922 687h-65v-674h65v-13h-211v13h65v641l-276 -654h-22l-309 662v-451q0 -44 3 -73t12.5 -57.5t29.5 -45t50 -22.5v-13h-204v13q30 6 50 22.5t29.5 45t12.5 57.5t3 73v476h-77v13h168l274 -607l256 607h146v-13z" />
    <glyph glyph-name="N" unicode="N" horiz-adv-x="858" 
d="M592 700h216v-13q-58 -11 -77.5 -57t-19.5 -133v-497h-44l-491 612v-409q0 -84 23 -131.5t82 -58.5v-13h-216v13q59 11 78.5 57t19.5 133v426l-47 58h-66v13h174l474 -589v386q0 84 -23.5 131.5t-82.5 58.5v13z" />
    <glyph glyph-name="O" unicode="O" horiz-adv-x="839" 
d="M419 703q170 0 270 -96.5t100 -258.5t-100 -258.5t-270 -96.5q-169 0 -269 96.5t-100 258.5t100 258.5t269 96.5zM419 5q117 0 197.5 86.5t80.5 256.5q0 171 -80.5 257.5t-197.5 86.5t-197 -86.5t-80 -257.5q0 -170 80 -256.5t197 -86.5z" />
    <glyph glyph-name="P" unicode="P" horiz-adv-x="668" 
d="M362 700q256 -6 256 -222q0 -105 -67 -162.5t-188 -59.5h-157v-243h98v-13h-244v13h64v674h-64v13h302zM312 269q108 0 159.5 51t51.5 158q0 103 -52.5 152t-158.5 49h-106v-410h106z" />
    <glyph glyph-name="Q" unicode="Q" horiz-adv-x="838" 
d="M788 348q0 -162 -103 -256t-275 -102l277 -141v-11l-95 -63l-240 203v6q7 2 37 7t51 9.5t55.5 17t59.5 28t53.5 43t46.5 62t30 85.5t12 112q0 171 -80.5 257.5t-197.5 86.5t-197.5 -86.5t-80.5 -257.5q0 -79 22.5 -139.5t61.5 -97t85.5 -56.5t99.5 -24v-10
q-156 0 -258 87t-102 240q0 162 100 258.5t269 96.5t269 -96.5t100 -258.5z" />
    <glyph glyph-name="R" unicode="R" horiz-adv-x="739" 
d="M618 181v-87q0 -75 50 -75q49 0 49 87h12q0 -23 -2.5 -39t-11 -35t-28.5 -29t-50 -10q-54 0 -81.5 25t-27.5 88v103q0 71 -35 96t-132 25h-155v-317h65v-13h-211v13h65v674h-65v13h287q132 0 201.5 -43t69.5 -146q0 -76 -52.5 -122.5t-151.5 -46.5v-4q118 0 161 -33
t43 -124zM337 343q91 0 141 38.5t50 132.5q0 93 -51.5 129t-139.5 36h-131v-336h131z" />
    <glyph glyph-name="S" unicode="S" horiz-adv-x="578" 
d="M152 587q-4 -33 4.5 -60t22.5 -45.5t45.5 -39t54 -31.5l66.5 -31q69 -32 107.5 -58t59.5 -66t14 -94q-11 -84 -78.5 -126.5t-164.5 -42.5q-83 0 -233 48v161h9q36 -112 86 -153t131 -41q134 0 160 79q27 78 -13 130.5t-142 97.5q-51 22 -85 41t-65.5 46.5t-45 63
t-8.5 79.5t26 76.5t52.5 49.5t65.5 24.5t71 7.5q67 0 206 -50v-144h-9q-36 103 -80 141t-118 38q-126 0 -139 -101z" />
    <glyph glyph-name="T" unicode="T" horiz-adv-x="725" 
d="M50 700h625v-218h-12q-9 90 -19 118q-28 79 -126 79h-115v-666h65v-13h-211v13h65v666h-115q-37 0 -63.5 -11t-40.5 -27.5t-22.5 -42.5t-11.5 -48t-6 -53q-1 -10 -1 -15h-12v218z" />
    <glyph glyph-name="U" unicode="U" horiz-adv-x="774" 
d="M578 700h146v-13q-36 -10 -51 -45t-15 -112v-248q0 -141 -70 -215t-198 -74q-124 0 -194.5 74.5t-70.5 214.5v405h-65v13h211v-13h-65v-405q0 -249 223 -249q92 0 153.5 66t61.5 183v248q0 78 -14 112.5t-52 44.5v13z" />
    <glyph glyph-name="V" unicode="V" horiz-adv-x="766" 
d="M582 700h164v-13q-26 -8 -54 -39t-47 -77l-227 -571h-36l-299 687h-63v13h215v-13h-59l259 -610l197 494q17 46 2.5 77.5t-52.5 38.5v13z" />
    <glyph glyph-name="W" unicode="W" horiz-adv-x="1098" 
d="M868 700h210v-13q-43 -13 -64 -38.5t-48 -103.5l-186 -545h-23l-214 570l-180 -570h-23l-259 687h-61v13h207v-13h-59l213 -579l188 592h14l218 -598l150 438q24 80 4.5 111.5t-87.5 35.5v13z" />
    <glyph glyph-name="X" unicode="X" horiz-adv-x="805" 
d="M700 13h65v-13h-235v13h63l-219 311l-132 -174q-34 -44 -41.5 -71.5t9.5 -43t59 -22.5v-13h-219v13q49 15 88.5 43t90.5 95l138 182l-250 354h-57v13h227v-13h-63l201 -285l115 151q50 66 43.5 97.5t-71.5 36.5v13h215v-13q-49 -15 -86.5 -42t-88.5 -93l-121 -159z" />
    <glyph glyph-name="Y" unicode="Y" horiz-adv-x="696" 
d="M472 700h204v-13q-42 -15 -63 -35t-63 -93l-151 -263v-283h65v-13h-211v13h65v260l-234 414h-64v13h227v-13h-65l207 -381l147 252q30 48 26 76t-25 39t-65 14v13z" />
    <glyph glyph-name="Z" unicode="Z" horiz-adv-x="668" 
d="M618 700v-13l-463 -665h262q95 0 128 43t47 153h13v-218h-555v13l455 666h-254q-50 0 -81.5 -11t-50 -38t-27.5 -59.5t-16 -88.5h-13v218h555z" />
    <glyph glyph-name="bracketleft" unicode="[" horiz-adv-x="261" 
d="M201 687h-117v-752h117v-13h-141v778h141v-13z" />
    <glyph glyph-name="backslash" unicode="\" horiz-adv-x="371" 
d="M74 700l247 -778h-24l-247 778h24z" />
    <glyph glyph-name="bracketright" unicode="]" horiz-adv-x="261" 
d="M60 700h141v-778h-141v13h117v752h-117v13z" />
    <glyph glyph-name="asciicircum" unicode="^" horiz-adv-x="405" 
d="M206 701l149 -190l-6 -7l-146 120l-147 -120l-6 7l150 190h6z" />
    <glyph glyph-name="underscore" unicode="_" horiz-adv-x="474" 
d="M60 0h354v-24h-354v24z" />
    <glyph glyph-name="grave" unicode="`" horiz-adv-x="292" 
d="M133 677q21 -21 46 -53t39 -54l14 -22l-7 -7q-82 51 -129 98q-48 47 -29 66q19 20 66 -28z" />
    <glyph glyph-name="a" unicode="a" horiz-adv-x="628" 
d="M597 59l11 -6q-31 -60 -92 -60q-45 0 -75 26.5t-29 82.5q-53 -109 -181 -109q-79 0 -135 37.5t-56 113.5q0 36 12 64.5t28.5 46.5t46 31t53 19t62 8.5t60 3t60 -0.5t50.5 -1v88q0 124 -118 124q-116 0 -190 -164h-8v133q134 44 200 44q99 0 144 -35.5t45 -125.5v-295
q0 -64 54 -64q36 0 58 39zM412 116v187q-50 5 -101.5 2.5t-93.5 -11.5t-69 -43t-27 -91q0 -62 34.5 -99t81.5 -40.5t97 21.5t78 74z" />
    <glyph glyph-name="b" unicode="b" horiz-adv-x="665" 
d="M374 540q116 2 186.5 -77.5t63.5 -207.5q-6 -128 -83 -195t-192 -67q-97 0 -176 45l-59 -38h-8v687h-56v13h129v-290q17 50 66.5 89t128.5 41zM540 247q8 125 -52 195t-171 52q-50 -8 -87.5 -37.5t-50.5 -65.5v-344q55 -33 137 -33q53 0 100 22.5t82.5 77t41.5 133.5z
" />
    <glyph glyph-name="c" unicode="c" horiz-adv-x="610" 
d="M551 117l9 -8q-27 -46 -88 -81t-145 -35q-119 0 -203 75t-84 198q0 88 41.5 151.5t106 93t143.5 29.5q83 0 214 -51v-158h-11q-27 103 -76.5 149.5t-109.5 46.5q-94 0 -160 -68t-61 -193q5 -110 78 -169t172 -59q61 0 105.5 24.5t68.5 54.5z" />
    <glyph glyph-name="d" unicode="d" horiz-adv-x="679" 
d="M573 13h56v-13h-129v121q-12 -44 -68.5 -86t-138.5 -42q-98 0 -175.5 72t-77.5 201t77.5 201.5t175.5 72.5q82 0 138.5 -42t68.5 -86v275h-57v13h130v-687zM500 135v263q-14 31 -50.5 57.5t-89.5 34.5q-97 14 -165 -44.5t-68 -179.5t68 -179t165 -44q53 8 89.5 34.5
t50.5 57.5z" />
    <glyph glyph-name="e" unicode="e" horiz-adv-x="625" 
d="M574 266h-446q3 -74 40.5 -127t91.5 -77t117 -24q61 0 105.5 24.5t68.5 54.5l10 -8q-27 -46 -88.5 -81t-145.5 -35q-119 0 -203 75t-84 198q0 135 80 204.5t200 69.5q122 0 191.5 -69t62.5 -205zM127 288h370q7 108 -41.5 173.5t-135.5 65.5q-86 0 -140 -67.5t-53 -171.5
z" />
    <glyph glyph-name="f" unicode="f" horiz-adv-x="417" 
d="M270 716q-38 -2 -64.5 -35.5t-26.5 -108.5v-45h208v-13h-208v-501h98v-13h-227v13h56v501h-56v13h56q1 108 38.5 155t123.5 47q54 0 119 -24v-115h-9q-29 79 -52.5 103.5t-55.5 22.5z" />
    <glyph glyph-name="g" unicode="g" horiz-adv-x="611" 
d="M581 601v-85h-172q97 -44 97 -142q0 -76 -60.5 -121t-156.5 -45q-89 0 -148 39q-19 -22 -25 -48q-13 -58 41 -79.5t191 -21.5q114 0 162.5 -30t41.5 -94q-7 -73 -80.5 -121t-188.5 -48q-127 0 -195 26.5t-68 77.5q0 26 15.5 49.5t41.5 39.5t49 26t47 17q-115 23 -108 105
q5 58 69 106q-61 45 -61 122q0 76 60 121t156 45q60 0 105 -18l180 79h7zM485 -83q15 57 -27 86t-162 29q-67 0 -108 7q-41 -15 -72.5 -50.5t-31.5 -74.5q0 -45 60.5 -67.5t144.5 -22.5q82 0 133 24t63 69zM289 223q67 0 102 41.5t35 109.5t-35 109t-102 41t-101.5 -41
t-34.5 -109t34.5 -109.5t101.5 -41.5z" />
    <glyph glyph-name="h" unicode="h" horiz-adv-x="691" 
d="M585 13h56v-13h-186v13h56v338q0 167 -169 142q-61 -9 -111.5 -56.5t-50.5 -87.5v-336h56v-13h-186v13h56v674h-56v13h130v-315q29 59 91.5 107t131.5 48q102 0 142 -51t40 -139v-337z" />
    <glyph glyph-name="i" unicode="i" 
d="M180 13h56v-13h-186v13h57v501h-57v13h130v-514zM143 595q-21 0 -35.5 15t-14.5 36t14.5 36t35.5 15t36 -15t15 -36t-15 -36t-36 -15z" />
    <glyph glyph-name="j" unicode="j" 
d="M30 527h152v-379q0 -184 -39.5 -256t-153.5 -72v15q119 0 119 206v473h-78v13zM145 595q-21 0 -36 15t-15 36t15 36t36 15t36 -15t15 -36t-15 -36t-36 -15z" />
    <glyph glyph-name="k" unicode="k" horiz-adv-x="618" 
d="M535 13h63v-13h-203v13h50l-169 248l-97 -110v-138h57v-13h-186v13h56v674h-56v13h129v-533l204 233q32 37 41 62.5t-4 38t-44 13.5v13h172v-13q-42 -11 -68 -30.5t-76 -75.5l-75 -86z" />
    <glyph glyph-name="l" unicode="l" 
d="M180 13h56v-13h-186v13h56v674h-56v13h130v-687z" />
    <glyph glyph-name="m" unicode="m" horiz-adv-x="1063" 
d="M956 13h57v-13h-186v13h56v338q0 166 -161 142q-61 -9 -107.5 -56t-46.5 -88v-336h56v-13h-186v13h57v338q0 166 -161 142q-61 -9 -107.5 -56t-46.5 -88v-336h56v-13h-186v13h56v501h-56v13h130v-142q30 60 87.5 107.5t126.5 47.5q92 0 130 -41.5t44 -113.5
q30 60 88 107.5t126 47.5q53 0 89 -14.5t54 -42.5t24.5 -59t6.5 -74v-337z" />
    <glyph glyph-name="n" unicode="n" horiz-adv-x="691" 
d="M585 13h56v-13h-186v13h56v338q0 167 -169 142q-61 -9 -111.5 -56.5t-50.5 -87.5v-336h56v-13h-186v13h56v501h-56v13h130v-142q29 59 91.5 107t131.5 48q102 0 142 -51t40 -139v-337z" />
    <glyph glyph-name="o" unicode="o" horiz-adv-x="686" 
d="M339 540q55 0 106.5 -16.5t95 -48.5t69.5 -86.5t26 -122.5t-26 -122t-69.5 -86t-95 -48.5t-106.5 -16.5t-106.5 16.5t-95.5 48.5t-70.5 86t-26.5 122t26.5 122.5t70.5 86.5t95.5 48.5t106.5 16.5zM339 5q95 0 153.5 72.5t58.5 188.5q0 117 -58 189t-154 72t-155 -72.5
t-59 -188.5t59 -188.5t155 -72.5z" />
    <glyph glyph-name="p" unicode="p" horiz-adv-x="689" 
d="M386 540q98 0 175.5 -72.5t77.5 -201.5t-77.5 -201t-175.5 -72q-82 0 -138.5 42t-68.5 86v-275h80v-13h-209v13h56v667h-56v14h129v-115q12 44 68.5 86t138.5 42zM319 43q97 -14 165 44t68 179t-68 179.5t-165 44.5q-53 -8 -89.5 -34.5t-50.5 -57.5v-263
q14 -31 50.5 -57.5t89.5 -34.5z" />
    <glyph glyph-name="q" unicode="q" horiz-adv-x="666" 
d="M560 -154h56v-13h-211v13h81v277q-16 -50 -65.5 -89.5t-128.5 -40.5q-116 -2 -187 77.5t-64 206.5q7 128 84 195.5t191 67.5q96 0 177 -45l58 32h9v-681zM349 39q51 8 88 38t49 65v344q-57 33 -137 33q-84 0 -149.5 -59t-73.5 -174q-9 -122 51.5 -193.5t171.5 -53.5z" />
    <glyph glyph-name="r" unicode="r" horiz-adv-x="505" 
d="M354 540q37 0 67 -17.5t44 -37.5l-56 -81h-7q-12 47 -46 71.5t-82 7.5q-33 -11 -63.5 -61.5t-30.5 -89.5v-319h90v-13h-220v13h57v501h-57v13h130v-155q57 168 174 168z" />
    <glyph glyph-name="s" unicode="s" horiz-adv-x="487" 
d="M134 448q-4 -28 1.5 -48.5t27.5 -38.5t46.5 -30.5t72.5 -32.5q28 -12 49 -23t42.5 -25.5t34 -30t21 -34.5t8 -42t-9.5 -50q-19 -53 -70 -76.5t-113 -23.5q-60 0 -204 39v149h7q26 -58 52.5 -96t52 -54t42 -21.5t39.5 -6.5q104 -6 125 66q5 19 6 35t-3.5 30t-11 25.5
t-18.5 22t-23.5 18.5t-28.5 16.5t-31 14l-33 13.5q-93 37 -125 79.5t-23 106.5q6 43 40 69.5t67.5 33.5t70.5 7q14 0 30 -2t36 -6.5t33 -8l39.5 -11l37.5 -10.5v-134h-7q-42 96 -81 128.5t-93 32.5q-35 0 -67.5 -20t-38.5 -61z" />
    <glyph glyph-name="t" unicode="t" horiz-adv-x="384" 
d="M344 82l10 -7q-45 -82 -123 -82q-71 0 -102.5 42t-31.5 129v350h-57v13h57l65 160h8v-160h155v-13h-155v-364q0 -115 83 -115q55 0 91 47z" />
    <glyph glyph-name="u" unicode="u" horiz-adv-x="671" 
d="M564 13h57v-13h-130v147q-27 -60 -84.5 -107t-129.5 -47q-191 0 -191 190v331h-56v13h130v-345q0 -83 46.5 -118.5t130.5 -23.5q62 8 108 55.5t46 88.5v330h-56v13h129v-514z" />
    <glyph glyph-name="v" unicode="v" horiz-adv-x="635" 
d="M440 527h175v-13q-32 -12 -51 -30.5t-40 -64.5l-177 -419h-32l-233 514h-62v13h217v-13h-68l194 -444l126 299q33 82 21.5 112t-70.5 33v13z" />
    <glyph glyph-name="w" unicode="w" horiz-adv-x="938" 
d="M743 527h175v-13q-40 -15 -58.5 -41.5t-51.5 -112.5l-141 -360h-23l-177 422l-145 -422h-23l-217 514h-62v13h215v-13h-68l172 -427l151 440h21l175 -444l109 278q32 81 20.5 115t-72.5 38v13z" />
    <glyph glyph-name="x" unicode="x" horiz-adv-x="610" 
d="M524 13h56v-13h-202v13h58l-160 223l-109 -140q-31 -41 -24 -60t50 -23v-13h-170v13q29 9 44.5 15t41 25t48.5 48l113 144l-193 269h-57v13h203v-13h-58l153 -214l99 127q33 44 24.5 64.5t-51.5 22.5v13h170v-13q-27 -8 -42.5 -14.5t-39.5 -25t-48 -48.5l-106 -135z" />
    <glyph glyph-name="y" unicode="y" horiz-adv-x="638" 
d="M430 527h178v-13q-37 -11 -59.5 -36.5t-44.5 -83.5l-150 -387l-112 -232l-78 58v13l162 128l-244 540h-62v13h215v-13h-66l194 -455l117 302q32 81 21 115.5t-71 37.5v13z" />
    <glyph glyph-name="z" unicode="z" horiz-adv-x="546" 
d="M496 527v-13l-362 -493h202q77 0 107.5 38t39.5 121h11v-180h-454v13l357 492h-188q-77 0 -107.5 -38t-39.5 -120h-11v180h445z" />
    <glyph glyph-name="braceleft" unicode="{" horiz-adv-x="318" 
d="M258 703q-105 -4 -106 -92q-1 -33 7.5 -81.5t9.5 -69.5q3 -62 -22 -90.5t-105 -30.5q80 -2 105 -30.5t22 -91.5q-1 -20 -9.5 -68.5t-7.5 -81.5q1 -88 106 -93v-6q-34 0 -55.5 2.5t-42.5 11.5t-31.5 25.5t-17 44t-5.5 67.5t8 96q8 63 -9.5 88t-64.5 30v12q47 5 64.5 30
t9.5 88q-7 56 -8 96t5.5 67.5t17 44t31.5 25.5t42.5 11.5t55.5 2.5v-7z" />
    <glyph glyph-name="bar" unicode="|" horiz-adv-x="143" 
d="M60 700h23v-778h-23v778z" />
    <glyph glyph-name="braceright" unicode="}" horiz-adv-x="318" 
d="M205 463q-9 -63 9 -88t64 -30v-12q-46 -5 -64 -30.5t-9 -87.5q7 -56 8 -96t-6 -67.5t-17.5 -44t-31 -25.5t-42.5 -11.5t-56 -2.5v6q106 5 107 93q1 33 -7.5 81.5t-9.5 68.5q-3 63 21.5 91.5t104.5 30.5q-80 2 -104.5 30.5t-21.5 90.5q1 21 9.5 69.5t7.5 81.5
q-1 88 -107 92v7q34 0 56 -2.5t42.5 -11.5t31 -25.5t17.5 -44t6 -67.5t-8 -96z" />
    <glyph glyph-name="asciitilde" unicode="~" horiz-adv-x="490" 
d="M421 396h9q-2 -67 -31 -97.5t-77 -23.5q-21 3 -43 13.5t-49.5 28.5t-42.5 26q-49 24 -80 8t-39 -57h-8q2 45 13 75t28.5 43t35 16.5t37.5 0.5q31 -5 84 -41.5t71 -42.5q77 -25 92 51z" />
    <glyph glyph-name="exclamdown" unicode="&#xa1;" horiz-adv-x="227" 
d="M110 82h7q5 -20 11.5 -54.5t17 -125.5t8.5 -163q-3 -120 -41 -120q-39 0 -40 120q-2 72 7.5 158t19.5 135zM113 223q-22 0 -37.5 15.5t-15.5 37.5t15.5 37.5t37.5 15.5q23 0 38.5 -15.5t15.5 -37.5t-16 -37.5t-38 -15.5z" />
    <glyph glyph-name="cent" unicode="&#xa2;" horiz-adv-x="611" 
d="M561 109q-25 -43 -82.5 -77.5t-135.5 -37.5v-76h-21v75q-117 2 -199.5 77t-82.5 196q0 128 81.5 199.5t200.5 73.5v79h21v-79q81 -2 203 -50v-158h-11q-27 103 -76.5 149.5t-109.5 46.5h-6v-487q12 -2 35 -2q108 0 174 79zM128 266q4 -93 58.5 -150.5t135.5 -72.5v482
q-86 -10 -142 -76.5t-52 -182.5z" />
    <glyph glyph-name="sterling" unicode="&#xa3;" horiz-adv-x="614" 
d="M553 112h11v-112h-444v13l143 44q-109 126 -152 274h-101v22h95q-15 65 -15 116q0 114 69 174t184 60q32 0 69.5 -8.5t58 -16t67.5 -26.5v-157h-12q-33 103 -75.5 148t-109.5 45q-161 0 -168 -202q-3 -81 2 -133h259v-22h-257q15 -121 97 -274h279v55z" />
    <glyph glyph-name="currency" unicode="&#xa4;" horiz-adv-x="610" 
d="M519 264q0 -86 -54 -145l95 -95l-15 -16l-96 96q-60 -50 -144 -50q-86 0 -144 50l-96 -96l-15 16l95 95q-54 59 -54 145q0 85 54 144l-95 95l15 16l96 -96q58 50 144 50t144 -50l96 96l15 -16l-95 -95q54 -59 54 -144zM305 68q53 0 89.5 51t36.5 145q0 93 -36.5 144
t-89.5 51t-89.5 -51t-36.5 -144q0 -94 36.5 -145t89.5 -51z" />
    <glyph glyph-name="yen" unicode="&#xa5;" horiz-adv-x="695" 
d="M472 700h203v-13q-41 -15 -62 -34.5t-63 -92.5l-150 -262h161v-22h-162v-52h162v-22h-162v-189h65v-13h-211v13h64v189h-180v22h180v52h-180v22h167l-220 389h-64v13h227v-13h-66l208 -381l146 252q21 36 26 60.5t-6 39t-31 21t-52 8.5v13z" />
    <glyph glyph-name="brokenbar" unicode="&#xa6;" horiz-adv-x="143" 
d="M60 700h23v-284h-23v284zM60 -77v283h23v-283h-23z" />
    <glyph glyph-name="section" unicode="&#xa7;" horiz-adv-x="540" 
d="M489 292q-1 -69 -45.5 -107t-127.5 -43q56 -33 86.5 -67.5t30.5 -83.5q0 -76 -49.5 -111.5t-134.5 -35.5q-54 0 -175 42v120h8q30 -86 66.5 -117.5t98.5 -31.5q50 0 84.5 22t38.5 69q4 43 -27.5 78t-79.5 60l-96.5 50.5t-82.5 63.5t-33 85q1 69 45.5 107t127.5 43
q-56 33 -86.5 67.5t-30.5 83.5q0 76 49.5 111.5t134.5 35.5q56 0 175 -42v-120h-8q-30 86 -66.5 117.5t-98.5 31.5q-50 0 -84.5 -22t-38.5 -69q-4 -43 27.5 -78t79.5 -60l96.5 -50.5t82.5 -63.5t33 -85zM412 220q5 16 6 30.5t-0.5 26.5t-9 24.5l-13 21t-19 20l-21 17.5
t-26 16.5l-27 15.5t-29 16l-28.5 15q-98 -3 -117 -66q-5 -16 -6 -30.5t0.5 -26.5t9 -24.5l13 -21t19 -20l21 -17.5t26 -16.5l27 -15.5t29 -16l28.5 -15q98 3 117 66z" />
    <glyph glyph-name="dieresis" unicode="&#xa8;" horiz-adv-x="353" 
d="M105 688q19 0 32.5 -13t13.5 -32t-13.5 -32t-32.5 -13t-32 13t-13 32t13 32t32 13zM247 688q19 0 32.5 -13t13.5 -32t-13.5 -32t-32.5 -13t-32 13t-13 32t13 32t32 13z" />
    <glyph glyph-name="copyright" unicode="&#xa9;" horiz-adv-x="890" 
d="M445 -87q-163 0 -279 115.5t-116 279.5q0 163 116 278.5t279 115.5t279 -115.5t116 -278.5q0 -164 -116 -279.5t-279 -115.5zM445 686q-157 0 -267.5 -111t-110.5 -267q0 -157 110.5 -268t267.5 -111t267.5 111t110.5 268q0 156 -110.5 267t-267.5 111zM620 194l6 -6
q-23 -36 -68.5 -62.5t-112.5 -26.5q-91 0 -154.5 58t-63.5 154q0 99 65 155.5t156 56.5q65 0 166 -39v-118h-7q-17 79 -57 113t-88 34q-74 0 -129.5 -53t-52.5 -149q4 -86 59 -134.5t130 -49.5q97 -1 151 67z" />
    <glyph glyph-name="guillemotleft" unicode="&#xab;" horiz-adv-x="447" 
d="M230 470l-103 -146l103 -147l-6 -6l-174 150v6l174 149zM387 470l-103 -146l103 -147l-7 -6l-173 150v6l173 149z" />
    <glyph glyph-name="registered" unicode="&#xae;" horiz-adv-x="890" 
d="M445 -87q-163 0 -279 115.5t-116 279.5q0 163 116 278.5t279 115.5t279 -115.5t116 -278.5t-116 -279t-279 -116zM445 686q-157 0 -267.5 -111t-110.5 -267q0 -157 110.5 -268t267.5 -111q156 0 267 111t111 268q0 156 -111 267t-267 111zM583 210v-51q0 -44 30 -44
q28 0 28 51h7q0 -18 -2.5 -30t-15 -24t-36.5 -12q-31 0 -47.5 15t-16.5 51v60q0 42 -20 56.5t-78 14.5h-90v-185h38v-8h-123v8h38v394h-38v8h167q78 0 118.5 -25t40.5 -86q0 -45 -30.5 -72t-88.5 -27v-2q68 0 93.5 -19.5t25.5 -72.5zM418 305q112 0 112 100q0 96 -112 96
h-76v-196h76z" />
    <glyph glyph-name="macron" unicode="&#xaf;" horiz-adv-x="441" 
d="M60 632h321v-19h-321v19z" />
    <glyph glyph-name="degree" unicode="&#xb0;" horiz-adv-x="333" 
d="M166 442q-48 0 -82 34t-34 82q0 49 34 83t82 34t82.5 -34t34.5 -83q0 -48 -34.5 -82t-82.5 -34zM166 658q-41 0 -70 -29.5t-29 -70.5t29 -70t70 -29t70.5 29t29.5 70t-29.5 70.5t-70.5 29.5z" />
    <glyph glyph-name="plusminus" unicode="&#xb1;" horiz-adv-x="453" 
d="M239 457h164v-24h-164v-165h-24v165h-165v24h165v165h24v-165zM50 175v24h353v-24h-353z" />
    <glyph glyph-name="acute" unicode="&#xb4;" horiz-adv-x="292" 
d="M225 705q10 -13 3.5 -26.5t-31.5 -39.5q-21 -21 -53.5 -45.5t-54.5 -38.5l-22 -14l-7 7q52 82 99 129q25 25 39 32t27 -4z" />
    <glyph glyph-name="paragraph" unicode="&#xb6;" horiz-adv-x="416" 
d="M174 701h182v-700h-24v687h-134v-687h-24v445q-54 0 -94 37.5t-40 89.5q0 53 40 90.5t94 37.5z" />
    <glyph glyph-name="cedilla" unicode="&#xb8;" horiz-adv-x="370" 
d="M148 -40q79 13 126.5 -19.5t30.5 -99.5q-16 -63 -83 -88.5t-162 7.5l2 9q70 -11 120.5 13.5t63.5 80.5q10 45 -25 70.5t-89 14.5l15 53h12z" />
    <glyph glyph-name="guillemotright" unicode="&#xbb;" horiz-adv-x="447" 
d="M223 476l174 -149v-6l-174 -150l-6 6l103 147l-103 146zM240 327v-6l-174 -150l-6 6l103 147l-103 146l6 6z" />
    <glyph glyph-name="questiondown" unicode="&#xbf;" horiz-adv-x="513" 
d="M454 -182h9v-160q-126 -37 -190 -37q-104 0 -163.5 44t-59.5 127q0 95 62.5 151.5t178.5 68.5v70h13v-82q-78 -8 -122.5 -64.5t-44.5 -135.5q0 -85 39.5 -126t107.5 -41q122 0 170 185zM285 223q-22 0 -37.5 15.5t-15.5 37.5t15.5 37.5t37.5 15.5t37.5 -15.5t15.5 -37.5
t-15.5 -37.5t-37.5 -15.5z" />
    <glyph glyph-name="Agrave" unicode="&#xc0;" horiz-adv-x="746" 
d="M673 13h63v-13h-215v13h58l-86 205h-334l-35 -89q-18 -45 -3 -77t53 -39v-13h-164v13q26 8 54 39t47 79l227 569h36zM164 231h323l-166 393zM334 877q21 -21 46 -53t39 -54l14 -22l-7 -7q-82 51 -129 98q-25 25 -32 39t3 27q19 20 66 -28z" />
    <glyph glyph-name="Aacute" unicode="&#xc1;" horiz-adv-x="746" 
d="M673 13h63v-13h-215v13h58l-86 205h-334l-35 -89q-18 -45 -3 -77t53 -39v-13h-164v13q26 8 54 39t47 79l227 569h36zM164 231h323l-166 393zM458 905q10 -13 3.5 -26.5t-31.5 -39.5q-21 -21 -53.5 -45.5t-54.5 -38.5l-22 -14l-7 7q52 82 99 129q25 25 39 32t27 -4z" />
    <glyph glyph-name="Acircumflex" unicode="&#xc2;" horiz-adv-x="746" 
d="M673 13h63v-13h-215v13h58l-86 205h-334l-35 -89q-18 -45 -3 -77t53 -39v-13h-164v13q26 8 54 39t47 79l227 569h36zM164 231h323l-166 393zM374 920l156 -147l-7 -7l-167 94l-167 -94l-7 7l156 147h36z" />
    <glyph glyph-name="Atilde" unicode="&#xc3;" horiz-adv-x="746" 
d="M673 13h63v-13h-215v13h58l-86 205h-334l-35 -89q-18 -45 -3 -77t53 -39v-13h-164v13q26 8 54 39t47 79l227 569h36zM164 231h323l-166 393zM417 780q-17 2 -34.5 10.5t-39.5 22.5t-33 20q-40 18 -64 6t-31 -44h-6q3 65 29 87t61 16q25 -3 67.5 -31.5t55.5 -32.5
q61 -19 73 39h7q-1 -51 -24 -74.5t-61 -18.5z" />
    <glyph glyph-name="Adieresis" unicode="&#xc4;" horiz-adv-x="746" 
d="M673 13h63v-13h-215v13h58l-86 205h-334l-35 -89q-18 -45 -3 -77t53 -39v-13h-164v13q26 8 54 39t47 79l227 569h36zM164 231h323l-166 393zM284 888q19 0 32.5 -13t13.5 -32t-13.5 -32t-32.5 -13t-32 13t-13 32t13 32t32 13zM426 888q19 0 32.5 -13t13.5 -32t-13.5 -32
t-32.5 -13t-32 13t-13 32t13 32t32 13z" />
    <glyph glyph-name="Aring" unicode="&#xc5;" horiz-adv-x="746" 
d="M673 13h63v-13h-215v13h58l-86 205h-334l-35 -89q-18 -45 -3 -77t53 -39v-13h-164v13q26 8 54 39t47 79l227 569h36zM164 231h323l-166 393zM355 749q-38 0 -65.5 27.5t-27.5 66.5t27.5 66.5t65.5 27.5q39 0 66.5 -27.5t27.5 -66.5t-27.5 -66.5t-66.5 -27.5zM355 920
q-31 0 -54 -23t-23 -54q0 -32 22.5 -54.5t54.5 -22.5t54.5 22.5t22.5 54.5t-22.5 54.5t-54.5 22.5z" />
    <glyph glyph-name="AE" unicode="&#xc6;" horiz-adv-x="1031" 
d="M968 226h13v-226h-546v13h65v238h-267l-59 -94l-16 -27q-25 -43 -22.5 -77t37.5 -40v-13h-163v13q26 8 65 41.5t68 75.5l20 30l328 527h-56v13h529v-226h-12q-12 107 -54.5 156t-145.5 49h-171v-322h153q64 0 88.5 19t36.5 77h10v-204h-10q-12 57 -36.5 76t-88.5 19h-153
v-322h188q103 0 145.5 49t53.5 155zM500 264v415l-259 -415h259z" />
    <glyph glyph-name="Ccedilla" unicode="&#xc7;" horiz-adv-x="769" 
d="M719 143q-37 -59 -111 -103t-183 -47l-9 -33q79 13 126.5 -19.5t30.5 -99.5q-17 -62 -83.5 -87.5t-161.5 6.5l2 9q70 -11 120.5 13.5t62.5 80.5q11 45 -24 70.5t-89 14.5l12 45q-150 1 -256 98.5t-106 256.5q0 111 53.5 193.5t136.5 122t181 39.5q110 0 278 -65v-197h-12
q-29 131 -95.5 188.5t-148.5 57.5q-58 0 -112 -21t-99 -61t-70.5 -107t-22.5 -150q4 -97 51 -168t115.5 -105t149.5 -35q160 -1 253 112z" />
    <glyph glyph-name="Egrave" unicode="&#xc8;" horiz-adv-x="656" 
d="M594 226h12v-226h-546v13h65v674h-65v13h529v-226h-12q-12 107 -54.5 156t-145.5 49h-171v-322h154q64 0 88 19t37 76h9v-203h-9q-13 57 -37 76t-88 19h-154v-322h188q103 0 145.5 49t54.5 155zM304 877q21 -21 46 -53t39 -54l14 -22l-7 -7q-82 51 -129 98q-25 25 -32 39
t3 27q19 20 66 -28z" />
    <glyph glyph-name="Eacute" unicode="&#xc9;" horiz-adv-x="656" 
d="M594 226h12v-226h-546v13h65v674h-65v13h529v-226h-12q-12 107 -54.5 156t-145.5 49h-171v-322h154q64 0 88 19t37 76h9v-203h-9q-13 57 -37 76t-88 19h-154v-322h188q103 0 145.5 49t54.5 155zM438 905q10 -13 3.5 -26.5t-31.5 -39.5q-21 -21 -53.5 -45.5t-54.5 -38.5
l-22 -14l-7 7q52 82 99 129q25 25 39 32t27 -4z" />
    <glyph glyph-name="Ecircumflex" unicode="&#xca;" horiz-adv-x="656" 
d="M594 226h12v-226h-546v13h65v674h-65v13h529v-226h-12q-12 107 -54.5 156t-145.5 49h-171v-322h154q64 0 88 19t37 76h9v-203h-9q-13 57 -37 76t-88 19h-154v-322h188q103 0 145.5 49t54.5 155zM371 920l156 -147l-7 -7l-167 94l-167 -94l-7 7l156 147h36z" />
    <glyph glyph-name="Edieresis" unicode="&#xcb;" horiz-adv-x="656" 
d="M594 226h12v-226h-546v13h65v674h-65v13h529v-226h-12q-12 107 -54.5 156t-145.5 49h-171v-322h154q64 0 88 19t37 76h9v-203h-9q-13 57 -37 76t-88 19h-154v-322h188q103 0 145.5 49t54.5 155zM281 888q19 0 32.5 -13t13.5 -32t-13.5 -32t-32.5 -13t-32 13t-13 32t13 32
t32 13zM423 888q19 0 32.5 -13t13.5 -32t-13.5 -32t-32.5 -13t-32 13t-13 32t13 32t32 13z" />
    <glyph glyph-name="Igrave" unicode="&#xcc;" horiz-adv-x="331" 
d="M271 687h-64v-674h64v-13h-211v13h65v674h-65v13h211v-13zM126 877q21 -21 46 -53t39 -54l14 -22l-7 -7q-82 51 -129 98q-25 25 -32 39t3 27q19 20 66 -28z" />
    <glyph glyph-name="Iacute" unicode="&#xcd;" horiz-adv-x="331" 
d="M271 687h-64v-674h64v-13h-211v13h65v674h-65v13h211v-13zM270 905q10 -13 3.5 -26.5t-31.5 -39.5q-21 -21 -53.5 -45.5t-54.5 -38.5l-22 -14l-7 7q52 82 99 129q25 25 39 32t27 -4z" />
    <glyph glyph-name="Icircumflex" unicode="&#xce;" horiz-adv-x="331" 
d="M271 687h-64v-674h64v-13h-211v13h65v674h-65v13h211v-13zM184 920l156 -147l-7 -7l-167 94l-167 -94l-7 7l156 147h36z" />
    <glyph glyph-name="Idieresis" unicode="&#xcf;" horiz-adv-x="331" 
d="M271 687h-64v-674h64v-13h-211v13h65v674h-65v13h211v-13zM94 888q19 0 32.5 -13t13.5 -32t-13.5 -32t-32.5 -13t-32 13t-13 32t13 32t32 13zM236 888q19 0 32.5 -13t13.5 -32t-13.5 -32t-32.5 -13t-32 13t-13 32t13 32t32 13z" />
    <glyph glyph-name="Eth" unicode="&#xd0;" horiz-adv-x="811" 
d="M324 700q210 0 323.5 -82t113.5 -268t-113.5 -268t-323.5 -82h-264v13h64v327h-64v21h64v326h-64v13h264zM353 22q313 0 313 328q0 329 -313 329h-147v-318h221v-21h-221v-318h147z" />
    <glyph glyph-name="Ntilde" unicode="&#xd1;" horiz-adv-x="858" 
d="M592 700h216v-13q-58 -11 -77.5 -57t-19.5 -133v-497h-44l-491 612v-409q0 -84 23 -131.5t82 -58.5v-13h-216v13q59 11 78.5 57t19.5 133v426l-47 58h-66v13h174l474 -589v386q0 84 -23.5 131.5t-82.5 58.5v13zM480 780q-17 2 -34.5 10.5t-39.5 22.5t-33 20q-40 18 -64 6
t-31 -44h-6q3 65 29 87t61 16q25 -3 67.5 -31.5t55.5 -32.5q61 -19 73 39h7q-1 -51 -24 -74.5t-61 -18.5z" />
    <glyph glyph-name="Ograve" unicode="&#xd2;" horiz-adv-x="839" 
d="M419 703q170 0 270 -96.5t100 -258.5t-100 -258.5t-270 -96.5q-169 0 -269 96.5t-100 258.5t100 258.5t269 96.5zM419 5q117 0 197.5 86.5t80.5 256.5q0 171 -80.5 257.5t-197.5 86.5t-197 -86.5t-80 -257.5q0 -170 80 -256.5t197 -86.5zM400 877q21 -21 46 -53t39 -54
l14 -22l-7 -7q-82 51 -129 98q-25 25 -32 39t3 27q19 20 66 -28z" />
    <glyph glyph-name="Oacute" unicode="&#xd3;" horiz-adv-x="839" 
d="M419 703q170 0 270 -96.5t100 -258.5t-100 -258.5t-270 -96.5q-169 0 -269 96.5t-100 258.5t100 258.5t269 96.5zM419 5q117 0 197.5 86.5t80.5 256.5q0 171 -80.5 257.5t-197.5 86.5t-197 -86.5t-80 -257.5q0 -170 80 -256.5t197 -86.5zM504 905q10 -13 3.5 -26.5
t-31.5 -39.5q-21 -21 -53.5 -45.5t-54.5 -38.5l-22 -14l-7 7q52 82 99 129q25 25 39 32t27 -4z" />
    <glyph glyph-name="Ocircumflex" unicode="&#xd4;" horiz-adv-x="839" 
d="M419 703q170 0 270 -96.5t100 -258.5t-100 -258.5t-270 -96.5q-169 0 -269 96.5t-100 258.5t100 258.5t269 96.5zM419 5q117 0 197.5 86.5t80.5 256.5q0 171 -80.5 257.5t-197.5 86.5t-197 -86.5t-80 -257.5q0 -170 80 -256.5t197 -86.5zM437 920l156 -147l-7 -7l-167 94
l-167 -94l-7 7l156 147h36z" />
    <glyph glyph-name="Otilde" unicode="&#xd5;" horiz-adv-x="839" 
d="M419 703q170 0 270 -96.5t100 -258.5t-100 -258.5t-270 -96.5q-169 0 -269 96.5t-100 258.5t100 258.5t269 96.5zM419 5q117 0 197.5 86.5t80.5 256.5q0 171 -80.5 257.5t-197.5 86.5t-197 -86.5t-80 -257.5q0 -170 80 -256.5t197 -86.5zM481 780q-17 2 -34.5 10.5
t-39.5 22.5t-33 20q-40 18 -64 6t-31 -44h-6q3 65 29 87t61 16q25 -3 67.5 -31.5t55.5 -32.5q61 -19 73 39h7q-1 -51 -24 -74.5t-61 -18.5z" />
    <glyph glyph-name="Odieresis" unicode="&#xd6;" horiz-adv-x="839" 
d="M419 703q170 0 270 -96.5t100 -258.5t-100 -258.5t-270 -96.5q-169 0 -269 96.5t-100 258.5t100 258.5t269 96.5zM419 5q117 0 197.5 86.5t80.5 256.5q0 171 -80.5 257.5t-197.5 86.5t-197 -86.5t-80 -257.5q0 -170 80 -256.5t197 -86.5zM348 888q19 0 32.5 -13t13.5 -32
t-13.5 -32t-32.5 -13t-32 13t-13 32t13 32t32 13zM490 888q19 0 32.5 -13t13.5 -32t-13.5 -32t-32.5 -13t-32 13t-13 32t13 32t32 13z" />
    <glyph glyph-name="multiply" unicode="&#xd7;" horiz-adv-x="387" 
d="M327 446l-117 -117l117 -116l-17 -17l-117 117l-116 -117l-17 17l117 116l-117 117l17 17l116 -117l117 117z" />
    <glyph glyph-name="Oslash" unicode="&#xd8;" horiz-adv-x="839" 
d="M650 638q139 -96 139 -290q0 -162 -100.5 -258.5t-269.5 -96.5q-127 0 -219 58l-38 -51h-22l46 60q-136 95 -136 288q0 162 100 258.5t269 96.5q128 0 217 -55l40 52h22zM141 348q0 -159 75 -249l393 514q-75 79 -190 79q-117 0 -197.5 -86.5t-80.5 -257.5zM419 5
q117 0 197.5 86.5t80.5 256.5q0 159 -76 252l-394 -514q75 -81 192 -81z" />
    <glyph glyph-name="Ugrave" unicode="&#xd9;" horiz-adv-x="774" 
d="M578 700h146v-13q-36 -10 -51 -45t-15 -112v-248q0 -141 -70 -215t-198 -74q-124 0 -194.5 74.5t-70.5 214.5v405h-65v13h211v-13h-65v-405q0 -249 223 -249q92 0 153.5 66t61.5 183v248q0 78 -14 112.5t-52 44.5v13zM383 877q21 -21 46 -53t39 -54l14 -22l-7 -7
q-82 51 -129 98q-48 47 -29 66q19 20 66 -28z" />
    <glyph glyph-name="Uacute" unicode="&#xda;" horiz-adv-x="774" 
d="M578 700h146v-13q-36 -10 -51 -45t-15 -112v-248q0 -141 -70 -215t-198 -74q-124 0 -194.5 74.5t-70.5 214.5v405h-65v13h211v-13h-65v-405q0 -249 223 -249q92 0 153.5 66t61.5 183v248q0 78 -14 112.5t-52 44.5v13zM497 905q10 -13 3.5 -26.5t-31.5 -39.5
q-21 -21 -53.5 -45.5t-54.5 -38.5l-22 -14l-7 7q52 82 99 129q25 25 39 32t27 -4z" />
    <glyph glyph-name="Ucircumflex" unicode="&#xdb;" horiz-adv-x="774" 
d="M578 700h146v-13q-36 -10 -51 -45t-15 -112v-248q0 -141 -70 -215t-198 -74q-124 0 -194.5 74.5t-70.5 214.5v405h-65v13h211v-13h-65v-405q0 -249 223 -249q92 0 153.5 66t61.5 183v248q0 78 -14 112.5t-52 44.5v13zM430 920l156 -147l-7 -7l-167 94l-167 -94l-7 7
l156 147h36z" />
    <glyph glyph-name="Udieresis" unicode="&#xdc;" horiz-adv-x="774" 
d="M578 700h146v-13q-36 -10 -51 -45t-15 -112v-248q0 -141 -70 -215t-198 -74q-124 0 -194.5 74.5t-70.5 214.5v405h-65v13h211v-13h-65v-405q0 -249 223 -249q92 0 153.5 66t61.5 183v248q0 78 -14 112.5t-52 44.5v13zM360 888q19 0 32.5 -13t13.5 -32t-13.5 -32
t-32.5 -13t-32 13t-13 32t13 32t32 13zM502 888q19 0 32.5 -13t13.5 -32t-13.5 -32t-32.5 -13t-32 13t-13 32t13 32t32 13z" />
    <glyph glyph-name="Yacute" unicode="&#xdd;" horiz-adv-x="696" 
d="M472 700h204v-13q-42 -15 -63 -35t-63 -93l-151 -263v-283h65v-13h-211v13h65v260l-234 414h-64v13h227v-13h-65l207 -381l147 252q30 48 26 76t-25 39t-65 14v13zM473 905q10 -13 3.5 -26.5t-31.5 -39.5q-21 -21 -53.5 -45.5t-54.5 -38.5l-22 -14l-7 7q52 82 99 129
q25 25 39 32t27 -4z" />
    <glyph glyph-name="Thorn" unicode="&#xde;" horiz-adv-x="668" 
d="M347 572q271 0 271 -222t-271 -222h-141v-115h65v-13h-211v13h65v674h-65v13h211v-13h-65v-115h141zM312 149q106 0 158.5 49t52.5 152q0 104 -52.5 152.5t-158.5 48.5h-106v-402h106z" />
    <glyph glyph-name="germandbls" unicode="&#xdf;" horiz-adv-x="771" 
d="M720 163q1 -39 -8.5 -69t-26 -48.5t-38.5 -31t-44 -17t-45 -4.5q-77 0 -230 41v174h13q15 -63 36 -104t50 -62t58.5 -29t71.5 -9q47 -1 83 17.5t42 60.5q6 38 -9.5 70.5t-43.5 55t-62 46t-66 42t-56 44t-30.5 52.5t9.5 66q23 49 31 93.5t1 82t-38.5 60t-84.5 22.5
q-65 0 -109 -35t-44 -109v-572h-130v13h56v501h-56v13h56q1 72 33.5 118.5t81.5 65t115 18.5q75 0 125.5 -31t64 -73t-3.5 -86t-64 -68q-33 -16 4 -44q13 -10 54 -34q110 -64 153 -113q48 -55 51 -117z" />
    <glyph glyph-name="agrave" unicode="&#xe0;" horiz-adv-x="628" 
d="M597 59l11 -6q-31 -60 -92 -60q-45 0 -75 26.5t-29 82.5q-53 -109 -181 -109q-79 0 -135 37.5t-56 113.5q0 36 12 64.5t28.5 46.5t46 31t53 19t62 8.5t60 3t60 -0.5t50.5 -1v88q0 124 -118 124q-116 0 -190 -164h-8v133q134 44 200 44q99 0 144 -35.5t45 -125.5v-295
q0 -64 54 -64q36 0 58 39zM412 116v187q-50 5 -101.5 2.5t-93.5 -11.5t-69 -43t-27 -91q0 -62 34.5 -99t81.5 -40.5t97 21.5t78 74zM275 727q21 -21 46 -53t39 -54l14 -22l-7 -7q-82 51 -129 98q-48 47 -29 66q19 20 66 -28z" />
    <glyph glyph-name="aacute" unicode="&#xe1;" horiz-adv-x="628" 
d="M597 59l11 -6q-31 -60 -92 -60q-45 0 -75 26.5t-29 82.5q-53 -109 -181 -109q-79 0 -135 37.5t-56 113.5q0 36 12 64.5t28.5 46.5t46 31t53 19t62 8.5t60 3t60 -0.5t50.5 -1v88q0 124 -118 124q-116 0 -190 -164h-8v133q134 44 200 44q99 0 144 -35.5t45 -125.5v-295
q0 -64 54 -64q36 0 58 39zM412 116v187q-50 5 -101.5 2.5t-93.5 -11.5t-69 -43t-27 -91q0 -62 34.5 -99t81.5 -40.5t97 21.5t78 74zM399 755q10 -13 3.5 -26.5t-31.5 -39.5q-21 -21 -53.5 -45.5t-54.5 -38.5l-22 -14l-7 7q52 82 99 129q25 25 39 32t27 -4z" />
    <glyph glyph-name="acircumflex" unicode="&#xe2;" horiz-adv-x="628" 
d="M597 59l11 -6q-31 -60 -92 -60q-45 0 -75 26.5t-29 82.5q-53 -109 -181 -109q-79 0 -135 37.5t-56 113.5q0 36 12 64.5t28.5 46.5t46 31t53 19t62 8.5t60 3t60 -0.5t50.5 -1v88q0 124 -118 124q-116 0 -190 -164h-8v133q134 44 200 44q99 0 144 -35.5t45 -125.5v-295
q0 -64 54 -64q36 0 58 39zM412 116v187q-50 5 -101.5 2.5t-93.5 -11.5t-69 -43t-27 -91q0 -62 34.5 -99t81.5 -40.5t97 21.5t78 74zM312 770l156 -147l-7 -7l-167 94l-167 -94l-7 7l156 147h36z" />
    <glyph glyph-name="atilde" unicode="&#xe3;" horiz-adv-x="628" 
d="M597 59l11 -6q-31 -60 -92 -60q-45 0 -75 26.5t-29 82.5q-53 -109 -181 -109q-79 0 -135 37.5t-56 113.5q0 36 12 64.5t28.5 46.5t46 31t53 19t62 8.5t60 3t60 -0.5t50.5 -1v88q0 124 -118 124q-116 0 -190 -164h-8v133q134 44 200 44q99 0 144 -35.5t45 -125.5v-295
q0 -64 54 -64q36 0 58 39zM412 116v187q-50 5 -101.5 2.5t-93.5 -11.5t-69 -43t-27 -91q0 -62 34.5 -99t81.5 -40.5t97 21.5t78 74zM355 630q-17 2 -34.5 10.5t-39.5 22.5t-33 20q-40 18 -64 6t-31 -44h-6q3 65 29 87t61 16q25 -3 67.5 -31.5t55.5 -32.5q61 -19 73 39h7
q-1 -51 -24 -74.5t-61 -18.5z" />
    <glyph glyph-name="adieresis" unicode="&#xe4;" horiz-adv-x="628" 
d="M597 59l11 -6q-31 -60 -92 -60q-45 0 -75 26.5t-29 82.5q-53 -109 -181 -109q-79 0 -135 37.5t-56 113.5q0 36 12 64.5t28.5 46.5t46 31t53 19t62 8.5t60 3t60 -0.5t50.5 -1v88q0 124 -118 124q-116 0 -190 -164h-8v133q134 44 200 44q99 0 144 -35.5t45 -125.5v-295
q0 -64 54 -64q36 0 58 39zM412 116v187q-50 5 -101.5 2.5t-93.5 -11.5t-69 -43t-27 -91q0 -62 34.5 -99t81.5 -40.5t97 21.5t78 74zM232 738q19 0 32.5 -13t13.5 -32t-13.5 -32t-32.5 -13t-32 13t-13 32t13 32t32 13zM374 738q19 0 32.5 -13t13.5 -32t-13.5 -32t-32.5 -13
t-32 13t-13 32t13 32t32 13z" />
    <glyph glyph-name="aring" unicode="&#xe5;" horiz-adv-x="628" 
d="M597 59l11 -6q-31 -60 -92 -60q-45 0 -75 26.5t-29 82.5q-53 -109 -181 -109q-79 0 -135 37.5t-56 113.5q0 36 12 64.5t28.5 46.5t46 31t53 19t62 8.5t60 3t60 -0.5t50.5 -1v88q0 124 -118 124q-116 0 -190 -164h-8v133q134 44 200 44q99 0 144 -35.5t45 -125.5v-295
q0 -64 54 -64q36 0 58 39zM412 116v187q-50 5 -101.5 2.5t-93.5 -11.5t-69 -43t-27 -91q0 -62 34.5 -99t81.5 -40.5t97 21.5t78 74zM293 599q-38 0 -65.5 27.5t-27.5 66.5t27.5 66.5t65.5 27.5q39 0 66.5 -27.5t27.5 -66.5t-27.5 -66.5t-66.5 -27.5zM293 770q-31 0 -54 -23
t-23 -54q0 -32 22.5 -54.5t54.5 -22.5t54.5 22.5t22.5 54.5t-22.5 54.5t-54.5 22.5z" />
    <glyph glyph-name="ae" unicode="&#xe6;" horiz-adv-x="967" 
d="M692 540q122 0 191.5 -69t62.5 -205h-446q3 -74 40.5 -127t91.5 -77t117 -24q61 0 105.5 24.5t68.5 54.5l10 -8q-27 -46 -88.5 -81t-145.5 -35q-107 0 -187 61.5t-96 164.5q-6 -95 -54 -160.5t-131 -65.5q-51 0 -92 13t-70 48.5t-29 89.5q0 36 12 64.5t28.5 46.5t46 31
t53 19t62 8.5t60 3t60 -0.5t50.5 -1v88q0 124 -126 124q-108 0 -182 -164h-8v133q134 44 192 44q77 0 122.5 -20t63.5 -68q76 88 218 88zM412 266v37q-50 5 -101.5 2.5t-93.5 -11.5t-69 -43t-27 -91q0 -73 60 -111q59 -36 123 -9q82 35 102 153q6 34 6 73zM869 288
q7 108 -41.5 173.5t-135.5 65.5q-86 0 -140.5 -67.5t-52.5 -171.5h370z" />
    <glyph glyph-name="ccedilla" unicode="&#xe7;" horiz-adv-x="610" 
d="M560 109q-26 -44 -84.5 -78.5t-138.5 -36.5l-9 -34q79 13 126.5 -19.5t30.5 -99.5q-17 -62 -83.5 -87.5t-161.5 6.5l2 9q70 -11 120.5 13.5t62.5 80.5q11 45 -24 70.5t-89 14.5l12 45q-118 1 -201 75.5t-83 197.5q0 88 41.5 151.5t106 93t143.5 29.5q87 0 214 -51v-158
h-11q-27 103 -76.5 149.5t-108.5 46.5q-95 0 -161 -68t-60 -193q3 -74 40.5 -127t91.5 -77t117 -24q61 0 105.5 24.5t68.5 54.5z" />
    <glyph glyph-name="egrave" unicode="&#xe8;" horiz-adv-x="625" 
d="M574 266h-446q3 -74 40.5 -127t91.5 -77t117 -24q61 0 105.5 24.5t68.5 54.5l10 -8q-27 -46 -88.5 -81t-145.5 -35q-119 0 -203 75t-84 198q0 135 80 204.5t200 69.5q122 0 191.5 -69t62.5 -205zM127 288h370q7 108 -41.5 173.5t-135.5 65.5q-86 0 -140 -67.5t-53 -171.5
zM288 727q21 -21 46 -53t39 -54l14 -22l-7 -7q-82 51 -129 98q-25 25 -32 39t3 27q19 20 66 -28z" />
    <glyph glyph-name="eacute" unicode="&#xe9;" horiz-adv-x="625" 
d="M574 266h-446q3 -74 40.5 -127t91.5 -77t117 -24q61 0 105.5 24.5t68.5 54.5l10 -8q-27 -46 -88.5 -81t-145.5 -35q-119 0 -203 75t-84 198q0 135 80 204.5t200 69.5q122 0 191.5 -69t62.5 -205zM127 288h370q7 108 -41.5 173.5t-135.5 65.5q-86 0 -140 -67.5t-53 -171.5
zM432 755q10 -13 3.5 -26.5t-31.5 -39.5q-21 -21 -53.5 -45.5t-54.5 -38.5l-22 -14l-7 7q52 82 99 129q25 25 39 32t27 -4z" />
    <glyph glyph-name="ecircumflex" unicode="&#xea;" horiz-adv-x="625" 
d="M574 266h-446q3 -74 40.5 -127t91.5 -77t117 -24q61 0 105.5 24.5t68.5 54.5l10 -8q-27 -46 -88.5 -81t-145.5 -35q-119 0 -203 75t-84 198q0 135 80 204.5t200 69.5q122 0 191.5 -69t62.5 -205zM127 288h370q7 108 -41.5 173.5t-135.5 65.5q-86 0 -140 -67.5t-53 -171.5
zM335 770l156 -147l-7 -7l-167 94l-167 -94l-7 7l156 147h36z" />
    <glyph glyph-name="edieresis" unicode="&#xeb;" horiz-adv-x="625" 
d="M574 266h-446q3 -74 40.5 -127t91.5 -77t117 -24q61 0 105.5 24.5t68.5 54.5l10 -8q-27 -46 -88.5 -81t-145.5 -35q-119 0 -203 75t-84 198q0 135 80 204.5t200 69.5q122 0 191.5 -69t62.5 -205zM127 288h370q7 108 -41.5 173.5t-135.5 65.5q-86 0 -140 -67.5t-53 -171.5
zM246 738q19 0 32.5 -13t13.5 -32t-13.5 -32t-32.5 -13t-32 13t-13 32t13 32t32 13zM388 738q19 0 32.5 -13t13.5 -32t-13.5 -32t-32.5 -13t-32 13t-13 32t13 32t32 13z" />
    <glyph glyph-name="igrave" unicode="&#xec;" 
d="M180 13h56v-13h-186v13h57v501h-57v13h130v-514zM104 727q21 -21 46 -53t39 -54l14 -22l-7 -7q-82 51 -129 98q-25 25 -32 39t3 27q19 20 66 -28z" />
    <glyph glyph-name="iacute" unicode="&#xed;" 
d="M180 13h56v-13h-186v13h57v501h-57v13h130v-514zM248 755q10 -13 3.5 -26.5t-31.5 -39.5q-21 -21 -53.5 -45.5t-54.5 -38.5l-22 -14l-7 7q52 82 99 129q25 25 39 32t27 -4z" />
    <glyph glyph-name="icircumflex" unicode="&#xee;" 
d="M180 13h56v-13h-186v13h57v501h-57v13h130v-514zM161 770l156 -147l-7 -7l-167 94l-167 -94l-7 7l156 147h36z" />
    <glyph glyph-name="idieresis" unicode="&#xef;" horiz-adv-x="287" 
d="M181 13h56v-13h-186v13h57v501h-57v13h130v-514zM73 738q19 0 32.5 -13t13.5 -32t-13.5 -32t-32.5 -13t-32 13t-13 32t13 32t32 13zM215 738q19 0 32.5 -13t13.5 -32t-13.5 -32t-32.5 -13t-32 13t-13 32t13 32t32 13z" />
    <glyph glyph-name="eth" unicode="&#xf0;" horiz-adv-x="679" 
d="M414 666q93 -63 154 -153.5t61 -198.5q0 -147 -82.5 -233.5t-208.5 -87.5q-75 1 -140.5 28.5t-111.5 91t-46 153.5t46 154t112 91.5t141 28.5q81 -1 135 -32q-21 75 -97 143l-123 -51l-6 16l114 47q-52 45 -113 68l5 10q67 -16 143 -63l125 51l7 -16zM338 5
q99 0 156 74.5t57 186.5t-56.5 186.5t-155.5 75.5q-96 0 -155 -72.5t-59 -189.5q0 -116 59 -188t154 -73z" />
    <glyph glyph-name="ntilde" unicode="&#xf1;" horiz-adv-x="691" 
d="M585 13h56v-13h-186v13h56v338q0 167 -169 142q-61 -9 -111.5 -56.5t-50.5 -87.5v-336h56v-13h-186v13h56v501h-56v13h130v-142q29 59 91.5 107t131.5 48q102 0 142 -51t40 -139v-337zM407 630q-17 2 -34.5 10.5t-39.5 22.5t-33 20q-40 18 -64 6t-31 -44h-6q3 65 29 87
t61 16q25 -3 67.5 -31.5t55.5 -32.5q61 -19 73 39h7q-1 -51 -24 -74.5t-61 -18.5z" />
    <glyph glyph-name="ograve" unicode="&#xf2;" horiz-adv-x="686" 
d="M339 540q55 0 106.5 -16.5t95 -48.5t69.5 -86.5t26 -122.5t-26 -122t-69.5 -86t-95 -48.5t-106.5 -16.5t-106.5 16.5t-95.5 48.5t-70.5 86t-26.5 122t26.5 122.5t70.5 86.5t95.5 48.5t106.5 16.5zM339 5q95 0 153.5 72.5t58.5 188.5q0 117 -58 189t-154 72t-155 -72.5
t-59 -188.5t59 -188.5t155 -72.5zM319 727q21 -21 46 -53t39 -54l14 -22l-7 -7q-82 51 -129 98q-48 47 -29 66q19 20 66 -28z" />
    <glyph glyph-name="oacute" unicode="&#xf3;" horiz-adv-x="686" 
d="M339 540q55 0 106.5 -16.5t95 -48.5t69.5 -86.5t26 -122.5t-26 -122t-69.5 -86t-95 -48.5t-106.5 -16.5t-106.5 16.5t-95.5 48.5t-70.5 86t-26.5 122t26.5 122.5t70.5 86.5t95.5 48.5t106.5 16.5zM339 5q95 0 153.5 72.5t58.5 188.5q0 117 -58 189t-154 72t-155 -72.5
t-59 -188.5t59 -188.5t155 -72.5zM423 755q10 -13 3.5 -26.5t-31.5 -39.5q-21 -21 -53.5 -45.5t-54.5 -38.5l-22 -14l-7 7q52 82 99 129q25 25 39 32t27 -4z" />
    <glyph glyph-name="ocircumflex" unicode="&#xf4;" horiz-adv-x="686" 
d="M339 540q55 0 106.5 -16.5t95 -48.5t69.5 -86.5t26 -122.5t-26 -122t-69.5 -86t-95 -48.5t-106.5 -16.5t-106.5 16.5t-95.5 48.5t-70.5 86t-26.5 122t26.5 122.5t70.5 86.5t95.5 48.5t106.5 16.5zM339 5q95 0 153.5 72.5t58.5 188.5q0 117 -58 189t-154 72t-155 -72.5
t-59 -188.5t59 -188.5t155 -72.5zM356 770l156 -147l-7 -7l-167 94l-167 -94l-7 7l156 147h36z" />
    <glyph glyph-name="otilde" unicode="&#xf5;" horiz-adv-x="686" 
d="M339 540q55 0 106.5 -16.5t95 -48.5t69.5 -86.5t26 -122.5t-26 -122t-69.5 -86t-95 -48.5t-106.5 -16.5t-106.5 16.5t-95.5 48.5t-70.5 86t-26.5 122t26.5 122.5t70.5 86.5t95.5 48.5t106.5 16.5zM339 5q95 0 153.5 72.5t58.5 188.5q0 117 -58 189t-154 72t-155 -72.5
t-59 -188.5t59 -188.5t155 -72.5zM409 630q-17 2 -34.5 10.5t-39.5 22.5t-33 20q-40 18 -64 6t-31 -44h-6q3 65 29 87t61 16q25 -3 67.5 -31.5t55.5 -32.5q61 -19 73 39h7q-1 -51 -24 -74.5t-61 -18.5z" />
    <glyph glyph-name="odieresis" unicode="&#xf6;" horiz-adv-x="686" 
d="M339 540q55 0 106.5 -16.5t95 -48.5t69.5 -86.5t26 -122.5t-26 -122t-69.5 -86t-95 -48.5t-106.5 -16.5t-106.5 16.5t-95.5 48.5t-70.5 86t-26.5 122t26.5 122.5t70.5 86.5t95.5 48.5t106.5 16.5zM339 5q95 0 153.5 72.5t58.5 188.5q0 117 -58 189t-154 72t-155 -72.5
t-59 -188.5t59 -188.5t155 -72.5zM266 738q19 0 32.5 -13t13.5 -32t-13.5 -32t-32.5 -13t-32 13t-13 32t13 32t32 13zM408 738q19 0 32.5 -13t13.5 -32t-13.5 -32t-32.5 -13t-32 13t-13 32t13 32t32 13z" />
    <glyph glyph-name="divide" unicode="&#xf7;" horiz-adv-x="473" 
d="M60 341h353v-24h-353v24zM237 204q22 0 37.5 -15.5t15.5 -37.5t-15.5 -37.5t-37.5 -15.5t-37.5 15.5t-15.5 37.5t15.5 37.5t37.5 15.5zM237 455q-23 0 -38 15.5t-15 37.5t15.5 37.5t37.5 15.5t37.5 -15.5t15.5 -37.5t-15.5 -37.5t-37.5 -15.5z" />
    <glyph glyph-name="oslash" unicode="&#xf8;" horiz-adv-x="686" 
d="M553 464q83 -75 83 -198q0 -68 -26 -122t-69.5 -86t-95 -48.5t-106.5 -16.5q-115 0 -200 64l-58 -57h-22l68 67q-87 74 -87 199q0 68 26.5 122.5t70.5 86.5t95.5 48.5t106.5 16.5q120 0 202 -66l54 53h22zM125 266q0 -94 40 -162l340 334q-58 89 -166 89
q-96 0 -155 -72.5t-59 -188.5zM339 5q95 0 153.5 72.5t58.5 188.5q0 95 -38 159l-339 -333q60 -87 165 -87z" />
    <glyph glyph-name="ugrave" unicode="&#xf9;" horiz-adv-x="671" 
d="M564 13h57v-13h-130v147q-27 -60 -84.5 -107t-129.5 -47q-191 0 -191 190v331h-56v13h130v-345q0 -83 46.5 -118.5t130.5 -23.5q62 8 108 55.5t46 88.5v330h-56v13h129v-514zM296 727q21 -21 46 -53t39 -54l14 -22l-7 -7q-82 51 -129 98q-25 25 -32 39t3 27q19 20 66 -28
z" />
    <glyph glyph-name="uacute" unicode="&#xfa;" horiz-adv-x="671" 
d="M564 13h57v-13h-130v147q-27 -60 -84.5 -107t-129.5 -47q-191 0 -191 190v331h-56v13h130v-345q0 -83 46.5 -118.5t130.5 -23.5q62 8 108 55.5t46 88.5v330h-56v13h129v-514zM410 755q10 -13 3.5 -26.5t-31.5 -39.5q-21 -21 -53.5 -45.5t-54.5 -38.5l-22 -14l-7 7
q52 82 99 129q25 25 39 32t27 -4z" />
    <glyph glyph-name="ucircumflex" unicode="&#xfb;" horiz-adv-x="671" 
d="M564 13h57v-13h-130v147q-27 -60 -84.5 -107t-129.5 -47q-191 0 -191 190v331h-56v13h130v-345q0 -83 46.5 -118.5t130.5 -23.5q62 8 108 55.5t46 88.5v330h-56v13h129v-514zM343 770l156 -147l-7 -7l-167 94l-167 -94l-7 7l156 147h36z" />
    <glyph glyph-name="udieresis" unicode="&#xfc;" horiz-adv-x="671" 
d="M564 13h57v-13h-130v147q-27 -60 -84.5 -107t-129.5 -47q-191 0 -191 190v331h-56v13h130v-345q0 -83 46.5 -118.5t130.5 -23.5q62 8 108 55.5t46 88.5v330h-56v13h129v-514zM234 738q19 0 32.5 -13t13.5 -32t-13.5 -32t-32.5 -13t-32 13t-13 32t13 32t32 13zM376 738
q19 0 32.5 -13t13.5 -32t-13.5 -32t-32.5 -13t-32 13t-13 32t13 32t32 13z" />
    <glyph glyph-name="yacute" unicode="&#xfd;" horiz-adv-x="638" 
d="M430 527h178v-13q-37 -11 -59.5 -36.5t-44.5 -83.5l-150 -387l-112 -232l-78 58v13l162 128l-244 540h-62v13h215v-13h-66l194 -455l117 302q32 81 21 115.5t-71 37.5v13zM439 755q10 -13 3.5 -26.5t-31.5 -39.5q-21 -21 -53.5 -45.5t-54.5 -38.5l-22 -14l-7 7
q52 82 99 129q25 25 39 32t27 -4z" />
    <glyph glyph-name="thorn" unicode="&#xfe;" horiz-adv-x="700" 
d="M397 540q98 0 175.5 -72.5t77.5 -201.5q0 -66 -23 -119.5t-60 -86t-81 -50t-89 -17.5q-82 0 -138.5 42t-68.5 86v-275h80v-13h-80h-73h-57v13h57v841h-57v13h130v-288q12 44 68.5 86t138.5 42zM330 43q97 -14 165 44t68 179t-68 179.5t-165 44.5q-53 -8 -89.5 -34.5
t-50.5 -57.5v-263q14 -31 50.5 -57.5t89.5 -34.5z" />
    <glyph glyph-name="ydieresis" unicode="&#xff;" horiz-adv-x="638" 
d="M430 527h178v-13q-37 -11 -59.5 -36.5t-44.5 -83.5l-150 -387l-112 -232l-78 58v13l162 128l-244 540h-62v13h215v-13h-66l194 -455l117 302q32 81 21 115.5t-71 37.5v13zM272 738q19 0 32.5 -13t13.5 -32t-13.5 -32t-32.5 -13t-32 13t-13 32t13 32t32 13zM414 738
q19 0 32.5 -13t13.5 -32t-13.5 -32t-32.5 -13t-32 13t-13 32t13 32t32 13z" />
    <glyph glyph-name="Amacron" unicode="&#x100;" horiz-adv-x="746" 
d="M673 13h63v-13h-215v13h58l-86 205h-334l-35 -89q-18 -45 -3 -77t53 -39v-13h-164v13q26 8 54 39t47 79l227 569h36zM164 231h323l-166 393zM195 832h321v-19h-321v19z" />
    <glyph glyph-name="amacron" unicode="&#x101;" horiz-adv-x="628" 
d="M597 59l11 -6q-31 -60 -92 -60q-45 0 -75 26.5t-29 82.5q-53 -109 -181 -109q-79 0 -135 37.5t-56 113.5q0 36 12 64.5t28.5 46.5t46 31t53 19t62 8.5t60 3t60 -0.5t50.5 -1v88q0 124 -118 124q-116 0 -190 -164h-8v133q134 44 200 44q99 0 144 -35.5t45 -125.5v-295
q0 -64 54 -64q36 0 58 39zM412 116v187q-50 5 -101.5 2.5t-93.5 -11.5t-69 -43t-27 -91q0 -62 34.5 -99t81.5 -40.5t97 21.5t78 74zM123 682h321v-19h-321v19z" />
    <glyph glyph-name="Abreve" unicode="&#x102;" horiz-adv-x="746" 
d="M673 13h63v-13h-215v13h58l-86 205h-334l-35 -89q-18 -45 -3 -77t53 -39v-13h-164v13q26 8 54 39t47 79l227 569h36zM164 231h323l-166 393zM488 920h7q0 -74 -36.5 -114.5t-102.5 -40.5t-102.5 40.5t-36.5 114.5h7q14 -44 47 -73.5t85 -29.5q53 0 85.5 29.5t46.5 73.5z
" />
    <glyph glyph-name="abreve" unicode="&#x103;" horiz-adv-x="628" 
d="M597 59l11 -6q-31 -60 -92 -60q-45 0 -75 26.5t-29 82.5q-53 -109 -181 -109q-79 0 -135 37.5t-56 113.5q0 36 12 64.5t28.5 46.5t46 31t53 19t62 8.5t60 3t60 -0.5t50.5 -1v88q0 124 -118 124q-116 0 -190 -164h-8v133q134 44 200 44q99 0 144 -35.5t45 -125.5v-295
q0 -64 54 -64q36 0 58 39zM412 116v187q-50 5 -101.5 2.5t-93.5 -11.5t-69 -43t-27 -91q0 -62 34.5 -99t81.5 -40.5t97 21.5t78 74zM426 770h7q0 -74 -36.5 -114.5t-102.5 -40.5t-102.5 40.5t-36.5 114.5h7q14 -44 47 -73.5t85 -29.5q53 0 85.5 29.5t46.5 73.5z" />
    <glyph glyph-name="Aogonek" unicode="&#x104;" horiz-adv-x="746" 
d="M736 0h-132q-18 -31 -29 -62t-14.5 -64t12.5 -52q26 -30 71 -25.5t88 35.5l4 -4q-28 -44 -76 -65t-90 -13.5t-59 37.5q-25 44 4 106t78 107h-72v13h59l-87 205h-334l-35 -89q-17 -45 -2.5 -77t52.5 -39v-13h-164v13q26 8 54 39.5t47 78.5l227 569h36l299 -687h63v-13z
M164 231h323l-166 393z" />
    <glyph glyph-name="aogonek" unicode="&#x105;" horiz-adv-x="628" 
d="M430 -178q27 -30 71.5 -25.5t88.5 35.5l4 -4q-28 -44 -76 -65t-90.5 -13.5t-59.5 37.5q-26 46 7 111.5t83 108.5q-47 28 -46 95q-53 -109 -181 -109q-78 0 -134.5 38t-56.5 113q0 36 12 64.5t28.5 46.5t46 31t53 19t62 8.5t60.5 3t60 -0.5t50 -1v88q0 124 -117 124
q-116 0 -191 -164h-8v133q136 44 201 44q99 0 143.5 -35t44.5 -126v-295q0 -32 15 -48t39 -16q36 0 58 39l11 -6q-31 -60 -92 -60q-27 0 -52 11q-18 -31 -30 -62.5t-16 -66t12 -53.5zM412 116v187q-49 5 -100.5 2.5t-94 -11.5t-69.5 -43t-27 -91q0 -62 34.5 -99t81.5 -40.5
t97 21.5t78 74z" />
    <glyph glyph-name="Cacute" unicode="&#x106;" horiz-adv-x="769" 
d="M708 152l11 -9q-37 -60 -114 -105t-190 -45q-151 0 -258 97.5t-107 257.5q0 111 53.5 193.5t136.5 122t181 39.5q110 0 278 -65v-197h-12q-29 131 -95.5 188.5t-148.5 57.5q-58 0 -112 -21t-99 -61t-70.5 -107t-22.5 -150q4 -97 51 -168t115.5 -105t149.5 -35
q160 -1 253 112zM519 905q10 -13 3.5 -26.5t-31.5 -39.5q-21 -21 -53.5 -45.5t-54.5 -38.5l-22 -14l-7 7q52 82 99 129q25 25 39 32t27 -4z" />
    <glyph glyph-name="cacute" unicode="&#x107;" horiz-adv-x="610" 
d="M551 117l9 -8q-27 -46 -88 -81t-145 -35q-119 0 -203 75t-84 198q0 88 41.5 151.5t106 93t143.5 29.5q83 0 214 -51v-158h-11q-27 103 -76.5 149.5t-109.5 46.5q-94 0 -160 -68t-61 -193q5 -110 78 -169t172 -59q61 0 105.5 24.5t68.5 54.5zM425 755q10 -13 3.5 -26.5
t-31.5 -39.5q-21 -21 -53.5 -45.5t-54.5 -38.5l-22 -14l-7 7q52 82 99 129q25 25 39 32t27 -4z" />
    <glyph glyph-name="Ccircumflex" unicode="&#x108;" horiz-adv-x="769" 
d="M708 152l11 -9q-37 -60 -114 -105t-190 -45q-151 0 -258 97.5t-107 257.5q0 111 53.5 193.5t136.5 122t181 39.5q110 0 278 -65v-197h-12q-29 131 -95.5 188.5t-148.5 57.5q-58 0 -112 -21t-99 -61t-70.5 -107t-22.5 -150q4 -97 51 -168t115.5 -105t149.5 -35
q160 -1 253 112zM452 920l156 -147l-7 -7l-167 94l-167 -94l-7 7l156 147h36z" />
    <glyph glyph-name="ccircumflex" unicode="&#x109;" horiz-adv-x="610" 
d="M551 117l9 -8q-27 -46 -88 -81t-145 -35q-119 0 -203 75t-84 198q0 88 41.5 151.5t106 93t143.5 29.5q83 0 214 -51v-158h-11q-27 103 -76.5 149.5t-109.5 46.5q-94 0 -160 -68t-61 -193q5 -110 78 -169t172 -59q61 0 105.5 24.5t68.5 54.5zM358 770l156 -147l-7 -7
l-167 94l-167 -94l-7 7l156 147h36z" />
    <glyph glyph-name="Cdotaccent" unicode="&#x10a;" horiz-adv-x="769" 
d="M708 152l11 -9q-37 -60 -114 -105t-190 -45q-151 0 -258 97.5t-107 257.5q0 111 53.5 193.5t136.5 122t181 39.5q110 0 278 -65v-197h-12q-29 131 -95.5 188.5t-148.5 57.5q-58 0 -112 -21t-99 -61t-70.5 -107t-22.5 -150q4 -97 51 -168t115.5 -105t149.5 -35
q160 -1 253 112zM444 888q19 0 32.5 -13t13.5 -32t-13.5 -32t-32.5 -13t-32 13t-13 32t13 32t32 13z" />
    <glyph glyph-name="cdotaccent" unicode="&#x10b;" horiz-adv-x="610" 
d="M551 117l9 -8q-27 -46 -88 -81t-145 -35q-119 0 -203 75t-84 198q0 88 41.5 151.5t106 93t143.5 29.5q83 0 214 -51v-158h-11q-27 103 -76.5 149.5t-109.5 46.5q-94 0 -160 -68t-61 -193q5 -110 78 -169t172 -59q61 0 105.5 24.5t68.5 54.5zM339 738q19 0 32.5 -13
t13.5 -32t-13.5 -32t-32.5 -13t-32 13t-13 32t13 32t32 13z" />
    <glyph glyph-name="Ccaron" unicode="&#x10c;" horiz-adv-x="769" 
d="M708 152l11 -9q-37 -60 -114 -105t-190 -45q-151 0 -258 97.5t-107 257.5q0 111 53.5 193.5t136.5 122t181 39.5q110 0 278 -65v-197h-12q-29 131 -95.5 188.5t-148.5 57.5q-58 0 -112 -21t-99 -61t-70.5 -107t-22.5 -150q4 -97 51 -168t115.5 -105t149.5 -35
q160 -1 253 112zM591 920l7 -6l-156 -148h-36l-156 148l7 6l167 -93z" />
    <glyph glyph-name="ccaron" unicode="&#x10d;" horiz-adv-x="610" 
d="M551 117l9 -8q-27 -46 -88 -81t-145 -35q-119 0 -203 75t-84 198q0 88 41.5 151.5t106 93t143.5 29.5q83 0 214 -51v-158h-11q-27 103 -76.5 149.5t-109.5 46.5q-94 0 -160 -68t-61 -193q5 -110 78 -169t172 -59q61 0 105.5 24.5t68.5 54.5zM507 770l7 -6l-156 -148h-36
l-156 148l7 6l167 -93z" />
    <glyph glyph-name="Dcaron" unicode="&#x10e;" horiz-adv-x="811" 
d="M325 700q102 0 180 -18.5t136.5 -59t89 -109t30.5 -163.5t-30.5 -163.5t-89 -109t-136.5 -59t-180 -18.5h-265v13h65v674h-65v13h265zM353 22q313 0 313 328q0 329 -313 329h-147v-657h147zM557 920l7 -6l-156 -148h-36l-156 148l7 6l167 -93z" />
    <glyph glyph-name="dcaron" unicode="&#x10f;" horiz-adv-x="785" 
d="M573 13h56v-13h-129v121q-12 -44 -68.5 -86t-138.5 -42q-98 0 -175.5 72t-77.5 201t77.5 201.5t175.5 72.5q82 0 138.5 -42t68.5 -86v275h-57v13h130v-687zM500 135v263q-14 31 -50.5 57.5t-89.5 34.5q-97 14 -165 -44.5t-68 -179.5t68 -179t165 -44q53 8 89.5 34.5
t50.5 57.5zM722 704q22 0 37.5 -15t15.5 -38q0 -35 -26.5 -70t-51.5 -50l-3 5q15 12 30 33t20 34q-8 -5 -22 -5q-22 0 -37.5 15.5t-15.5 37.5t15.5 37.5t37.5 15.5z" />
    <glyph glyph-name="Dcroat" unicode="&#x110;" horiz-adv-x="811" 
d="M324 700q210 0 323.5 -82t113.5 -268t-113.5 -268t-323.5 -82h-264v13h64v327h-64v21h64v326h-64v13h264zM353 22q313 0 313 328q0 329 -313 329h-147v-318h221v-21h-221v-318h147z" />
    <glyph glyph-name="dcroat" unicode="&#x111;" horiz-adv-x="680" 
d="M630 600h-56v-587h56v-13h-129v121q-12 -44 -69 -86t-139 -42q-45 0 -89 17.5t-81 50t-60 86t-23 119.5q0 129 77.5 201.5t175.5 72.5q82 0 139 -42t69 -86v188h-211v21h211v66h-57v13h130v-79h56v-21zM501 135v263q-14 31 -51 57.5t-90 34.5q-96 14 -164 -44.5
t-68 -179.5t67.5 -179t164.5 -44q53 8 90 34.5t51 57.5z" />
    <glyph glyph-name="Emacron" unicode="&#x112;" horiz-adv-x="656" 
d="M594 226h12v-226h-546v13h65v674h-65v13h529v-226h-12q-12 107 -54.5 156t-145.5 49h-171v-322h154q64 0 88 19t37 76h9v-203h-9q-13 57 -37 76t-88 19h-154v-322h188q103 0 145.5 49t54.5 155zM192 832h321v-19h-321v19z" />
    <glyph glyph-name="emacron" unicode="&#x113;" horiz-adv-x="625" 
d="M574 266h-446q3 -74 40.5 -127t91.5 -77t117 -24q61 0 105.5 24.5t68.5 54.5l10 -8q-27 -46 -88.5 -81t-145.5 -35q-119 0 -203 75t-84 198q0 135 80 204.5t200 69.5q122 0 191.5 -69t62.5 -205zM127 288h370q7 108 -41.5 173.5t-135.5 65.5q-86 0 -140 -67.5t-53 -171.5
zM157 682h321v-19h-321v19z" />
    <glyph glyph-name="Ebreve" unicode="&#x114;" horiz-adv-x="656" 
d="M594 226h12v-226h-546v13h65v674h-65v13h529v-226h-12q-12 107 -54.5 156t-145.5 49h-171v-322h154q64 0 88 19t37 76h9v-203h-9q-13 57 -37 76t-88 19h-154v-322h188q103 0 145.5 49t54.5 155zM495 920h7q0 -74 -36.5 -114.5t-102.5 -40.5t-102.5 40.5t-36.5 114.5h7
q14 -44 47 -73.5t85 -29.5q53 0 85.5 29.5t46.5 73.5z" />
    <glyph glyph-name="ebreve" unicode="&#x115;" horiz-adv-x="625" 
d="M574 266h-446q3 -74 40.5 -127t91.5 -77t117 -24q61 0 105.5 24.5t68.5 54.5l10 -8q-27 -46 -88.5 -81t-145.5 -35q-119 0 -203 75t-84 198q0 135 80 204.5t200 69.5q122 0 191.5 -69t62.5 -205zM127 288h370q7 108 -41.5 173.5t-135.5 65.5q-86 0 -140 -67.5t-53 -171.5
zM449 770h7q0 -74 -36.5 -114.5t-102.5 -40.5t-102.5 40.5t-36.5 114.5h7q14 -44 47 -73.5t85 -29.5q53 0 85.5 29.5t46.5 73.5z" />
    <glyph glyph-name="Edotaccent" unicode="&#x116;" horiz-adv-x="656" 
d="M594 226h12v-226h-546v13h65v674h-65v13h529v-226h-12q-12 107 -54.5 156t-145.5 49h-171v-322h154q64 0 88 19t37 76h9v-203h-9q-13 57 -37 76t-88 19h-154v-322h188q103 0 145.5 49t54.5 155zM362 888q19 0 32.5 -13t13.5 -32t-13.5 -32t-32.5 -13t-32 13t-13 32t13 32
t32 13z" />
    <glyph glyph-name="edotaccent" unicode="&#x117;" horiz-adv-x="625" 
d="M574 266h-446q3 -74 40.5 -127t91.5 -77t117 -24q61 0 105.5 24.5t68.5 54.5l10 -8q-27 -46 -88.5 -81t-145.5 -35q-119 0 -203 75t-84 198q0 135 80 204.5t200 69.5q122 0 191.5 -69t62.5 -205zM127 288h370q7 108 -41.5 173.5t-135.5 65.5q-86 0 -140 -67.5t-53 -171.5
zM317 738q19 0 32.5 -13t13.5 -32t-13.5 -32t-32.5 -13t-32 13t-13 32t13 32t32 13z" />
    <glyph glyph-name="Eogonek" unicode="&#x118;" horiz-adv-x="656" 
d="M602 -168l4 -4q-28 -44 -76 -65t-90.5 -13.5t-59.5 37.5q-25 44 4 105.5t78 107.5h-402v13h65v674h-65v13h529v-226h-12q-11 106 -54 155.5t-146 49.5h-171v-322h154q64 0 88.5 19t36.5 76h9v-203h-9q-12 57 -36.5 76t-88.5 19h-154v-322h188q103 0 145.5 49t54.5 155h12
v-226h-133q-18 -31 -29 -62t-14.5 -64t12.5 -52q27 -30 72 -25.5t88 35.5z" />
    <glyph glyph-name="eogonek" unicode="&#x119;" horiz-adv-x="625" 
d="M320 540q123 0 192.5 -69t61.5 -205h-446q5 -110 78 -169t172 -59q108 0 174 79l9 -8q-43 -72 -138 -101q-19 -32 -31.5 -64.5t-16.5 -67.5t13 -54q26 -30 71 -25.5t88 35.5l4 -4q-28 -44 -76 -64.5t-90.5 -13.5t-59.5 37q-26 45 5.5 108.5t81.5 108.5q-39 -11 -84 -11
q-119 0 -203.5 75t-84.5 198q0 135 80 204.5t200 69.5zM498 288q7 108 -42 173.5t-136 65.5q-86 0 -140 -67.5t-53 -171.5h371z" />
    <glyph glyph-name="Ecaron" unicode="&#x11a;" horiz-adv-x="656" 
d="M594 226h12v-226h-546v13h65v674h-65v13h529v-226h-12q-12 107 -54.5 156t-145.5 49h-171v-322h154q64 0 88 19t37 76h9v-203h-9q-13 57 -37 76t-88 19h-154v-322h188q103 0 145.5 49t54.5 155zM520 920l7 -6l-156 -148h-36l-156 148l7 6l167 -93z" />
    <glyph glyph-name="ecaron" unicode="&#x11b;" horiz-adv-x="625" 
d="M574 266h-446q3 -74 40.5 -127t91.5 -77t117 -24q61 0 105.5 24.5t68.5 54.5l10 -8q-27 -46 -88.5 -81t-145.5 -35q-119 0 -203 75t-84 198q0 135 80 204.5t200 69.5q122 0 191.5 -69t62.5 -205zM127 288h370q7 108 -41.5 173.5t-135.5 65.5q-86 0 -140 -67.5t-53 -171.5
zM484 770l7 -6l-156 -148h-36l-156 148l7 6l167 -93z" />
    <glyph glyph-name="Gcircumflex" unicode="&#x11c;" horiz-adv-x="779" 
d="M574 313h201v-14h-56v-299h-13v124q-96 -131 -291 -131q-151 0 -258 97.5t-107 257.5q0 111 53.5 193.5t136.5 122t181 39.5q112 0 278 -65v-197h-12q-28 131 -95 188.5t-149 57.5q-46 0 -90 -13t-84 -40.5t-69.5 -66.5t-46 -95.5t-13.5 -123.5q6 -145 98.5 -232
t217.5 -90q113 -4 183 50v223h-65v14zM460 920l156 -147l-7 -7l-167 94l-167 -94l-7 7l156 147h36z" />
    <glyph glyph-name="gcircumflex" unicode="&#x11d;" horiz-adv-x="611" 
d="M581 601v-85h-172q97 -44 97 -142q0 -76 -60.5 -121t-156.5 -45q-89 0 -148 39q-19 -22 -25 -48q-13 -58 41 -79.5t191 -21.5q114 0 162.5 -30t41.5 -94q-7 -73 -80.5 -121t-188.5 -48q-127 0 -195 26.5t-68 77.5q0 26 15.5 49.5t41.5 39.5t49 26t47 17q-115 23 -108 105
q5 58 69 106q-61 45 -61 122q0 76 60 121t156 45q60 0 105 -18l180 79h7zM485 -83q15 57 -27 86t-162 29q-67 0 -108 7q-41 -15 -72.5 -50.5t-31.5 -74.5q0 -45 60.5 -67.5t144.5 -22.5q82 0 133 24t63 69zM289 223q67 0 102 41.5t35 109.5t-35 109t-102 41t-101.5 -41
t-34.5 -109t34.5 -109.5t101.5 -41.5zM308 770l156 -147l-7 -7l-167 94l-167 -94l-7 7l156 147h36z" />
    <glyph glyph-name="Gbreve" unicode="&#x11e;" horiz-adv-x="779" 
d="M574 313h201v-14h-56v-299h-13v124q-96 -131 -291 -131q-151 0 -258 97.5t-107 257.5q0 111 53.5 193.5t136.5 122t181 39.5q112 0 278 -65v-197h-12q-28 131 -95 188.5t-149 57.5q-46 0 -90 -13t-84 -40.5t-69.5 -66.5t-46 -95.5t-13.5 -123.5q6 -145 98.5 -232
t217.5 -90q113 -4 183 50v223h-65v14zM574 920h7q0 -74 -36.5 -114.5t-102.5 -40.5t-102.5 40.5t-36.5 114.5h7q14 -44 47 -73.5t85 -29.5q53 0 85.5 29.5t46.5 73.5z" />
    <glyph glyph-name="gbreve" unicode="&#x11f;" horiz-adv-x="611" 
d="M581 601v-85h-172q97 -44 97 -142q0 -76 -60.5 -121t-156.5 -45q-89 0 -148 39q-19 -22 -25 -48q-13 -58 41 -79.5t191 -21.5q114 0 162.5 -30t41.5 -94q-7 -73 -80.5 -121t-188.5 -48q-127 0 -195 26.5t-68 77.5q0 26 15.5 49.5t41.5 39.5t49 26t47 17q-115 23 -108 105
q5 58 69 106q-61 45 -61 122q0 76 60 121t156 45q60 0 105 -18l180 79h7zM485 -83q15 57 -27 86t-162 29q-67 0 -108 7q-41 -15 -72.5 -50.5t-31.5 -74.5q0 -45 60.5 -67.5t144.5 -22.5q82 0 133 24t63 69zM289 223q67 0 102 41.5t35 109.5t-35 109t-102 41t-101.5 -41
t-34.5 -109t34.5 -109.5t101.5 -41.5zM422 770h7q0 -74 -36.5 -114.5t-102.5 -40.5t-102.5 40.5t-36.5 114.5h7q14 -44 47 -73.5t85 -29.5q53 0 85.5 29.5t46.5 73.5z" />
    <glyph glyph-name="Gdotaccent" unicode="&#x120;" horiz-adv-x="779" 
d="M574 313h201v-14h-56v-299h-13v124q-96 -131 -291 -131q-151 0 -258 97.5t-107 257.5q0 111 53.5 193.5t136.5 122t181 39.5q112 0 278 -65v-197h-12q-28 131 -95 188.5t-149 57.5q-46 0 -90 -13t-84 -40.5t-69.5 -66.5t-46 -95.5t-13.5 -123.5q6 -145 98.5 -232
t217.5 -90q113 -4 183 50v223h-65v14zM452 888q19 0 32.5 -13t13.5 -32t-13.5 -32t-32.5 -13t-32 13t-13 32t13 32t32 13z" />
    <glyph glyph-name="gdotaccent" unicode="&#x121;" horiz-adv-x="611" 
d="M581 601v-85h-172q97 -44 97 -142q0 -76 -60.5 -121t-156.5 -45q-89 0 -148 39q-19 -22 -25 -48q-13 -58 41 -79.5t191 -21.5q114 0 162.5 -30t41.5 -94q-7 -73 -80.5 -121t-188.5 -48q-127 0 -195 26.5t-68 77.5q0 26 15.5 49.5t41.5 39.5t49 26t47 17q-115 23 -108 105
q5 58 69 106q-61 45 -61 122q0 76 60 121t156 45q60 0 105 -18l180 79h7zM485 -83q15 57 -27 86t-162 29q-67 0 -108 7q-41 -15 -72.5 -50.5t-31.5 -74.5q0 -45 60.5 -67.5t144.5 -22.5q82 0 133 24t63 69zM289 223q67 0 102 41.5t35 109.5t-35 109t-102 41t-101.5 -41
t-34.5 -109t34.5 -109.5t101.5 -41.5zM300 738q19 0 32.5 -13t13.5 -32t-13.5 -32t-32.5 -13t-32 13t-13 32t13 32t32 13z" />
    <glyph glyph-name="Gcommaaccent" unicode="&#x122;" horiz-adv-x="779" 
d="M574 313h201v-14h-56v-299h-13v124q-96 -131 -291 -131q-151 0 -258 97.5t-107 257.5q0 111 53.5 193.5t136.5 122t181 39.5q112 0 278 -65v-197h-12q-28 131 -95 188.5t-149 57.5q-46 0 -90 -13t-84 -40.5t-69.5 -66.5t-46 -95.5t-13.5 -123.5q6 -145 98.5 -232
t217.5 -90q113 -4 183 50v223h-65v14zM432 -78q22 0 37.5 -15.5t15.5 -37.5q0 -35 -26.5 -70t-51.5 -50l-3 5q15 12 30 33t20 34q-8 -5 -22 -5q-22 0 -37.5 15.5t-15.5 37.5t15.5 37.5t37.5 15.5z" />
    <glyph glyph-name="gcommaaccent" unicode="&#x123;" horiz-adv-x="611" 
d="M581 601v-85h-172q97 -44 97 -142q0 -76 -60.5 -121t-156.5 -45q-89 0 -148 39q-19 -22 -25 -48q-13 -58 41 -79.5t191 -21.5q114 0 162.5 -30t41.5 -94q-7 -73 -80.5 -121t-188.5 -48q-127 0 -195 26.5t-68 77.5q0 26 15.5 49.5t41.5 39.5t49 26t47 17q-115 23 -108 105
q5 58 69 106q-61 45 -61 122q0 76 60 121t156 45q60 0 105 -18l180 79h7zM485 -83q15 57 -27 86t-162 29q-67 0 -108 7q-41 -15 -72.5 -50.5t-31.5 -74.5q0 -45 60.5 -67.5t144.5 -22.5q82 0 133 24t63 69zM289 223q67 0 102 41.5t35 109.5t-35 109t-102 41t-101.5 -41
t-34.5 -109t34.5 -109.5t101.5 -41.5zM290 723q22 0 37.5 -15.5t15.5 -37.5t-15.5 -37.5t-37.5 -15.5t-37.5 15.5t-15.5 37.5q0 35 26 69.5t52 50.5l4 -6q-32 -23 -51 -66q13 5 22 5z" />
    <glyph glyph-name="Hcircumflex" unicode="&#x124;" horiz-adv-x="815" 
d="M755 687h-65v-674h65v-13h-211v13h65v323h-403v-323h65v-13h-211v13h65v674h-65v13h211v-13h-65v-330h403v330h-65v13h211v-13zM425 920l156 -147l-7 -7l-167 94l-167 -94l-7 7l156 147h36z" />
    <glyph glyph-name="hcircumflex" unicode="&#x125;" horiz-adv-x="691" 
d="M585 13h56v-13h-186v13h56v338q0 167 -169 142q-61 -9 -111.5 -56.5t-50.5 -87.5v-336h56v-13h-186v13h56v674h-56v13h130v-315q29 59 91.5 107t131.5 48q102 0 142 -51t40 -139v-337zM254 897l156 -147l-7 -7l-167 94l-167 -94l-7 7l156 147h36z" />
    <glyph glyph-name="Hbar" unicode="&#x126;" horiz-adv-x="815" 
d="M755 687h-65v-162h65v-22h-65v-490h65v-13h-211v13h65v323h-403v-323h65v-13h-211v13h65v490h-65v22h65v162h-65v13h211v-13h-65v-162h403v162h-65v13h211v-13zM609 357v146h-403v-146h403z" />
    <glyph glyph-name="hbar" unicode="&#x127;" horiz-adv-x="691" 
d="M585 13h56v-13h-186v13h56v338q0 167 -169 142q-61 -9 -111.5 -56.5t-50.5 -87.5v-336h56v-13h-186v13h57v587h-57v21h57v66h-57v13h130v-79h191v-21h-191v-215q29 59 91.5 107t131.5 48q54 0 91 -14.5t56 -42t27 -59.5t8 -74v-337z" />
    <glyph glyph-name="Itilde" unicode="&#x128;" horiz-adv-x="331" 
d="M271 687h-64v-674h64v-13h-211v13h65v674h-65v13h211v-13zM227 780q-17 2 -34.5 10.5t-39.5 22.5t-33 20q-40 18 -64 6t-31 -44h-6q3 65 29 87t61 16q25 -3 67.5 -31.5t55.5 -32.5q61 -19 73 39h7q-1 -51 -24 -74.5t-61 -18.5z" />
    <glyph glyph-name="itilde" unicode="&#x129;" 
d="M180 13h56v-13h-186v13h57v501h-57v13h130v-514zM205 580q-17 2 -34.5 10.5t-39.5 22.5t-33 20q-40 18 -64 6t-31 -44h-6q3 65 29 87t61 16q25 -3 67.5 -31.5t55.5 -32.5q61 -19 73 39h7q-1 -51 -24 -74.5t-61 -18.5z" />
    <glyph glyph-name="Imacron" unicode="&#x12a;" horiz-adv-x="331" 
d="M271 687h-64v-674h64v-13h-211v13h65v674h-65v13h211v-13zM5 832h321v-19h-321v19z" />
    <glyph glyph-name="imacron" unicode="&#x12b;" 
d="M180 13h56v-13h-186v13h57v501h-57v13h130v-514zM-17 632h321v-19h-321v19z" />
    <glyph glyph-name="Ibreve" unicode="&#x12c;" horiz-adv-x="331" 
d="M270 687h-64v-674h64v-13h-211v13h65v674h-65v13h211v-13zM297 920h7q0 -74 -36.5 -114.5t-102.5 -40.5t-102.5 40.5t-36.5 114.5h7q14 -44 47 -73.5t85 -29.5q53 0 85.5 29.5t46.5 73.5z" />
    <glyph glyph-name="ibreve" unicode="&#x12d;" 
d="M180 13h56v-13h-186v13h57v501h-57v13h130v-514zM275 770h7q0 -74 -36.5 -114.5t-102.5 -40.5t-102.5 40.5t-36.5 114.5h7q14 -44 47 -73.5t85 -29.5q53 0 85.5 29.5t46.5 73.5z" />
    <glyph glyph-name="Iogonek" unicode="&#x12e;" horiz-adv-x="331" 
d="M279 -168l4 -4q-28 -44 -76 -65t-90 -13.5t-59 37.5q-25 44 4 106t78 107h-80v13h64v674h-64v13h211v-13h-65v-674h65v-13h-120q-18 -31 -29 -62t-14.5 -64t12.5 -52q26 -30 71 -25.5t88 35.5z" />
    <glyph glyph-name="iogonek" unicode="&#x12f;" 
d="M257 -168l4 -4q-28 -44 -76 -65t-90 -13.5t-59 37.5q-25 44 4 106t78 107h-68v13h57v501h-57v13h130v-514h56v-13h-107q-18 -31 -29 -62t-14.5 -64t12.5 -52q26 -30 71 -25.5t88 35.5zM143 595q-21 0 -35.5 15t-14.5 36t14.5 36t35.5 15t36 -15t15 -36t-15 -36t-36 -15z
" />
    <glyph glyph-name="Idotaccent" unicode="&#x130;" horiz-adv-x="331" 
d="M271 687h-64v-674h64v-13h-211v13h65v674h-65v13h211v-13zM165 888q19 0 32.5 -13t13.5 -32t-13.5 -32t-32.5 -13t-32 13t-13 32t13 32t32 13z" />
    <glyph glyph-name="dotlessi" unicode="&#x131;" 
d="M180 13h56v-13h-186v13h57v501h-57v13h130v-514z" />
    <glyph glyph-name="IJ" unicode="&#x132;" horiz-adv-x="910" 
d="M271 687h-64v-674h64v-13h-211v13h65v674h-65v13h211v-13zM850 700v-13h-65v-426q0 -146 -48.5 -207t-174.5 -61q-64 0 -191 52v181h10q33 -121 76.5 -169.5t104.5 -48.5q74 0 107.5 42.5t33.5 144.5v492h-114v13h261z" />
    <glyph glyph-name="ij" unicode="&#x133;" horiz-adv-x="553" 
d="M180 13h56v-13h-186v13h57v501h-57v13h130v-514zM143 595q-21 0 -35.5 15t-14.5 36t14.5 36t35.5 15t36 -15t15 -36t-15 -36t-36 -15zM307 527h152v-379q0 -184 -39.5 -256t-153.5 -72v15q119 0 119 206v473h-78v13zM422 595q-21 0 -36 15t-15 36t15 36t36 15t36 -15
t15 -36t-15 -36t-36 -15z" />
    <glyph glyph-name="Jcircumflex" unicode="&#x134;" horiz-adv-x="579" 
d="M519 700v-13h-65v-426q0 -146 -48.5 -207t-174.5 -61q-64 0 -191 52v181h10q33 -121 76.5 -169.5t104.5 -48.5q74 0 107.5 42.5t33.5 144.5v492h-114v13h261zM357 920l156 -147l-7 -7l-167 94l-167 -94l-7 7l156 147h36z" />
    <glyph glyph-name="jcircumflex" unicode="&#x135;" 
d="M37 527h152v-379q0 -184 -39.5 -256t-153.5 -72v15q119 0 119 206v473h-78v13zM142 720l156 -147l-7 -7l-167 94l-167 -94l-7 7l156 147h36z" />
    <glyph glyph-name="Kcommaaccent" unicode="&#x136;" horiz-adv-x="775" 
d="M681 13h74v-13h-236v13h56l-239 361l-130 -133v-228h65v-13h-211v13h64v674h-64v13h211v-13h-65v-424l279 283q50 51 62.5 83.5t-4.5 45t-54 12.5v13h215v-13q-47 -11 -89.5 -43t-119.5 -109l-94 -96zM387 -78q22 0 37.5 -15.5t15.5 -37.5q0 -35 -26.5 -70t-51.5 -50
l-3 5q15 12 30 33t20 34q-8 -5 -22 -5q-22 0 -37.5 15.5t-15.5 37.5t15.5 37.5t37.5 15.5z" />
    <glyph glyph-name="kcommaaccent" unicode="&#x137;" horiz-adv-x="618" 
d="M535 13h63v-13h-203v13h50l-169 248l-97 -110v-138h57v-13h-186v13h56v674h-56v13h129v-533l204 233q32 37 41 62.5t-4 38t-44 13.5v13h172v-13q-42 -11 -68 -30.5t-76 -75.5l-75 -86zM314 -78q22 0 37.5 -15.5t15.5 -37.5q0 -35 -26.5 -70t-51.5 -50l-3 5q15 12 30 33
t20 34q-8 -5 -22 -5q-22 0 -37.5 15.5t-15.5 37.5t15.5 37.5t37.5 15.5z" />
    <glyph glyph-name="kgreenlandic" unicode="&#x138;" horiz-adv-x="618" 
d="M535 13h63v-13h-203v13h50l-169 248l-97 -110v-138h57v-13h-186v13h56v501h-56v13h186v-13h-57v-347l204 233q32 37 41 62.5t-4 38t-44 13.5v13h172v-13q-42 -11 -68 -30.5t-76 -75.5l-75 -86z" />
    <glyph glyph-name="Lacute" unicode="&#x139;" horiz-adv-x="662" 
d="M610 226h12v-226h-562v13h65v674h-65v13h211v-13h-64v-665h204q103 0 145.5 49t53.5 155zM273 905q10 -13 3.5 -26.5t-31.5 -39.5q-21 -21 -53.5 -45.5t-54.5 -38.5l-22 -14l-7 7q52 82 99 129q25 25 39 32t27 -4z" />
    <glyph glyph-name="lacute" unicode="&#x13a;" 
d="M180 13h56v-13h-186v13h56v674h-56v13h130v-687zM228 928q10 -13 3.5 -26.5t-31.5 -39.5q-21 -21 -53.5 -45.5t-54.5 -38.5l-22 -14l-7 7q52 82 99 129q25 25 39 32t27 -4z" />
    <glyph glyph-name="Lcommaaccent" unicode="&#x13b;" horiz-adv-x="662" 
d="M610 226h12v-226h-562v13h65v674h-65v13h211v-13h-64v-665h204q103 0 145.5 49t53.5 155zM361 -78q22 0 37.5 -15.5t15.5 -37.5q0 -35 -26.5 -70t-51.5 -50l-3 5q15 12 30 33t20 34q-8 -5 -22 -5q-22 0 -37.5 15.5t-15.5 37.5t15.5 37.5t37.5 15.5z" />
    <glyph glyph-name="lcommaaccent" unicode="&#x13c;" 
d="M180 13h56v-13h-186v13h56v674h-56v13h130v-687zM143 -78q22 0 37.5 -15.5t15.5 -37.5q0 -35 -26.5 -70t-51.5 -50l-3 5q15 12 30 33t20 34q-8 -5 -22 -5q-22 0 -37.5 15.5t-15.5 37.5t15.5 37.5t37.5 15.5z" />
    <glyph glyph-name="Lcaron" unicode="&#x13d;" horiz-adv-x="662" 
d="M610 226h12v-226h-562v13h65v674h-65v13h211v-13h-64v-665h204q103 0 145.5 49t53.5 155zM427 703q23 0 38 -15.5t15 -37.5q0 -35 -26.5 -70t-51.5 -50l-3 5q15 12 30 33t20 34q-8 -5 -22 -5q-22 0 -37.5 15.5t-15.5 37.5t15.5 37.5t37.5 15.5z" />
    <glyph glyph-name="lcaron" unicode="&#x13e;" horiz-adv-x="402" 
d="M180 13h56v-13h-186v13h56v674h-56v13h130v-687zM329 704q23 0 38 -15t15 -38q0 -35 -26.5 -70t-51.5 -50l-3 5q15 12 30 33t20 34q-8 -5 -22 -5q-22 0 -37.5 15.5t-15.5 37.5t15.5 37.5t37.5 15.5z" />
    <glyph glyph-name="Ldot" unicode="&#x13f;" horiz-adv-x="662" 
d="M428 353q22 0 37.5 -15.5t15.5 -37.5t-15.5 -37.5t-37.5 -15.5t-38 15.5t-16 37.5t16 37.5t38 15.5zM610 226h12v-226h-562v13h65v674h-65v13h211v-13h-64v-665h204q103 0 145.5 49t53.5 155z" />
    <glyph glyph-name="ldot" unicode="&#x140;" horiz-adv-x="471" 
d="M378 353q22 0 37.5 -15.5t15.5 -37.5t-15.5 -37.5t-37.5 -15.5t-38 15.5t-16 37.5t16 37.5t38 15.5zM180 13h56v-13h-186v13h56v674h-56v13h130v-687z" />
    <glyph glyph-name="Lslash" unicode="&#x141;" horiz-adv-x="662" 
d="M610 226h12v-226h-562v13h65v228l-65 -28v22l65 28v424h-65v13h211v-13h-65v-389l230 99v-22l-230 -98v-255h204q103 0 145.5 49t54.5 155z" />
    <glyph glyph-name="lslash" unicode="&#x142;" 
d="M236 312l-56 -24v-275h56v-13h-186v13h56v243l-56 -24v21l56 25v409h-56v13h130v-391l56 25v-22z" />
    <glyph glyph-name="Nacute" unicode="&#x143;" horiz-adv-x="858" 
d="M592 700h216v-13q-58 -11 -77.5 -57t-19.5 -133v-497h-44l-491 612v-409q0 -84 23 -131.5t82 -58.5v-13h-216v13q59 11 78.5 57t19.5 133v426l-47 58h-66v13h174l474 -589v386q0 84 -23.5 131.5t-82.5 58.5v13zM534 905q10 -13 3.5 -26.5t-31.5 -39.5
q-21 -21 -53.5 -45.5t-54.5 -38.5l-22 -14l-7 7q52 82 99 129q25 25 39 32t27 -4z" />
    <glyph glyph-name="nacute" unicode="&#x144;" horiz-adv-x="691" 
d="M585 13h56v-13h-186v13h56v338q0 167 -169 142q-61 -9 -111.5 -56.5t-50.5 -87.5v-336h56v-13h-186v13h56v501h-56v13h130v-142q29 59 91.5 107t131.5 48q102 0 142 -51t40 -139v-337zM420 755q10 -13 3.5 -26.5t-31.5 -39.5q-21 -21 -53.5 -45.5t-54.5 -38.5l-22 -14
l-7 7q52 82 99 129q25 25 39 32t27 -4z" />
    <glyph glyph-name="Ncommaaccent" unicode="&#x145;" horiz-adv-x="858" 
d="M592 700h216v-13q-58 -11 -77.5 -57t-19.5 -133v-497h-44l-491 612v-409q0 -84 23 -131.5t82 -58.5v-13h-216v13q59 11 78.5 57t19.5 133v426l-47 58h-66v13h174l474 -589v386q0 84 -23.5 131.5t-82.5 58.5v13zM464 -78q22 0 37.5 -15.5t15.5 -37.5q0 -35 -26.5 -70
t-51.5 -50l-3 5q15 12 30 33t20 34q-8 -5 -22 -5q-22 0 -37.5 15.5t-15.5 37.5t15.5 37.5t37.5 15.5z" />
    <glyph glyph-name="ncommaaccent" unicode="&#x146;" horiz-adv-x="691" 
d="M585 13h56v-13h-186v13h56v338q0 167 -169 142q-61 -9 -111.5 -56.5t-50.5 -87.5v-336h56v-13h-186v13h56v501h-56v13h130v-142q29 59 91.5 107t131.5 48q102 0 142 -51t40 -139v-337zM355 -78q22 0 37.5 -15.5t15.5 -37.5q0 -35 -26.5 -70t-51.5 -50l-3 5q15 12 30 33
t20 34q-8 -5 -22 -5q-22 0 -37.5 15.5t-15.5 37.5t15.5 37.5t37.5 15.5z" />
    <glyph glyph-name="Ncaron" unicode="&#x147;" horiz-adv-x="858" 
d="M592 700h216v-13q-58 -11 -77.5 -57t-19.5 -133v-497h-44l-491 612v-409q0 -84 23 -131.5t82 -58.5v-13h-216v13q59 11 78.5 57t19.5 133v426l-47 58h-66v13h174l474 -589v386q0 84 -23.5 131.5t-82.5 58.5v13zM596 920l7 -6l-156 -148h-36l-156 148l7 6l167 -93z" />
    <glyph glyph-name="ncaron" unicode="&#x148;" horiz-adv-x="691" 
d="M585 13h56v-13h-186v13h56v338q0 167 -169 142q-61 -9 -111.5 -56.5t-50.5 -87.5v-336h56v-13h-186v13h56v501h-56v13h130v-142q29 59 91.5 107t131.5 48q102 0 142 -51t40 -139v-337zM512 770l7 -6l-156 -148h-36l-156 148l7 6l167 -93z" />
    <glyph glyph-name="napostrophe" unicode="&#x149;" horiz-adv-x="868" 
d="M762 13h56v-13h-186v13h56v338q0 167 -169 142q-61 -9 -111.5 -56.5t-50.5 -87.5v-336h56v-13h-186v13h56v501h-56v13h130v-142q29 59 91.5 107t131.5 48q102 0 142 -51t40 -139v-337zM93 530q22 0 37.5 -15.5t15.5 -37.5q0 -35 -26.5 -70t-51.5 -50l-3 5q15 12 30 33
t20 34q-8 -5 -22 -5q-22 0 -37.5 15.5t-15.5 37.5t15.5 37.5t37.5 15.5z" />
    <glyph glyph-name="Eng" unicode="&#x14a;" horiz-adv-x="858" 
d="M591 700h217v-13q-59 -11 -78.5 -57t-19.5 -133v-591q0 -83 -37.5 -120t-98.5 -37q-38 0 -104 19t-111 40v205h10q24 -126 68.5 -183t123.5 -66q59 -7 97.5 27.5t38.5 119.5v89h-31l-491 612v-409q0 -84 23 -131.5t83 -58.5v-13h-216v13q58 11 77.5 57t19.5 133v426
l-47 58h-65v13h174l473 -589v386q0 84 -23 131.5t-83 58.5v13z" />
    <glyph glyph-name="eng" unicode="&#x14b;" horiz-adv-x="685" 
d="M403 540q102 0 142 -51t40 -139v-267q0 -58 -3 -98.5t-15.5 -88.5t-34.5 -77.5t-62.5 -49.5t-97.5 -20q-35 0 -95 14.5t-99 30.5v172h11q23 -114 65 -158t98 -44q26 0 47.5 6t37 14.5t27.5 25.5t20 31.5t13 40.5t8 43.5t4.5 50.5t1.5 51.5v55.5v268q0 167 -169 142
q-61 -9 -111.5 -56.5t-50.5 -87.5v-336h56v-13h-186v13h56v501h-56v13h130v-142q29 59 91.5 107t131.5 48z" />
    <glyph glyph-name="Omacron" unicode="&#x14c;" horiz-adv-x="839" 
d="M419 703q170 0 270 -96.5t100 -258.5t-100 -258.5t-270 -96.5q-169 0 -269 96.5t-100 258.5t100 258.5t269 96.5zM419 5q117 0 197.5 86.5t80.5 256.5q0 171 -80.5 257.5t-197.5 86.5t-197 -86.5t-80 -257.5q0 -170 80 -256.5t197 -86.5zM259 832h321v-19h-321v19z" />
    <glyph glyph-name="omacron" unicode="&#x14d;" horiz-adv-x="686" 
d="M339 540q55 0 106.5 -16.5t95 -48.5t69.5 -86.5t26 -122.5t-26 -122t-69.5 -86t-95 -48.5t-106.5 -16.5t-106.5 16.5t-95.5 48.5t-70.5 86t-26.5 122t26.5 122.5t70.5 86.5t95.5 48.5t106.5 16.5zM339 5q95 0 153.5 72.5t58.5 188.5q0 117 -58 189t-154 72t-155 -72.5
t-59 -188.5t59 -188.5t155 -72.5zM177 682h321v-19h-321v19z" />
    <glyph glyph-name="Obreve" unicode="&#x14e;" horiz-adv-x="839" 
d="M419 703q170 0 270 -96.5t100 -258.5t-100 -258.5t-270 -96.5q-169 0 -269 96.5t-100 258.5t100 258.5t269 96.5zM419 5q117 0 197.5 86.5t80.5 256.5q0 171 -80.5 257.5t-197.5 86.5t-197 -86.5t-80 -257.5q0 -170 80 -256.5t197 -86.5zM551 920h7q0 -74 -36.5 -114.5
t-102.5 -40.5t-102.5 40.5t-36.5 114.5h7q14 -44 47 -73.5t85 -29.5q53 0 85.5 29.5t46.5 73.5z" />
    <glyph glyph-name="obreve" unicode="&#x14f;" horiz-adv-x="686" 
d="M339 540q55 0 106.5 -16.5t95 -48.5t69.5 -86.5t26 -122.5t-26 -122t-69.5 -86t-95 -48.5t-106.5 -16.5t-106.5 16.5t-95.5 48.5t-70.5 86t-26.5 122t26.5 122.5t70.5 86.5t95.5 48.5t106.5 16.5zM339 5q95 0 153.5 72.5t58.5 188.5q0 117 -58 189t-154 72t-155 -72.5
t-59 -188.5t59 -188.5t155 -72.5zM470 770h7q0 -74 -36.5 -114.5t-102.5 -40.5t-102.5 40.5t-36.5 114.5h7q14 -44 47 -73.5t85 -29.5q53 0 85.5 29.5t46.5 73.5z" />
    <glyph glyph-name="Ohungarumlaut" unicode="&#x150;" horiz-adv-x="839" 
d="M419 703q170 0 270 -96.5t100 -258.5t-100 -258.5t-270 -96.5q-169 0 -269 96.5t-100 258.5t100 258.5t269 96.5zM419 5q117 0 197.5 86.5t80.5 256.5q0 171 -80.5 257.5t-197.5 86.5t-197 -86.5t-80 -257.5q0 -170 80 -256.5t197 -86.5zM456 905q10 -13 3.5 -26.5
t-31.5 -39.5q-21 -21 -53.5 -45.5t-54.5 -38.5l-22 -14l-7 7q52 82 99 129q47 48 66 28zM631 905q11 -13 4 -27t-32 -39q-21 -21 -53 -45.5t-54 -38.5l-22 -14l-7 7q51 82 98 129q25 25 39 32t27 -4z" />
    <glyph glyph-name="ohungarumlaut" unicode="&#x151;" horiz-adv-x="686" 
d="M339 540q55 0 106.5 -16.5t95 -48.5t69.5 -86.5t26 -122.5t-26 -122t-69.5 -86t-95 -48.5t-106.5 -16.5t-106.5 16.5t-95.5 48.5t-70.5 86t-26.5 122t26.5 122.5t70.5 86.5t95.5 48.5t106.5 16.5zM339 5q95 0 153.5 72.5t58.5 188.5q0 117 -58 189t-154 72t-155 -72.5
t-59 -188.5t59 -188.5t155 -72.5zM395 755q10 -13 3.5 -26.5t-31.5 -39.5q-21 -21 -53.5 -45.5t-54.5 -38.5l-22 -14l-7 7q52 82 99 129q47 48 66 28zM570 755q11 -13 4 -27t-32 -39q-21 -21 -53 -45.5t-54 -38.5l-22 -14l-7 7q51 82 98 129q25 25 39 32t27 -4z" />
    <glyph glyph-name="OE" unicode="&#x152;" horiz-adv-x="1094" 
d="M1032 226h12v-226h-558q-102 0 -180 18.5t-136.5 59t-89 109t-30.5 163.5t30.5 163.5t89 109t136.5 59t180 18.5h542v-226h-12q-12 107 -54.5 156t-145.5 49h-171v-322h153q64 0 88.5 19t36.5 77h10v-204h-10q-12 57 -36.5 76t-88.5 19h-153v-322h187q103 0 146 49
t54 155zM458 22h105v657h-105q-313 0 -313 -329q0 -328 313 -328z" />
    <glyph glyph-name="oe" unicode="&#x153;" horiz-adv-x="1137" 
d="M832 540q122 0 191.5 -69t62.5 -205h-446q3 -74 40.5 -127t91.5 -77t117 -24q61 0 105.5 24.5t68.5 54.5l10 -8q-27 -46 -88.5 -81t-145.5 -35q-76 0 -141 32.5t-104 91.5q-39 -61 -108.5 -92.5t-146.5 -31.5q-55 0 -106.5 16.5t-95.5 48.5t-70.5 86t-26.5 122
t26.5 122.5t70.5 86.5t95.5 48.5t106.5 16.5q75 0 143 -30.5t109 -88.5q36 59 99.5 89t141.5 30zM339 5q95 0 153.5 72.5t58.5 188.5q0 117 -58 189t-154 72t-155 -72.5t-59 -188.5t59 -188.5t155 -72.5zM832 527q-86 0 -140.5 -67.5t-52.5 -171.5h370q7 108 -41.5 173.5
t-135.5 65.5z" />
    <glyph glyph-name="Racute" unicode="&#x154;" horiz-adv-x="739" 
d="M618 181v-87q0 -75 50 -75q49 0 49 87h12q0 -23 -2.5 -39t-11 -35t-28.5 -29t-50 -10q-54 0 -81.5 25t-27.5 88v103q0 71 -35 96t-132 25h-155v-317h65v-13h-211v13h65v674h-65v13h287q132 0 201.5 -43t69.5 -146q0 -76 -52.5 -122.5t-151.5 -46.5v-4q118 0 161 -33
t43 -124zM337 343q91 0 141 38.5t50 132.5q0 93 -51.5 129t-139.5 36h-131v-336h131zM439 905q10 -13 3.5 -26.5t-31.5 -39.5q-21 -21 -53.5 -45.5t-54.5 -38.5l-22 -14l-7 7q52 82 99 129q25 25 39 32t27 -4z" />
    <glyph glyph-name="racute" unicode="&#x155;" horiz-adv-x="505" 
d="M354 540q37 0 67 -17.5t44 -37.5l-56 -81h-7q-12 47 -46 71.5t-82 7.5q-33 -11 -63.5 -61.5t-30.5 -89.5v-319h90v-13h-220v13h57v501h-57v13h130v-155q57 168 174 168zM342 755q10 -13 3.5 -26.5t-31.5 -39.5q-21 -21 -53.5 -45.5t-54.5 -38.5l-22 -14l-7 7
q52 82 99 129q25 25 39 32t27 -4z" />
    <glyph glyph-name="Rcommaaccent" unicode="&#x156;" horiz-adv-x="739" 
d="M618 181v-87q0 -75 50 -75q49 0 49 87h12q0 -23 -2.5 -39t-11 -35t-28.5 -29t-50 -10q-54 0 -81.5 25t-27.5 88v103q0 71 -35 96t-132 25h-155v-317h65v-13h-211v13h65v674h-65v13h287q132 0 201.5 -43t69.5 -146q0 -76 -52.5 -122.5t-151.5 -46.5v-4q118 0 161 -33
t43 -124zM337 343q91 0 141 38.5t50 132.5q0 93 -51.5 129t-139.5 36h-131v-336h131zM404 -78q22 0 37.5 -15.5t15.5 -37.5q0 -35 -26.5 -70t-51.5 -50l-3 5q15 12 30 33t20 34q-8 -5 -22 -5q-22 0 -37.5 15.5t-15.5 37.5t15.5 37.5t37.5 15.5z" />
    <glyph glyph-name="rcommaaccent" unicode="&#x157;" horiz-adv-x="505" 
d="M354 540q37 0 67 -17.5t44 -37.5l-56 -81h-7q-12 47 -46 71.5t-82 7.5q-33 -11 -63.5 -61.5t-30.5 -89.5v-319h90v-13h-220v13h57v501h-57v13h130v-155q57 168 174 168zM142 -78q22 0 37.5 -15.5t15.5 -37.5q0 -35 -26.5 -70t-51.5 -50l-3 5q15 12 30 33t20 34
q-8 -5 -22 -5q-22 0 -37.5 15.5t-15.5 37.5t15.5 37.5t37.5 15.5z" />
    <glyph glyph-name="Rcaron" unicode="&#x158;" horiz-adv-x="739" 
d="M618 181v-87q0 -75 50 -75q49 0 49 87h12q0 -23 -2.5 -39t-11 -35t-28.5 -29t-50 -10q-54 0 -81.5 25t-27.5 88v103q0 71 -35 96t-132 25h-155v-317h65v-13h-211v13h65v674h-65v13h287q132 0 201.5 -43t69.5 -146q0 -76 -52.5 -122.5t-151.5 -46.5v-4q118 0 161 -33
t43 -124zM337 343q91 0 141 38.5t50 132.5q0 93 -51.5 129t-139.5 36h-131v-336h131zM501 920l7 -6l-156 -148h-36l-156 148l7 6l167 -93z" />
    <glyph glyph-name="rcaron" unicode="&#x159;" horiz-adv-x="505" 
d="M354 540q37 0 67 -17.5t44 -37.5l-56 -81h-7q-12 47 -46 71.5t-82 7.5q-33 -11 -63.5 -61.5t-30.5 -89.5v-319h90v-13h-220v13h57v501h-57v13h130v-155q57 168 174 168zM434 770l7 -6l-156 -148h-36l-156 148l7 6l167 -93z" />
    <glyph glyph-name="Sacute" unicode="&#x15a;" horiz-adv-x="578" 
d="M152 587q-4 -33 4.5 -60t22.5 -45.5t45.5 -39t54 -31.5l66.5 -31q69 -32 107.5 -58t59.5 -66t14 -94q-11 -84 -78.5 -126.5t-164.5 -42.5q-83 0 -233 48v161h9q36 -112 86 -153t131 -41q134 0 160 79q27 78 -13 130.5t-142 97.5q-51 22 -85 41t-65.5 46.5t-45 63
t-8.5 79.5t26 76.5t52.5 49.5t65.5 24.5t71 7.5q67 0 206 -50v-144h-9q-36 103 -80 141t-118 38q-126 0 -139 -101zM394 905q10 -13 3.5 -26.5t-31.5 -39.5q-21 -21 -53.5 -45.5t-54.5 -38.5l-22 -14l-7 7q52 82 99 129q25 25 39 32t27 -4z" />
    <glyph glyph-name="sacute" unicode="&#x15b;" horiz-adv-x="487" 
d="M134 448q-4 -28 1.5 -48.5t27.5 -38.5t46.5 -30.5t72.5 -32.5q28 -12 49 -23t42.5 -25.5t34 -30t21 -34.5t8 -42t-9.5 -50q-19 -53 -70 -76.5t-113 -23.5q-60 0 -204 39v149h7q26 -58 52.5 -96t52 -54t42 -21.5t39.5 -6.5q104 -6 125 66q5 19 6 35t-3.5 30t-11 25.5
t-18.5 22t-23.5 18.5t-28.5 16.5t-31 14l-33 13.5q-93 37 -125 79.5t-23 106.5q6 43 40 69.5t67.5 33.5t70.5 7q14 0 30 -2t36 -6.5t33 -8l39.5 -11l37.5 -10.5v-134h-7q-42 96 -81 128.5t-93 32.5q-35 0 -67.5 -20t-38.5 -61zM353 755q10 -13 3.5 -26.5t-31.5 -39.5
q-21 -21 -53.5 -45.5t-54.5 -38.5l-22 -14l-7 7q52 82 99 129q25 25 39 32t27 -4z" />
    <glyph glyph-name="Scircumflex" unicode="&#x15c;" horiz-adv-x="578" 
d="M152 587q-4 -33 4.5 -60t22.5 -45.5t45.5 -39t54 -31.5l66.5 -31q69 -32 107.5 -58t59.5 -66t14 -94q-11 -84 -78.5 -126.5t-164.5 -42.5q-83 0 -233 48v161h9q36 -112 86 -153t131 -41q134 0 160 79q27 78 -13 130.5t-142 97.5q-51 22 -85 41t-65.5 46.5t-45 63
t-8.5 79.5t26 76.5t52.5 49.5t65.5 24.5t71 7.5q67 0 206 -50v-144h-9q-36 103 -80 141t-118 38q-126 0 -139 -101zM317 920l156 -147l-7 -7l-167 94l-167 -94l-7 7l156 147h36z" />
    <glyph glyph-name="scircumflex" unicode="&#x15d;" horiz-adv-x="487" 
d="M134 448q-4 -28 1.5 -48.5t27.5 -38.5t46.5 -30.5t72.5 -32.5q28 -12 49 -23t42.5 -25.5t34 -30t21 -34.5t8 -42t-9.5 -50q-19 -53 -70 -76.5t-113 -23.5q-60 0 -204 39v149h7q26 -58 52.5 -96t52 -54t42 -21.5t39.5 -6.5q104 -6 125 66q5 19 6 35t-3.5 30t-11 25.5
t-18.5 22t-23.5 18.5t-28.5 16.5t-31 14l-33 13.5q-93 37 -125 79.5t-23 106.5q6 43 40 69.5t67.5 33.5t70.5 7q14 0 30 -2t36 -6.5t33 -8l39.5 -11l37.5 -10.5v-134h-7q-42 96 -81 128.5t-93 32.5q-35 0 -67.5 -20t-38.5 -61zM266 770l156 -147l-7 -7l-167 94l-167 -94
l-7 7l156 147h36z" />
    <glyph glyph-name="Scedilla" unicode="&#x15e;" horiz-adv-x="578" 
d="M345 380q104 -48 147.5 -94t33.5 -124q-11 -84 -78.5 -126.5t-165.5 -42.5q-14 0 -21 1l-9 -34q79 13 126.5 -19.5t30.5 -99.5q-16 -63 -83 -88.5t-162 7.5l2 9q71 -11 121 13.5t63 80.5q10 45 -25 70.5t-89 13.5l13 48q-77 6 -199 46v161h9q36 -112 85.5 -153t131.5 -41
q134 0 160 79q27 78 -13 130.5t-142 97.5q-51 22 -85 41t-66 46.5t-45 63t-8 79.5t26 76.5t52.5 49.5t65.5 24.5t71 7.5q65 0 206 -50v-144h-10q-36 103 -79.5 141t-118.5 38q-125 0 -139 -101q-4 -33 4.5 -60t22.5 -45.5t45.5 -39t54.5 -31.5z" />
    <glyph glyph-name="scedilla" unicode="&#x15f;" horiz-adv-x="487" 
d="M282 298q29 -12 49.5 -23t42 -25.5t34 -30t21 -34.5t8 -42t-10.5 -50q-19 -53 -69.5 -76.5t-112.5 -23.5q-4 0 -13 0.5t-14 0.5l-9 -34q78 13 125.5 -19.5t30.5 -99.5q-16 -63 -82.5 -88.5t-161.5 7.5l2 9q70 -11 120.5 13.5t62.5 80.5q11 45 -24 70.5t-89 13.5l13 49
q-51 5 -165 36v149h7q26 -58 52.5 -96t52 -54t42 -21.5t39.5 -6.5q104 -6 125 66q5 19 6 35t-3.5 30t-11.5 25.5t-19 22t-23.5 18.5t-28.5 16.5t-30.5 14l-33.5 13.5q-93 37 -124.5 79.5t-22.5 106.5q6 43 40 69.5t67.5 33.5t70.5 7q14 0 30 -2t36 -6.5t33 -8l39.5 -11
l37.5 -10.5v-134h-7q-42 96 -81 128.5t-93 32.5q-35 0 -67.5 -20t-38.5 -61q-4 -28 1.5 -48.5t27.5 -38.5t46.5 -30.5t72.5 -32.5z" />
    <glyph glyph-name="Scaron" unicode="&#x160;" horiz-adv-x="578" 
d="M152 587q-4 -33 4.5 -60t22.5 -45.5t45.5 -39t54 -31.5l66.5 -31q69 -32 107.5 -58t59.5 -66t14 -94q-11 -84 -78.5 -126.5t-164.5 -42.5q-83 0 -233 48v161h9q36 -112 86 -153t131 -41q134 0 160 79q27 78 -13 130.5t-142 97.5q-51 22 -85 41t-65.5 46.5t-45 63
t-8.5 79.5t26 76.5t52.5 49.5t65.5 24.5t71 7.5q67 0 206 -50v-144h-9q-36 103 -80 141t-118 38q-126 0 -139 -101zM476 920l7 -6l-156 -148h-36l-156 148l7 6l167 -93z" />
    <glyph glyph-name="scaron" unicode="&#x161;" horiz-adv-x="487" 
d="M134 448q-4 -28 1.5 -48.5t27.5 -38.5t46.5 -30.5t72.5 -32.5q28 -12 49 -23t42.5 -25.5t34 -30t21 -34.5t8 -42t-9.5 -50q-19 -53 -70 -76.5t-113 -23.5q-60 0 -204 39v149h7q26 -58 52.5 -96t52 -54t42 -21.5t39.5 -6.5q104 -6 125 66q5 19 6 35t-3.5 30t-11 25.5
t-18.5 22t-23.5 18.5t-28.5 16.5t-31 14l-33 13.5q-93 37 -125 79.5t-23 106.5q6 43 40 69.5t67.5 33.5t70.5 7q14 0 30 -2t36 -6.5t33 -8l39.5 -11l37.5 -10.5v-134h-7q-42 96 -81 128.5t-93 32.5q-35 0 -67.5 -20t-38.5 -61zM415 770l7 -6l-156 -148h-36l-156 148l7 6
l167 -93z" />
    <glyph glyph-name="Tcommaaccent" unicode="&#x162;" horiz-adv-x="725" 
d="M50 700h625v-218h-12q-9 90 -19 118q-28 79 -126 79h-115v-666h65v-13h-211v13h65v666h-115q-37 0 -63.5 -11t-40.5 -27.5t-22.5 -42.5t-11.5 -48t-6 -53q-1 -10 -1 -15h-12v218zM362 -78q22 0 37.5 -15.5t15.5 -37.5q0 -35 -26.5 -70t-51.5 -50l-3 5q15 12 30 33t20 34
q-8 -5 -22 -5q-22 0 -37.5 15.5t-15.5 37.5t15.5 37.5t37.5 15.5z" />
    <glyph glyph-name="tcommaaccent" unicode="&#x163;" horiz-adv-x="384" 
d="M344 82l10 -7q-45 -82 -123 -82q-71 0 -102.5 42t-31.5 129v350h-57v13h57l65 160h8v-160h155v-13h-155v-364q0 -115 83 -115q55 0 91 47zM207 -78q22 0 37.5 -15.5t15.5 -37.5q0 -35 -26.5 -70t-51.5 -50l-3 5q15 12 30 33t20 34q-8 -5 -22 -5q-22 0 -37.5 15.5
t-15.5 37.5t15.5 37.5t37.5 15.5z" />
    <glyph glyph-name="Tcaron" unicode="&#x164;" horiz-adv-x="725" 
d="M50 700h625v-218h-12q-9 90 -19 118q-28 79 -126 79h-115v-666h65v-13h-211v13h65v666h-115q-37 0 -63.5 -11t-40.5 -27.5t-22.5 -42.5t-11.5 -48t-6 -53q-1 -10 -1 -15h-12v218zM529 920l7 -6l-156 -148h-36l-156 148l7 6l167 -93z" />
    <glyph glyph-name="tcaron" unicode="&#x165;" horiz-adv-x="500" 
d="M344 82l10 -7q-45 -82 -123 -82q-71 0 -102.5 42t-31.5 129v350h-57v13h57l65 160h8v-160h155v-13h-155v-364q0 -115 83 -115q55 0 91 47zM427 704q23 0 38 -15t15 -38q0 -35 -26.5 -70t-51.5 -50l-3 5q15 12 30 33t20 34q-8 -5 -22 -5q-22 0 -37.5 15.5t-15.5 37.5
t15.5 37.5t37.5 15.5z" />
    <glyph glyph-name="Tbar" unicode="&#x166;" horiz-adv-x="725" 
d="M50 700h625v-218h-12q-8 91 -19 120q-28 77 -125 77h-115v-318h154v-21h-154v-327h64v-13h-211v13h65v327h-154v21h154v318h-115q-101 0 -128 -86q-9 -25 -17 -111h-12v218z" />
    <glyph glyph-name="tbar" unicode="&#x167;" horiz-adv-x="383" 
d="M343 82l10 -7q-45 -82 -122 -82q-72 0 -103.5 42t-31.5 129v166h-56v21h56v163h-56v13h56l65 160h8v-160h156v-13h-156v-163h134v-21h-134v-180q0 -115 83 -115q55 0 91 47z" />
    <glyph glyph-name="Utilde" unicode="&#x168;" horiz-adv-x="774" 
d="M578 700h146v-13q-36 -10 -51 -45t-15 -112v-248q0 -141 -70 -215t-198 -74q-124 0 -194.5 74.5t-70.5 214.5v405h-65v13h211v-13h-65v-405q0 -249 223 -249q92 0 153.5 66t61.5 183v248q0 78 -14 112.5t-52 44.5v13zM483 780q-17 2 -34.5 10.5t-39.5 22.5t-33 20
q-40 18 -64 6t-31 -44h-6q3 65 29 87t61 16q25 -3 67.5 -31.5t55.5 -32.5q61 -19 73 39h7q-1 -51 -24 -74.5t-61 -18.5z" />
    <glyph glyph-name="utilde" unicode="&#x169;" horiz-adv-x="671" 
d="M564 13h57v-13h-130v147q-27 -60 -84.5 -107t-129.5 -47q-191 0 -191 190v331h-56v13h130v-345q0 -83 46.5 -118.5t130.5 -23.5q62 8 108 55.5t46 88.5v330h-56v13h129v-514zM387 630q-17 2 -34.5 10.5t-39.5 22.5t-33 20q-40 18 -64 6t-31 -44h-6q3 65 29 87t61 16
q25 -3 67.5 -31.5t55.5 -32.5q61 -19 73 39h7q-1 -51 -24 -74.5t-61 -18.5z" />
    <glyph glyph-name="Umacron" unicode="&#x16a;" horiz-adv-x="774" 
d="M578 700h146v-13q-36 -10 -51 -45t-15 -112v-248q0 -141 -70 -215t-198 -74q-124 0 -194.5 74.5t-70.5 214.5v405h-65v13h211v-13h-65v-405q0 -249 223 -249q92 0 153.5 66t61.5 183v248q0 78 -14 112.5t-52 44.5v13zM261 832h321v-19h-321v19z" />
    <glyph glyph-name="umacron" unicode="&#x16b;" horiz-adv-x="671" 
d="M564 13h57v-13h-130v147q-27 -60 -84.5 -107t-129.5 -47q-191 0 -191 190v331h-56v13h130v-345q0 -83 46.5 -118.5t130.5 -23.5q62 8 108 55.5t46 88.5v330h-56v13h129v-514zM155 682h321v-19h-321v19z" />
    <glyph glyph-name="Ubreve" unicode="&#x16c;" horiz-adv-x="774" 
d="M578 700h146v-13q-36 -10 -51 -45t-15 -112v-248q0 -141 -70 -215t-198 -74q-124 0 -194.5 74.5t-70.5 214.5v405h-65v13h211v-13h-65v-405q0 -249 223 -249q92 0 153.5 66t61.5 183v248q0 78 -14 112.5t-52 44.5v13zM554 920h7q0 -74 -36.5 -114.5t-102.5 -40.5
t-102.5 40.5t-36.5 114.5h7q14 -44 47 -73.5t85 -29.5q53 0 85.5 29.5t46.5 73.5z" />
    <glyph glyph-name="ubreve" unicode="&#x16d;" horiz-adv-x="671" 
d="M564 13h57v-13h-130v147q-27 -60 -84.5 -107t-129.5 -47q-191 0 -191 190v331h-56v13h130v-345q0 -83 46.5 -118.5t130.5 -23.5q62 8 108 55.5t46 88.5v330h-56v13h129v-514zM437 770h7q0 -74 -36.5 -114.5t-102.5 -40.5t-102.5 40.5t-36.5 114.5h7q14 -44 47 -73.5
t85 -29.5q53 0 85.5 29.5t46.5 73.5z" />
    <glyph glyph-name="Uring" unicode="&#x16e;" horiz-adv-x="774" 
d="M578 700h146v-13q-36 -10 -51 -45t-15 -112v-248q0 -141 -70 -215t-198 -74q-124 0 -194.5 74.5t-70.5 214.5v405h-65v13h211v-13h-65v-405q0 -249 223 -249q92 0 153.5 66t61.5 183v248q0 78 -14 112.5t-52 44.5v13zM421 749q-38 0 -65.5 27.5t-27.5 66.5t27.5 66.5
t65.5 27.5q39 0 66.5 -27.5t27.5 -66.5t-27.5 -66.5t-66.5 -27.5zM421 920q-31 0 -54 -23t-23 -54q0 -32 22.5 -54.5t54.5 -22.5t54.5 22.5t22.5 54.5t-22.5 54.5t-54.5 22.5z" />
    <glyph glyph-name="uring" unicode="&#x16f;" horiz-adv-x="671" 
d="M564 13h57v-13h-130v147q-27 -60 -84.5 -107t-129.5 -47q-191 0 -191 190v331h-56v13h130v-345q0 -83 46.5 -118.5t130.5 -23.5q62 8 108 55.5t46 88.5v330h-56v13h129v-514zM325 599q-38 0 -65.5 27.5t-27.5 66.5t27.5 66.5t65.5 27.5q39 0 66.5 -27.5t27.5 -66.5
t-27.5 -66.5t-66.5 -27.5zM325 770q-31 0 -54 -23t-23 -54q0 -32 22.5 -54.5t54.5 -22.5t54.5 22.5t22.5 54.5t-22.5 54.5t-54.5 22.5z" />
    <glyph glyph-name="Uhungarumlaut" unicode="&#x170;" horiz-adv-x="774" 
d="M578 700h146v-13q-36 -10 -51 -45t-15 -112v-248q0 -141 -70 -215t-198 -74q-124 0 -194.5 74.5t-70.5 214.5v405h-65v13h211v-13h-65v-405q0 -249 223 -249q92 0 153.5 66t61.5 183v248q0 78 -14 112.5t-52 44.5v13zM449 905q10 -13 3.5 -26.5t-31.5 -39.5
q-21 -21 -53.5 -45.5t-54.5 -38.5l-22 -14l-7 7q52 82 99 129q47 48 66 28zM624 905q11 -13 4 -27t-32 -39q-21 -21 -53 -45.5t-54 -38.5l-22 -14l-7 7q51 82 98 129q25 25 39 32t27 -4z" />
    <glyph glyph-name="uhungarumlaut" unicode="&#x171;" horiz-adv-x="671" 
d="M564 13h57v-13h-130v147q-27 -60 -84.5 -107t-129.5 -47q-191 0 -191 190v331h-56v13h130v-345q0 -83 46.5 -118.5t130.5 -23.5q62 8 108 55.5t46 88.5v330h-56v13h129v-514zM362 755q10 -13 3.5 -26.5t-31.5 -39.5q-21 -21 -53.5 -45.5t-54.5 -38.5l-22 -14l-7 7
q52 82 99 129q47 48 66 28zM537 755q11 -13 4 -27t-32 -39q-21 -21 -53 -45.5t-54 -38.5l-22 -14l-7 7q51 82 98 129q25 25 39 32t27 -4z" />
    <glyph glyph-name="Uogonek" unicode="&#x172;" horiz-adv-x="774" 
d="M578 700h146v-13q-36 -10 -51.5 -45t-15.5 -112v-247q0 -223 -167 -275q-18 -32 -30.5 -64.5t-16.5 -67.5t12 -54q27 -30 72 -25.5t88 35.5l4 -4q-28 -44 -76 -65t-90.5 -13.5t-59.5 37.5q-26 45 5.5 109t81.5 109q-40 -12 -90 -12q-124 0 -195 75t-71 215v404h-64v13
h211v-13h-65v-404q0 -250 223 -250q92 0 153.5 66.5t61.5 183.5v247q0 78 -14 112.5t-52 44.5v13z" />
    <glyph glyph-name="uogonek" unicode="&#x173;" horiz-adv-x="699" 
d="M645 -168l4 -4q-28 -44 -76 -64.5t-90.5 -13.5t-59.5 37q-25 44 5 105.5t79 107.5h-16v147q-28 -61 -85.5 -107.5t-129.5 -46.5q-190 0 -190 190v331h-56v13h129v-345q0 -83 47 -118.5t131 -23.5q62 8 108 55.5t46 88.5v330h-56v13h129v-514h57v-13h-104
q-18 -32 -29 -62.5t-14.5 -63.5t12.5 -52q26 -30 71 -25.5t88 35.5z" />
    <glyph glyph-name="Wcircumflex" unicode="&#x174;" horiz-adv-x="1098" 
d="M868 700h210v-13q-43 -13 -64 -38.5t-48 -103.5l-186 -545h-23l-214 570l-180 -570h-23l-259 687h-61v13h207v-13h-59l213 -579l188 592h14l218 -598l150 438q24 80 4.5 111.5t-87.5 35.5v13zM603 920l156 -147l-7 -7l-167 94l-167 -94l-7 7l156 147h36z" />
    <glyph glyph-name="wcircumflex" unicode="&#x175;" horiz-adv-x="938" 
d="M743 527h175v-13q-40 -15 -58.5 -41.5t-51.5 -112.5l-141 -360h-23l-177 422l-145 -422h-23l-217 514h-62v13h215v-13h-68l172 -427l151 440h21l175 -444l109 278q32 81 20.5 115t-72.5 38v13zM517 770l156 -147l-7 -7l-167 94l-167 -94l-7 7l156 147h36z" />
    <glyph glyph-name="Ycircumflex" unicode="&#x176;" horiz-adv-x="696" 
d="M472 700h204v-13q-42 -15 -63 -35t-63 -93l-151 -263v-283h65v-13h-211v13h65v260l-234 414h-64v13h227v-13h-65l207 -381l147 252q30 48 26 76t-25 39t-65 14v13zM376 920l156 -147l-7 -7l-167 94l-167 -94l-7 7l156 147h36z" />
    <glyph glyph-name="ycircumflex" unicode="&#x177;" horiz-adv-x="638" 
d="M430 527h178v-13q-37 -11 -59.5 -36.5t-44.5 -83.5l-150 -387l-112 -232l-78 58v13l162 128l-244 540h-62v13h215v-13h-66l194 -455l117 302q32 81 21 115.5t-71 37.5v13zM362 770l156 -147l-7 -7l-167 94l-167 -94l-7 7l156 147h36z" />
    <glyph glyph-name="Ydieresis" unicode="&#x178;" horiz-adv-x="696" 
d="M472 700h204v-13q-42 -15 -63 -35t-63 -93l-151 -263v-283h65v-13h-211v13h65v260l-234 414h-64v13h227v-13h-65l207 -381l147 252q30 48 26 76t-25 39t-65 14v13zM296 888q19 0 32.5 -13t13.5 -32t-13.5 -32t-32.5 -13t-32 13t-13 32t13 32t32 13zM438 888
q19 0 32.5 -13t13.5 -32t-13.5 -32t-32.5 -13t-32 13t-13 32t13 32t32 13z" />
    <glyph glyph-name="Zacute" unicode="&#x179;" horiz-adv-x="668" 
d="M618 700v-13l-463 -665h262q95 0 128 43t47 153h13v-218h-555v13l455 666h-254q-50 0 -81.5 -11t-50 -38t-27.5 -59.5t-16 -88.5h-13v218h555zM439 905q10 -13 3.5 -26.5t-31.5 -39.5q-21 -21 -53.5 -45.5t-54.5 -38.5l-22 -14l-7 7q52 82 99 129q25 25 39 32t27 -4z" />
    <glyph glyph-name="zacute" unicode="&#x17a;" horiz-adv-x="546" 
d="M496 527v-13l-362 -493h202q77 0 107.5 38t39.5 121h11v-180h-454v13l357 492h-188q-77 0 -107.5 -38t-39.5 -120h-11v180h445zM393 755q10 -13 3.5 -26.5t-31.5 -39.5q-21 -21 -53.5 -45.5t-54.5 -38.5l-22 -14l-7 7q52 82 99 129q25 25 39 32t27 -4z" />
    <glyph glyph-name="Zdotaccent" unicode="&#x17b;" horiz-adv-x="668" 
d="M618 700v-13l-463 -665h262q95 0 128 43t47 153h13v-218h-555v13l455 666h-254q-50 0 -81.5 -11t-50 -38t-27.5 -59.5t-16 -88.5h-13v218h555zM353 888q19 0 32.5 -13t13.5 -32t-13.5 -32t-32.5 -13t-32 13t-13 32t13 32t32 13z" />
    <glyph glyph-name="zdotaccent" unicode="&#x17c;" horiz-adv-x="546" 
d="M496 527v-13l-362 -493h202q77 0 107.5 38t39.5 121h11v-180h-454v13l357 492h-188q-77 0 -107.5 -38t-39.5 -120h-11v180h445zM287 738q19 0 32.5 -13t13.5 -32t-13.5 -32t-32.5 -13t-32 13t-13 32t13 32t32 13z" />
    <glyph glyph-name="Zcaron" unicode="&#x17d;" horiz-adv-x="668" 
d="M618 700v-13l-463 -665h262q95 0 128 43t47 153h13v-218h-555v13l455 666h-254q-50 0 -81.5 -11t-50 -38t-27.5 -59.5t-16 -88.5h-13v218h555zM521 920l7 -6l-156 -148h-36l-156 148l7 6l167 -93z" />
    <glyph glyph-name="zcaron" unicode="&#x17e;" horiz-adv-x="546" 
d="M496 527v-13l-362 -493h202q77 0 107.5 38t39.5 121h11v-180h-454v13l357 492h-188q-77 0 -107.5 -38t-39.5 -120h-11v180h445zM445 770l7 -6l-156 -148h-36l-156 148l7 6l167 -93z" />
    <glyph glyph-name="longs" unicode="&#x17f;" horiz-adv-x="418" 
d="M269 729q54 0 119 -24v-114h-9q-30 78 -53 102.5t-55 22.5q-38 -2 -64.5 -35.5t-26.5 -108.5v-559h98v-13h-228v13h57v501h-57v13h57q1 108 38.5 155t123.5 47z" />
    <glyph glyph-name="AEacute" unicode="&#x1fc;" horiz-adv-x="1031" 
d="M968 226h13v-226h-546v13h65v238h-267l-59 -94l-16 -27q-25 -43 -22.5 -77t37.5 -40v-13h-163v13q26 8 65 41.5t68 75.5l20 30l328 527h-56v13h529v-226h-12q-12 107 -54.5 156t-145.5 49h-171v-322h153q64 0 88.5 19t36.5 77h10v-204h-10q-12 57 -36.5 76t-88.5 19h-153
v-322h188q103 0 145.5 49t53.5 155zM500 264v415l-259 -415h259zM750 905q10 -13 3.5 -26.5t-31.5 -39.5q-21 -21 -53.5 -45.5t-54.5 -38.5l-22 -14l-7 7q52 82 99 129q25 25 39 32t27 -4z" />
    <glyph glyph-name="aeacute" unicode="&#x1fd;" horiz-adv-x="987" 
d="M692 540q122 0 191.5 -69t62.5 -205h-446q3 -74 40.5 -127t91.5 -77t117 -24q61 0 105.5 24.5t68.5 54.5l10 -8q-27 -46 -88.5 -81t-145.5 -35q-107 0 -187 61.5t-96 164.5q-6 -95 -54 -160.5t-131 -65.5q-51 0 -92 13t-70 48.5t-29 89.5q0 36 12 64.5t28.5 46.5t46 31
t53 19t62 8.5t60 3t60 -0.5t50.5 -1v88q0 124 -126 124q-108 0 -182 -164h-8v133q134 44 192 44q77 0 122.5 -20t63.5 -68q76 88 218 88zM412 266v37q-50 5 -101.5 2.5t-93.5 -11.5t-69 -43t-27 -91q0 -73 60 -111q59 -36 123 -9q82 35 102 153q6 34 6 73zM869 288
q7 108 -41.5 173.5t-135.5 65.5q-86 0 -140.5 -67.5t-52.5 -171.5h370zM608 755q10 -13 3.5 -26.5t-31.5 -39.5q-21 -21 -53.5 -45.5t-54.5 -38.5l-22 -14l-7 7q52 82 99 129q25 25 39 32t27 -4z" />
    <glyph glyph-name="Oslashacute" unicode="&#x1fe;" horiz-adv-x="839" 
d="M650 638q139 -96 139 -290q0 -162 -100.5 -258.5t-269.5 -96.5q-127 0 -219 58l-38 -51h-22l46 60q-136 95 -136 288q0 162 100 258.5t269 96.5q128 0 217 -55l40 52h22zM141 348q0 -159 75 -249l393 514q-75 79 -190 79q-117 0 -197.5 -86.5t-80.5 -257.5zM419 5
q117 0 197.5 86.5t80.5 256.5q0 159 -76 252l-394 -514q75 -81 192 -81zM504 905q10 -13 3.5 -26.5t-31.5 -39.5q-21 -21 -53.5 -45.5t-54.5 -38.5l-22 -14l-7 7q52 82 99 129q25 25 39 32t27 -4z" />
    <glyph glyph-name="oslashacute" unicode="&#x1ff;" horiz-adv-x="686" 
d="M553 464q83 -75 83 -198q0 -68 -26 -122t-69.5 -86t-95 -48.5t-106.5 -16.5q-115 0 -200 64l-58 -57h-22l68 67q-87 74 -87 199q0 68 26.5 122.5t70.5 86.5t95.5 48.5t106.5 16.5q120 0 202 -66l54 53h22zM125 266q0 -94 40 -162l340 334q-58 89 -166 89
q-96 0 -155 -72.5t-59 -188.5zM339 5q95 0 153.5 72.5t58.5 188.5q0 95 -38 159l-339 -333q60 -87 165 -87zM423 755q10 -13 3.5 -26.5t-31.5 -39.5q-21 -21 -53.5 -45.5t-54.5 -38.5l-22 -14l-7 7q52 82 99 129q25 25 39 32t27 -4z" />
    <glyph glyph-name="Scommaaccent" unicode="&#x218;" horiz-adv-x="578" 
d="M152 587q-4 -33 4.5 -60t22.5 -45.5t45.5 -39t54 -31.5l66.5 -31q69 -32 107.5 -58t59.5 -66t14 -94q-11 -84 -78.5 -126.5t-164.5 -42.5q-83 0 -233 48v161h9q36 -112 86 -153t131 -41q134 0 160 79q27 78 -13 130.5t-142 97.5q-51 22 -85 41t-65.5 46.5t-45 63
t-8.5 79.5t26 76.5t52.5 49.5t65.5 24.5t71 7.5q67 0 206 -50v-144h-9q-36 103 -80 141t-118 38q-126 0 -139 -101zM294 -78q22 0 37.5 -15.5t15.5 -37.5q0 -35 -26.5 -70t-51.5 -50l-3 5q15 12 30 33t20 34q-8 -5 -22 -5q-22 0 -37.5 15.5t-15.5 37.5t15.5 37.5t37.5 15.5z
" />
    <glyph glyph-name="scommaaccent" unicode="&#x219;" horiz-adv-x="487" 
d="M134 448q-4 -28 1.5 -48.5t27.5 -38.5t46.5 -30.5t72.5 -32.5q28 -12 49 -23t42.5 -25.5t34 -30t21 -34.5t8 -42t-9.5 -50q-19 -53 -70 -76.5t-113 -23.5q-60 0 -204 39v149h7q26 -58 52.5 -96t52 -54t42 -21.5t39.5 -6.5q104 -6 125 66q5 19 6 35t-3.5 30t-11 25.5
t-18.5 22t-23.5 18.5t-28.5 16.5t-31 14l-33 13.5q-93 37 -125 79.5t-23 106.5q6 43 40 69.5t67.5 33.5t70.5 7q14 0 30 -2t36 -6.5t33 -8l39.5 -11l37.5 -10.5v-134h-7q-42 96 -81 128.5t-93 32.5q-35 0 -67.5 -20t-38.5 -61zM238 -78q22 0 37.5 -15.5t15.5 -37.5
q0 -35 -26.5 -70t-51.5 -50l-3 5q15 12 30 33t20 34q-8 -5 -22 -5q-22 0 -37.5 15.5t-15.5 37.5t15.5 37.5t37.5 15.5z" />
    <glyph glyph-name="circumflex" unicode="&#x2c6;" horiz-adv-x="468" 
d="M252 720l156 -147l-7 -7l-167 94l-167 -94l-7 7l156 147h36z" />
    <glyph glyph-name="caron" unicode="&#x2c7;" horiz-adv-x="468" 
d="M401 720l7 -6l-156 -148h-36l-156 148l7 6l167 -93z" />
    <glyph glyph-name="breve" unicode="&#x2d8;" horiz-adv-x="398" 
d="M331 720h7q0 -74 -36.5 -114.5t-102.5 -40.5t-102.5 40.5t-36.5 114.5h7q14 -44 47 -73.5t85 -29.5q53 0 85.5 29.5t46.5 73.5z" />
    <glyph glyph-name="dotaccent" unicode="&#x2d9;" horiz-adv-x="211" 
d="M105 688q19 0 32.5 -13t13.5 -32t-13.5 -32t-32.5 -13t-32 13t-13 32t13 32t32 13z" />
    <glyph glyph-name="ring" unicode="&#x2da;" horiz-adv-x="307" 
d="M153 549q-38 0 -65.5 27.5t-27.5 66.5t27.5 66.5t65.5 27.5q39 0 66.5 -27.5t27.5 -66.5t-27.5 -66.5t-66.5 -27.5zM153 720q-31 0 -54 -23t-23 -54q0 -32 22.5 -54.5t54.5 -22.5t54.5 22.5t22.5 54.5t-22.5 54.5t-54.5 22.5z" />
    <glyph glyph-name="ogonek" unicode="&#x2db;" horiz-adv-x="356" 
d="M292 -168l4 -4q-28 -44 -76 -65t-90 -13.5t-59 37.5q-26 46 6.5 111.5t83.5 109.5h7q-18 -32 -30.5 -64.5t-16.5 -67.5t12 -54q26 -30 71 -25.5t88 35.5z" />
    <glyph glyph-name="tilde" unicode="&#x2dc;" horiz-adv-x="413" 
d="M268 580q-17 2 -34.5 10.5t-39.5 22.5t-33 20q-40 18 -64 6t-31 -44h-6q3 65 29 87t61 16q25 -3 67.5 -31.5t55.5 -32.5q61 -19 73 39h7q-1 -51 -24 -74.5t-61 -18.5z" />
    <glyph glyph-name="hungarumlaut" unicode="&#x2dd;" horiz-adv-x="468" 
d="M225 705q10 -13 3.5 -26.5t-31.5 -39.5q-21 -21 -53.5 -45.5t-54.5 -38.5l-22 -14l-7 7q52 82 99 129q47 48 66 28zM400 705q11 -13 4 -27t-32 -39q-21 -21 -53 -45.5t-54 -38.5l-22 -14l-7 7q51 82 98 129q25 25 39 32t27 -4z" />
    <glyph glyph-name="Wgrave" unicode="&#x1e80;" horiz-adv-x="1098" 
d="M868 700h210v-13q-43 -13 -64 -38.5t-48 -103.5l-186 -545h-23l-214 570l-180 -570h-23l-259 687h-61v13h207v-13h-59l213 -579l188 592h14l218 -598l150 438q24 80 4.5 111.5t-87.5 35.5v13zM536 877q21 -21 46 -53t39 -54l14 -22l-7 -7q-82 51 -129 98q-25 25 -32 39
t3 27q19 20 66 -28z" />
    <glyph glyph-name="wgrave" unicode="&#x1e81;" horiz-adv-x="938" 
d="M743 527h175v-13q-40 -15 -58.5 -41.5t-51.5 -112.5l-141 -360h-23l-177 422l-145 -422h-23l-217 514h-62v13h215v-13h-68l172 -427l151 440h21l175 -444l109 278q32 81 20.5 115t-72.5 38v13zM450 727q21 -21 46 -53t39 -54l14 -22l-7 -7q-82 51 -129 98q-25 25 -32 39
t3 27q19 20 66 -28z" />
    <glyph glyph-name="Wacute" unicode="&#x1e82;" horiz-adv-x="1098" 
d="M868 700h210v-13q-43 -13 -64 -38.5t-48 -103.5l-186 -545h-23l-214 570l-180 -570h-23l-259 687h-61v13h207v-13h-59l213 -579l188 592h14l218 -598l150 438q24 80 4.5 111.5t-87.5 35.5v13zM700 905q10 -13 3.5 -26.5t-31.5 -39.5q-21 -21 -53.5 -45.5t-54.5 -38.5
l-22 -14l-7 7q52 82 99 129q25 25 39 32t27 -4z" />
    <glyph glyph-name="wacute" unicode="&#x1e83;" horiz-adv-x="938" 
d="M743 527h175v-13q-40 -15 -58.5 -41.5t-51.5 -112.5l-141 -360h-23l-177 422l-145 -422h-23l-217 514h-62v13h215v-13h-68l172 -427l151 440h21l175 -444l109 278q32 81 20.5 115t-72.5 38v13zM594 755q10 -13 3.5 -26.5t-31.5 -39.5q-21 -21 -53.5 -45.5t-54.5 -38.5
l-22 -14l-7 7q52 82 99 129q25 25 39 32t27 -4z" />
    <glyph glyph-name="Wdieresis" unicode="&#x1e84;" horiz-adv-x="1098" 
d="M868 700h210v-13q-43 -13 -64 -38.5t-48 -103.5l-186 -545h-23l-214 570l-180 -570h-23l-259 687h-61v13h207v-13h-59l213 -579l188 592h14l218 -598l150 438q24 80 4.5 111.5t-87.5 35.5v13zM513 888q19 0 32.5 -13t13.5 -32t-13.5 -32t-32.5 -13t-32 13t-13 32t13 32
t32 13zM655 888q19 0 32.5 -13t13.5 -32t-13.5 -32t-32.5 -13t-32 13t-13 32t13 32t32 13z" />
    <glyph glyph-name="wdieresis" unicode="&#x1e85;" horiz-adv-x="938" 
d="M743 527h175v-13q-40 -15 -58.5 -41.5t-51.5 -112.5l-141 -360h-23l-177 422l-145 -422h-23l-217 514h-62v13h215v-13h-68l172 -427l151 440h21l175 -444l109 278q32 81 20.5 115t-72.5 38v13zM427 738q19 0 32.5 -13t13.5 -32t-13.5 -32t-32.5 -13t-32 13t-13 32t13 32
t32 13zM569 738q19 0 32.5 -13t13.5 -32t-13.5 -32t-32.5 -13t-32 13t-13 32t13 32t32 13z" />
    <glyph glyph-name="Ygrave" unicode="&#x1ef2;" horiz-adv-x="696" 
d="M472 700h204v-13q-42 -15 -63 -35t-63 -93l-151 -263v-283h65v-13h-211v13h65v260l-234 414h-64v13h227v-13h-65l207 -381l147 252q30 48 26 76t-25 39t-65 14v13zM319 877q21 -21 46 -53t39 -54l14 -22l-7 -7q-82 51 -129 98q-48 47 -29 66q19 20 66 -28z" />
    <glyph glyph-name="ygrave" unicode="&#x1ef3;" horiz-adv-x="638" 
d="M430 527h178v-13q-37 -11 -59.5 -36.5t-44.5 -83.5l-150 -387l-112 -232l-78 58v13l162 128l-244 540h-62v13h215v-13h-66l194 -455l117 302q32 81 21 115.5t-71 37.5v13zM285 727q21 -21 46 -53t39 -54l14 -22l-7 -7q-82 51 -129 98q-48 47 -29 66q19 20 66 -28z" />
    <glyph glyph-name="endash" unicode="&#x2013;" horiz-adv-x="515" 
d="M60 341h395v-24h-395v24z" />
    <glyph glyph-name="emdash" unicode="&#x2014;" horiz-adv-x="556" 
d="M60 341h436v-24h-436v24z" />
    <glyph glyph-name="quoteleft" unicode="&#x2018;" horiz-adv-x="226" 
d="M113 653q22 0 37.5 -15.5t15.5 -37.5t-15.5 -37.5t-37.5 -15.5q-23 0 -38 15.5t-15 37.5q0 35 26 69.5t52 50.5l4 -6q-32 -23 -51 -66q13 5 22 5z" />
    <glyph glyph-name="quoteright" unicode="&#x2019;" horiz-adv-x="226" 
d="M113 704q23 0 38 -15t15 -38q0 -35 -26.5 -70t-51.5 -50l-3 5q15 12 30 33t20 34q-8 -5 -22 -5q-22 0 -37.5 15.5t-15.5 37.5t15.5 37.5t37.5 15.5z" />
    <glyph glyph-name="quotesinglbase" unicode="&#x201a;" horiz-adv-x="226" 
d="M113 99q22 0 37.5 -15.5t15.5 -37.5q0 -35 -26.5 -70t-51.5 -50l-3 5q15 12 30 33t20 34q-8 -5 -22 -5q-22 0 -37.5 15.5t-15.5 37.5t15.5 37.5t37.5 15.5z" />
    <glyph glyph-name="quotedblleft" unicode="&#x201c;" horiz-adv-x="383" 
d="M113 653q22 0 37.5 -15.5t15.5 -37.5t-15.5 -37.5t-37.5 -15.5q-23 0 -38 15.5t-15 37.5q0 35 26 69.5t52 50.5l4 -6q-32 -23 -51 -66q13 5 22 5zM269 653q22 0 38 -15.5t16 -37.5t-15.5 -37.5t-38.5 -15.5q-22 0 -37.5 15.5t-15.5 37.5q0 35 26.5 69.5t52.5 50.5l3 -6
q-15 -11 -29.5 -31.5t-20.5 -34.5q13 5 21 5z" />
    <glyph glyph-name="quotedblright" unicode="&#x201d;" horiz-adv-x="383" 
d="M113 704q22 0 37.5 -15.5t15.5 -37.5q0 -35 -27 -70t-52 -50l-3 5q15 12 30.5 33t19.5 34q-8 -5 -21 -5q-22 0 -37.5 15.5t-15.5 37.5q0 23 15 38t38 15zM269 704q23 0 38.5 -15.5t15.5 -37.5q0 -35 -27 -70t-52 -50l-3 5q15 12 30 33t20 34q-8 -5 -22 -5
q-22 0 -37.5 15.5t-15.5 37.5t15.5 37.5t37.5 15.5z" />
    <glyph glyph-name="quotedblbase" unicode="&#x201e;" horiz-adv-x="383" 
d="M113 99q22 0 37.5 -15.5t15.5 -37.5q0 -35 -27 -70t-52 -50l-3 5q16 12 31 32.5t20 34.5q-10 -5 -22 -5q-22 0 -37.5 15.5t-15.5 37.5t15.5 37.5t37.5 15.5zM270 99q22 0 37.5 -15.5t15.5 -37.5q0 -35 -27 -70t-52 -50l-3 5q15 12 30 33t20 34q-8 -5 -21 -5
q-22 0 -37.5 15.5t-15.5 37.5t15.5 37.5t37.5 15.5z" />
    <glyph glyph-name="dagger" unicode="&#x2020;" horiz-adv-x="428" 
d="M353 507h15v-48h-15l-138 23l23 -216l-21 -143h-6l-21 143l23 216l-138 -23h-15v48h15l137 -22l-22 137v15h48v-15l-23 -137z" />
    <glyph glyph-name="daggerdbl" unicode="&#x2021;" horiz-adv-x="428" 
d="M353 515h15v-47h-15l-136 22l21 -151l-21 -151l136 22h15v-48h-15l-136 22l21 -129v-14h-48v14l21 129l-136 -22h-15v48h15l136 -22l-21 151l21 151l-136 -22h-15v47h15l136 -22l-21 129v15h48v-15l-21 -129z" />
    <glyph glyph-name="bullet" unicode="&#x2022;" horiz-adv-x="227" 
d="M114 499q22 0 37.5 -15.5t15.5 -37.5t-15.5 -37.5t-37.5 -15.5t-38 15.5t-16 37.5t16 37.5t38 15.5z" />
    <glyph glyph-name="ellipsis" unicode="&#x2026;" horiz-adv-x="641" 
d="M114 99q22 0 37.5 -15.5t15.5 -37.5t-15.5 -37.5t-37.5 -15.5t-38 15.5t-16 37.5t16 37.5t38 15.5zM321 99q22 0 37.5 -15.5t15.5 -37.5t-15.5 -37.5t-37.5 -15.5t-38 15.5t-16 37.5t16 37.5t38 15.5zM528 99q22 0 37.5 -15.5t15.5 -37.5t-15.5 -37.5t-37.5 -15.5
t-38 15.5t-16 37.5t16 37.5t38 15.5z" />
    <glyph glyph-name="perthousand" unicode="&#x2030;" horiz-adv-x="1243" 
d="M219 704q77 0 123.5 -48t46.5 -124t-47 -124.5t-123 -48.5t-122.5 48.5t-46.5 124.5t46.5 124t122.5 48zM219 371q43 0 70 41.5t27 119.5t-27 119.5t-70 41.5t-69.5 -41.5t-26.5 -119.5t26.5 -119.5t69.5 -41.5zM633 339q76 0 123 -48.5t47 -123.5q0 -76 -47 -124.5
t-123 -48.5t-122.5 48.5t-46.5 124.5q0 75 46.5 123.5t122.5 48.5zM633 5q43 0 70 42t27 120t-27 119.5t-70 41.5t-69.5 -41.5t-26.5 -119.5t26.5 -120t69.5 -42zM701 701h-21l-536 -700h21zM1023 339q76 0 123 -48.5t47 -123.5q0 -76 -47 -124.5t-123 -48.5t-122.5 48.5
t-46.5 124.5q0 75 46.5 123.5t122.5 48.5zM1023 5q43 0 70 42t27 120t-27 119.5t-70 41.5t-69.5 -41.5t-26.5 -119.5t26.5 -120t69.5 -42z" />
    <glyph glyph-name="guilsinglleft" unicode="&#x2039;" horiz-adv-x="290" 
d="M230 470l-103 -146l103 -147l-7 -6l-173 150v6l173 149z" />
    <glyph glyph-name="guilsinglright" unicode="&#x203a;" horiz-adv-x="291" 
d="M67 476l174 -149v-6l-174 -150l-7 6l103 147l-103 146z" />
    <glyph glyph-name="fraction" unicode="&#x2044;" horiz-adv-x="372" 
d="M298 700h24l-248 -778h-24z" />
    <glyph glyph-name="Euro" unicode="&#x20ac;" horiz-adv-x="830" 
d="M770 152l10 -9q-37 -60 -114 -105t-190 -45q-133 0 -234.5 78t-124.5 210h-97l8 22h86q-3 21 -3 45q0 25 3 49h-94l8 22h89q24 134 127.5 209t237.5 75q112 0 278 -65v-197h-12q-15 69 -41.5 118.5t-60.5 76.5t-68.5 39t-72.5 12q-109 0 -197 -70t-104 -198h408l-8 -22
h-403q-1 -24 0 -49q0 -17 4 -45h375l-9 -22h-362q25 -114 111.5 -176.5t196.5 -64.5q157 -1 253 112z" />
    <glyph glyph-name="Ruble" unicode="&#x20bd;" horiz-adv-x="668" 
d="M363 256h-156v-71h256v-21h-256v-151h97v-13h-244v13h65v151h-65v21h65v71h-65v13h65v418h-65v13h303q255 -6 255 -222q0 -105 -67 -162.5t-188 -59.5zM207 679v-410h105q108 0 160 51t52 158q0 103 -52.5 152t-159.5 49h-105z" />
    <glyph glyph-name="Bitcoin" unicode="&#x20bf;" horiz-adv-x="733" 
d="M683 189q0 -99 -66 -141.5t-186 -46.5v-83h-22v82h-13h-67v-82h-21v82h-240v13h64v674h-72v13h248v83h21v-83h9q38 0 71 -3v86h22v-88q195 -24 195 -168q0 -72 -55.5 -113t-138.5 -42v-3q117 5 184 -40.5t67 -139.5zM214 679v-306h130q195 0 195 154q0 39 -12.5 67.5
t-31 44.5t-46 25.5t-51.5 12t-54 2.5h-130zM394 22q30 0 54.5 3t53.5 13t48.5 27t33 49t13.5 75q0 171 -211 171h-172v-338h180z" />
    <glyph glyph-name="afii61352" unicode="&#x2116;" horiz-adv-x="1300" 
d="M592 700h216v-13q-58 -11 -77.5 -57t-19.5 -133v-497h-44l-491 612v-409q0 -84 23 -131.5t82 -58.5v-13h-216v13q59 11 78.5 57t19.5 133v426l-47 58h-66v13h174l474 -589v386q0 84 -23 131.5t-83 58.5v13zM1046 703q77 0 123.5 -48t46.5 -124t-47 -124.5t-123 -48.5
t-122.5 48.5t-46.5 124.5t46.5 124t122.5 48zM1046 370q43 0 70 41.5t27 119.5t-27 119.5t-70 41.5t-70 -41.5t-27 -119.5t27 -119.5t70 -41.5zM843 301h407v-22h-407v22z" />
    <glyph glyph-name="minus" unicode="&#x2212;" horiz-adv-x="474" 
d="M60 341h354v-24h-354v24z" />
    <glyph glyph-name="approxequal" unicode="&#x2248;" horiz-adv-x="515" 
d="M347 373q-21 3 -43 13.5t-50 29t-42 26.5q-49 23 -80 7t-39 -57h-9q4 85 37 113.5t78 21.5q31 -4 84 -41t71 -43q77 -25 92 51h9q-2 -66 -31 -96.5t-77 -24.5zM322 175q-21 3 -43 13.5t-50 29t-42 26.5q-49 23 -79.5 7.5t-39.5 -57.5h-8q2 45 13 75t28.5 43t35 16.5
t37.5 0.5q30 -5 83.5 -41.5t72.5 -42.5q76 -25 92 51h8q-2 -67 -31 -97t-77 -24z" />
    <glyph glyph-name="notequal" unicode="&#x2260;" horiz-adv-x="474" 
d="M414 378h-130l-75 -97h205v-24h-223l-81 -105l-13 10l74 95h-111v24h130l74 97h-204v23h223l81 106l12 -10l-74 -96h112v-23z" />
    <glyph glyph-name="lessequal" unicode="&#x2264;" horiz-adv-x="464" 
d="M50 175v24h354v-24h-354zM404 570v-23l-326 -122l326 -122v-24l-354 132v28z" />
    <glyph glyph-name="greaterequal" unicode="&#x2265;" horiz-adv-x="464" 
d="M60 175v24h354v-24h-354zM60 570l354 -131v-28l-354 -132v24l327 122l-327 122v23z" />
    <glyph glyph-name="commaaccent" unicode="&#xf6c3;" horiz-adv-x="226" 
d="M113 -78q22 0 37.5 -15.5t15.5 -37.5q0 -35 -26.5 -70t-51.5 -50l-3 5q15 12 30 33t20 34q-8 -5 -22 -5q-22 0 -37.5 15.5t-15.5 37.5t15.5 37.5t37.5 15.5z" />
    </font>
</defs>
</svg>
