<?xml version="1.0" standalone="no"?>
<!DOCTYPE svg PUBLIC "-//W3C//DTD SVG 1.1//EN" "http://www.w3.org/Graphics/SVG/1.1/DTD/svg11.dtd" >
<svg>
<metadata>
Created by FontForge 20090622 at Sun May 19 11:13:07 2019
 By deploy user
Copyright (c) 2019 by MadeType. All rights reserved.
</metadata>
<defs>
<font id="MADECoachella-Light" horiz-adv-x="721" >
  <font-face 
    font-family="MADE Coachella"
    font-weight="300"
    font-stretch="normal"
    units-per-em="1000"
    panose-1="2 0 5 3 0 0 0 2 0 4"
    ascent="800"
    descent="-200"
    x-height="527"
    cap-height="700"
    bbox="-27 -381 1264 940"
    underline-thickness="50"
    underline-position="-50"
    unicode-range="U+0020-U+F6C3"
  />
<missing-glyph horiz-adv-x="300" 
 />
    <glyph glyph-name=".notdef" horiz-adv-x="300" 
 />
    <glyph glyph-name=".null" horiz-adv-x="0" 
 />
    <glyph glyph-name="nonmarkingreturn" horiz-adv-x="333" 
 />
    <glyph glyph-name="space" unicode=" " horiz-adv-x="300" 
 />
    <glyph glyph-name="exclam" unicode="!" horiz-adv-x="231" 
d="M120 248h-8q-3 7 -7.5 19t-16.5 49t-20.5 74t-15.5 88t-6 97q1 62 20.5 95t49.5 33t49 -33t20 -95q2 -72 -14.5 -154t-33.5 -127zM116 129q28 0 48 -19.5t20 -48.5q0 -28 -20 -48t-48 -20t-48 20t-20 48q0 29 20 48.5t48 19.5z" />
    <glyph glyph-name="quotedbl" unicode="&#x22;" horiz-adv-x="263" 
d="M76 704q31 0 31 -72q0 -30 -6.5 -69t-12.5 -63l-7 -24h-10q-26 89 -26 156q0 72 31 72zM187 704q31 0 31 -72q0 -30 -6.5 -69t-13.5 -63l-6 -24h-10q-26 89 -26 156q0 72 31 72z" />
    <glyph glyph-name="numbersign" unicode="#" horiz-adv-x="748" 
d="M691 453h-142l-53 -204h139l-12 -40h-137l-54 -208h-40l53 208h-205l-54 -208h-40l54 208h-155l11 40h154l53 204h-158l11 41h158l54 207h40l-54 -207h205l54 207h40l-53 -207h143zM456 249l53 204h-205l-53 -204h205z" />
    <glyph glyph-name="dollar" unicode="$" horiz-adv-x="578" 
d="M292 425l47.5 -23t51.5 -25.5t44.5 -25.5t43.5 -32t30 -35t23 -45t5 -52q-7 -188 -245 -194v-75h-21v75q-93 3 -231 46v179h9q37 -116 87 -163t134 -47h1v280q-105 53 -139 80q-76 59 -77 140q-2 93 51.5 142t164.5 53v80h21v-80q67 0 213 -48v-163h-10
q-15 43 -29.5 72.5t-38 59.5t-57.5 46t-78 18v-263zM160 572q-2 -44 27 -75.5t84 -60.5v251q-49 -5 -79 -34t-32 -81zM417 88q18 66 -15.5 107.5t-109.5 81.5v-268q107 8 125 79z" />
    <glyph glyph-name="percent" unicode="%" horiz-adv-x="859" 
d="M400 532q0 -76 -49 -124.5t-128 -48.5q-80 0 -129 48.5t-49 124.5t49 124t129 48q79 0 128 -48t49 -124zM150 532q0 -76 20 -118.5t53 -42.5t52.5 42.5t19.5 118.5t-19.5 118.5t-52.5 42.5t-53 -42.5t-20 -118.5zM637 339q80 0 128.5 -48.5t48.5 -124.5t-48.5 -124
t-128.5 -48t-129 48t-49 124t49 124.5t129 48.5zM637 5q33 0 52.5 42.5t19.5 118.5q0 77 -19.5 119.5t-52.5 42.5t-52.5 -42.5t-19.5 -119.5q0 -76 19.5 -118.5t52.5 -42.5zM683 701h22l-536 -700h-22z" />
    <glyph glyph-name="ampersand" unicode="&#x26;" horiz-adv-x="725" 
d="M664 13h51v-13h-195l-45 47q-64 -51 -156 -54q-121 -5 -201 43.5t-77 140.5q2 67 50.5 108.5t121.5 50.5q-66 76 -91.5 118t-29.5 88q-5 80 47.5 120.5t144.5 40.5q97 0 147 -43.5t46 -106.5q-7 -127 -163 -161v-1l225 -247q21 37 30 73q26 83 14.5 118.5t-63.5 40.5v11
h173v-11q-40 -8 -58.5 -36.5t-52.5 -125.5q-16 -43 -34 -79zM284 688q-57 0 -81.5 -50t14.5 -117q35 -58 93 -125q48 62 64 130t-7.5 115t-82.5 47zM328 19q80 -7 139 37l-137.5 151.5l-109.5 121.5q-37 -19 -54.5 -67.5t-10.5 -99.5t52 -93.5t121 -49.5z" />
    <glyph glyph-name="quotesingle" unicode="'" horiz-adv-x="152" 
d="M76 704q31 0 31 -72q0 -30 -6.5 -69t-12.5 -63l-7 -24h-10q-26 89 -26 156q0 72 31 72z" />
    <glyph glyph-name="parenleft" unicode="(" horiz-adv-x="418" 
d="M383 775q-103 -63 -166.5 -180.5t-63.5 -295.5t63.5 -295.5t166.5 -180.5v-12q-155 48 -249 180t-94 308t94 308t249 180v-12z" />
    <glyph glyph-name="parenright" unicode=")" horiz-adv-x="419" 
d="M35 787q156 -48 250 -180t94 -308t-94 -308t-250 -180v12q103 62 167 180t64 296t-64 296t-167 180v12z" />
    <glyph glyph-name="asterisk" unicode="*" horiz-adv-x="402" 
d="M357 601l-14 -5l-140 -13l105 -93l9 -12l-52 -37l-9 11l-55 129l-56 -129l-9 -11l-52 37l9 12l105 93l-140 13l-13 5l19 61l14 -4l121 -72l-30 137v15h64v-15l-31 -137l121 72l14 4z" />
    <glyph glyph-name="plus" unicode="+" horiz-adv-x="444" 
d="M399 350v-41h-157v-156h-40v156h-157v41h157v156h40v-156h157z" />
    <glyph glyph-name="comma" unicode="," horiz-adv-x="226" 
d="M113 129q29 0 48.5 -19.5t19.5 -48.5q0 -45 -34 -89.5t-67 -65.5l-4 8q20 14 39.5 41t25.5 44q-14 -6 -28 -6q-28 0 -48 20t-20 48t20 48t48 20z" />
    <glyph glyph-name="hyphen" unicode="-" horiz-adv-x="443" 
d="M45 350h353v-41h-353v41z" />
    <glyph glyph-name="period" unicode="." horiz-adv-x="227" 
d="M113 129q29 0 49 -20t20 -48t-20.5 -48t-48.5 -20t-48 20t-20 48t20 48t48 20z" />
    <glyph glyph-name="slash" unicode="/" horiz-adv-x="378" 
d="M293 700h40l-247 -778h-41z" />
    <glyph glyph-name="zero" unicode="0" horiz-adv-x="640" 
d="M320 704q125 0 202.5 -95t77.5 -261q0 -165 -77.5 -260t-202.5 -95t-202.5 95t-77.5 260q0 166 77.5 261t202.5 95zM320 8q72 0 114 82.5t42 257.5q0 176 -42 260t-114 84q-71 0 -113.5 -84.5t-42.5 -259.5q0 -174 42.5 -257t113.5 -83z" />
    <glyph glyph-name="one" unicode="1" horiz-adv-x="316" 
d="M211 13h65v-13h-236v13h65v567h-65v13l157 107h14v-687z" />
    <glyph glyph-name="two" unicode="2" horiz-adv-x="554" 
d="M507 478q-20 -84 -122 -179.5t-254 -200.5h358v55h12v-153h-461v13l106.5 124.5l88 103l59.5 74.5t48.5 70t26.5 57.5t19 67.5q15 84 -14 131t-86 47q-74 0 -115.5 -49t-81.5 -169h-10v185q146 48 199 48q131 0 191 -59t36 -166z" />
    <glyph glyph-name="three" unicode="3" horiz-adv-x="556" 
d="M293 373q123 1 174.5 -47.5t47.5 -129.5q-5 -99 -73.5 -151t-192.5 -52q-72 0 -209 45v188h11q39 -115 85.5 -166.5t118.5 -51.5q58 0 95 47.5t38 133.5q1 87 -40 126t-119 49v16q62 7 100.5 42t47.5 116q8 77 -20.5 113.5t-76.5 36.5q-62 0 -109 -47t-87 -154h-11v172
q134 44 202 44q222 0 219 -158q-2 -72 -52 -117t-149 -51v-4z" />
    <glyph glyph-name="four" unicode="4" horiz-adv-x="545" 
d="M540 180h-89v-167h65v-13h-236v13h65v167h-345v13q110 80 163 219t9 275v13h134q8 -86 -7 -163t-43.5 -131.5t-69 -99.5t-78.5 -71t-76 -42h313v108l96 243h10v-351h89v-13z" />
    <glyph glyph-name="five" unicode="5" horiz-adv-x="532" 
d="M86 376q135 62 226 49t136.5 -69.5t42.5 -137.5q-5 -102 -70.5 -163.5t-184.5 -61.5q-60 0 -196 44v198h11q12 -36 18 -52.5t17 -44.5t18 -40.5l18 -31t21.5 -26.5t24.5 -17t30 -12t36 -3q60 0 95.5 53t36.5 144q1 108 -70.5 151t-221.5 7l24 337h331v55h12v-153h-338z
" />
    <glyph glyph-name="six" unicode="6" horiz-adv-x="602" 
d="M364 441q100 -9 149 -65t49 -147q0 -108 -72 -172t-179 -64q-119 0 -195 84t-76 231q0 187 84.5 291t217.5 104q53 0 181 -44v-164h-11q-35 104 -76.5 148.5t-93.5 44.5q-24 0 -47 -10.5t-49.5 -37.5t-46.5 -86t-28 -143q38 14 94.5 24t98.5 6zM311 8q63 0 99.5 60
t36.5 161q0 113 -81 156.5t-196 11.5q-3 -40 -3 -89q0 -132 37.5 -216t106.5 -84z" />
    <glyph glyph-name="seven" unicode="7" horiz-adv-x="533" 
d="M40 700h453v-13q-46 -84 -74 -142t-62.5 -148.5t-51.5 -189.5t-17 -207h-124q0 366 273 602h-386v-55h-11v153z" />
    <glyph glyph-name="eight" unicode="8" horiz-adv-x="609" 
d="M367 373q101 -7 152 -57t49 -132q-4 -95 -77 -143t-187 -48t-186.5 48t-76.5 143q-3 82 48.5 132t152.5 57v4q-162 26 -162 160q0 78 62 122t162 44q101 0 162.5 -44t61.5 -122q0 -134 -161 -160v-4zM183 538q0 -81 35 -119.5t86 -38.5q52 0 86.5 38.5t34.5 119.5
q0 77 -34 113.5t-87 36.5q-52 0 -86.5 -36.5t-34.5 -113.5zM304 8q63 0 104 46t41 135q0 85 -39 130t-106 45q-66 0 -105 -45t-39 -130q0 -89 41 -135t103 -46z" />
    <glyph glyph-name="nine" unicode="9" horiz-adv-x="601" 
d="M290 703q119 0 195 -84t76 -230q0 -190 -77 -293t-208 -103q-70 0 -198 44v165h12q34 -102 82.5 -148t103.5 -46q23 0 44.5 10.5t45 38t41 86t24.5 143.5q-37 -14 -94 -24t-99 -7q-100 9 -149 65t-49 147q0 108 71.5 172t178.5 64zM154 467q0 -113 81 -156t197 -11
q3 41 3 89q0 131 -38 215t-107 84q-63 0 -99.5 -60t-36.5 -161z" />
    <glyph glyph-name="colon" unicode=":" horiz-adv-x="227" 
d="M114 129q28 0 48 -20t20 -48t-20 -48t-48 -20t-48.5 20t-20.5 48t20 48t49 20zM114 405q-28 0 -48.5 20.5t-20.5 48.5t20.5 48t48.5 20t48 -20t20 -48t-20 -48.5t-48 -20.5z" />
    <glyph glyph-name="semicolon" unicode=";" horiz-adv-x="226" 
d="M113 129q28 0 48 -20t20 -48q0 -45 -34 -89.5t-67 -65.5l-4 8q20 14 38.5 41t25.5 44q-12 -6 -27 -6q-28 0 -48 20t-20 48q0 29 19.5 48.5t48.5 19.5zM113 405q-28 0 -48 20t-20 49q0 28 20 48t48 20t48 -20t20 -48t-20 -48.5t-48 -20.5z" />
    <glyph glyph-name="less" unicode="&#x3c;" horiz-adv-x="438" 
d="M393 493v-40l-304 -114l304 -113v-40l-353 132v43z" />
    <glyph glyph-name="equal" unicode="=" horiz-adv-x="444" 
d="M45 410h354v-41h-354v41zM45 249v41h354v-41h-354z" />
    <glyph glyph-name="greater" unicode="&#x3e;" horiz-adv-x="439" 
d="M45 493l354 -132v-43l-354 -132v40l304 113l-304 114v40z" />
    <glyph glyph-name="question" unicode="?" horiz-adv-x="514" 
d="M231 703q112 0 175 -44.5t63 -128.5q0 -96 -65 -153t-188 -67v-62h-13v74q56 13 90 74t36 127q1 83 -29 124t-85 41q-51 0 -88 -44t-72 -149h-10v169q133 39 186 39zM222 129q28 0 48 -19.5t20 -48.5q0 -28 -20 -48t-48 -20t-48 20t-20 48q0 29 20 48.5t48 19.5z" />
    <glyph glyph-name="at" unicode="@" horiz-adv-x="1081" 
d="M828 -6q-61 0 -101 30.5t-51 87.5q-22 -47 -69.5 -83t-121.5 -36q-97 0 -170.5 72t-73.5 201q0 130 73.5 202t170.5 72q74 0 121.5 -36t69.5 -83v107h179v-13h-56v-372q0 -38 18 -60.5t39.5 -27.5t44.5 -1q45 7 84.5 70t39.5 188q0 191 -123 307.5t-336 116.5
q-245 0 -377 -128.5t-132 -350.5q0 -104 44 -203t123 -151q118 -75 296.5 -85.5t312.5 46.5l6 -16q-93 -35 -192.5 -44.5t-181.5 3.5t-146 34.5t-104 48.5q-82 56 -128.5 158t-46.5 209q0 41 5 82t20 91.5t39 94.5t65 86.5t94 73t131 49t172 18.5q221 0 348 -121t127 -319
q0 -147 -58 -232.5t-155 -85.5zM676 133v267q-35 58 -108 70q-80 12 -135 -45.5t-55 -158.5t55 -158t135 -45q75 12 108 70z" />
    <glyph glyph-name="A" unicode="A" horiz-adv-x="780" 
d="M707 13h63v-13h-264v13h58l-94 205h-301l-26 -65q-20 -53 -1.5 -92.5t62.5 -47.5v-13h-194v13q31 9 64.5 47t55.5 95l219 545h38zM174 231h290l-155 336z" />
    <glyph glyph-name="B" unicode="B" horiz-adv-x="742" 
d="M437 371q120 5 192.5 -42t72.5 -140q0 -56 -22 -94.5t-65 -58.5t-92.5 -28t-116.5 -8h-353v13h65v674h-73v13h303q67 0 117 -7.5t92.5 -26t64.5 -53.5t22 -86q0 -71 -61 -111.5t-146 -41.5v-3zM338 679h-89v-306h89q36 0 63.5 6.5t53 22t39.5 47.5t14 78q0 47 -14 78.5
t-39.5 46.5t-53 21t-63.5 6zM387 22q37 0 65.5 6t56 22.5t42.5 51.5t15 87q0 171 -187 171h-130v-338h138z" />
    <glyph glyph-name="C" unicode="C" horiz-adv-x="754" 
d="M697 154l12 -9q-94 -152 -289 -152q-99 0 -184 39.5t-140.5 122t-55.5 193.5q0 87 33.5 156.5t89 112t122.5 64.5t139 22q106 0 266 -60v-221h-13q-43 145 -99.5 205t-130.5 60q-53 0 -101.5 -21.5t-87 -62.5t-59.5 -107.5t-16 -147.5q8 -137 95.5 -213t208.5 -76
q58 0 103.5 17t66 35t40.5 43z" />
    <glyph glyph-name="D" unicode="D" horiz-adv-x="816" 
d="M776 350q0 -182 -110 -266t-323 -84h-298v13h65v674h-65v13h298q213 0 323 -84t110 -266zM371 22q127 0 194 84.5t67 243.5t-67 244t-194 85h-130v-657h130z" />
    <glyph glyph-name="E" unicode="E" horiz-adv-x="655" 
d="M603 251h12v-251h-570v13h65v674h-65v13h554v-251h-12q-7 56 -19 93.5t-35.5 71t-63.5 49.5t-98 16h-130v-322h118q69 0 97 21.5t36 82.5h10v-220h-10q-8 60 -36 81.5t-97 21.5h-118v-322h146q59 0 99 16t63.5 49t35 71t18.5 93z" />
    <glyph glyph-name="F" unicode="F" horiz-adv-x="621" 
d="M45 700h546v-251h-12q-15 115 -60.5 172.5t-156.5 57.5h-121v-330h118q70 0 97.5 21.5t35.5 81.5h10v-220h-10q-8 61 -35.5 82.5t-97.5 21.5h-118v-323h107v-13h-303v13h65v674h-65v13z" />
    <glyph glyph-name="G" unicode="G" horiz-adv-x="779" 
d="M764 299h-57v-299h-13v70q-47 -32 -108.5 -54.5t-120.5 -22.5q-82 0 -156.5 22t-135.5 64t-97 111.5t-36 157.5t33 157t90.5 111.5t131 64.5t159.5 22q104 0 231 -48v-195h-12q-34 124 -82.5 176t-136.5 52q-106 0 -184.5 -89.5t-78.5 -250.5q0 -82 23.5 -145.5
t63.5 -101.5t87 -58.5t100 -24.5q72 -6 121 20v261h-65v14h243v-14z" />
    <glyph glyph-name="H" unicode="H" horiz-adv-x="818" 
d="M773 687h-65v-674h65v-13h-261v13h65v323h-336v-323h64v-13h-260v13h65v674h-65v13h260v-13h-64v-330h336v330h-65v13h261v-13z" />
    <glyph glyph-name="I" unicode="I" horiz-adv-x="351" 
d="M306 687h-65v-674h65v-13h-261v13h65v674h-65v13h261v-13z" />
    <glyph glyph-name="J" unicode="J" horiz-adv-x="587" 
d="M552 700v-13h-64v-401q0 -158 -55 -225.5t-196 -67.5q-70 0 -197 48v210h11q49 -133 88.5 -188t97.5 -55q63 0 91.5 46t28.5 149v484h-98v13h293z" />
    <glyph glyph-name="K" unicode="K" horiz-adv-x="807" 
d="M724 13h73v-13h-285v13h56l-228 344l-100 -100v-244h65v-13h-260v13h64v674h-64v13h260v-13h-65v-408l255 252q32 32 49 58.5t18.5 44.5t-7 30.5t-25.5 18t-40 4.5v13h249v-13q-85 -19 -234 -168l-69 -68z" />
    <glyph glyph-name="L" unicode="L" horiz-adv-x="657" 
d="M620 259h12v-259h-587v13h65v674h-65v13h260v-13h-64v-665h162q58 0 98.5 17t64 52t35 73.5t19.5 94.5z" />
    <glyph glyph-name="M" unicode="M" horiz-adv-x="983" 
d="M943 687h-64v-674h64v-13h-260v13h65v633l-251 -646h-22l-301 614v-403q0 -175 120 -198v-13h-254v13q61 12 91 64.5t30 133.5v429l-23 47h-71v13h209l258 -551l214 551h195v-13z" />
    <glyph glyph-name="N" unicode="N" horiz-adv-x="872" 
d="M566 700h266v-13q-61 -12 -91.5 -64.5t-30.5 -133.5v-489h-60l-475 583v-372q0 -79 34 -132.5t96 -65.5v-13h-265v13q61 12 91.5 64.5t30.5 133.5v388l-72 88h-49v13h215l441 -540v329q0 79 -34.5 132.5t-96.5 65.5v13z" />
    <glyph glyph-name="O" unicode="O" horiz-adv-x="844" 
d="M422 703q172 0 277 -98t105 -257t-105 -257t-277 -98t-277 98t-105 257t105 257t277 98zM422 5q102 0 167.5 83.5t66.5 259.5q-1 177 -66.5 260.5t-167.5 83.5t-167.5 -83.5t-66.5 -260.5q1 -176 66.5 -259.5t167.5 -83.5z" />
    <glyph glyph-name="P" unicode="P" horiz-adv-x="684" 
d="M374 700q270 0 270 -222q0 -114 -71 -168t-199 -54h-133v-243h98v-13h-294v13h65v674h-65v13h329zM339 269q83 0 130.5 52.5t47.5 156.5q0 101 -47.5 151t-130.5 50h-98v-410h98z" />
    <glyph glyph-name="Q" unicode="Q" horiz-adv-x="844" 
d="M804 348q0 -161 -104.5 -259t-277.5 -98l268 -142v-11l-152 -71l-183 208v8q5 1 35.5 7.5t46.5 11t48 17.5t51.5 28.5t45 43t39.5 62t24.5 84.5t10.5 111q-1 177 -66.5 260.5t-167.5 83.5q-48 0 -88 -19t-73.5 -58t-52.5 -107.5t-20 -159.5q0 -149 64 -229t161 -88v-10
q-173 0 -273 83t-100 244q0 159 105 257t277 98t277 -98t105 -257z" />
    <glyph glyph-name="R" unicode="R" horiz-adv-x="751" 
d="M646 184v-88q0 -63 37 -63q23 0 34.5 24t11.5 58h12q0 -122 -108 -122q-62 0 -89.5 28t-27.5 97v90q0 64 -37 93t-122 29h-117v-317h65v-13h-260v13h64v674h-64v13h311q65 0 113.5 -9t87 -30t58.5 -58.5t20 -91.5q0 -76 -53.5 -122t-153.5 -46v-3q125 0 171.5 -35
t46.5 -121zM329 343q179 0 179 168q0 94 -47.5 131t-131.5 37h-89v-336h89z" />
    <glyph glyph-name="S" unicode="S" horiz-adv-x="578" 
d="M160 572q-2 -35 18.5 -64t54.5 -50t75 -40.5l82 -40.5t74.5 -46t54 -62t18.5 -82q-7 -194 -258 -194q-95 0 -239 46v179h9q37 -116 87 -163t134 -47q125 0 147 80q12 44 -1 79.5t-44 59.5t-71 45.5l-83 43t-79 46.5t-60 62.5t-25 83.5q-2 98 57 146.5t179 48.5
q67 0 215 -48v-163h-10q-37 106 -83.5 151t-119.5 45q-58 0 -94 -29t-38 -87z" />
    <glyph glyph-name="T" unicode="T" horiz-adv-x="702" 
d="M30 700h642v-242h-12q-10 96 -21 129q-33 92 -137 92h-85v-666h64v-13h-260v13h65v666h-86q-39 0 -68 -13t-44.5 -33.5t-25 -48.5t-13 -55t-6.5 -56q-1 -10 -1 -15h-12v242z" />
    <glyph glyph-name="U" unicode="U" horiz-adv-x="763" 
d="M573 700h155v-13q-37 -10 -54 -46t-17 -111v-248q0 -141 -71.5 -215t-199.5 -74q-131 0 -208.5 74t-77.5 215v405h-65v13h260v-13h-64v-405q0 -117 57 -179t149 -62t149.5 62t57.5 179v248q0 77 -16 112t-55 45v13z" />
    <glyph glyph-name="V" unicode="V" horiz-adv-x="780" 
d="M577 700h193v-13q-30 -9 -63 -47t-56 -95l-219 -545h-38l-320 687h-64v13h265v-13h-58l255 -554l166 413q20 54 1.5 93.5t-62.5 47.5v13z" />
    <glyph glyph-name="W" unicode="W" horiz-adv-x="1119" 
d="M869 700h234v-14q-44 -12 -71.5 -46t-56.5 -118l-178 -522h-39l-205 546l-173 -546h-39l-259 686h-61v14h264v-14h-60l189 -529l173 543h46l200 -555q129 378 130 378q48 148 -94 163v14z" />
    <glyph glyph-name="X" unicode="X" horiz-adv-x="798" 
d="M708 13h65v-13h-285v13h64l-203 297l-106 -143q-102 -139 25 -154v-13h-243v13q117 35 204 154l113 153l-250 367h-66v13h285v-13h-64l185 -270l89 119q100 136 -26 151v13h240v-13q-115 -34 -202 -152l-95 -128z" />
    <glyph glyph-name="Y" unicode="Y" horiz-adv-x="733" 
d="M495 700h228v-13q-42 -13 -68 -36.5t-65 -90.5l-152 -264v-283h65v-13h-260v13h64v260l-234 414h-63v13h276v-13h-65l207 -381l137 235q78 134 -70 146v13z" />
    <glyph glyph-name="Z" unicode="Z" horiz-adv-x="654" 
d="M619 700v-13l-431 -666h214q55 0 91 14.5t55.5 47.5t28.5 67t16 93h13v-243h-571v13l423 666h-206q-55 0 -91 -14.5t-55.5 -47.5t-28.5 -67t-16 -92h-13v242h571z" />
    <glyph glyph-name="bracketleft" unicode="[" horiz-adv-x="247" 
d="M202 687h-117v-752h117v-13h-157v778h157v-13z" />
    <glyph glyph-name="backslash" unicode="\" horiz-adv-x="377" 
d="M85 700l247 -778h-40l-247 778h40z" />
    <glyph glyph-name="bracketright" unicode="]" horiz-adv-x="247" 
d="M45 700h157v-778h-157v13h117v752h-117v13z" />
    <glyph glyph-name="asciicircum" unicode="^" horiz-adv-x="395" 
d="M204 701l146 -190l-6 -6l-147 102l-146 -102l-6 6l146 190h13z" />
    <glyph glyph-name="underscore" unicode="_" horiz-adv-x="444" 
d="M45 0h354v-40h-354v40z" />
    <glyph glyph-name="grave" unicode="`" horiz-adv-x="263" 
d="M131 678q21 -21 42.5 -53.5t32.5 -54.5l12 -22l-7 -7q-82 40 -129 87q-53 53 -28 78q24 25 77 -28z" />
    <glyph glyph-name="a" unicode="a" horiz-adv-x="623" 
d="M606 84l12 -7q-37 -84 -115 -84q-44 0 -75 31.5t-30 78.5q-19 -46 -68 -78t-121 -32q-75 0 -124.5 37.5t-49.5 115.5q0 29 7.5 53.5t18.5 42.5t30.5 32t36.5 23t44.5 15.5t46 10t49 5.5t46 2.5t45 0.5h37.5v96q0 100 -100 100q-50 0 -94 -35t-96 -137h-9v144
q135 41 204 41q108 0 163 -37t55 -132v-243q0 -43 10 -59.5t32 -16.5q27 0 45 32zM153 159q0 -76 44.5 -109.5t103 -14.5t95.5 80v204q-109 3 -176 -34t-67 -126z" />
    <glyph glyph-name="b" unicode="b" horiz-adv-x="692" 
d="M425 540q97 2 165.5 -74t60.5 -211q-8 -130 -82.5 -196t-179.5 -66q-101 0 -182 45l-107 -38h-9v687h-56v13h179v-290q27 49 83.5 89t127.5 41zM513 243q6 114 -39.5 174.5t-134.5 54.5q-38 -3 -72.5 -26t-52.5 -55v-344q15 -10 50.5 -17.5t69.5 -7.5q80 0 126.5 57.5
t52.5 163.5z" />
    <glyph glyph-name="c" unicode="c" horiz-adv-x="597" 
d="M547 118l10 -8q-27 -46 -84 -81.5t-138 -35.5q-122 0 -211 73.5t-89 199.5q0 131 89.5 202.5t213.5 71.5q81 0 204 -47v-170h-12q-33 112 -75.5 158t-99.5 46q-81 0 -135 -68.5t-47 -192.5q6 -105 68 -160t151 -55q99 0 155 67z" />
    <glyph glyph-name="d" unicode="d" horiz-adv-x="689" 
d="M593 13h56v-13h-179v112q-21 -44 -72.5 -81.5t-118.5 -37.5q-97 0 -170.5 72t-73.5 201q0 130 73.5 202t170.5 72q67 0 118.5 -37.5t72.5 -81.5v266h-56v13h179v-687zM470 133v267q-41 70 -112 82q-96 17 -146 -44.5t-50 -171.5q0 -109 50 -170.5t146 -44.5q72 13 112 82
z" />
    <glyph glyph-name="e" unicode="e" horiz-adv-x="615" 
d="M320 540q120 0 190.5 -69.5t63.5 -204.5h-401q6 -105 68 -160t151 -55q99 0 155 67l10 -8q-27 -46 -84 -81.5t-138 -35.5q-122 0 -211 73.5t-89 199.5q0 133 81.5 203.5t203.5 70.5zM445 288q4 70 -6.5 122t-40 84.5t-78.5 32.5q-62 0 -106.5 -68.5t-41.5 -170.5h273z
" />
    <glyph glyph-name="f" unicode="f" horiz-adv-x="430" 
d="M283 716q-64 -9 -64 -141v-48h191v-13h-191v-501h97v-13h-276v13h56v501h-56v13h56q1 106 46 154t140 48q59 0 128 -23v-128h-10q-34 86 -60.5 115t-56.5 23z" />
    <glyph glyph-name="g" unicode="g" horiz-adv-x="644" 
d="M604 626v-110h-157q101 -42 101 -142q0 -80 -65 -123t-171 -43q-93 0 -153 33q-12 -21 -14 -42q-5 -45 44.5 -64.5t177.5 -19.5q119 0 172 -29.5t53 -93.5q0 -79 -75.5 -133t-204.5 -54q-128 0 -202.5 27t-74.5 77q0 71 133 119q-112 26 -97 110q12 61 81 107
q-73 44 -73 129q0 80 63.5 123t169.5 43q67 0 118 -18l165 104h9zM497 -85q8 52 -34 76t-151 24q-67 0 -110 7q-37 -20 -61.5 -49t-24.5 -59q0 -45 56.5 -67.5t139.5 -22.5q171 0 185 91zM312 223q58 0 87 41t29 110t-29 110t-87 41q-57 0 -86.5 -41.5t-29.5 -109.5
t29.5 -109.5t86.5 -41.5z" />
    <glyph glyph-name="h" unicode="h" 
d="M681 13v-13h-236v13h56v346q0 137 -142 120q-51 -7 -95.5 -49t-44.5 -81v-336h57v-13h-236v13h57v674h-57v13h179v-306q37 67 97.5 106.5t131.5 39.5q176 0 176 -190v-337h57z" />
    <glyph glyph-name="i" unicode="i" horiz-adv-x="315" 
d="M219 13h56v-13h-235v13h56v501h-56v13h179v-514zM158 575q-28 0 -48 19.5t-20 48.5q0 28 20 47.5t48 19.5t47.5 -19.5t19.5 -47.5t-19.5 -48t-47.5 -20z" />
    <glyph glyph-name="j" unicode="j" horiz-adv-x="327" 
d="M35 527h201v-346q0 -79 -4 -130t-17.5 -99t-38 -74.5t-65.5 -42t-101 -15.5v15q103 0 103 206v473h-78v13zM174 575q-28 0 -47.5 20t-19.5 48t19.5 47.5t47.5 19.5t48 -19.5t20 -47.5q0 -29 -20 -48.5t-48 -19.5z" />
    <glyph glyph-name="k" unicode="k" horiz-adv-x="653" 
d="M577 13h61v-13h-252v13h51l-141 240l-77 -91v-149h57v-13h-236v13h57v674h-57v13h179v-522l184 217q41 53 34 83.5t-54 35.5v13h205v-13q-47 -12 -85 -41t-90 -83l-35 -41z" />
    <glyph glyph-name="l" unicode="l" horiz-adv-x="316" 
d="M219 13h57v-13h-236v13h57v674h-57v13h179v-687z" />
    <glyph glyph-name="m" unicode="m" horiz-adv-x="1093" 
d="M1053 13v-13h-236v13h57v346q0 66 -29.5 97.5t-104.5 22.5q-51 -7 -91.5 -48.5t-40.5 -81.5v-336h56v-13h-235v13h56v346q0 66 -29.5 97.5t-104.5 22.5q-50 -7 -90.5 -48.5t-40.5 -81.5v-336h56v-13h-236v13h57v501h-57v13h180v-133q80 146 220 146q84 0 121.5 -39.5
t44.5 -110.5q37 70 94.5 110t128.5 40q95 0 131 -50.5t36 -139.5v-337h57z" />
    <glyph glyph-name="n" unicode="n" horiz-adv-x="720" 
d="M680 13v-13h-235v13h56v346q0 137 -142 120q-51 -7 -95.5 -49t-44.5 -81v-336h57v-13h-236v13h56v501h-56v13h179v-133q37 67 97.5 106.5t131.5 39.5q176 0 176 -190v-337h56z" />
    <glyph glyph-name="o" unicode="o" horiz-adv-x="679" 
d="M337 539q57 0 109.5 -16.5t96 -48.5t70 -86t26.5 -122q0 -90 -46 -154t-112.5 -91.5t-143.5 -27.5t-143.5 27.5t-112.5 91.5t-46 154q0 68 26.5 122t70 86t96 48.5t109.5 16.5zM337 5q80 0 125 73t45 188t-45 188t-125 73t-125 -73t-45 -188t45 -188t125 -73z" />
    <glyph glyph-name="p" unicode="p" horiz-adv-x="695" 
d="M410 540q98 0 171.5 -71.5t73.5 -201.5t-73.5 -201.5t-171.5 -71.5q-67 0 -118 37t-73 82v-267h80v-13h-259v13h57v668h-57v13h179v-106q22 45 73 82t118 37zM331 51q97 -17 147 45t50 171t-50 171t-147 45q-69 -14 -112 -82v-268q43 -68 112 -82z" />
    <glyph glyph-name="q" unicode="q" horiz-adv-x="692" 
d="M652 -154v-13h-252v13h73v277q-25 -51 -79.5 -90.5t-127.5 -39.5q-97 0 -167.5 79.5t-62.5 213.5q4 66 27.5 116.5t60.5 79.5t81 43.5t93 14.5q101 0 182 -45l107 32h9v-681h56zM348 61q38 4 73 26.5t52 54.5v344q-17 10 -52.5 18t-68.5 7q-82 -4 -127.5 -59t-50.5 -154
q-5 -115 39.5 -180.5t134.5 -56.5z" />
    <glyph glyph-name="r" unicode="r" horiz-adv-x="535" 
d="M403 540q30 0 60 -14t42 -31l-82 -131h-8q-13 51 -46.5 83t-77.5 11q-25 -12 -48.5 -54.5t-23.5 -79.5v-311h89v-13h-268v13h56v501h-56v13h179v-147q53 160 184 160z" />
    <glyph glyph-name="s" unicode="s" horiz-adv-x="499" 
d="M158 448q-1 -11 0.5 -21.5t7.5 -20.5t12 -18t18 -17.5l20.5 -16t24.5 -15.5l25 -14l27.5 -15l27.5 -15q85 -45 115 -83.5t19 -101.5q-22 -117 -203 -117q-72 0 -217 39v158h10q30 -60 57 -98.5t51.5 -56.5t42.5 -24t41 -8q100 -8 111 66q3 23 -4 42.5t-28.5 37t-38 27.5
t-50.5 28t-48 26q-66 37 -97 78.5t-24 100.5q17 131 195 131q49 0 188 -38v-142h-10q-53 105 -91 137t-92 32q-33 0 -59 -19.5t-31 -61.5z" />
    <glyph glyph-name="t" unicode="t" horiz-adv-x="395" 
d="M364 87l11 -9q-29 -42 -61 -63.5t-83 -21.5q-135 0 -135 179v342h-56v13h56l115 160h8v-160h139v-13h-139v-372q0 -56 18.5 -76t51.5 -20q42 0 75 41z" />
    <glyph glyph-name="u" unicode="u" 
d="M624 13h57v-13h-179v139q-38 -68 -94.5 -107t-126.5 -39q-97 0 -140.5 52t-43.5 138v331h-57v13h180v-353q0 -63 37 -96t113 -24q51 7 91.5 48.5t40.5 81.5v330h-57v13h179v-514z" />
    <glyph glyph-name="v" unicode="v" horiz-adv-x="646" 
d="M421 527h200v-13q-38 -11 -58.5 -38.5t-51.5 -100.5l-158 -375h-48l-233 514h-62v13h268v-13h-67l175 -405l103 244q32 80 15 117t-83 44v13z" />
    <glyph glyph-name="w" unicode="w" horiz-adv-x="950" 
d="M725 527h200v-13q-37 -14 -58 -43.5t-50 -103.5l-143 -367h-40l-169 396l-136 -396h-40l-217 514h-62v13h268v-13h-67l149 -382l137 395h45l163 -412l90 229q60 156 -70 170v13z" />
    <glyph glyph-name="x" unicode="x" horiz-adv-x="648" 
d="M562 13h56v-13h-252v13h59l-144 209l-79 -105q-37 -48 -32 -73t53 -31v-13h-195v13q31 9 50.5 17t52 30.5t57.5 55.5l87 115l-194 283h-56v13h252v-13h-58l137 -200l72 95q37 51 29 76.5t-54 27.5v14h195v-14q-101 -28 -159 -107l-77 -101z" />
    <glyph glyph-name="y" unicode="y" horiz-adv-x="680" 
d="M453 527h202v-13q-38 -11 -61 -43.5t-61 -116.5l-153 -348l-136 -272l-103 99v13l204 110l-272 558h-63v13h267v-13h-67l195 -422q110 251 111 252q34 80 17 123.5t-80 46.5v13z" />
    <glyph glyph-name="z" unicode="z" horiz-adv-x="530" 
d="M490 527v-13l-325 -492h162q80 0 108.5 38t36.5 122h14v-182h-456v13l319 493h-150q-80 0 -108 -38t-37 -123h-14v182h450z" />
    <glyph glyph-name="braceleft" unicode="{" horiz-adv-x="306" 
d="M261 703q-40 -4 -66 -28t-24 -64q1 -24 9.5 -72t7.5 -79q-2 -57 -32 -86.5t-101 -34.5q71 -5 101 -34.5t32 -87.5q1 -31 -7.5 -78.5t-9.5 -71.5q-2 -40 24 -64t66 -28v-7q-25 0 -43 1.5t-38.5 7.5t-34 16.5t-25.5 29t-17 44t-4 63t9 85.5q11 62 -7.5 87.5t-65.5 30.5v12
q47 5 65.5 30.5t7.5 87.5q-8 47 -9 84.5t4 63.5t16.5 44.5t25.5 28.5t34.5 16t38.5 8t43 2v-7z" />
    <glyph glyph-name="bar" unicode="|" horiz-adv-x="130" 
d="M45 700h40v-778h-40v778z" />
    <glyph glyph-name="braceright" unicode="}" horiz-adv-x="307" 
d="M198 463q-11 -62 7.5 -87.5t66.5 -30.5v-12q-48 -5 -66.5 -30.5t-7.5 -87.5q10 -55 10.5 -97t-9.5 -68t-23.5 -43t-36.5 -25.5t-43.5 -11t-50.5 -2.5v7q40 4 66 28t24 64q-1 26 -9.5 73t-7.5 77q3 58 32.5 87.5t100.5 34.5q-71 5 -100.5 34.5t-32.5 86.5q-1 31 7.5 78
t9.5 73q2 40 -24 64t-66 28v7q29 0 50 -3t44 -11t36.5 -25t23.5 -43.5t9.5 -68t-10.5 -96.5z" />
    <glyph glyph-name="asciitilde" unicode="~" horiz-adv-x="459" 
d="M406 412h8q-2 -71 -29.5 -109t-81.5 -35q-17 1 -36 7.5t-30 12.5t-33.5 20t-31.5 19q-49 23 -79.5 6.5t-39.5 -56.5h-8q4 91 34.5 128t86.5 30q32 -4 83.5 -36.5t64.5 -37.5q36 -14 60 1.5t32 49.5z" />
    <glyph glyph-name="exclamdown" unicode="&#xa1;" horiz-adv-x="231" 
d="M119 74q8 -18 19.5 -49.5t30 -118t16.5 -159.5q-1 -62 -20 -95t-49 -33q-31 0 -50 33t-20 95q-1 73 15.5 154.5t33.5 126.5l17 46h7zM116 193q-29 0 -49 20t-20 48t20 48t49 20q28 0 48 -20t20 -48t-20 -48t-48 -20z" />
    <glyph glyph-name="cent" unicode="&#xa2;" horiz-adv-x="596" 
d="M556 110q-26 -46 -82 -81t-136 -36v-75h-21v76q-117 6 -199.5 78t-82.5 194q0 125 81.5 196t200.5 77v79h21v-78q83 -1 204 -47v-170h-13q-32 112 -74.5 158t-100.5 46q-11 0 -16 -1v-469q26 -6 54 -6q98 0 154 67zM172 266q5 -81 44 -132.5t101 -70.5v460
q-68 -16 -109.5 -82.5t-35.5 -174.5z" />
    <glyph glyph-name="sterling" unicode="&#xa3;" horiz-adv-x="632" 
d="M587 153v-153h-461v13l159 85q-122 106 -172 233h-88v22h80q-19 60 -19 116q0 112 75.5 173t200.5 61q67 0 207 -50v-175h-14q-32 110 -78 160t-114 50q-149 0 -151 -202q-1 -72 8 -133h237v-22h-234q14 -73 74 -233h279v55h11z" />
    <glyph glyph-name="currency" unicode="&#xa4;" horiz-adv-x="600" 
d="M515 264q0 -88 -55 -146l95 -94l-15 -16l-95 95q-58 -49 -146 -49q-87 0 -145 49l-94 -95l-15 16l94 94q-55 58 -55 146t55 145l-94 94l15 16l94 -95q58 49 145 49q88 0 146 -49l95 95l15 -16l-95 -94q55 -58 55 -145zM299 68q40 0 64 51.5t24 144.5q0 92 -24 143.5
t-64 51.5t-63.5 -51.5t-23.5 -143.5q0 -93 23.5 -144.5t63.5 -51.5z" />
    <glyph glyph-name="yen" unicode="&#xa5;" horiz-adv-x="733" 
d="M495 700h228v-13q-42 -13 -68 -36.5t-65 -90.5l-151 -262h149v-22h-150v-52h150v-22h-150v-189h65v-13h-260v13h64v189h-159v22h159v52h-159v22h145l-219 389h-64v13h276v-13h-65l207 -381l137 235q78 134 -70 146v13z" />
    <glyph glyph-name="brokenbar" unicode="&#xa6;" horiz-adv-x="131" 
d="M45 700h41v-284h-41v284zM45 -77v283h41v-283h-41z" />
    <glyph glyph-name="section" unicode="&#xa7;" horiz-adv-x="555" 
d="M194 623q-2 -40 30.5 -70.5t80 -52t94.5 -45.5t79.5 -62.5t30.5 -90.5q-4 -136 -156 -157q94 -58 95 -138q2 -81 -47 -122t-149 -41q-55 0 -179 40v136h8q31 -88 69.5 -125.5t99.5 -37.5q48 0 78.5 24.5t32.5 72.5q2 40 -30.5 70.5t-80 52t-94.5 45.5t-79.5 62.5
t-30.5 90.5q4 136 156 157q-94 58 -95 139q-2 81 47 121.5t149 40.5q61 0 179 -40v-136h-8q-30 88 -69 126t-100 38q-48 0 -78.5 -25t-32.5 -73zM409 220q5 16 5 31t-3 27t-10 24t-15.5 21t-21 18.5t-24.5 16.5l-27.5 16t-29 15.5l-30.5 15t-29 15.5q-65 -13 -78 -63
q-5 -16 -5 -31t3 -27t10 -24t15.5 -21t21 -18.5t24.5 -16.5l27.5 -16t29 -15.5l30.5 -15t29 -15.5q65 13 78 63z" />
    <glyph glyph-name="dieresis" unicode="&#xa8;" horiz-adv-x="372" 
d="M103 700q24 0 41 -17t17 -41t-17 -41t-41 -17t-41 17t-17 41t17 41t41 17zM270 700q23 0 40 -17t17 -41t-17 -41t-40 -17q-24 0 -41 17t-17 41t17 41t41 17z" />
    <glyph glyph-name="copyright" unicode="&#xa9;" horiz-adv-x="880" 
d="M614 195l7 -6q-55 -90 -172 -90q-92 0 -160 57t-68 155q0 101 69 156.5t161 55.5q61 0 159 -36v-132h-8q-26 86 -59.5 122t-78.5 36q-67 0 -115 -54t-42 -148q4 -82 56.5 -127.5t124.5 -45.5q81 0 126 57zM440 702q163 0 279 -115.5t116 -278.5t-116 -279t-279 -116
q-164 0 -279.5 115.5t-115.5 279.5q0 163 116 278.5t279 115.5zM440 -71q156 0 267 111t111 268q0 156 -111 267t-267 111q-157 0 -268 -111t-111 -267q0 -157 111 -268t268 -111z" />
    <glyph glyph-name="guillemotleft" unicode="&#xab;" horiz-adv-x="417" 
d="M215 471l-87 -147l87 -147l-7 -6l-173 147v12l173 147zM372 471l-87 -147l87 -147l-7 -6l-173 147v12l173 147z" />
    <glyph glyph-name="registered" unicode="&#xae;" horiz-adv-x="880" 
d="M440 702q163 0 279 -115.5t116 -278.5t-116 -279t-279 -116q-164 0 -279.5 115.5t-115.5 279.5q0 163 116 278.5t279 115.5zM440 -71q156 0 267 111t111 268q0 156 -111 267t-267 111q-157 0 -268 -111t-111 -267q0 -157 111 -268t268 -111zM595 212v-51q0 -37 22 -37
q27 0 27 47h7q0 -71 -63 -71q-36 0 -52.5 16.5t-16.5 56.5v53q0 38 -21.5 54.5t-71.5 16.5h-68v-185h38v-8h-152v8h37v394h-37v8h182q79 0 121 -25t42 -86q0 -44 -31.5 -71t-89.5 -27v-2q73 0 100 -20.5t27 -70.5zM410 305q105 0 105 98t-105 98h-52v-196h52z" />
    <glyph glyph-name="macron" unicode="&#xaf;" horiz-adv-x="411" 
d="M45 642h321v-40h-321v40z" />
    <glyph glyph-name="degree" unicode="&#xb0;" horiz-adv-x="347" 
d="M173 429q-53 0 -90.5 38t-37.5 91t37.5 90.5t90.5 37.5t91 -37.5t38 -90.5t-38 -91t-91 -38zM173 645q-36 0 -61.5 -25.5t-25.5 -61.5t25.5 -61.5t61.5 -25.5t62 25.5t26 61.5t-26 61.5t-62 25.5z" />
    <glyph glyph-name="plusminus" unicode="&#xb1;" horiz-adv-x="444" 
d="M45 167v40h354v-40h-354zM242 465h157v-40h-157v-157h-40v157h-157v40h157v157h40v-157z" />
    <glyph glyph-name="acute" unicode="&#xb4;" horiz-adv-x="263" 
d="M210 706q24 -25 -29 -78q-21 -21 -53 -42.5t-54 -33.5l-22 -11l-7 7q40 83 87 130q53 53 78 28z" />
    <glyph glyph-name="paragraph" unicode="&#xb6;" horiz-adv-x="447" 
d="M204 701h198v-700h-40v687h-118v-687h-40v398q-64 0 -111.5 44.5t-47.5 106.5t47.5 106.5t111.5 44.5z" />
    <glyph glyph-name="cedilla" unicode="&#xb8;" horiz-adv-x="346" 
d="M133 -40q79 13 129 -19t36 -100q-13 -61 -86 -87.5t-167 7.5l3 9q60 -7 103 20t55 73q11 43 -14.5 67.5t-74.5 17.5l15 53h12z" />
    <glyph glyph-name="guillemotright" unicode="&#xbb;" horiz-adv-x="417" 
d="M208 477l174 -147v-12l-174 -147l-6 6l86 147l-86 147zM225 330v-12l-174 -147l-6 6l86 147l-86 147l6 6z" />
    <glyph glyph-name="questiondown" unicode="&#xbf;" horiz-adv-x="514" 
d="M459 -173h10v-169q-133 -39 -186 -39q-113 0 -175.5 44.5t-62.5 128.5q0 96 65 153t187 67v62h14v-74q-56 -12 -90.5 -73.5t-35.5 -126.5q-1 -83 28.5 -124.5t85.5 -41.5q51 0 87.5 44t72.5 149zM292 193q-28 0 -48 19.5t-20 48.5t20 48.5t48 19.5t48 -20t20 -48t-20 -48
t-48 -20z" />
    <glyph glyph-name="Agrave" unicode="&#xc0;" horiz-adv-x="780" 
d="M707 13h63v-13h-264v13h58l-94 205h-301l-26 -65q-20 -53 -1.5 -92.5t62.5 -47.5v-13h-194v13q31 9 64.5 47t55.5 95l219 545h38zM174 231h290l-155 336zM344 878q21 -21 42.5 -53.5t33.5 -54.5l11 -22l-7 -7q-82 40 -129 87q-53 53 -28 78q24 25 77 -28z" />
    <glyph glyph-name="Aacute" unicode="&#xc1;" horiz-adv-x="780" 
d="M707 13h63v-13h-264v13h58l-94 205h-301l-26 -65q-20 -53 -1.5 -92.5t62.5 -47.5v-13h-194v13q31 9 64.5 47t55.5 95l219 545h38zM174 231h290l-155 336zM473 906q24 -25 -29 -78q-21 -21 -53 -42.5t-54 -33.5l-22 -11l-7 7q40 83 87 130q53 53 78 28z" />
    <glyph glyph-name="Acircumflex" unicode="&#xc2;" horiz-adv-x="780" 
d="M707 13h63v-13h-264v13h58l-94 205h-301l-26 -65q-20 -53 -1.5 -92.5t62.5 -47.5v-13h-194v13q31 9 64.5 47t55.5 95l219 545h38zM174 231h290l-155 336zM405 920l139 -147l-7 -7l-167 76l-167 -76l-7 7l140 147h69z" />
    <glyph glyph-name="Atilde" unicode="&#xc3;" horiz-adv-x="780" 
d="M707 13h63v-13h-264v13h58l-94 205h-301l-26 -65q-20 -53 -1.5 -92.5t62.5 -47.5v-13h-194v13q31 9 64.5 47t55.5 95l219 545h38zM174 231h290l-155 336zM427 790q-13 1 -28 6t-24 9.5t-26.5 14.5l-24.5 14q-39 17 -63.5 5t-31.5 -42h-6q3 67 27 94.5t69 22.5
q25 -3 65.5 -27t51.5 -28q29 -10 48 1t25 37h7q-3 -110 -89 -107z" />
    <glyph glyph-name="Adieresis" unicode="&#xc4;" horiz-adv-x="780" 
d="M707 13h63v-13h-264v13h58l-94 205h-301l-26 -65q-20 -53 -1.5 -92.5t62.5 -47.5v-13h-194v13q31 9 64.5 47t55.5 95l219 545h38zM174 231h290l-155 336zM287 900q24 0 41 -17t17 -41t-17 -41t-41 -17t-41 17t-17 41t17 41t41 17zM454 900q23 0 40 -17t17 -41t-17 -41
t-40 -17q-24 0 -41 17t-17 41t17 41t41 17z" />
    <glyph glyph-name="Aring" unicode="&#xc5;" horiz-adv-x="780" 
d="M707 13h63v-13h-264v13h58l-94 205h-301l-26 -65q-20 -53 -1.5 -92.5t62.5 -47.5v-13h-194v13q31 9 64.5 47t55.5 95l219 545h38zM174 231h290l-155 336zM370 744q-40 0 -69 29t-29 69t29 69t69 29t69 -29t29 -69t-29 -69t-69 -29zM370 915q-30 0 -51.5 -21.5
t-21.5 -51.5t21.5 -51.5t51.5 -21.5t51.5 21.5t21.5 51.5t-21.5 51.5t-51.5 21.5z" />
    <glyph glyph-name="AE" unicode="&#xc6;" horiz-adv-x="1043" 
d="M991 251h12v-251h-570v13h65v238h-263l-47 -77l-11 -20q-29 -52 -22 -92.5t49 -48.5v-13h-194v13q31 9 75 49.5t77 91.5l14 22l313 511h-56v13h554v-251h-12q-15 115 -60.5 172.5t-156.5 57.5h-129v-322h118q69 0 96.5 21.5t36.5 82.5h9v-220h-9q-9 60 -36.5 81.5
t-96.5 21.5h-118v-322h146q59 0 99 16t63.5 49t35 71t18.5 93zM498 264v415l-255 -415h255z" />
    <glyph glyph-name="Ccedilla" unicode="&#xc7;" horiz-adv-x="754" 
d="M421 -7h-9l-9 -33q79 13 129 -19t36 -100q-13 -61 -86 -87.5t-167 6.5l2 10q60 -7 103.5 20t55.5 73q11 43 -14.5 67.5t-74.5 17.5l13 46q-148 6 -254 101t-106 253q0 87 33.5 156.5t89 111.5t123 64.5t139.5 22.5q106 0 266 -60v-221h-14q-42 145 -98.5 205t-131.5 60
q-112 0 -192.5 -90t-71.5 -249q9 -138 96 -213.5t209 -75.5q134 0 210 95l11 -9q-92 -152 -288 -152z" />
    <glyph glyph-name="Egrave" unicode="&#xc8;" horiz-adv-x="655" 
d="M603 251h12v-251h-570v13h65v674h-65v13h554v-251h-12q-7 56 -19 93.5t-35.5 71t-63.5 49.5t-98 16h-130v-322h118q69 0 97 21.5t36 82.5h10v-220h-10q-8 60 -36 81.5t-97 21.5h-118v-322h146q59 0 99 16t63.5 49t35 71t18.5 93zM354 878q21 -21 42.5 -53.5t33.5 -54.5
l11 -22l-7 -7q-82 40 -129 87q-53 53 -28 78q24 25 77 -28z" />
    <glyph glyph-name="Eacute" unicode="&#xc9;" horiz-adv-x="655" 
d="M603 251h12v-251h-570v13h65v674h-65v13h554v-251h-12q-7 56 -19 93.5t-35.5 71t-63.5 49.5t-98 16h-130v-322h118q69 0 97 21.5t36 82.5h10v-220h-10q-8 60 -36 81.5t-97 21.5h-118v-322h146q59 0 99 16t63.5 49t35 71t18.5 93zM433 906q24 -25 -29 -78
q-21 -21 -53 -42.5t-54 -33.5l-22 -11l-7 7q40 83 87 130q53 53 78 28z" />
    <glyph glyph-name="Ecircumflex" unicode="&#xca;" horiz-adv-x="655" 
d="M603 251h12v-251h-570v13h65v674h-65v13h554v-251h-12q-7 56 -19 93.5t-35.5 71t-63.5 49.5t-98 16h-130v-322h118q69 0 97 21.5t36 82.5h10v-220h-10q-8 60 -36 81.5t-97 21.5h-118v-322h146q59 0 99 16t63.5 49t35 71t18.5 93zM385 920l139 -147l-7 -7l-167 76
l-167 -76l-7 7l140 147h69z" />
    <glyph glyph-name="Edieresis" unicode="&#xcb;" horiz-adv-x="655" 
d="M603 251h12v-251h-570v13h65v674h-65v13h554v-251h-12q-7 56 -19 93.5t-35.5 71t-63.5 49.5t-98 16h-130v-322h118q69 0 97 21.5t36 82.5h10v-220h-10q-8 60 -36 81.5t-97 21.5h-118v-322h146q59 0 99 16t63.5 49t35 71t18.5 93zM267 900q24 0 41 -17t17 -41t-17 -41
t-41 -17t-41 17t-17 41t17 41t41 17zM434 900q23 0 40 -17t17 -41t-17 -41t-40 -17q-24 0 -41 17t-17 41t17 41t41 17z" />
    <glyph glyph-name="Igrave" unicode="&#xcc;" horiz-adv-x="351" 
d="M306 687h-65v-674h65v-13h-261v13h65v674h-65v13h261v-13zM130 878q21 -21 42.5 -53.5t33.5 -54.5l11 -22l-7 -7q-82 40 -129 87q-53 53 -28 78q24 25 77 -28z" />
    <glyph glyph-name="Iacute" unicode="&#xcd;" horiz-adv-x="351" 
d="M306 687h-65v-674h65v-13h-261v13h65v674h-65v13h261v-13zM299 906q24 -25 -29 -78q-21 -21 -53 -42.5t-54 -33.5l-22 -11l-7 7q40 83 87 130q53 53 78 28z" />
    <glyph glyph-name="Icircumflex" unicode="&#xce;" horiz-adv-x="351" 
d="M306 687h-65v-674h65v-13h-261v13h65v674h-65v13h261v-13zM211 920l139 -147l-7 -7l-167 76l-167 -76l-7 7l140 147h69z" />
    <glyph glyph-name="Idieresis" unicode="&#xcf;" horiz-adv-x="351" 
d="M305 687h-65v-674h65v-13h-261v13h65v674h-65v13h261v-13zM92 900q24 0 41 -17t17 -41t-17 -41t-41 -17t-41 17t-17 41t17 41t41 17zM259 900q23 0 40 -17t17 -41t-17 -41t-40 -17q-24 0 -41 17t-17 41t17 41t41 17z" />
    <glyph glyph-name="Eth" unicode="&#xd0;" horiz-adv-x="816" 
d="M776 350q0 -182 -110.5 -266t-323.5 -84h-297v13h64v326h-64v22h64v326h-64v13h297q214 0 324 -84t110 -266zM371 22q127 0 193.5 84.5t66.5 243.5t-67 244t-193 85h-131v-318h195v-22h-195v-317h131z" />
    <glyph glyph-name="Ntilde" unicode="&#xd1;" horiz-adv-x="872" 
d="M566 700h266v-13q-61 -12 -91.5 -64.5t-30.5 -133.5v-489h-60l-475 583v-372q0 -79 34 -132.5t96 -65.5v-13h-265v13q61 12 91.5 64.5t30.5 133.5v388l-72 88h-49v13h215l441 -540v329q0 79 -34.5 132.5t-96.5 65.5v13zM483 790q-13 1 -28 6t-24 9.5t-26.5 14.5l-24.5 14
q-39 17 -63.5 5t-31.5 -42h-6q3 67 27 94.5t69 22.5q25 -3 65.5 -27t51.5 -28q29 -10 48 1t25 37h7q-3 -110 -89 -107z" />
    <glyph glyph-name="Ograve" unicode="&#xd2;" horiz-adv-x="844" 
d="M422 703q172 0 277 -98t105 -257t-105 -257t-277 -98t-277 98t-105 257t105 257t277 98zM422 5q102 0 167.5 83.5t66.5 259.5q-1 177 -66.5 260.5t-167.5 83.5t-167.5 -83.5t-66.5 -260.5q1 -176 66.5 -259.5t167.5 -83.5zM396 878q21 -21 42.5 -53.5t33.5 -54.5l11 -22
l-7 -7q-82 40 -129 87q-53 53 -28 78q24 25 77 -28z" />
    <glyph glyph-name="Oacute" unicode="&#xd3;" horiz-adv-x="844" 
d="M422 703q172 0 277 -98t105 -257t-105 -257t-277 -98t-277 98t-105 257t105 257t277 98zM422 5q102 0 167.5 83.5t66.5 259.5q-1 177 -66.5 260.5t-167.5 83.5t-167.5 -83.5t-66.5 -260.5q1 -176 66.5 -259.5t167.5 -83.5zM515 906q24 -25 -29 -78q-21 -21 -53 -42.5
t-54 -33.5l-22 -11l-7 7q40 83 87 130q53 53 78 28z" />
    <glyph glyph-name="Ocircumflex" unicode="&#xd4;" horiz-adv-x="844" 
d="M422 703q172 0 277 -98t105 -257t-105 -257t-277 -98t-277 98t-105 257t105 257t277 98zM422 5q102 0 167.5 83.5t66.5 259.5q-1 177 -66.5 260.5t-167.5 83.5t-167.5 -83.5t-66.5 -260.5q1 -176 66.5 -259.5t167.5 -83.5zM457 920l139 -147l-7 -7l-167 76l-167 -76l-7 7
l140 147h69z" />
    <glyph glyph-name="Otilde" unicode="&#xd5;" horiz-adv-x="844" 
d="M422 703q172 0 277 -98t105 -257t-105 -257t-277 -98t-277 98t-105 257t105 257t277 98zM422 5q102 0 167.5 83.5t66.5 259.5q-1 177 -66.5 260.5t-167.5 83.5t-167.5 -83.5t-66.5 -260.5q1 -176 66.5 -259.5t167.5 -83.5zM479 790q-13 1 -28 6t-24 9.5t-26.5 14.5
l-24.5 14q-39 17 -63.5 5t-31.5 -42h-6q3 67 27 94.5t69 22.5q25 -3 65.5 -27t51.5 -28q29 -10 48 1t25 37h7q-3 -110 -89 -107z" />
    <glyph glyph-name="Odieresis" unicode="&#xd6;" horiz-adv-x="844" 
d="M422 703q172 0 277 -98t105 -257t-105 -257t-277 -98t-277 98t-105 257t105 257t277 98zM422 5q102 0 167.5 83.5t66.5 259.5q-1 177 -66.5 260.5t-167.5 83.5t-167.5 -83.5t-66.5 -260.5q1 -176 66.5 -259.5t167.5 -83.5zM339 900q24 0 41 -17t17 -41t-17 -41t-41 -17
t-41 17t-17 41t17 41t41 17zM506 900q23 0 40 -17t17 -41t-17 -41t-40 -17q-24 0 -41 17t-17 41t17 41t41 17z" />
    <glyph glyph-name="multiply" unicode="&#xd7;" horiz-adv-x="369" 
d="M324 440l-111 -111l111 -110l-29 -29l-111 111l-110 -111l-29 29l111 110l-111 111l29 29l110 -111l111 111z" />
    <glyph glyph-name="Oslash" unicode="&#xd8;" horiz-adv-x="844" 
d="M655 640q71 -46 110 -121.5t39 -170.5q0 -159 -105 -257t-277 -98q-127 0 -220 56l-37 -49h-22l44 58q-70 46 -108.5 121t-38.5 169q0 159 105 257t277 98q125 0 218 -54l39 51h22zM188 348q0 -140 47 -228l363 475q-61 97 -176 97q-102 0 -167.5 -83.5t-66.5 -260.5z
M422 5q102 0 167.5 83.5t66.5 259.5q-1 144 -48 231l-364 -475q62 -99 178 -99z" />
    <glyph glyph-name="Ugrave" unicode="&#xd9;" horiz-adv-x="763" 
d="M573 700h155v-13q-37 -10 -54 -46t-17 -111v-248q0 -141 -71.5 -215t-199.5 -74q-131 0 -208.5 74t-77.5 215v405h-65v13h260v-13h-64v-405q0 -117 57 -179t149 -62t149.5 62t57.5 179v248q0 77 -16 112t-55 45v13zM386 878q21 -21 42.5 -53.5t33.5 -54.5l11 -22l-7 -7
q-82 40 -129 87q-53 53 -28 78q24 25 77 -28z" />
    <glyph glyph-name="Uacute" unicode="&#xda;" horiz-adv-x="763" 
d="M573 700h155v-13q-37 -10 -54 -46t-17 -111v-248q0 -141 -71.5 -215t-199.5 -74q-131 0 -208.5 74t-77.5 215v405h-65v13h260v-13h-64v-405q0 -117 57 -179t149 -62t149.5 62t57.5 179v248q0 77 -16 112t-55 45v13zM505 906q24 -25 -29 -78q-21 -21 -53 -42.5t-54 -33.5
l-22 -11l-7 7q40 83 87 130q53 53 78 28z" />
    <glyph glyph-name="Ucircumflex" unicode="&#xdb;" horiz-adv-x="763" 
d="M573 700h155v-13q-37 -10 -54 -46t-17 -111v-248q0 -141 -71.5 -215t-199.5 -74q-131 0 -208.5 74t-77.5 215v405h-65v13h260v-13h-64v-405q0 -117 57 -179t149 -62t149.5 62t57.5 179v248q0 77 -16 112t-55 45v13zM466 920l139 -147l-7 -7l-167 76l-167 -76l-7 7
l140 147h69z" />
    <glyph glyph-name="Udieresis" unicode="&#xdc;" horiz-adv-x="763" 
d="M573 700h155v-13q-37 -10 -54 -46t-17 -111v-248q0 -141 -71.5 -215t-199.5 -74q-131 0 -208.5 74t-77.5 215v405h-65v13h260v-13h-64v-405q0 -117 57 -179t149 -62t149.5 62t57.5 179v248q0 77 -16 112t-55 45v13zM358 900q24 0 41 -17t17 -41t-17 -41t-41 -17t-41 17
t-17 41t17 41t41 17zM525 900q23 0 40 -17t17 -41t-17 -41t-40 -17q-24 0 -41 17t-17 41t17 41t41 17z" />
    <glyph glyph-name="Yacute" unicode="&#xdd;" horiz-adv-x="733" 
d="M495 700h228v-13q-42 -13 -68 -36.5t-65 -90.5l-152 -264v-283h65v-13h-260v13h64v260l-234 414h-63v13h276v-13h-65l207 -381l137 235q78 134 -70 146v13zM480 906q24 -25 -29 -78q-21 -21 -53 -42.5t-54 -33.5l-22 -11l-7 7q40 83 87 130q53 53 78 28z" />
    <glyph glyph-name="Thorn" unicode="&#xde;" horiz-adv-x="684" 
d="M373 572q271 0 271 -222t-271 -222h-132v-115h64v-13h-260v13h65v674h-65v13h260v-13h-64v-115h132zM338 149q83 0 130.5 50t47.5 151q0 102 -47 151.5t-131 49.5h-97v-402h97z" />
    <glyph glyph-name="germandbls" unicode="&#xdf;" horiz-adv-x="791" 
d="M465 471q-30 -13 6 -36q13 -8 54 -29q121 -62 169 -111q57 -58 57 -124q0 -50 -16 -86.5t-43 -55.5t-56.5 -27.5t-62.5 -8.5q-106 0 -238 37v195h14q29 -78 70.5 -129t78 -69.5t74.5 -22.5q43 -5 71.5 13t29.5 62q1 36 -31 72.5t-74.5 64t-83.5 65t-57 77t4 100.5
q45 107 25 182.5t-104 75.5q-59 0 -96 -33.5t-37 -107.5v-575h-179v13h56v501h-56v13h57q3 103 76.5 152.5t182.5 49.5q70 0 119.5 -20t69 -51t19.5 -66t-26.5 -68t-72.5 -53z" />
    <glyph glyph-name="agrave" unicode="&#xe0;" horiz-adv-x="623" 
d="M606 84l12 -7q-37 -84 -115 -84q-44 0 -75 31.5t-30 78.5q-19 -46 -68 -78t-121 -32q-75 0 -124.5 37.5t-49.5 115.5q0 29 7.5 53.5t18.5 42.5t30.5 32t36.5 23t44.5 15.5t46 10t49 5.5t46 2.5t45 0.5h37.5v96q0 100 -100 100q-50 0 -94 -35t-96 -137h-9v144
q135 41 204 41q108 0 163 -37t55 -132v-243q0 -43 10 -59.5t32 -16.5q27 0 45 32zM153 159q0 -76 44.5 -109.5t103 -14.5t95.5 80v204q-109 3 -176 -34t-67 -126zM331 678q21 -21 42.5 -53.5t32.5 -54.5l12 -22l-7 -7q-82 40 -129 87q-53 53 -28 78q24 25 77 -28z" />
    <glyph glyph-name="aacute" unicode="&#xe1;" horiz-adv-x="623" 
d="M606 84l12 -7q-37 -84 -115 -84q-44 0 -75 31.5t-30 78.5q-19 -46 -68 -78t-121 -32q-75 0 -124.5 37.5t-49.5 115.5q0 29 7.5 53.5t18.5 42.5t30.5 32t36.5 23t44.5 15.5t46 10t49 5.5t46 2.5t45 0.5h37.5v96q0 100 -100 100q-50 0 -94 -35t-96 -137h-9v144
q135 41 204 41q108 0 163 -37t55 -132v-243q0 -43 10 -59.5t32 -16.5q27 0 45 32zM153 159q0 -76 44.5 -109.5t103 -14.5t95.5 80v204q-109 3 -176 -34t-67 -126zM410 756q24 -25 -29 -78q-21 -21 -53 -42.5t-54 -33.5l-22 -11l-7 7q40 83 87 130q53 53 78 28z" />
    <glyph glyph-name="acircumflex" unicode="&#xe2;" horiz-adv-x="623" 
d="M606 84l12 -7q-37 -84 -115 -84q-44 0 -75 31.5t-30 78.5q-19 -46 -68 -78t-121 -32q-75 0 -124.5 37.5t-49.5 115.5q0 29 7.5 53.5t18.5 42.5t30.5 32t36.5 23t44.5 15.5t46 10t49 5.5t46 2.5t45 0.5h37.5v96q0 100 -100 100q-50 0 -94 -35t-96 -137h-9v144
q135 41 204 41q108 0 163 -37t55 -132v-243q0 -43 10 -59.5t32 -16.5q27 0 45 32zM153 159q0 -76 44.5 -109.5t103 -14.5t95.5 80v204q-109 3 -176 -34t-67 -126zM341 770l139 -147l-7 -7l-167 76l-167 -76l-7 7l140 147h69z" />
    <glyph glyph-name="atilde" unicode="&#xe3;" horiz-adv-x="623" 
d="M606 84l12 -7q-37 -84 -115 -84q-44 0 -75 31.5t-30 78.5q-19 -46 -68 -78t-121 -32q-75 0 -124.5 37.5t-49.5 115.5q0 29 7.5 53.5t18.5 42.5t30.5 32t36.5 23t44.5 15.5t46 10t49 5.5t46 2.5t45 0.5h37.5v96q0 100 -100 100q-50 0 -94 -35t-96 -137h-9v144
q135 41 204 41q108 0 163 -37t55 -132v-243q0 -43 10 -59.5t32 -16.5q27 0 45 32zM153 159q0 -76 44.5 -109.5t103 -14.5t95.5 80v204q-109 3 -176 -34t-67 -126zM364 640q-13 1 -28 6t-24 9.5t-26.5 14.5l-24.5 14q-39 17 -63 5t-32 -42h-6q3 67 27 94.5t69 22.5
q25 -3 65.5 -27t51.5 -28q29 -10 48 1t25 37h7q-3 -110 -89 -107z" />
    <glyph glyph-name="adieresis" unicode="&#xe4;" horiz-adv-x="623" 
d="M606 84l12 -7q-37 -84 -115 -84q-44 0 -75 31.5t-30 78.5q-19 -46 -68 -78t-121 -32q-75 0 -124.5 37.5t-49.5 115.5q0 29 7.5 53.5t18.5 42.5t30.5 32t36.5 23t44.5 15.5t46 10t49 5.5t46 2.5t45 0.5h37.5v96q0 100 -100 100q-50 0 -94 -35t-96 -137h-9v144
q135 41 204 41q108 0 163 -37t55 -132v-243q0 -43 10 -59.5t32 -16.5q27 0 45 32zM153 159q0 -76 44.5 -109.5t103 -14.5t95.5 80v204q-109 3 -176 -34t-67 -126zM223 750q24 0 41 -17t17 -41t-17 -41t-41 -17t-41 17t-17 41t17 41t41 17zM390 750q23 0 40 -17t17 -41
t-17 -41t-40 -17q-24 0 -41 17t-17 41t17 41t41 17z" />
    <glyph glyph-name="aring" unicode="&#xe5;" horiz-adv-x="623" 
d="M606 84l12 -7q-37 -84 -115 -84q-44 0 -75 31.5t-30 78.5q-19 -46 -68 -78t-121 -32q-75 0 -124.5 37.5t-49.5 115.5q0 29 7.5 53.5t18.5 42.5t30.5 32t36.5 23t44.5 15.5t46 10t49 5.5t46 2.5t45 0.5h37.5v96q0 100 -100 100q-50 0 -94 -35t-96 -137h-9v144
q135 41 204 41q108 0 163 -37t55 -132v-243q0 -43 10 -59.5t32 -16.5q27 0 45 32zM153 159q0 -76 44.5 -109.5t103 -14.5t95.5 80v204q-109 3 -176 -34t-67 -126zM296 594q-40 0 -69 29t-29 69t29 69t69 29t69 -29t29 -69t-29 -69t-69 -29zM296 765q-30 0 -51.5 -21.5
t-21.5 -51.5t21.5 -51.5t51.5 -21.5t51.5 21.5t21.5 51.5t-21.5 51.5t-51.5 21.5z" />
    <glyph glyph-name="ae" unicode="&#xe6;" horiz-adv-x="976" 
d="M682 540q119 0 189.5 -69.5t63.5 -204.5h-401q6 -105 68 -160t151 -55q99 0 155 67l10 -8q-27 -46 -84 -81.5t-138 -35.5q-109 0 -193.5 59.5t-101.5 164.5q-5 -42 -18.5 -80.5t-36 -71.5t-58 -52.5t-79.5 -19.5q-75 0 -124.5 37.5t-49.5 115.5q0 29 7.5 53.5t18.5 42.5
t31 32t37 23t44 15.5t45.5 10t49.5 5.5t46.5 2.5t45 0.5h37.5v96q0 100 -101 100q-50 0 -94 -35t-95 -137h-10v144q135 41 204 41q141 0 188 -62q77 62 193 62zM158 159q0 -67 52 -94t105 7q76 47 82 176v11v60q-239 7 -239 -160zM533 288h273q6 109 -23.5 174t-100.5 65
q-63 0 -107 -68.5t-42 -170.5z" />
    <glyph glyph-name="ccedilla" unicode="&#xe7;" horiz-adv-x="596" 
d="M334 -7h-5l-9 -33q79 13 129 -19t36 -100q-13 -61 -86 -87.5t-167 6.5l2 10q60 -7 103.5 20t55.5 73q11 43 -14.5 67.5t-74.5 17.5l13 46q-117 6 -199.5 78t-82.5 194q0 131 89 202.5t213 71.5q81 0 205 -47v-170h-12q-33 112 -75.5 158t-99.5 46q-82 0 -136 -68.5
t-47 -192.5q6 -105 68.5 -160t151.5 -55q100 0 154 67l10 -8q-27 -46 -84 -81.5t-138 -35.5z" />
    <glyph glyph-name="egrave" unicode="&#xe8;" horiz-adv-x="615" 
d="M320 540q120 0 190.5 -69.5t63.5 -204.5h-401q6 -105 68 -160t151 -55q99 0 155 67l10 -8q-27 -46 -84 -81.5t-138 -35.5q-122 0 -211 73.5t-89 199.5q0 133 81.5 203.5t203.5 70.5zM445 288q4 70 -6.5 122t-40 84.5t-78.5 32.5q-62 0 -106.5 -68.5t-41.5 -170.5h273z
M309 728q21 -21 42.5 -53.5t32.5 -54.5l12 -22l-7 -7q-82 40 -129 87q-53 53 -28 78q24 25 77 -28z" />
    <glyph glyph-name="eacute" unicode="&#xe9;" horiz-adv-x="615" 
d="M320 540q120 0 190.5 -69.5t63.5 -204.5h-401q6 -105 68 -160t151 -55q99 0 155 67l10 -8q-27 -46 -84 -81.5t-138 -35.5q-122 0 -211 73.5t-89 199.5q0 133 81.5 203.5t203.5 70.5zM445 288q4 70 -6.5 122t-40 84.5t-78.5 32.5q-62 0 -106.5 -68.5t-41.5 -170.5h273z
M408 756q24 -25 -29 -78q-21 -21 -53 -42.5t-54 -33.5l-22 -11l-7 7q40 83 87 130q53 53 78 28z" />
    <glyph glyph-name="ecircumflex" unicode="&#xea;" horiz-adv-x="615" 
d="M320 540q120 0 190.5 -69.5t63.5 -204.5h-401q6 -105 68 -160t151 -55q99 0 155 67l10 -8q-27 -46 -84 -81.5t-138 -35.5q-122 0 -211 73.5t-89 199.5q0 133 81.5 203.5t203.5 70.5zM445 288q4 70 -6.5 122t-40 84.5t-78.5 32.5q-62 0 -106.5 -68.5t-41.5 -170.5h273z
M350 770l139 -147l-7 -7l-167 76l-167 -76l-7 7l140 147h69z" />
    <glyph glyph-name="edieresis" unicode="&#xeb;" horiz-adv-x="615" 
d="M320 540q120 0 190.5 -69.5t63.5 -204.5h-401q6 -105 68 -160t151 -55q99 0 155 67l10 -8q-27 -46 -84 -81.5t-138 -35.5q-122 0 -211 73.5t-89 199.5q0 133 81.5 203.5t203.5 70.5zM445 288q4 70 -6.5 122t-40 84.5t-78.5 32.5q-62 0 -106.5 -68.5t-41.5 -170.5h273z
M232 750q24 0 41 -17t17 -41t-17 -41t-41 -17t-41 17t-17 41t17 41t41 17zM399 750q23 0 40 -17t17 -41t-17 -41t-40 -17q-24 0 -41 17t-17 41t17 41t41 17z" />
    <glyph glyph-name="igrave" unicode="&#xec;" horiz-adv-x="315" 
d="M219 13h56v-13h-235v13h56v501h-56v13h179v-514zM112 728q21 -21 42.5 -53.5t33.5 -54.5l11 -22l-7 -7q-82 40 -129 87q-53 53 -28 78q24 25 77 -28z" />
    <glyph glyph-name="iacute" unicode="&#xed;" horiz-adv-x="315" 
d="M219 13h56v-13h-235v13h56v501h-56v13h179v-514zM281 756q24 -25 -29 -78q-21 -21 -53 -42.5t-54 -33.5l-22 -11l-7 7q40 83 87 130q53 53 78 28z" />
    <glyph glyph-name="icircumflex" unicode="&#xee;" horiz-adv-x="315" 
d="M219 13h56v-13h-235v13h56v501h-56v13h179v-514zM193 770l139 -147l-7 -7l-167 76l-167 -76l-7 7l140 147h69z" />
    <glyph glyph-name="idieresis" unicode="&#xef;" horiz-adv-x="315" 
d="M218 13h56v-13h-235v13h56v501h-56v13h179v-514zM74 750q24 0 41 -17t17 -41t-17 -41t-41 -17t-41 17t-17 41t17 41t41 17zM241 750q23 0 40 -17t17 -41t-17 -41t-40 -17q-24 0 -41 17t-17 41t17 41t41 17z" />
    <glyph glyph-name="eth" unicode="&#xf0;" horiz-adv-x="672" 
d="M428 672q89 -59 146.5 -151.5t56.5 -206.5q0 -147 -84 -234t-210 -87q-57 0 -109.5 16.5t-96 48.5t-70 86t-26.5 122t26.5 122.5t70 86.5t96 48.5t109.5 16.5t103 -26q-13 71 -71 134l-124 -51l-7 16l118 48q-50 49 -108 70l5 10q76 -9 157 -57l119 49l7 -16zM337 5
q77 0 121 74.5t44 186.5q0 113 -44 187t-121 74q-79 0 -122 -72.5t-43 -188.5t43 -188.5t122 -72.5z" />
    <glyph glyph-name="ntilde" unicode="&#xf1;" horiz-adv-x="720" 
d="M680 13v-13h-235v13h56v346q0 137 -142 120q-51 -7 -95.5 -49t-44.5 -81v-336h57v-13h-236v13h56v501h-56v13h179v-133q37 67 97.5 106.5t131.5 39.5q176 0 176 -190v-337h56zM427 640q-13 1 -28 6t-24 9.5t-26.5 14.5l-24.5 14q-39 17 -63.5 5t-31.5 -42h-6
q3 67 27 94.5t69 22.5q25 -3 65.5 -27t51.5 -28q29 -10 48 1t25 37h7q-3 -110 -89 -107z" />
    <glyph glyph-name="ograve" unicode="&#xf2;" horiz-adv-x="679" 
d="M337 539q57 0 109.5 -16.5t96 -48.5t70 -86t26.5 -122q0 -90 -46 -154t-112.5 -91.5t-143.5 -27.5t-143.5 27.5t-112.5 91.5t-46 154q0 68 26.5 122t70 86t96 48.5t109.5 16.5zM337 5q80 0 125 73t45 188t-45 188t-125 73t-125 -73t-45 -188t45 -188t125 -73zM321 728
q21 -21 42.5 -53.5t32.5 -54.5l12 -22l-7 -7q-82 40 -129 87q-53 53 -28 78q24 25 77 -28z" />
    <glyph glyph-name="oacute" unicode="&#xf3;" horiz-adv-x="679" 
d="M337 539q57 0 109.5 -16.5t96 -48.5t70 -86t26.5 -122q0 -90 -46 -154t-112.5 -91.5t-143.5 -27.5t-143.5 27.5t-112.5 91.5t-46 154q0 68 26.5 122t70 86t96 48.5t109.5 16.5zM337 5q80 0 125 73t45 188t-45 188t-125 73t-125 -73t-45 -188t45 -188t125 -73zM430 756
q24 -25 -29 -78q-21 -21 -53 -42.5t-54 -33.5l-22 -11l-7 7q40 83 87 130q53 53 78 28z" />
    <glyph glyph-name="ocircumflex" unicode="&#xf4;" horiz-adv-x="679" 
d="M337 539q57 0 109.5 -16.5t96 -48.5t70 -86t26.5 -122q0 -90 -46 -154t-112.5 -91.5t-143.5 -27.5t-143.5 27.5t-112.5 91.5t-46 154q0 68 26.5 122t70 86t96 48.5t109.5 16.5zM337 5q80 0 125 73t45 188t-45 188t-125 73t-125 -73t-45 -188t45 -188t125 -73zM372 770
l139 -147l-7 -7l-167 76l-167 -76l-7 7l140 147h69z" />
    <glyph glyph-name="otilde" unicode="&#xf5;" horiz-adv-x="679" 
d="M337 539q57 0 109.5 -16.5t96 -48.5t70 -86t26.5 -122q0 -90 -46 -154t-112.5 -91.5t-143.5 -27.5t-143.5 27.5t-112.5 91.5t-46 154q0 68 26.5 122t70 86t96 48.5t109.5 16.5zM337 5q80 0 125 73t45 188t-45 188t-125 73t-125 -73t-45 -188t45 -188t125 -73zM394 640
q-13 1 -28 6t-24 9.5t-26.5 14.5l-24.5 14q-39 17 -63 5t-32 -42h-6q3 67 27 94.5t69 22.5q25 -3 65.5 -27t51.5 -28q29 -10 48 1t25 37h7q-3 -110 -89 -107z" />
    <glyph glyph-name="odieresis" unicode="&#xf6;" horiz-adv-x="679" 
d="M337 539q57 0 109.5 -16.5t96 -48.5t70 -86t26.5 -122q0 -90 -46 -154t-112.5 -91.5t-143.5 -27.5t-143.5 27.5t-112.5 91.5t-46 154q0 68 26.5 122t70 86t96 48.5t109.5 16.5zM337 5q80 0 125 73t45 188t-45 188t-125 73t-125 -73t-45 -188t45 -188t125 -73zM254 750
q24 0 41 -17t17 -41t-17 -41t-41 -17t-41 17t-17 41t17 41t41 17zM421 750q23 0 40 -17t17 -41t-17 -41t-40 -17q-24 0 -41 17t-17 41t17 41t41 17z" />
    <glyph glyph-name="divide" unicode="&#xf7;" horiz-adv-x="444" 
d="M45 350h354v-41h-354v41zM222 219q28 0 48 -19.5t20 -48.5t-20 -48.5t-48 -19.5t-48 19.5t-20 48.5t20 48.5t48 19.5zM222 440q-28 0 -48 20t-20 48t20 48t48 20t48 -20t20 -48t-20 -48t-48 -20z" />
    <glyph glyph-name="oslash" unicode="&#xf8;" horiz-adv-x="678" 
d="M553 466q85 -75 85 -199q0 -68 -26 -122.5t-70 -86.5t-96 -48.5t-109 -16.5q-119 0 -201 63l-57 -56h-21l66 65q-89 76 -89 202q0 68 26.5 122t70 86t96 48.5t109.5 16.5q120 0 204 -65l53 52h21zM167 267q0 -79 21 -139l293 288q-46 111 -144 111q-80 0 -125 -73
t-45 -187zM337 5q79 0 124.5 73.5t45.5 188.5q0 74 -20 134l-293 -288q46 -108 143 -108z" />
    <glyph glyph-name="ugrave" unicode="&#xf9;" 
d="M624 13h57v-13h-179v139q-38 -68 -94.5 -107t-126.5 -39q-97 0 -140.5 52t-43.5 138v331h-57v13h180v-353q0 -63 37 -96t113 -24q51 7 91.5 48.5t40.5 81.5v330h-57v13h179v-514zM355 728q21 -21 42.5 -53.5t32.5 -54.5l12 -22l-7 -7q-82 40 -129 87q-53 53 -28 78
q24 25 77 -28z" />
    <glyph glyph-name="uacute" unicode="&#xfa;" 
d="M624 13h57v-13h-179v139q-38 -68 -94.5 -107t-126.5 -39q-97 0 -140.5 52t-43.5 138v331h-57v13h180v-353q0 -63 37 -96t113 -24q51 7 91.5 48.5t40.5 81.5v330h-57v13h179v-514zM424 756q24 -25 -29 -78q-21 -21 -53 -42.5t-54 -33.5l-22 -11l-7 7q40 83 87 130
q53 53 78 28z" />
    <glyph glyph-name="ucircumflex" unicode="&#xfb;" 
d="M624 13h57v-13h-179v139q-38 -68 -94.5 -107t-126.5 -39q-97 0 -140.5 52t-43.5 138v331h-57v13h180v-353q0 -63 37 -96t113 -24q51 7 91.5 48.5t40.5 81.5v330h-57v13h179v-514zM385 770l139 -147l-7 -7l-167 76l-167 -76l-7 7l140 147h69z" />
    <glyph glyph-name="udieresis" unicode="&#xfc;" 
d="M624 13h57v-13h-179v139q-38 -68 -94.5 -107t-126.5 -39q-97 0 -140.5 52t-43.5 138v331h-57v13h180v-353q0 -63 37 -96t113 -24q51 7 91.5 48.5t40.5 81.5v330h-57v13h179v-514zM267 750q24 0 41 -17t17 -41t-17 -41t-41 -17t-41 17t-17 41t17 41t41 17zM434 750
q23 0 40 -17t17 -41t-17 -41t-40 -17q-24 0 -41 17t-17 41t17 41t41 17z" />
    <glyph glyph-name="yacute" unicode="&#xfd;" horiz-adv-x="680" 
d="M453 527h202v-13q-38 -11 -61 -43.5t-61 -116.5l-153 -348l-136 -272l-103 99v13l204 110l-272 558h-63v13h267v-13h-67l195 -422q110 251 111 252q34 80 17 123.5t-80 46.5v13zM486 756q24 -25 -29 -78q-21 -21 -53 -42.5t-54 -33.5l-22 -11l-7 7q40 83 87 130
q53 53 78 28z" />
    <glyph glyph-name="thorn" unicode="&#xfe;" horiz-adv-x="695" 
d="M411 540q97 0 170.5 -72t73.5 -202t-73.5 -201.5t-170.5 -71.5q-68 0 -119 37t-73 82v-267h80v-12h-259v12h57v842h-57v13h179v-280q22 45 73.5 82.5t118.5 37.5zM332 50q96 -17 146 45t50 171t-50 171t-146 45q-70 -14 -113 -82v-268q43 -68 113 -82z" />
    <glyph glyph-name="ydieresis" unicode="&#xff;" horiz-adv-x="680" 
d="M453 527h202v-13q-38 -11 -61 -43.5t-61 -116.5l-153 -348l-136 -272l-103 99v13l204 110l-272 558h-63v13h267v-13h-67l195 -422q110 251 111 252q34 80 17 123.5t-80 46.5v13zM289 750q24 0 41 -17t17 -41t-17 -41t-41 -17t-41 17t-17 41t17 41t41 17zM456 750
q23 0 40 -17t17 -41t-17 -41t-40 -17q-24 0 -41 17t-17 41t17 41t41 17z" />
    <glyph glyph-name="Amacron" unicode="&#x100;" horiz-adv-x="780" 
d="M707 13h63v-13h-264v13h58l-94 205h-301l-26 -65q-20 -53 -1.5 -92.5t62.5 -47.5v-13h-194v13q31 9 64.5 47t55.5 95l219 545h38zM174 231h290l-155 336zM209 842h321v-40h-321v40z" />
    <glyph glyph-name="amacron" unicode="&#x101;" horiz-adv-x="623" 
d="M606 84l12 -7q-37 -84 -115 -84q-44 0 -75 31.5t-30 78.5q-19 -46 -68 -78t-121 -32q-75 0 -124.5 37.5t-49.5 115.5q0 29 7.5 53.5t18.5 42.5t30.5 32t36.5 23t44.5 15.5t46 10t49 5.5t46 2.5t45 0.5h37.5v96q0 100 -100 100q-50 0 -94 -35t-96 -137h-9v144
q135 41 204 41q108 0 163 -37t55 -132v-243q0 -43 10 -59.5t32 -16.5q27 0 45 32zM153 159q0 -76 44.5 -109.5t103 -14.5t95.5 80v204q-109 3 -176 -34t-67 -126zM146 692h321v-40h-321v40z" />
    <glyph glyph-name="Abreve" unicode="&#x102;" horiz-adv-x="780" 
d="M707 13h63v-13h-264v13h58l-94 205h-301l-26 -65q-20 -53 -1.5 -92.5t62.5 -47.5v-13h-194v13q31 9 64.5 47t55.5 95l219 545h38zM174 231h290l-155 336zM500 920h9q0 -74 -36.5 -114.5t-102.5 -40.5t-102.5 40.5t-36.5 114.5h9q10 -38 46 -62.5t84 -24.5t84 24.5
t46 62.5z" />
    <glyph glyph-name="abreve" unicode="&#x103;" horiz-adv-x="623" 
d="M606 84l12 -7q-37 -84 -115 -84q-44 0 -75 31.5t-30 78.5q-19 -46 -68 -78t-121 -32q-75 0 -124.5 37.5t-49.5 115.5q0 29 7.5 53.5t18.5 42.5t30.5 32t36.5 23t44.5 15.5t46 10t49 5.5t46 2.5t45 0.5h37.5v96q0 100 -100 100q-50 0 -94 -35t-96 -137h-9v144
q135 41 204 41q108 0 163 -37t55 -132v-243q0 -43 10 -59.5t32 -16.5q27 0 45 32zM153 159q0 -76 44.5 -109.5t103 -14.5t95.5 80v204q-109 3 -176 -34t-67 -126zM436 770h9q0 -74 -36.5 -114.5t-102.5 -40.5t-102.5 40.5t-36.5 114.5h9q10 -38 46 -62.5t84 -24.5t84 24.5
t46 62.5z" />
    <glyph glyph-name="Aogonek" unicode="&#x104;" horiz-adv-x="780" 
d="M770 0h-132q-56 -112 -19 -159q21 -28 64.5 -29t81.5 21l5 -5q-28 -44 -75.5 -64.5t-90 -13t-60.5 36.5q-27 44 3 109t78 104h-120v13h58l-94 205h-301l-26 -65q-20 -54 -1.5 -92.5t63.5 -47.5v-13h-194v13q31 9 64 47.5t56 94.5l218 545h39l319 -687h64v-13zM173 231
h290l-155 336z" />
    <glyph glyph-name="aogonek" unicode="&#x105;" horiz-adv-x="623" 
d="M466 -159q22 -28 65.5 -29t81.5 21l5 -5q-28 -44 -75.5 -64.5t-90 -13t-60.5 36.5q-27 44 2 107.5t76 103.5q-32 11 -52.5 39.5t-19.5 65.5q-19 -46 -68 -78t-121 -32q-75 0 -124.5 37.5t-49.5 115.5q0 29 7.5 53.5t18.5 42t30.5 32t37 23.5t44 15.5t46 9.5t48.5 5
t46.5 2.5t45 1t37.5 0.5v96q0 100 -100 100q-50 0 -94 -35t-96 -137h-9v144q135 41 204 41q108 0 163 -37t55 -132v-243q0 -43 10 -59.5t32 -16.5q26 0 44 32l13 -7q-37 -84 -115 -84q-6 0 -20 2q-51 -110 -17 -154zM396 115v204q-109 3 -176 -34t-67 -126
q0 -76 44.5 -109.5t103 -14.5t95.5 80z" />
    <glyph glyph-name="Cacute" unicode="&#x106;" horiz-adv-x="754" 
d="M697 154l12 -9q-94 -152 -289 -152q-99 0 -184 39.5t-140.5 122t-55.5 193.5q0 87 33.5 156.5t89 112t122.5 64.5t139 22q106 0 266 -60v-221h-13q-43 145 -99.5 205t-130.5 60q-53 0 -101.5 -21.5t-87 -62.5t-59.5 -107.5t-16 -147.5q8 -137 95.5 -213t208.5 -76
q58 0 103.5 17t66 35t40.5 43zM498 906q24 -25 -29 -78q-21 -21 -53 -42.5t-54 -33.5l-22 -11l-7 7q40 83 87 130q53 53 78 28z" />
    <glyph glyph-name="cacute" unicode="&#x107;" horiz-adv-x="597" 
d="M547 118l10 -8q-27 -46 -84 -81.5t-138 -35.5q-122 0 -211 73.5t-89 199.5q0 131 89.5 202.5t213.5 71.5q81 0 204 -47v-170h-12q-33 112 -75.5 158t-99.5 46q-81 0 -135 -68.5t-47 -192.5q6 -105 68 -160t151 -55q99 0 155 67zM409 756q24 -25 -29 -78
q-21 -21 -53 -42.5t-54 -33.5l-22 -11l-7 7q40 83 87 130q53 53 78 28z" />
    <glyph glyph-name="Ccircumflex" unicode="&#x108;" horiz-adv-x="754" 
d="M697 154l12 -9q-94 -152 -289 -152q-99 0 -184 39.5t-140.5 122t-55.5 193.5q0 87 33.5 156.5t89 112t122.5 64.5t139 22q106 0 266 -60v-221h-13q-43 145 -99.5 205t-130.5 60q-53 0 -101.5 -21.5t-87 -62.5t-59.5 -107.5t-16 -147.5q8 -137 95.5 -213t208.5 -76
q58 0 103.5 17t66 35t40.5 43zM449 920l139 -147l-7 -7l-167 76l-167 -76l-7 7l140 147h69z" />
    <glyph glyph-name="ccircumflex" unicode="&#x109;" horiz-adv-x="597" 
d="M547 118l10 -8q-27 -46 -84 -81.5t-138 -35.5q-122 0 -211 73.5t-89 199.5q0 131 89.5 202.5t213.5 71.5q81 0 204 -47v-170h-12q-33 112 -75.5 158t-99.5 46q-81 0 -135 -68.5t-47 -192.5q6 -105 68 -160t151 -55q99 0 155 67zM361 770l139 -147l-7 -7l-167 76l-167 -76
l-7 7l140 147h69z" />
    <glyph glyph-name="Cdotaccent" unicode="&#x10a;" horiz-adv-x="754" 
d="M697 154l12 -9q-94 -152 -289 -152q-99 0 -184 39.5t-140.5 122t-55.5 193.5q0 87 33.5 156.5t89 112t122.5 64.5t139 22q106 0 266 -60v-221h-13q-43 145 -99.5 205t-130.5 60q-53 0 -101.5 -21.5t-87 -62.5t-59.5 -107.5t-16 -147.5q8 -137 95.5 -213t208.5 -76
q58 0 103.5 17t66 35t40.5 43zM424 900q24 0 41 -17t17 -41t-17 -41t-41 -17t-41 17t-17 41t17 41t41 17z" />
    <glyph glyph-name="cdotaccent" unicode="&#x10b;" horiz-adv-x="597" 
d="M547 118l10 -8q-27 -46 -84 -81.5t-138 -35.5q-122 0 -211 73.5t-89 199.5q0 131 89.5 202.5t213.5 71.5q81 0 204 -47v-170h-12q-33 112 -75.5 158t-99.5 46q-81 0 -135 -68.5t-47 -192.5q6 -105 68 -160t151 -55q99 0 155 67zM346 750q24 0 41 -17t17 -41t-17 -41
t-41 -17t-41 17t-17 41t17 41t41 17z" />
    <glyph glyph-name="Ccaron" unicode="&#x10c;" horiz-adv-x="754" 
d="M697 154l12 -9q-94 -152 -289 -152q-99 0 -184 39.5t-140.5 122t-55.5 193.5q0 87 33.5 156.5t89 112t122.5 64.5t139 22q106 0 266 -60v-221h-13q-43 145 -99.5 205t-130.5 60q-53 0 -101.5 -21.5t-87 -62.5t-59.5 -107.5t-16 -147.5q8 -137 95.5 -213t208.5 -76
q58 0 103.5 17t66 35t40.5 43zM582 920l6 -7l-139 -147h-69l-139 147l6 7l167 -77z" />
    <glyph glyph-name="ccaron" unicode="&#x10d;" horiz-adv-x="597" 
d="M547 118l10 -8q-27 -46 -84 -81.5t-138 -35.5q-122 0 -211 73.5t-89 199.5q0 131 89.5 202.5t213.5 71.5q81 0 204 -47v-170h-12q-33 112 -75.5 158t-99.5 46q-81 0 -135 -68.5t-47 -192.5q6 -105 68 -160t151 -55q99 0 155 67zM503 770l6 -7l-139 -147h-69l-139 147l6 7
l167 -77z" />
    <glyph glyph-name="Dcaron" unicode="&#x10e;" horiz-adv-x="816" 
d="M776 350q0 -182 -110 -266t-323 -84h-298v13h65v674h-65v13h298q213 0 323 -84t110 -266zM371 22q127 0 194 84.5t67 243.5t-67 244t-194 85h-130v-657h130zM548 920l6 -7l-139 -147h-69l-139 147l6 7l167 -77z" />
    <glyph glyph-name="dcaron" unicode="&#x10f;" horiz-adv-x="846" 
d="M593 13h56v-13h-179v112q-21 -44 -72.5 -81.5t-118.5 -37.5q-97 0 -170.5 72t-73.5 201q0 130 73.5 202t170.5 72q67 0 118.5 -37.5t72.5 -81.5v266h-56v13h179v-687zM470 133v267q-41 70 -112 82q-96 17 -146 -44.5t-50 -171.5q0 -109 50 -170.5t146 -44.5q72 13 112 82
zM758 704q28 0 48 -20.5t20 -48.5q0 -45 -34 -89.5t-67 -65.5l-5 8q20 14 39.5 41t25.5 44q-12 -6 -27 -6q-28 0 -48.5 20t-20.5 48q0 29 20.5 49t48.5 20z" />
    <glyph glyph-name="Dcroat" unicode="&#x110;" horiz-adv-x="816" 
d="M776 350q0 -182 -110.5 -266t-323.5 -84h-297v13h64v326h-64v22h64v326h-64v13h297q214 0 324 -84t110 -266zM371 22q127 0 193.5 84.5t66.5 243.5t-67 244t-193 85h-131v-318h195v-22h-195v-317h131z" />
    <glyph glyph-name="dcroat" unicode="&#x111;" horiz-adv-x="690" 
d="M650 600h-57v-587h57v-13h-180v112q-21 -44 -72.5 -81.5t-118.5 -37.5q-97 0 -170.5 72t-73.5 201q0 130 73.5 202t170.5 72q67 0 118.5 -37.5t72.5 -81.5v179h-181v21h181v66h-56v13h179v-79h57v-21zM470 133v267q-41 70 -112 82q-96 17 -146 -45t-50 -171t50 -170.5
t146 -44.5q72 13 112 82z" />
    <glyph glyph-name="Emacron" unicode="&#x112;" horiz-adv-x="655" 
d="M603 251h12v-251h-570v13h65v674h-65v13h554v-251h-12q-7 56 -19 93.5t-35.5 71t-63.5 49.5t-98 16h-130v-322h118q69 0 97 21.5t36 82.5h10v-220h-10q-8 60 -36 81.5t-97 21.5h-118v-322h146q59 0 99 16t63.5 49t35 71t18.5 93zM189 842h321v-40h-321v40z" />
    <glyph glyph-name="emacron" unicode="&#x113;" horiz-adv-x="615" 
d="M320 540q120 0 190.5 -69.5t63.5 -204.5h-401q6 -105 68 -160t151 -55q99 0 155 67l10 -8q-27 -46 -84 -81.5t-138 -35.5q-122 0 -211 73.5t-89 199.5q0 133 81.5 203.5t203.5 70.5zM445 288q4 70 -6.5 122t-40 84.5t-78.5 32.5q-62 0 -106.5 -68.5t-41.5 -170.5h273z
M154 692h321v-40h-321v40z" />
    <glyph glyph-name="Ebreve" unicode="&#x114;" horiz-adv-x="655" 
d="M603 251h12v-251h-570v13h65v674h-65v13h554v-251h-12q-7 56 -19 93.5t-35.5 71t-63.5 49.5t-98 16h-130v-322h118q69 0 97 21.5t36 82.5h10v-220h-10q-8 60 -36 81.5t-97 21.5h-118v-322h146q59 0 99 16t63.5 49t35 71t18.5 93zM480 920h9q0 -74 -36.5 -114.5
t-102.5 -40.5t-102.5 40.5t-36.5 114.5h9q10 -38 46 -62.5t84 -24.5t84 24.5t46 62.5z" />
    <glyph glyph-name="ebreve" unicode="&#x115;" horiz-adv-x="615" 
d="M320 540q120 0 190.5 -69.5t63.5 -204.5h-401q6 -105 68 -160t151 -55q99 0 155 67l10 -8q-27 -46 -84 -81.5t-138 -35.5q-122 0 -211 73.5t-89 199.5q0 133 81.5 203.5t203.5 70.5zM445 288q4 70 -6.5 122t-40 84.5t-78.5 32.5q-62 0 -106.5 -68.5t-41.5 -170.5h273z
M445 770h9q0 -74 -36.5 -114.5t-102.5 -40.5t-102.5 40.5t-36.5 114.5h9q10 -38 46 -62.5t84 -24.5t84 24.5t46 62.5z" />
    <glyph glyph-name="Edotaccent" unicode="&#x116;" horiz-adv-x="655" 
d="M603 251h12v-251h-570v13h65v674h-65v13h554v-251h-12q-7 56 -19 93.5t-35.5 71t-63.5 49.5t-98 16h-130v-322h118q69 0 97 21.5t36 82.5h10v-220h-10q-8 60 -36 81.5t-97 21.5h-118v-322h146q59 0 99 16t63.5 49t35 71t18.5 93zM360 900q24 0 41 -17t17 -41t-17 -41
t-41 -17t-41 17t-17 41t17 41t41 17z" />
    <glyph glyph-name="edotaccent" unicode="&#x117;" horiz-adv-x="615" 
d="M320 540q120 0 190.5 -69.5t63.5 -204.5h-401q6 -105 68 -160t151 -55q99 0 155 67l10 -8q-27 -46 -84 -81.5t-138 -35.5q-122 0 -211 73.5t-89 199.5q0 133 81.5 203.5t203.5 70.5zM445 288q4 70 -6.5 122t-40 84.5t-78.5 32.5q-62 0 -106.5 -68.5t-41.5 -170.5h273z
M315 750q24 0 41 -17t17 -41t-17 -41t-41 -17t-41 17t-17 41t17 41t41 17z" />
    <glyph glyph-name="Eogonek" unicode="&#x118;" horiz-adv-x="656" 
d="M616 0h-132q-56 -112 -19 -159q21 -28 64.5 -29t81.5 21l5 -5q-28 -44 -75.5 -64.5t-90 -13t-60.5 36.5q-27 44 3 109t78 104h-426v13h65v674h-65v13h554v-251h-12q-7 56 -18.5 93.5t-35 71t-64 49.5t-98.5 16h-130v-322h118q70 0 97.5 21.5t35.5 82.5h10v-220h-10
q-8 60 -35.5 81.5t-97.5 21.5h-118v-322h146q59 0 99 16t63.5 49t35.5 70.5t19 93.5h12v-251z" />
    <glyph glyph-name="eogonek" unicode="&#x119;" horiz-adv-x="614" 
d="M320 540q119 0 189.5 -69.5t63.5 -204.5h-401q6 -105 68.5 -160t151.5 -55q98 0 154 67l10 -8q-45 -75 -134 -103q-60 -118 -23 -166q22 -28 65.5 -29t80.5 21l5 -5q-28 -44 -75.5 -64.5t-89.5 -13t-60 36.5q-28 45 4 111t80 105q-38 -10 -75 -10q-122 0 -210.5 73.5
t-88.5 199.5q0 133 81.5 203.5t203.5 70.5zM444 288q12 239 -124 239q-63 0 -107 -68.5t-42 -170.5h273z" />
    <glyph glyph-name="Ecaron" unicode="&#x11a;" horiz-adv-x="655" 
d="M603 251h12v-251h-570v13h65v674h-65v13h554v-251h-12q-7 56 -19 93.5t-35.5 71t-63.5 49.5t-98 16h-130v-322h118q69 0 97 21.5t36 82.5h10v-220h-10q-8 60 -36 81.5t-97 21.5h-118v-322h146q59 0 99 16t63.5 49t35 71t18.5 93zM517 920l6 -7l-139 -147h-69l-139 147
l6 7l167 -77z" />
    <glyph glyph-name="ecaron" unicode="&#x11b;" horiz-adv-x="615" 
d="M320 540q120 0 190.5 -69.5t63.5 -204.5h-401q6 -105 68 -160t151 -55q99 0 155 67l10 -8q-27 -46 -84 -81.5t-138 -35.5q-122 0 -211 73.5t-89 199.5q0 133 81.5 203.5t203.5 70.5zM445 288q4 70 -6.5 122t-40 84.5t-78.5 32.5q-62 0 -106.5 -68.5t-41.5 -170.5h273z
M482 770l6 -7l-139 -147h-69l-139 147l6 7l167 -77z" />
    <glyph glyph-name="Gcircumflex" unicode="&#x11c;" horiz-adv-x="779" 
d="M764 299h-57v-299h-13v70q-47 -32 -108.5 -54.5t-120.5 -22.5q-82 0 -156.5 22t-135.5 64t-97 111.5t-36 157.5t33 157t90.5 111.5t131 64.5t159.5 22q104 0 231 -48v-195h-12q-34 124 -82.5 176t-136.5 52q-106 0 -184.5 -89.5t-78.5 -250.5q0 -82 23.5 -145.5
t63.5 -101.5t87 -58.5t100 -24.5q72 -6 121 20v261h-65v14h243v-14zM477 920l139 -147l-7 -7l-167 76l-167 -76l-7 7l140 147h69z" />
    <glyph glyph-name="gcircumflex" unicode="&#x11d;" horiz-adv-x="644" 
d="M604 626v-110h-157q101 -42 101 -142q0 -80 -65 -123t-171 -43q-93 0 -153 33q-12 -21 -14 -42q-5 -45 44.5 -64.5t177.5 -19.5q119 0 172 -29.5t53 -93.5q0 -79 -75.5 -133t-204.5 -54q-128 0 -202.5 27t-74.5 77q0 71 133 119q-112 26 -97 110q12 61 81 107
q-73 44 -73 129q0 80 63.5 123t169.5 43q67 0 118 -18l165 104h9zM497 -85q8 52 -34 76t-151 24q-67 0 -110 7q-37 -20 -61.5 -49t-24.5 -59q0 -45 56.5 -67.5t139.5 -22.5q171 0 185 91zM312 223q58 0 87 41t29 110t-29 110t-87 41q-57 0 -86.5 -41.5t-29.5 -109.5
t29.5 -109.5t86.5 -41.5zM354 770l139 -147l-7 -7l-167 76l-167 -76l-7 7l140 147h69z" />
    <glyph glyph-name="Gbreve" unicode="&#x11e;" horiz-adv-x="779" 
d="M764 299h-57v-299h-13v70q-47 -32 -108.5 -54.5t-120.5 -22.5q-82 0 -156.5 22t-135.5 64t-97 111.5t-36 157.5t33 157t90.5 111.5t131 64.5t159.5 22q104 0 231 -48v-195h-12q-34 124 -82.5 176t-136.5 52q-106 0 -184.5 -89.5t-78.5 -250.5q0 -82 23.5 -145.5
t63.5 -101.5t87 -58.5t100 -24.5q72 -6 121 20v261h-65v14h243v-14zM572 920h9q0 -74 -36.5 -114.5t-102.5 -40.5t-102.5 40.5t-36.5 114.5h9q10 -38 46 -62.5t84 -24.5t84 24.5t46 62.5z" />
    <glyph glyph-name="gbreve" unicode="&#x11f;" horiz-adv-x="644" 
d="M604 626v-110h-157q101 -42 101 -142q0 -80 -65 -123t-171 -43q-93 0 -153 33q-12 -21 -14 -42q-5 -45 44.5 -64.5t177.5 -19.5q119 0 172 -29.5t53 -93.5q0 -79 -75.5 -133t-204.5 -54q-128 0 -202.5 27t-74.5 77q0 71 133 119q-112 26 -97 110q12 61 81 107
q-73 44 -73 129q0 80 63.5 123t169.5 43q67 0 118 -18l165 104h9zM497 -85q8 52 -34 76t-151 24q-67 0 -110 7q-37 -20 -61.5 -49t-24.5 -59q0 -45 56.5 -67.5t139.5 -22.5q171 0 185 91zM312 223q58 0 87 41t29 110t-29 110t-87 41q-57 0 -86.5 -41.5t-29.5 -109.5
t29.5 -109.5t86.5 -41.5zM449 770h9q0 -74 -36.5 -114.5t-102.5 -40.5t-102.5 40.5t-36.5 114.5h9q10 -38 46 -62.5t84 -24.5t84 24.5t46 62.5z" />
    <glyph glyph-name="Gdotaccent" unicode="&#x120;" horiz-adv-x="779" 
d="M764 299h-57v-299h-13v70q-47 -32 -108.5 -54.5t-120.5 -22.5q-82 0 -156.5 22t-135.5 64t-97 111.5t-36 157.5t33 157t90.5 111.5t131 64.5t159.5 22q104 0 231 -48v-195h-12q-34 124 -82.5 176t-136.5 52q-106 0 -184.5 -89.5t-78.5 -250.5q0 -82 23.5 -145.5
t63.5 -101.5t87 -58.5t100 -24.5q72 -6 121 20v261h-65v14h243v-14zM452 900q24 0 41 -17t17 -41t-17 -41t-41 -17t-41 17t-17 41t17 41t41 17z" />
    <glyph glyph-name="gdotaccent" unicode="&#x121;" horiz-adv-x="644" 
d="M604 626v-110h-157q101 -42 101 -142q0 -80 -65 -123t-171 -43q-93 0 -153 33q-12 -21 -14 -42q-5 -45 44.5 -64.5t177.5 -19.5q119 0 172 -29.5t53 -93.5q0 -79 -75.5 -133t-204.5 -54q-128 0 -202.5 27t-74.5 77q0 71 133 119q-112 26 -97 110q12 61 81 107
q-73 44 -73 129q0 80 63.5 123t169.5 43q67 0 118 -18l165 104h9zM497 -85q8 52 -34 76t-151 24q-67 0 -110 7q-37 -20 -61.5 -49t-24.5 -59q0 -45 56.5 -67.5t139.5 -22.5q171 0 185 91zM312 223q58 0 87 41t29 110t-29 110t-87 41q-57 0 -86.5 -41.5t-29.5 -109.5
t29.5 -109.5t86.5 -41.5zM319 750q24 0 41 -17t17 -41t-17 -41t-41 -17t-41 17t-17 41t17 41t41 17z" />
    <glyph glyph-name="Gcommaaccent" unicode="&#x122;" horiz-adv-x="779" 
d="M764 299h-57v-299h-13v70q-47 -32 -108.5 -54.5t-120.5 -22.5q-82 0 -156.5 22t-135.5 64t-97 111.5t-36 157.5t33 157t90.5 111.5t131 64.5t159.5 22q104 0 231 -48v-195h-12q-34 124 -82.5 176t-136.5 52q-106 0 -184.5 -89.5t-78.5 -250.5q0 -82 23.5 -145.5
t63.5 -101.5t87 -58.5t100 -24.5q72 -6 121 20v261h-65v14h243v-14zM452 -80q28 0 48 -20.5t20 -48.5q0 -45 -34 -89.5t-67 -65.5l-4 8q20 14 38.5 41t25.5 44q-12 -6 -27 -6q-28 0 -48 20t-20 48q0 29 20 49t48 20z" />
    <glyph glyph-name="gcommaaccent" unicode="&#x123;" horiz-adv-x="644" 
d="M604 626v-110h-157q101 -42 101 -142q0 -80 -65 -123t-171 -43q-93 0 -153 33q-12 -21 -14 -42q-5 -45 44.5 -64.5t177.5 -19.5q119 0 172 -29.5t53 -93.5q0 -79 -75.5 -133t-204.5 -54q-128 0 -202.5 27t-74.5 77q0 71 133 119q-112 26 -97 110q12 61 81 107
q-73 44 -73 129q0 80 63.5 123t169.5 43q67 0 118 -18l165 104h9zM497 -85q8 52 -34 76t-151 24q-67 0 -110 7q-37 -20 -61.5 -49t-24.5 -59q0 -45 56.5 -67.5t139.5 -22.5q171 0 185 91zM312 223q58 0 87 41t29 110t-29 110t-87 41q-57 0 -86.5 -41.5t-29.5 -109.5
t29.5 -109.5t86.5 -41.5zM319 752q29 0 48.5 -20t19.5 -48t-20 -48t-48 -20t-48 20t-20 48q0 45 34 90t67 65l4 -7q-20 -15 -39 -41.5t-26 -44.5q14 6 28 6z" />
    <glyph glyph-name="Hcircumflex" unicode="&#x124;" horiz-adv-x="818" 
d="M773 687h-65v-674h65v-13h-261v13h65v323h-336v-323h64v-13h-260v13h65v674h-65v13h260v-13h-64v-330h336v330h-65v13h261v-13zM444 920l139 -147l-7 -7l-167 76l-167 -76l-7 7l140 147h69z" />
    <glyph glyph-name="hcircumflex" unicode="&#x125;" 
d="M681 13v-13h-236v13h56v346q0 137 -142 120q-51 -7 -95.5 -49t-44.5 -81v-336h57v-13h-236v13h57v674h-57v13h179v-306q37 67 97.5 106.5t131.5 39.5q176 0 176 -190v-337h57zM268 904l139 -147l-7 -7l-167 76l-167 -76l-7 7l140 147h69z" />
    <glyph glyph-name="Hbar" unicode="&#x126;" horiz-adv-x="818" 
d="M773 687h-65v-162h65v-22h-65v-490h65v-13h-261v13h65v323h-336v-323h64v-13h-260v13h65v490h-65v22h65v162h-65v13h260v-13h-64v-162h336v162h-65v13h261v-13zM577 357v146h-336v-146h336z" />
    <glyph glyph-name="hbar" unicode="&#x127;" 
d="M624 13h57v-13h-236v13h56v346q0 137 -142 120q-51 -7 -95.5 -49t-44.5 -81v-336h57v-13h-236v13h57v587h-57v22h57v65h-57v13h179v-78h175v-22h-175v-206q37 67 97.5 106.5t131.5 39.5q176 0 176 -190v-337z" />
    <glyph glyph-name="Itilde" unicode="&#x128;" horiz-adv-x="351" 
d="M306 687h-65v-674h65v-13h-261v13h65v674h-65v13h261v-13zM233 790q-13 1 -28 6t-24 9.5t-26.5 14.5l-24.5 14q-39 17 -63.5 5t-31.5 -42h-6q3 67 27 94.5t69 22.5q25 -3 65.5 -27t51.5 -28q29 -10 48 1t25 37h7q-3 -110 -89 -107z" />
    <glyph glyph-name="itilde" unicode="&#x129;" horiz-adv-x="315" 
d="M219 13h56v-13h-235v13h56v501h-56v13h179v-514zM215 640q-13 1 -28 6t-24 9.5t-26.5 14.5l-24.5 14q-39 17 -63.5 5t-31.5 -42h-6q3 67 27 94.5t69 22.5q25 -3 65.5 -27t51.5 -28q29 -10 48 1t25 37h7q-3 -110 -89 -107z" />
    <glyph glyph-name="Imacron" unicode="&#x12a;" horiz-adv-x="351" 
d="M306 687h-65v-674h65v-13h-261v13h65v674h-65v13h261v-13zM15 842h321v-40h-321v40z" />
    <glyph glyph-name="imacron" unicode="&#x12b;" horiz-adv-x="315" 
d="M218 13h56v-13h-235v13h56v501h-56v13h179v-514zM-14 692h321v-40h-321v40z" />
    <glyph glyph-name="Ibreve" unicode="&#x12c;" horiz-adv-x="351" 
d="M305 687h-65v-674h65v-13h-261v13h65v674h-65v13h261v-13zM305 920h9q0 -74 -36.5 -114.5t-102.5 -40.5t-102.5 40.5t-36.5 114.5h9q10 -38 46 -62.5t84 -24.5t84 24.5t46 62.5z" />
    <glyph glyph-name="ibreve" unicode="&#x12d;" horiz-adv-x="315" 
d="M218 13h56v-13h-235v13h56v501h-56v13h179v-514zM287 770h9q0 -74 -36.5 -114.5t-102.5 -40.5t-102.5 40.5t-36.5 114.5h9q10 -38 46 -62.5t84 -24.5t84 24.5t46 62.5z" />
    <glyph glyph-name="Iogonek" unicode="&#x12e;" horiz-adv-x="351" 
d="M305 687h-65v-674h65v-13h-143q-56 -112 -19 -159q21 -28 64.5 -29t81.5 21l5 -5q-28 -44 -75.5 -64.5t-90 -13t-60.5 36.5q-27 44 3 109t78 104h-104v13h64v674h-64v13h260v-13z" />
    <glyph glyph-name="iogonek" unicode="&#x12f;" horiz-adv-x="315" 
d="M158 575q-28 0 -48 19.5t-20 47.5t20 48t48 20t47.5 -20t19.5 -48t-19.5 -47.5t-47.5 -19.5zM272 -167l5 -5q-28 -44 -75.5 -64.5t-90 -13t-60.5 36.5q-27 44 3 109t78 104h-92v13h56v501h-56v13h179v-514h56v-13h-130q-56 -112 -20 -159q22 -28 65.5 -29t81.5 21z" />
    <glyph glyph-name="Idotaccent" unicode="&#x130;" horiz-adv-x="351" 
d="M306 687h-65v-674h65v-13h-261v13h65v674h-65v13h261v-13zM175 900q24 0 41 -17t17 -41t-17 -41t-41 -17t-41 17t-17 41t17 41t41 17z" />
    <glyph glyph-name="dotlessi" unicode="&#x131;" horiz-adv-x="315" 
d="M219 13h56v-13h-235v13h56v501h-56v13h179v-514z" />
    <glyph glyph-name="IJ" unicode="&#x132;" horiz-adv-x="908" 
d="M301 687h-65v-674h65v-13h-261v13h65v674h-65v13h261v-13zM873 700v-13h-64v-401q0 -158 -55 -225.5t-196 -67.5q-70 0 -197 48v210h11q49 -133 88.5 -188t97.5 -55q63 0 91.5 46t28.5 149v484h-98v13h293z" />
    <glyph glyph-name="ij" unicode="&#x133;" horiz-adv-x="632" 
d="M219 13h56v-13h-235v13h56v501h-56v13h179v-514zM158 575q-28 0 -48 19.5t-20 48.5q0 28 20 47.5t48 19.5t47.5 -19.5t19.5 -47.5t-19.5 -48t-47.5 -20zM340 527h201v-346q0 -79 -4 -130t-17.5 -99t-38 -74.5t-65.5 -42t-101 -15.5v15q103 0 103 206v473h-78v13zM479 575
q-28 0 -47.5 20t-19.5 48t19.5 47.5t47.5 19.5t48 -19.5t20 -47.5q0 -29 -19.5 -48.5t-48.5 -19.5z" />
    <glyph glyph-name="Jcircumflex" unicode="&#x134;" horiz-adv-x="587" 
d="M552 700v-13h-64v-401q0 -158 -55 -225.5t-196 -67.5q-70 0 -197 48v210h11q49 -133 88.5 -188t97.5 -55q63 0 91.5 46t28.5 149v484h-98v13h293zM391 920l139 -147l-7 -7l-167 76l-167 -76l-7 7l140 147h69z" />
    <glyph glyph-name="jcircumflex" unicode="&#x135;" horiz-adv-x="327" 
d="M36 527h201v-346q0 -79 -4 -130t-17.5 -99t-38 -74.5t-65.5 -42t-101 -15.5v15q103 0 103 206v473h-78v13zM182 770l139 -147l-7 -7l-167 76l-167 -76l-7 7l140 147h69z" />
    <glyph glyph-name="Kcommaaccent" unicode="&#x136;" horiz-adv-x="807" 
d="M724 13h73v-13h-285v13h56l-228 344l-100 -100v-244h65v-13h-260v13h64v674h-64v13h260v-13h-65v-408l255 252q32 32 49 58.5t18.5 44.5t-7 30.5t-25.5 18t-40 4.5v13h249v-13q-85 -19 -234 -168l-69 -68zM411 -80q28 0 48 -20.5t20 -48.5q0 -45 -34 -89.5t-67 -65.5
l-4 8q20 14 38.5 41t25.5 44q-12 -6 -27 -6q-28 0 -48 20t-20 48q0 29 20 49t48 20z" />
    <glyph glyph-name="kcommaaccent" unicode="&#x137;" horiz-adv-x="653" 
d="M577 13h61v-13h-252v13h51l-141 240l-77 -91v-149h57v-13h-236v13h57v674h-57v13h179v-522l184 217q41 53 34 83.5t-54 35.5v13h205v-13q-47 -12 -85 -41t-90 -83l-35 -41zM329 -80q28 0 48 -20.5t20 -48.5q0 -45 -34 -89.5t-67 -65.5l-4 8q20 14 38.5 41t25.5 44
q-12 -6 -27 -6q-28 0 -48 20t-20 48q0 29 20 49t48 20z" />
    <glyph glyph-name="kgreenlandic" unicode="&#x138;" horiz-adv-x="653" 
d="M577 13h61v-13h-252v13h51l-141 240l-77 -91v-149h57v-13h-236v13h57v501h-57v13h236v-13h-57v-336l184 217q41 53 34 83.5t-54 35.5v13h205v-13q-47 -12 -85 -41t-90 -83l-35 -41z" />
    <glyph glyph-name="Lacute" unicode="&#x139;" horiz-adv-x="657" 
d="M620 259h12v-259h-587v13h65v674h-65v13h260v-13h-64v-665h162q58 0 98.5 17t64 52t35 73.5t19.5 94.5zM302 906q24 -25 -29 -78q-21 -21 -53 -42.5t-54 -33.5l-22 -11l-7 7q40 83 87 130q53 53 78 28z" />
    <glyph glyph-name="lacute" unicode="&#x13a;" horiz-adv-x="316" 
d="M219 13h57v-13h-236v13h57v674h-57v13h179v-687zM281 929q24 -25 -29 -78q-21 -21 -53 -42.5t-54 -32.5l-22 -12l-7 7q40 83 87 130q53 53 78 28z" />
    <glyph glyph-name="Lcommaaccent" unicode="&#x13b;" horiz-adv-x="657" 
d="M620 259h12v-259h-587v13h65v674h-65v13h260v-13h-64v-665h162q58 0 98.5 17t64 52t35 73.5t19.5 94.5zM378 -80q28 0 48 -20.5t20 -48.5q0 -45 -34 -89.5t-67 -65.5l-4 8q20 14 38.5 41t25.5 44q-12 -6 -27 -6q-28 0 -48 20t-20 48q0 29 20 49t48 20z" />
    <glyph glyph-name="lcommaaccent" unicode="&#x13c;" horiz-adv-x="316" 
d="M219 13h57v-13h-236v13h57v674h-57v13h179v-687zM158 -80q28 0 48 -20.5t20 -48.5q0 -45 -34 -89.5t-67 -65.5l-4 8q20 14 38.5 41t25.5 44q-12 -6 -27 -6q-28 0 -48 20t-20 48q0 29 20 49t48 20z" />
    <glyph glyph-name="Lcaron" unicode="&#x13d;" horiz-adv-x="657" 
d="M620 259h12v-259h-587v13h65v674h-65v13h260v-13h-64v-665h162q58 0 98.5 17t64 52t35 73.5t19.5 94.5zM462 703q28 0 48 -20.5t20 -48.5q0 -45 -34 -89.5t-67 -65.5l-5 8q20 14 39.5 41t25.5 44q-12 -6 -27 -6q-28 0 -48.5 20t-20.5 48t20.5 48.5t48.5 20.5z" />
    <glyph glyph-name="lcaron" unicode="&#x13e;" horiz-adv-x="473" 
d="M219 13h57v-13h-236v13h57v674h-57v13h179v-687zM385 704q28 0 48 -20.5t20 -48.5q0 -45 -34 -89.5t-67 -65.5l-5 8q20 14 39.5 41t25.5 44q-12 -6 -27 -6q-28 0 -48.5 20t-20.5 48q0 29 20 49t49 20z" />
    <glyph glyph-name="Ldot" unicode="&#x13f;" horiz-adv-x="657" 
d="M620 259h12v-259h-587v13h65v674h-65v13h260v-13h-64v-665h162q58 0 98.5 17t64 52t35 73.5t19.5 94.5zM413 358q24 0 41 -17t17 -41t-17 -41t-41 -17t-41 17t-17 41t17 41t41 17z" />
    <glyph glyph-name="ldot" unicode="&#x140;" horiz-adv-x="445" 
d="M219 13h57v-13h-236v13h57v674h-57v13h179v-687zM367 358q24 0 41 -17t17 -41t-17 -41t-41 -17t-41 17t-17 41t17 41t41 17z" />
    <glyph glyph-name="Lslash" unicode="&#x141;" horiz-adv-x="657" 
d="M620 259h12v-259h-587v13h64v223l-64 -28v21l64 28v430h-64v13h260v-13h-65v-373l201 86v-21l-201 -87v-270h163q58 0 98.5 17t64 52t35 73.5t19.5 94.5z" />
    <glyph glyph-name="lslash" unicode="&#x142;" horiz-adv-x="316" 
d="M276 323l-57 -24v-286h57v-13h-236v13h56v233l-56 -25v22l56 24v420h-56v13h179v-380l57 24v-21z" />
    <glyph glyph-name="Nacute" unicode="&#x143;" horiz-adv-x="872" 
d="M566 700h266v-13q-61 -12 -91.5 -64.5t-30.5 -133.5v-489h-60l-475 583v-372q0 -79 34 -132.5t96 -65.5v-13h-265v13q61 12 91.5 64.5t30.5 133.5v388l-72 88h-49v13h215l441 -540v329q0 79 -34.5 132.5t-96.5 65.5v13zM489 906q24 -25 -29 -78q-21 -21 -53 -42.5
t-54 -33.5l-22 -11l-7 7q40 83 87 130q53 53 78 28z" />
    <glyph glyph-name="nacute" unicode="&#x144;" horiz-adv-x="720" 
d="M680 13v-13h-235v13h56v346q0 137 -142 120q-51 -7 -95.5 -49t-44.5 -81v-336h57v-13h-236v13h56v501h-56v13h179v-133q37 67 97.5 106.5t131.5 39.5q176 0 176 -190v-337h56zM453 756q24 -25 -29 -78q-21 -21 -53 -42.5t-54 -33.5l-22 -11l-7 7q40 83 87 130
q53 53 78 28z" />
    <glyph glyph-name="Ncommaaccent" unicode="&#x145;" horiz-adv-x="872" 
d="M566 700h266v-13q-61 -12 -91.5 -64.5t-30.5 -133.5v-489h-60l-475 583v-372q0 -79 34 -132.5t96 -65.5v-13h-265v13q61 12 91.5 64.5t30.5 133.5v388l-72 88h-49v13h215l441 -540v329q0 79 -34.5 132.5t-96.5 65.5v13zM466 -80q28 0 48 -20.5t20 -48.5q0 -45 -34 -89.5
t-67 -65.5l-4 8q20 14 38.5 41t25.5 44q-12 -6 -27 -6q-28 0 -48 20t-20 48q0 29 20 49t48 20z" />
    <glyph glyph-name="ncommaaccent" unicode="&#x146;" horiz-adv-x="720" 
d="M680 13v-13h-235v13h56v346q0 137 -142 120q-51 -7 -95.5 -49t-44.5 -81v-336h57v-13h-236v13h56v501h-56v13h179v-133q37 67 97.5 106.5t131.5 39.5q176 0 176 -190v-337h56zM360 -80q28 0 48 -20.5t20 -48.5q0 -45 -34 -89.5t-67 -65.5l-4 8q20 14 38.5 41t25.5 44
q-12 -6 -27 -6q-28 0 -48 20t-20 48q0 29 20 49t48 20z" />
    <glyph glyph-name="Ncaron" unicode="&#x147;" horiz-adv-x="872" 
d="M566 700h266v-13q-61 -12 -91.5 -64.5t-30.5 -133.5v-489h-60l-475 583v-372q0 -79 34 -132.5t96 -65.5v-13h-265v13q61 12 91.5 64.5t30.5 133.5v388l-72 88h-49v13h215l441 -540v329q0 79 -34.5 132.5t-96.5 65.5v13zM593 920l6 -7l-139 -147h-69l-139 147l6 7l167 -77
z" />
    <glyph glyph-name="ncaron" unicode="&#x148;" horiz-adv-x="720" 
d="M680 13v-13h-235v13h56v346q0 137 -142 120q-51 -7 -95.5 -49t-44.5 -81v-336h57v-13h-236v13h56v501h-56v13h179v-133q37 67 97.5 106.5t131.5 39.5q176 0 176 -190v-337h56zM537 770l6 -7l-139 -147h-69l-139 147l6 7l167 -77z" />
    <glyph glyph-name="napostrophe" unicode="&#x149;" horiz-adv-x="908" 
d="M868 13v-13h-235v13h56v346q0 137 -142 120q-51 -7 -95.5 -49t-44.5 -81v-336h57v-13h-236v13h56v501h-56v13h179v-133q37 67 97.5 106.5t131.5 39.5q176 0 176 -190v-337h56zM98 530q28 0 48 -20.5t20 -48.5q0 -45 -34 -89.5t-67 -65.5l-4 8q20 14 38.5 41t25.5 44
q-12 -6 -27 -6q-28 0 -48 20t-20 48q0 29 20 49t48 20z" />
    <glyph glyph-name="Eng" unicode="&#x14a;" horiz-adv-x="872" 
d="M566 700h266v-13q-61 -12 -91.5 -64.5t-30.5 -133.5v-583q0 -83 -37.5 -120t-98.5 -37q-39 0 -105 18.5t-110 38.5v207h11q32 -128 73.5 -184t116.5 -65q60 -7 98.5 27.5t38.5 119.5v89h-47l-475 583v-372q0 -79 34 -132.5t96 -65.5v-13h-265v13q61 12 91.5 64.5
t30.5 133.5v388l-72 88h-49v13h216l440 -540v329q0 79 -34.5 132.5t-96.5 65.5v13z" />
    <glyph glyph-name="eng" unicode="&#x14b;" horiz-adv-x="709" 
d="M448 540q176 0 176 -190v-267q0 -56 -4 -98.5t-18.5 -89t-39.5 -76.5t-69.5 -50t-105.5 -20q-34 0 -94 14.5t-100 29.5v173h11q31 -115 71 -158.5t92 -43.5q31 0 54 11t37.5 35.5t23.5 50t13 66.5t5 73.5t1 82.5v276q0 137 -142 120q-51 -7 -95.5 -49t-44.5 -81v-336h57
v-13h-236v13h56v501h-56v13h179v-133q37 67 97.5 106.5t131.5 39.5z" />
    <glyph glyph-name="Omacron" unicode="&#x14c;" horiz-adv-x="844" 
d="M422 703q172 0 277 -98t105 -257t-105 -257t-277 -98t-277 98t-105 257t105 257t277 98zM422 5q102 0 167.5 83.5t66.5 259.5q-1 177 -66.5 260.5t-167.5 83.5t-167.5 -83.5t-66.5 -260.5q1 -176 66.5 -259.5t167.5 -83.5zM261 842h321v-40h-321v40z" />
    <glyph glyph-name="omacron" unicode="&#x14d;" horiz-adv-x="679" 
d="M337 539q57 0 109.5 -16.5t96 -48.5t70 -86t26.5 -122q0 -90 -46 -154t-112.5 -91.5t-143.5 -27.5t-143.5 27.5t-112.5 91.5t-46 154q0 68 26.5 122t70 86t96 48.5t109.5 16.5zM337 5q80 0 125 73t45 188t-45 188t-125 73t-125 -73t-45 -188t45 -188t125 -73zM176 692
h321v-40h-321v40z" />
    <glyph glyph-name="Obreve" unicode="&#x14e;" horiz-adv-x="844" 
d="M422 703q172 0 277 -98t105 -257t-105 -257t-277 -98t-277 98t-105 257t105 257t277 98zM422 5q102 0 167.5 83.5t66.5 259.5q-1 177 -66.5 260.5t-167.5 83.5t-167.5 -83.5t-66.5 -260.5q1 -176 66.5 -259.5t167.5 -83.5zM552 920h9q0 -74 -36.5 -114.5t-102.5 -40.5
t-102.5 40.5t-36.5 114.5h9q10 -38 46 -62.5t84 -24.5t84 24.5t46 62.5z" />
    <glyph glyph-name="obreve" unicode="&#x14f;" horiz-adv-x="679" 
d="M337 539q57 0 109.5 -16.5t96 -48.5t70 -86t26.5 -122q0 -90 -46 -154t-112.5 -91.5t-143.5 -27.5t-143.5 27.5t-112.5 91.5t-46 154q0 68 26.5 122t70 86t96 48.5t109.5 16.5zM337 5q80 0 125 73t45 188t-45 188t-125 73t-125 -73t-45 -188t45 -188t125 -73zM467 770h9
q0 -74 -36.5 -114.5t-102.5 -40.5t-102.5 40.5t-36.5 114.5h9q10 -38 46 -62.5t84 -24.5t84 24.5t46 62.5z" />
    <glyph glyph-name="Ohungarumlaut" unicode="&#x150;" horiz-adv-x="844" 
d="M422 703q172 0 277 -98t105 -257t-105 -257t-277 -98t-277 98t-105 257t105 257t277 98zM422 5q102 0 167.5 83.5t66.5 259.5q-1 177 -66.5 260.5t-167.5 83.5t-167.5 -83.5t-66.5 -260.5q1 -176 66.5 -259.5t167.5 -83.5zM375 878q53 53 77 28q25 -25 -28 -78
q-21 -21 -53 -42.5t-54 -33.5l-22 -11l-7 7q40 83 87 130zM636 906q24 -24 -28 -78q-21 -21 -53.5 -42.5t-54.5 -33.5l-22 -11l-6 7q39 83 86 130q54 52 78 28z" />
    <glyph glyph-name="ohungarumlaut" unicode="&#x151;" horiz-adv-x="679" 
d="M337 539q57 0 109.5 -16.5t96 -48.5t70 -86t26.5 -122q0 -90 -46 -154t-112.5 -91.5t-143.5 -27.5t-143.5 27.5t-112.5 91.5t-46 154q0 68 26.5 122t70 86t96 48.5t109.5 16.5zM337 5q80 0 125 73t45 188t-45 188t-125 73t-125 -73t-45 -188t45 -188t125 -73zM310 728
q53 53 77 28q25 -25 -28 -78q-21 -21 -53 -42.5t-54 -33.5l-22 -11l-7 7q40 83 87 130zM571 756q24 -24 -28 -78q-21 -21 -53.5 -42.5t-54.5 -33.5l-22 -11l-6 7q39 83 86 130q54 52 78 28z" />
    <glyph glyph-name="OE" unicode="&#x152;" horiz-adv-x="1096" 
d="M1044 251h12v-251h-584q-432 0 -432 350t432 350h568v-251h-12q-15 115 -60.5 172.5t-156.5 57.5h-130v-322h118q70 0 97.5 21.5t36.5 82.5h9v-220h-9q-9 60 -36.5 81.5t-97.5 21.5h-118v-322h147q111 0 156 57t60 172zM184 350q0 -159 67 -243.5t194 -84.5h105v657h-105
q-127 0 -194 -85t-67 -244z" />
    <glyph glyph-name="oe" unicode="&#x153;" horiz-adv-x="1081" 
d="M787 540q120 0 190.5 -69.5t62.5 -204.5h-401q6 -105 68.5 -160t151.5 -55q100 0 154 67l10 -8q-27 -46 -84 -81.5t-138 -35.5q-66 0 -127 24t-103 68q-86 -92 -234 -92q-57 0 -109.5 16.5t-96 48.5t-70 86t-26.5 122t26.5 122.5t70 86.5t96 48.5t109.5 16.5
q143 0 230 -88q79 88 220 88zM337 5q80 0 125 73t45 188t-45 188t-125 73t-125 -73t-45 -188t45 -188t125 -73zM912 288q11 239 -125 239q-63 0 -107 -68.5t-42 -170.5h274z" />
    <glyph glyph-name="Racute" unicode="&#x154;" horiz-adv-x="751" 
d="M646 184v-88q0 -63 37 -63q23 0 34.5 24t11.5 58h12q0 -122 -108 -122q-62 0 -89.5 28t-27.5 97v90q0 64 -37 93t-122 29h-117v-317h65v-13h-260v13h64v674h-64v13h311q65 0 113.5 -9t87 -30t58.5 -58.5t20 -91.5q0 -76 -53.5 -122t-153.5 -46v-3q125 0 171.5 -35
t46.5 -121zM329 343q179 0 179 168q0 94 -47.5 131t-131.5 37h-89v-336h89zM436 906q24 -25 -29 -78q-21 -21 -53 -42.5t-54 -33.5l-22 -11l-7 7q40 83 87 130q53 53 78 28z" />
    <glyph glyph-name="racute" unicode="&#x155;" horiz-adv-x="535" 
d="M403 540q30 0 60 -14t42 -31l-82 -131h-8q-13 51 -46.5 83t-77.5 11q-25 -12 -48.5 -54.5t-23.5 -79.5v-311h89v-13h-268v13h56v501h-56v13h179v-147q53 160 184 160zM356 756q24 -25 -29 -78q-21 -21 -53 -42.5t-54 -33.5l-22 -11l-7 7q40 83 87 130q53 53 78 28z" />
    <glyph glyph-name="Rcommaaccent" unicode="&#x156;" horiz-adv-x="751" 
d="M646 184v-88q0 -63 37 -63q23 0 34.5 24t11.5 58h12q0 -122 -108 -122q-62 0 -89.5 28t-27.5 97v90q0 64 -37 93t-122 29h-117v-317h65v-13h-260v13h64v674h-64v13h311q65 0 113.5 -9t87 -30t58.5 -58.5t20 -91.5q0 -76 -53.5 -122t-153.5 -46v-3q125 0 171.5 -35
t46.5 -121zM329 343q179 0 179 168q0 94 -47.5 131t-131.5 37h-89v-336h89zM423 -80q28 0 48 -20.5t20 -48.5q0 -45 -34 -89.5t-67 -65.5l-4 8q20 14 38.5 41t25.5 44q-12 -6 -27 -6q-28 0 -48 20t-20 48q0 29 20 49t48 20z" />
    <glyph glyph-name="rcommaaccent" unicode="&#x157;" horiz-adv-x="535" 
d="M403 540q30 0 60 -14t42 -31l-82 -131h-8q-13 51 -46.5 83t-77.5 11q-25 -12 -48.5 -54.5t-23.5 -79.5v-311h89v-13h-268v13h56v501h-56v13h179v-147q53 160 184 160zM156 -80q28 0 48 -20.5t20 -48.5q0 -45 -34 -89.5t-67 -65.5l-4 8q20 14 38.5 41t25.5 44
q-12 -6 -27 -6q-28 0 -48 20t-20 48q0 29 20 49t48 20z" />
    <glyph glyph-name="Rcaron" unicode="&#x158;" horiz-adv-x="751" 
d="M646 184v-88q0 -63 37 -63q23 0 34.5 24t11.5 58h12q0 -122 -108 -122q-62 0 -89.5 28t-27.5 97v90q0 64 -37 93t-122 29h-117v-317h65v-13h-260v13h64v674h-64v13h311q65 0 113.5 -9t87 -30t58.5 -58.5t20 -91.5q0 -76 -53.5 -122t-153.5 -46v-3q125 0 171.5 -35
t46.5 -121zM329 343q179 0 179 168q0 94 -47.5 131t-131.5 37h-89v-336h89zM510 920l6 -7l-139 -147h-69l-139 147l6 7l167 -77z" />
    <glyph glyph-name="rcaron" unicode="&#x159;" horiz-adv-x="535" 
d="M403 540q30 0 60 -14t42 -31l-82 -131h-8q-13 51 -46.5 83t-77.5 11q-25 -12 -48.5 -54.5t-23.5 -79.5v-311h89v-13h-268v13h56v501h-56v13h179v-147q53 160 184 160zM440 770l6 -7l-139 -147h-69l-139 147l6 7l167 -77z" />
    <glyph glyph-name="Sacute" unicode="&#x15a;" horiz-adv-x="578" 
d="M160 572q-2 -35 18.5 -64t54.5 -50t75 -40.5l82 -40.5t74.5 -46t54 -62t18.5 -82q-7 -194 -258 -194q-95 0 -239 46v179h9q37 -116 87 -163t134 -47q125 0 147 80q12 44 -1 79.5t-44 59.5t-71 45.5l-83 43t-79 46.5t-60 62.5t-25 83.5q-2 98 57 146.5t179 48.5
q67 0 215 -48v-163h-10q-37 106 -83.5 151t-119.5 45q-58 0 -94 -29t-38 -87zM392 906q24 -25 -29 -78q-21 -21 -53 -42.5t-54 -33.5l-22 -11l-7 7q40 83 87 130q53 53 78 28z" />
    <glyph glyph-name="sacute" unicode="&#x15b;" horiz-adv-x="499" 
d="M158 448q-1 -11 0.5 -21.5t7.5 -20.5t12 -18t18 -17.5l20.5 -16t24.5 -15.5l25 -14l27.5 -15l27.5 -15q85 -45 115 -83.5t19 -101.5q-22 -117 -203 -117q-72 0 -217 39v158h10q30 -60 57 -98.5t51.5 -56.5t42.5 -24t41 -8q100 -8 111 66q3 23 -4 42.5t-28.5 37t-38 27.5
t-50.5 28t-48 26q-66 37 -97 78.5t-24 100.5q17 131 195 131q49 0 188 -38v-142h-10q-53 105 -91 137t-92 32q-33 0 -59 -19.5t-31 -61.5zM350 756q24 -25 -29 -78q-21 -21 -53 -42.5t-54 -33.5l-22 -11l-7 7q40 83 87 130q53 53 78 28z" />
    <glyph glyph-name="Scircumflex" unicode="&#x15c;" horiz-adv-x="578" 
d="M160 572q-2 -35 18.5 -64t54.5 -50t75 -40.5l82 -40.5t74.5 -46t54 -62t18.5 -82q-7 -194 -258 -194q-95 0 -239 46v179h9q37 -116 87 -163t134 -47q125 0 147 80q12 44 -1 79.5t-44 59.5t-71 45.5l-83 43t-79 46.5t-60 62.5t-25 83.5q-2 98 57 146.5t179 48.5
q67 0 215 -48v-163h-10q-37 106 -83.5 151t-119.5 45q-58 0 -94 -29t-38 -87zM334 920l139 -147l-7 -7l-167 76l-167 -76l-7 7l140 147h69z" />
    <glyph glyph-name="scircumflex" unicode="&#x15d;" horiz-adv-x="499" 
d="M158 448q-1 -11 0.5 -21.5t7.5 -20.5t12 -18t18 -17.5l20.5 -16t24.5 -15.5l25 -14l27.5 -15l27.5 -15q85 -45 115 -83.5t19 -101.5q-22 -117 -203 -117q-72 0 -217 39v158h10q30 -60 57 -98.5t51.5 -56.5t42.5 -24t41 -8q100 -8 111 66q3 23 -4 42.5t-28.5 37t-38 27.5
t-50.5 28t-48 26q-66 37 -97 78.5t-24 100.5q17 131 195 131q49 0 188 -38v-142h-10q-53 105 -91 137t-92 32q-33 0 -59 -19.5t-31 -61.5zM282 770l139 -147l-7 -7l-167 76l-167 -76l-7 7l140 147h69z" />
    <glyph glyph-name="Scedilla" unicode="&#x15e;" horiz-adv-x="578" 
d="M159 572q-1 -35 19.5 -64t54 -50t74.5 -40.5l82.5 -40.5t75 -46t54 -62t18.5 -82q-7 -194 -258 -194q-14 0 -21 1l-10 -34q80 13 129.5 -19t36.5 -100q-13 -61 -86.5 -87.5t-167.5 6.5l3 10q60 -7 103 20t55 73q11 43 -14 67.5t-74 17.5l13 47q-86 6 -206 44v179h9
q37 -116 87 -163t133 -47q126 0 148 80q12 44 -1 79.5t-44 59.5t-71.5 45.5l-83.5 43t-79 46.5t-59.5 62.5t-24.5 83.5q-2 98 56.5 146.5t178.5 48.5q68 0 216 -48v-163h-10q-37 106 -83.5 151t-119.5 45q-58 0 -94 -29t-39 -87z" />
    <glyph glyph-name="scedilla" unicode="&#x15f;" horiz-adv-x="499" 
d="M321 295q85 -45 115 -83.5t19 -101.5q-22 -117 -203 -117q-9 0 -29 2l-10 -35q79 14 129 -18.5t36 -99.5q-12 -61 -85.5 -87.5t-167.5 6.5l3 10q60 -8 103 19.5t55 73.5q11 42 -14.5 67t-74.5 17l14 48q-64 6 -176 36v158h10q30 -60 57 -98.5t51.5 -56.5t42.5 -24t41 -8
q100 -8 111 66q3 23 -4 42.5t-28.5 37t-38 27.5t-50.5 28t-48 26q-66 37 -97 78.5t-24 100.5q17 131 195 131q49 0 188 -38v-142h-10q-53 105 -91 137t-92 32q-33 0 -59 -19.5t-31 -61.5q-1 -11 0.5 -21.5t7.5 -20.5t12 -18t18 -17.5l20.5 -16t24.5 -15.5l25 -14l27.5 -15z
" />
    <glyph glyph-name="Scaron" unicode="&#x160;" horiz-adv-x="578" 
d="M160 572q-2 -35 18.5 -64t54.5 -50t75 -40.5l82 -40.5t74.5 -46t54 -62t18.5 -82q-7 -194 -258 -194q-95 0 -239 46v179h9q37 -116 87 -163t134 -47q125 0 147 80q12 44 -1 79.5t-44 59.5t-71 45.5l-83 43t-79 46.5t-60 62.5t-25 83.5q-2 98 57 146.5t179 48.5
q67 0 215 -48v-163h-10q-37 106 -83.5 151t-119.5 45q-58 0 -94 -29t-38 -87zM466 920l6 -7l-139 -147h-69l-139 147l6 7l167 -77z" />
    <glyph glyph-name="scaron" unicode="&#x161;" horiz-adv-x="499" 
d="M158 448q-1 -11 0.5 -21.5t7.5 -20.5t12 -18t18 -17.5l20.5 -16t24.5 -15.5l25 -14l27.5 -15l27.5 -15q85 -45 115 -83.5t19 -101.5q-22 -117 -203 -117q-72 0 -217 39v158h10q30 -60 57 -98.5t51.5 -56.5t42.5 -24t41 -8q100 -8 111 66q3 23 -4 42.5t-28.5 37t-38 27.5
t-50.5 28t-48 26q-66 37 -97 78.5t-24 100.5q17 131 195 131q49 0 188 -38v-142h-10q-53 105 -91 137t-92 32q-33 0 -59 -19.5t-31 -61.5zM434 770l6 -7l-139 -147h-69l-139 147l6 7l167 -77z" />
    <glyph glyph-name="Tcommaaccent" unicode="&#x162;" horiz-adv-x="702" 
d="M30 700h642v-242h-12q-10 96 -21 129q-33 92 -137 92h-85v-666h64v-13h-260v13h65v666h-86q-39 0 -68 -13t-44.5 -33.5t-25 -48.5t-13 -55t-6.5 -56q-1 -10 -1 -15h-12v242zM351 -80q28 0 48 -20.5t20 -48.5q0 -45 -34 -89.5t-67 -65.5l-4 8q20 14 38.5 41t25.5 44
q-12 -6 -27 -6q-28 0 -48 20t-20 48q0 29 20 49t48 20z" />
    <glyph glyph-name="tcommaaccent" unicode="&#x163;" horiz-adv-x="395" 
d="M364 87l11 -9q-29 -42 -61 -63.5t-83 -21.5q-135 0 -135 179v342h-56v13h56l115 160h8v-160h139v-13h-139v-372q0 -56 18.5 -76t51.5 -20q42 0 75 41zM197 -80q28 0 48 -20.5t20 -48.5q0 -45 -34 -89.5t-67 -65.5l-4 8q20 14 38.5 41t25.5 44q-12 -6 -27 -6q-28 0 -48 20
t-20 48q0 29 20 49t48 20z" />
    <glyph glyph-name="Tcaron" unicode="&#x164;" horiz-adv-x="702" 
d="M30 700h642v-242h-12q-10 96 -21 129q-33 92 -137 92h-85v-666h64v-13h-260v13h65v666h-86q-39 0 -68 -13t-44.5 -33.5t-25 -48.5t-13 -55t-6.5 -56q-1 -10 -1 -15h-12v242zM518 920l6 -7l-139 -147h-69l-139 147l6 7l167 -77z" />
    <glyph glyph-name="tcaron" unicode="&#x165;" horiz-adv-x="572" 
d="M364 87l11 -9q-29 -42 -61 -63.5t-83 -21.5q-135 0 -135 179v342h-56v13h56l115 160h8v-160h139v-13h-139v-372q0 -56 18.5 -76t51.5 -20q42 0 75 41zM484 704q28 0 48 -20.5t20 -48.5q0 -45 -34 -89.5t-67 -65.5l-5 8q20 14 39.5 41t25.5 44q-12 -6 -27 -6
q-28 0 -48.5 20t-20.5 48q0 29 20.5 49t48.5 20z" />
    <glyph glyph-name="Tbar" unicode="&#x166;" horiz-adv-x="701" 
d="M30 700h641v-242h-12q-9 99 -23 136q-34 85 -134 85h-86v-318h138v-22h-138v-326h64v-13h-260v13h65v326h-138v22h138v318h-86q-40 0 -68.5 -14t-44 -32.5t-25 -50.5t-12.5 -54t-6 -57q-1 -9 -1 -13h-12v242z" />
    <glyph glyph-name="tbar" unicode="&#x167;" horiz-adv-x="394" 
d="M364 87l10 -9q-28 -42 -60 -63.5t-83 -21.5q-135 0 -135 179v158h-56v21h56v163h-56v13h56l115 160h8v-160h139v-13h-139v-163h111v-21h-111v-188q0 -56 18.5 -76t51.5 -20q40 0 75 41z" />
    <glyph glyph-name="Utilde" unicode="&#x168;" horiz-adv-x="763" 
d="M573 700h155v-13q-37 -10 -54 -46t-17 -111v-248q0 -141 -71.5 -215t-199.5 -74q-131 0 -208.5 74t-77.5 215v405h-65v13h260v-13h-64v-405q0 -117 57 -179t149 -62t149.5 62t57.5 179v248q0 77 -16 112t-55 45v13zM489 790q-13 1 -28 6t-24 9.5t-26.5 14.5l-24.5 14
q-39 17 -63.5 5t-31.5 -42h-6q3 67 27 94.5t69 22.5q25 -3 65.5 -27t51.5 -28q29 -10 48 1t25 37h7q-3 -110 -89 -107z" />
    <glyph glyph-name="utilde" unicode="&#x169;" 
d="M624 13h57v-13h-179v139q-38 -68 -94.5 -107t-126.5 -39q-97 0 -140.5 52t-43.5 138v331h-57v13h180v-353q0 -63 37 -96t113 -24q51 7 91.5 48.5t40.5 81.5v330h-57v13h179v-514zM418 640q-13 1 -28 6t-24 9.5t-26.5 14.5l-24.5 14q-39 17 -63 5t-32 -42h-6q3 67 27 94.5
t69 22.5q25 -3 65.5 -27t51.5 -28q29 -10 48 1t25 37h7q-3 -110 -89 -107z" />
    <glyph glyph-name="Umacron" unicode="&#x16a;" horiz-adv-x="763" 
d="M573 700h155v-13q-37 -10 -54 -46t-17 -111v-248q0 -141 -71.5 -215t-199.5 -74q-131 0 -208.5 74t-77.5 215v405h-65v13h260v-13h-64v-405q0 -117 57 -179t149 -62t149.5 62t57.5 179v248q0 77 -16 112t-55 45v13zM261 842h321v-40h-321v40z" />
    <glyph glyph-name="umacron" unicode="&#x16b;" 
d="M624 13h57v-13h-179v139q-38 -68 -94.5 -107t-126.5 -39q-97 0 -140.5 52t-43.5 138v331h-57v13h180v-353q0 -63 37 -96t113 -24q51 7 91.5 48.5t40.5 81.5v330h-57v13h179v-514zM190 692h321v-40h-321v40z" />
    <glyph glyph-name="Ubreve" unicode="&#x16c;" horiz-adv-x="763" 
d="M573 700h155v-13q-37 -10 -54 -46t-17 -111v-248q0 -141 -71.5 -215t-199.5 -74q-131 0 -208.5 74t-77.5 215v405h-65v13h260v-13h-64v-405q0 -117 57 -179t149 -62t149.5 62t57.5 179v248q0 77 -16 112t-55 45v13zM571 920h9q0 -74 -36.5 -114.5t-102.5 -40.5
t-102.5 40.5t-36.5 114.5h9q10 -38 46 -62.5t84 -24.5t84 24.5t46 62.5z" />
    <glyph glyph-name="ubreve" unicode="&#x16d;" 
d="M624 13h57v-13h-179v139q-38 -68 -94.5 -107t-126.5 -39q-97 0 -140.5 52t-43.5 138v331h-57v13h180v-353q0 -63 37 -96t113 -24q51 7 91.5 48.5t40.5 81.5v330h-57v13h179v-514zM480 770h9q0 -74 -36.5 -114.5t-102.5 -40.5t-102.5 40.5t-36.5 114.5h9q10 -38 46 -62.5
t84 -24.5t84 24.5t46 62.5z" />
    <glyph glyph-name="Uring" unicode="&#x16e;" horiz-adv-x="763" 
d="M573 700h155v-13q-37 -10 -54 -46t-17 -111v-248q0 -141 -71.5 -215t-199.5 -74q-131 0 -208.5 74t-77.5 215v405h-65v13h260v-13h-64v-405q0 -117 57 -179t149 -62t149.5 62t57.5 179v248q0 77 -16 112t-55 45v13zM421 744q-41 0 -69.5 29t-28.5 69t28.5 69t69.5 29
t69.5 -29t28.5 -69t-28.5 -69t-69.5 -29zM421 915q-30 0 -51.5 -21.5t-21.5 -51.5t21.5 -51.5t51.5 -21.5t51.5 21.5t21.5 51.5t-21.5 51.5t-51.5 21.5z" />
    <glyph glyph-name="uring" unicode="&#x16f;" 
d="M624 13h57v-13h-179v139q-38 -68 -94.5 -107t-126.5 -39q-97 0 -140.5 52t-43.5 138v331h-57v13h180v-353q0 -63 37 -96t113 -24q51 7 91.5 48.5t40.5 81.5v330h-57v13h179v-514zM350 594q-40 0 -69 29t-29 69t29 69t69 29t69 -29t29 -69t-29 -69t-69 -29zM350 765
q-30 0 -51.5 -21.5t-21.5 -51.5t21.5 -51.5t51.5 -21.5t51.5 21.5t21.5 51.5t-21.5 51.5t-51.5 21.5z" />
    <glyph glyph-name="Uhungarumlaut" unicode="&#x170;" horiz-adv-x="763" 
d="M573 700h155v-13q-37 -10 -54 -46t-17 -111v-248q0 -141 -71.5 -215t-199.5 -74q-131 0 -208.5 74t-77.5 215v405h-65v13h260v-13h-64v-405q0 -117 57 -179t149 -62t149.5 62t57.5 179v248q0 77 -16 112t-55 45v13zM365 878q53 53 77 28q25 -25 -28 -78
q-21 -21 -53 -42.5t-54 -33.5l-22 -11l-7 7q40 83 87 130zM626 906q24 -24 -28 -78q-21 -21 -53.5 -42.5t-54.5 -33.5l-22 -11l-6 7q39 83 86 130q54 52 78 28z" />
    <glyph glyph-name="uhungarumlaut" unicode="&#x171;" 
d="M624 13h57v-13h-179v139q-38 -68 -94.5 -107t-126.5 -39q-97 0 -140.5 52t-43.5 138v331h-57v13h180v-353q0 -63 37 -96t113 -24q51 7 91.5 48.5t40.5 81.5v330h-57v13h179v-514zM304 728q53 53 77 28q25 -25 -28 -78q-21 -21 -53 -42.5t-54 -33.5l-22 -11l-7 7
q40 83 87 130zM565 756q24 -24 -28 -78q-21 -21 -53.5 -42.5t-54.5 -33.5l-22 -11l-6 7q39 83 86 130q54 52 78 28z" />
    <glyph glyph-name="Uogonek" unicode="&#x172;" horiz-adv-x="763" 
d="M573 700h155v-13q-38 -10 -54.5 -45.5t-16.5 -111.5v-247q0 -111 -45 -181.5t-129 -95.5q-59 -117 -22 -165q22 -28 65.5 -29t80.5 21l5 -5q-28 -44 -75.5 -64.5t-89.5 -13t-60 36.5q-28 45 4 111t80 105q-37 -10 -85 -10q-131 0 -208.5 74.5t-77.5 215.5v404h-65v13h260
v-13h-64v-404q0 -117 57 -179.5t149 -62.5t149.5 62.5t57.5 179.5v247q0 77 -16 112t-55 45v13z" />
    <glyph glyph-name="uogonek" unicode="&#x173;" 
d="M681 0h-143q-56 -112 -20 -159q22 -28 65.5 -29t81.5 21l5 -5q-28 -44 -75.5 -64.5t-90 -13t-60.5 36.5q-27 44 3.5 109t78.5 104h-24v139q-38 -68 -94.5 -107t-126.5 -39q-97 0 -140.5 52t-43.5 138v331h-57v13h180v-353q0 -63 37 -96t113 -24q51 7 91.5 48.5t40.5 81.5
v330h-57v13h179v-514h57v-13z" />
    <glyph glyph-name="Wcircumflex" unicode="&#x174;" horiz-adv-x="1119" 
d="M869 700h234v-14q-44 -12 -71.5 -46t-56.5 -118l-178 -522h-39l-205 546l-173 -546h-39l-259 686h-61v14h264v-14h-60l189 -529l173 543h46l200 -555q129 378 130 378q48 148 -94 163v14zM654 920l139 -147l-7 -7l-167 76l-167 -76l-7 7l140 147h69z" />
    <glyph glyph-name="wcircumflex" unicode="&#x175;" horiz-adv-x="950" 
d="M725 527h200v-13q-37 -14 -58 -43.5t-50 -103.5l-143 -367h-40l-169 396l-136 -396h-40l-217 514h-62v13h268v-13h-67l149 -382l137 395h45l163 -412l90 229q60 156 -70 170v13zM552 770l139 -147l-7 -7l-167 76l-167 -76l-7 7l140 147h69z" />
    <glyph glyph-name="Ycircumflex" unicode="&#x176;" horiz-adv-x="733" 
d="M495 700h228v-13q-42 -13 -68 -36.5t-65 -90.5l-152 -264v-283h65v-13h-260v13h64v260l-234 414h-63v13h276v-13h-65l207 -381l137 235q78 134 -70 146v13zM431 920l139 -147l-7 -7l-167 76l-167 -76l-7 7l140 147h69z" />
    <glyph glyph-name="ycircumflex" unicode="&#x177;" horiz-adv-x="680" 
d="M453 527h202v-13q-38 -11 -61 -43.5t-61 -116.5l-153 -348l-136 -272l-103 99v13l204 110l-272 558h-63v13h267v-13h-67l195 -422q110 251 111 252q34 80 17 123.5t-80 46.5v13zM417 770l139 -147l-7 -7l-167 76l-167 -76l-7 7l140 147h69z" />
    <glyph glyph-name="Ydieresis" unicode="&#x178;" horiz-adv-x="733" 
d="M495 700h228v-13q-42 -13 -68 -36.5t-65 -90.5l-152 -264v-283h65v-13h-260v13h64v260l-234 414h-63v13h276v-13h-65l207 -381l137 235q78 134 -70 146v13zM313 900q24 0 41 -17t17 -41t-17 -41t-41 -17t-41 17t-17 41t17 41t41 17zM480 900q23 0 40 -17t17 -41t-17 -41
t-40 -17q-24 0 -41 17t-17 41t17 41t41 17z" />
    <glyph glyph-name="Zacute" unicode="&#x179;" horiz-adv-x="654" 
d="M619 700v-13l-431 -666h214q55 0 91 14.5t55.5 47.5t28.5 67t16 93h13v-243h-571v13l423 666h-206q-55 0 -91 -14.5t-55.5 -47.5t-28.5 -67t-16 -92h-13v242h571zM440 906q24 -25 -29 -78q-21 -21 -53 -42.5t-54 -33.5l-22 -11l-7 7q40 83 87 130q53 53 78 28z" />
    <glyph glyph-name="zacute" unicode="&#x17a;" horiz-adv-x="530" 
d="M490 527v-13l-325 -492h162q80 0 108.5 38t36.5 122h14v-182h-456v13l319 493h-150q-80 0 -108 -38t-37 -123h-14v182h450zM373 756q24 -25 -29 -78q-21 -21 -53 -42.5t-54 -33.5l-22 -11l-7 7q40 83 87 130q53 53 78 28z" />
    <glyph glyph-name="Zdotaccent" unicode="&#x17b;" horiz-adv-x="654" 
d="M619 700v-13l-431 -666h214q55 0 91 14.5t55.5 47.5t28.5 67t16 93h13v-243h-571v13l423 666h-206q-55 0 -91 -14.5t-55.5 -47.5t-28.5 -67t-16 -92h-13v242h571zM347 900q24 0 41 -17t17 -41t-17 -41t-41 -17t-41 17t-17 41t17 41t41 17z" />
    <glyph glyph-name="zdotaccent" unicode="&#x17c;" horiz-adv-x="535" 
d="M495 527v-13l-325 -492h162q80 0 108.5 38t36.5 122h14v-182h-456v13l319 493h-150q-80 0 -108 -38t-37 -123h-14v182h450zM285 750q24 0 41 -17t17 -41t-17 -41t-41 -17t-41 17t-17 41t17 41t41 17z" />
    <glyph glyph-name="Zcaron" unicode="&#x17d;" horiz-adv-x="654" 
d="M619 700v-13l-431 -666h214q55 0 91 14.5t55.5 47.5t28.5 67t16 93h13v-243h-571v13l423 666h-206q-55 0 -91 -14.5t-55.5 -47.5t-28.5 -67t-16 -92h-13v242h571zM524 920l6 -7l-139 -147h-69l-139 147l6 7l167 -77z" />
    <glyph glyph-name="zcaron" unicode="&#x17e;" horiz-adv-x="535" 
d="M495 527v-13l-325 -492h162q80 0 108.5 38t36.5 122h14v-182h-456v13l319 493h-150q-80 0 -108 -38t-37 -123h-14v182h450zM452 770l6 -7l-139 -147h-69l-139 147l6 7l167 -77z" />
    <glyph glyph-name="longs" unicode="&#x17f;" horiz-adv-x="430" 
d="M282 729q59 0 128 -23v-128h-10q-33 85 -59.5 114.5t-57.5 23.5q-64 -9 -64 -141v-562h98v-13h-277v13h56v501h-56v13h56q1 106 46 154t140 48z" />
    <glyph glyph-name="AEacute" unicode="&#x1fc;" horiz-adv-x="1043" 
d="M991 251h12v-251h-570v13h65v238h-263l-47 -77l-11 -20q-29 -52 -22 -92.5t49 -48.5v-13h-194v13q31 9 75 49.5t77 91.5l14 22l313 511h-56v13h554v-251h-12q-15 115 -60.5 172.5t-156.5 57.5h-129v-322h118q69 0 96.5 21.5t36.5 82.5h9v-220h-9q-9 60 -36.5 81.5
t-96.5 21.5h-118v-322h146q59 0 99 16t63.5 49t35 71t18.5 93zM498 264v415l-255 -415h255zM760 906q24 -25 -29 -78q-21 -21 -53 -42.5t-54 -33.5l-22 -11l-7 7q40 83 87 130q53 53 78 28z" />
    <glyph glyph-name="aeacute" unicode="&#x1fd;" horiz-adv-x="976" 
d="M682 540q119 0 189.5 -69.5t63.5 -204.5h-401q6 -105 68 -160t151 -55q99 0 155 67l10 -8q-27 -46 -84 -81.5t-138 -35.5q-109 0 -193.5 59.5t-101.5 164.5q-5 -42 -18.5 -80.5t-36 -71.5t-58 -52.5t-79.5 -19.5q-75 0 -124.5 37.5t-49.5 115.5q0 29 7.5 53.5t18.5 42.5
t31 32t37 23t44 15.5t45.5 10t49.5 5.5t46.5 2.5t45 0.5h37.5v96q0 100 -101 100q-50 0 -94 -35t-95 -137h-10v144q135 41 204 41q141 0 188 -62q77 62 193 62zM158 159q0 -67 52 -94t105 7q76 47 82 176v11v60q-239 7 -239 -160zM533 288h273q6 109 -23.5 174t-100.5 65
q-63 0 -107 -68.5t-42 -170.5zM639 756q24 -25 -29 -78q-21 -21 -53 -42.5t-54 -33.5l-22 -11l-7 7q40 83 87 130q53 53 78 28z" />
    <glyph glyph-name="Oslashacute" unicode="&#x1fe;" horiz-adv-x="844" 
d="M655 640q71 -46 110 -121.5t39 -170.5q0 -159 -105 -257t-277 -98q-127 0 -220 56l-37 -49h-22l44 58q-70 46 -108.5 121t-38.5 169q0 159 105 257t277 98q125 0 218 -54l39 51h22zM188 348q0 -140 47 -228l363 475q-61 97 -176 97q-102 0 -167.5 -83.5t-66.5 -260.5z
M422 5q102 0 167.5 83.5t66.5 259.5q-1 144 -48 231l-364 -475q62 -99 178 -99zM525 906q24 -25 -29 -78q-21 -21 -53 -42.5t-54 -33.5l-22 -11l-7 7q40 83 87 130q53 53 78 28z" />
    <glyph glyph-name="oslashacute" unicode="&#x1ff;" horiz-adv-x="678" 
d="M553 466q85 -75 85 -199q0 -68 -26 -122.5t-70 -86.5t-96 -48.5t-109 -16.5q-119 0 -201 63l-57 -56h-21l66 65q-89 76 -89 202q0 68 26.5 122t70 86t96 48.5t109.5 16.5q120 0 204 -65l53 52h21zM167 267q0 -79 21 -139l293 288q-46 111 -144 111q-80 0 -125 -73
t-45 -187zM337 5q79 0 124.5 73.5t45.5 188.5q0 74 -20 134l-293 -288q46 -108 143 -108zM430 756q24 -25 -29 -78q-21 -21 -53 -42.5t-54 -33.5l-22 -11l-7 7q40 83 87 130q53 53 78 28z" />
    <glyph glyph-name="Scommaaccent" unicode="&#x218;" horiz-adv-x="578" 
d="M160 572q-2 -35 18.5 -64t54.5 -50t75 -40.5l82 -40.5t74.5 -46t54 -62t18.5 -82q-7 -194 -258 -194q-95 0 -239 46v179h9q37 -116 87 -163t134 -47q125 0 147 80q12 44 -1 79.5t-44 59.5t-71 45.5l-83 43t-79 46.5t-60 62.5t-25 83.5q-2 98 57 146.5t179 48.5
q67 0 215 -48v-163h-10q-37 106 -83.5 151t-119.5 45q-58 0 -94 -29t-38 -87zM288 -80q28 0 48 -20.5t20 -48.5q0 -45 -34 -89.5t-67 -65.5l-4 8q20 14 38.5 41t25.5 44q-12 -6 -27 -6q-28 0 -48 20t-20 48q0 29 20 49t48 20z" />
    <glyph glyph-name="scommaaccent" unicode="&#x219;" horiz-adv-x="499" 
d="M158 448q-1 -11 0.5 -21.5t7.5 -20.5t12 -18t18 -17.5l20.5 -16t24.5 -15.5l25 -14l27.5 -15l27.5 -15q85 -45 115 -83.5t19 -101.5q-22 -117 -203 -117q-72 0 -217 39v158h10q30 -60 57 -98.5t51.5 -56.5t42.5 -24t41 -8q100 -8 111 66q3 23 -4 42.5t-28.5 37t-38 27.5
t-50.5 28t-48 26q-66 37 -97 78.5t-24 100.5q17 131 195 131q49 0 188 -38v-142h-10q-53 105 -91 137t-92 32q-33 0 -59 -19.5t-31 -61.5zM247 -80q28 0 48 -20.5t20 -48.5q0 -45 -34 -89.5t-67 -65.5l-4 8q20 14 38.5 41t25.5 44q-12 -6 -27 -6q-28 0 -48 20t-20 48
q0 29 20 49t48 20z" />
    <glyph glyph-name="circumflex" unicode="&#x2c6;" horiz-adv-x="438" 
d="M254 720l139 -147l-7 -7l-167 76l-167 -76l-7 7l140 147h69z" />
    <glyph glyph-name="caron" unicode="&#x2c7;" horiz-adv-x="437" 
d="M386 720l6 -7l-139 -147h-69l-139 147l6 7l167 -77z" />
    <glyph glyph-name="breve" unicode="&#x2d8;" horiz-adv-x="368" 
d="M314 720h9q0 -74 -36.5 -114.5t-102.5 -40.5t-102.5 40.5t-36.5 114.5h9q10 -38 46 -62.5t84 -24.5t84 24.5t46 62.5z" />
    <glyph glyph-name="dotaccent" unicode="&#x2d9;" horiz-adv-x="206" 
d="M103 700q24 0 41 -17t17 -41t-17 -41t-41 -17t-41 17t-17 41t17 41t41 17z" />
    <glyph glyph-name="ring" unicode="&#x2da;" horiz-adv-x="286" 
d="M143 544q-41 0 -69.5 29t-28.5 69t28.5 69t69.5 29t69.5 -29t28.5 -69t-28.5 -69t-69.5 -29zM143 715q-30 0 -51.5 -21.5t-21.5 -51.5t21.5 -51.5t51.5 -21.5t51.5 21.5t21.5 51.5t-21.5 51.5t-51.5 21.5z" />
    <glyph glyph-name="ogonek" unicode="&#x2db;" horiz-adv-x="328" 
d="M278 -167l5 -5q-28 -44 -75.5 -64.5t-89.5 -13t-60 36.5q-29 47 6 116.5t84 104.5h7q-61 -119 -23 -167q22 -28 65.5 -29t80.5 21z" />
    <glyph glyph-name="tilde" unicode="&#x2dc;" horiz-adv-x="383" 
d="M249 590q-13 1 -28 6t-24 9.5t-26.5 14.5l-24.5 14q-39 17 -63.5 5t-31.5 -42h-6q3 67 27 94.5t69 22.5q25 -3 65.5 -27t51.5 -28q29 -10 48 1t25 37h7q-3 -110 -89 -107z" />
    <glyph glyph-name="hungarumlaut" unicode="&#x2dd;" horiz-adv-x="447" 
d="M132 678q53 53 77 28q25 -25 -28 -78q-21 -21 -53 -42.5t-54 -33.5l-22 -11l-7 7q40 83 87 130zM393 706q24 -24 -28 -78q-21 -21 -53.5 -42.5t-54.5 -33.5l-22 -11l-6 7q39 83 86 130q54 52 78 28z" />
    <glyph glyph-name="Wgrave" unicode="&#x1e80;" horiz-adv-x="1119" 
d="M869 700h234v-14q-44 -12 -71.5 -46t-56.5 -118l-178 -522h-39l-205 546l-173 -546h-39l-259 686h-61v14h264v-14h-60l189 -529l173 543h46l200 -555q129 378 130 378q48 148 -94 163v14zM584 878q21 -21 42.5 -53.5t33.5 -54.5l11 -22l-7 -7q-82 40 -129 87
q-53 53 -28 78q24 25 77 -28z" />
    <glyph glyph-name="wgrave" unicode="&#x1e81;" horiz-adv-x="950" 
d="M725 527h200v-13q-37 -14 -58 -43.5t-50 -103.5l-143 -367h-40l-169 396l-136 -396h-40l-217 514h-62v13h268v-13h-67l149 -382l137 395h45l163 -412l90 229q60 156 -70 170v13zM482 728q21 -21 42.5 -53.5t33.5 -54.5l11 -22l-7 -7q-82 40 -129 87q-53 53 -28 78
q24 25 77 -28z" />
    <glyph glyph-name="Wacute" unicode="&#x1e82;" horiz-adv-x="1119" 
d="M869 700h234v-14q-44 -12 -71.5 -46t-56.5 -118l-178 -522h-39l-205 546l-173 -546h-39l-259 686h-61v14h264v-14h-60l189 -529l173 543h46l200 -555q129 378 130 378q48 148 -94 163v14zM733 906q24 -25 -29 -78q-21 -21 -53 -42.5t-54 -33.5l-22 -11l-7 7q40 83 87 130
q53 53 78 28z" />
    <glyph glyph-name="wacute" unicode="&#x1e83;" horiz-adv-x="950" 
d="M725 527h200v-13q-37 -14 -58 -43.5t-50 -103.5l-143 -367h-40l-169 396l-136 -396h-40l-217 514h-62v13h268v-13h-67l149 -382l137 395h45l163 -412l90 229q60 156 -70 170v13zM631 756q24 -25 -29 -78q-21 -21 -53 -42.5t-54 -33.5l-22 -11l-7 7q40 83 87 130
q53 53 78 28z" />
    <glyph glyph-name="Wdieresis" unicode="&#x1e84;" horiz-adv-x="1119" 
d="M869 700h234v-14q-44 -12 -71.5 -46t-56.5 -118l-178 -522h-39l-205 546l-173 -546h-39l-259 686h-61v14h264v-14h-60l189 -529l173 543h46l200 -555q129 378 130 378q48 148 -94 163v14zM536 900q24 0 41 -17t17 -41t-17 -41t-41 -17t-41 17t-17 41t17 41t41 17z
M703 900q23 0 40 -17t17 -41t-17 -41t-40 -17q-24 0 -41 17t-17 41t17 41t41 17z" />
    <glyph glyph-name="wdieresis" unicode="&#x1e85;" horiz-adv-x="950" 
d="M725 527h200v-13q-37 -14 -58 -43.5t-50 -103.5l-143 -367h-40l-169 396l-136 -396h-40l-217 514h-62v13h268v-13h-67l149 -382l137 395h45l163 -412l90 229q60 156 -70 170v13zM434 750q24 0 41 -17t17 -41t-17 -41t-41 -17t-41 17t-17 41t17 41t41 17zM601 750
q23 0 40 -17t17 -41t-17 -41t-40 -17q-24 0 -41 17t-17 41t17 41t41 17z" />
    <glyph glyph-name="Ygrave" unicode="&#x1ef2;" horiz-adv-x="733" 
d="M495 700h228v-13q-42 -13 -68 -36.5t-65 -90.5l-152 -264v-283h65v-13h-260v13h64v260l-234 414h-63v13h276v-13h-65l207 -381l137 235q78 134 -70 146v13zM361 878q21 -21 42.5 -53.5t32.5 -54.5l12 -22l-7 -7q-82 40 -129 87q-53 53 -28 78q24 25 77 -28z" />
    <glyph glyph-name="ygrave" unicode="&#x1ef3;" horiz-adv-x="680" 
d="M453 527h202v-13q-38 -11 -61 -43.5t-61 -116.5l-153 -348l-136 -272l-103 99v13l204 110l-272 558h-63v13h267v-13h-67l195 -422q110 251 111 252q34 80 17 123.5t-80 46.5v13zM327 728q21 -21 42.5 -53.5t32.5 -54.5l12 -22l-7 -7q-82 40 -129 87q-53 53 -28 78
q24 25 77 -28z" />
    <glyph glyph-name="endash" unicode="&#x2013;" horiz-adv-x="485" 
d="M45 350h395v-41h-395v41z" />
    <glyph glyph-name="emdash" unicode="&#x2014;" horiz-adv-x="527" 
d="M45 350h437v-41h-437v41z" />
    <glyph glyph-name="quoteleft" unicode="&#x2018;" horiz-adv-x="226" 
d="M113 682q29 0 48.5 -20t19.5 -48t-20 -48t-48 -20t-48 20t-20 48q0 45 34 90t67 65l4 -7q-20 -15 -39 -41.5t-26 -44.5q14 6 28 6z" />
    <glyph glyph-name="quoteright" unicode="&#x2019;" horiz-adv-x="227" 
d="M114 704q28 0 48 -20.5t20 -48.5q0 -45 -34 -89.5t-67 -65.5l-5 8q20 14 39.5 41t25.5 44q-12 -6 -27 -6q-28 0 -48.5 20t-20.5 48q0 29 20.5 49t48.5 20z" />
    <glyph glyph-name="quotesinglbase" unicode="&#x201a;" horiz-adv-x="226" 
d="M113 129q29 0 48.5 -19.5t19.5 -48.5q0 -45 -34 -89.5t-67 -65.5l-4 8q19 14 38 40.5t27 44.5q-14 -6 -28 -6q-28 0 -48 20t-20 48q0 29 19.5 48.5t48.5 19.5z" />
    <glyph glyph-name="quotedblleft" unicode="&#x201c;" horiz-adv-x="416" 
d="M303 682q28 0 48 -20t20 -48t-20 -48t-48 -20t-48.5 20t-20.5 48q0 45 34.5 90t67.5 65l4 -7q-20 -15 -39.5 -42t-25.5 -44q12 6 28 6zM113 682q29 0 48.5 -20t19.5 -48t-20 -48t-48 -20t-48 20t-20 48q0 45 34 90t67 65l4 -7q-20 -15 -39 -41.5t-26 -44.5q14 6 28 6z
" />
    <glyph glyph-name="quotedblright" unicode="&#x201d;" horiz-adv-x="416" 
d="M114 704q28 0 48 -20.5t20 -48.5q0 -45 -34 -89.5t-67 -65.5l-4 8q19 14 38.5 41.5t25.5 43.5q-12 -6 -27 -6q-28 0 -48.5 20t-20.5 48q0 29 20.5 49t48.5 20zM303 704q28 0 48 -20t20 -49q0 -45 -34 -89.5t-67 -65.5l-4 8q19 14 38 40.5t27 44.5q-14 -6 -28 -6
q-28 0 -48 20t-20 48q0 29 20 49t48 20z" />
    <glyph glyph-name="quotedblbase" unicode="&#x201e;" horiz-adv-x="416" 
d="M113 129q29 0 48.5 -19.5t19.5 -48.5q0 -45 -34 -89.5t-67 -65.5l-4 8q20 14 39.5 41t25.5 44q-14 -6 -28 -6q-28 0 -48 20t-20 48t20 48t48 20zM303 129q28 0 48 -20t20 -48q0 -45 -34 -89.5t-67 -65.5l-4 8q20 14 38.5 41t25.5 44q-12 -6 -27 -6q-28 0 -48 20t-20 48
q0 29 19.5 48.5t48.5 19.5z" />
    <glyph glyph-name="dagger" unicode="&#x2020;" horiz-adv-x="398" 
d="M338 515h15v-64h-15l-138 31l31 -216l-29 -143h-6l-29 143l30 216l-137 -31h-15v64h15l137 -30l-30 138v14h64v-14l-31 -138z" />
    <glyph glyph-name="daggerdbl" unicode="&#x2021;" horiz-adv-x="398" 
d="M338 524h15v-65h-15l-136 31l29 -151l-29 -151l136 30h15v-64h-15l-135 30l28 -129v-14h-64v14l29 129l-136 -30h-15v64h15l136 -30l-29 151l29 151l-136 -31h-15v65h15l136 -31l-29 130v14h64v-14l-28 -130z" />
    <glyph glyph-name="bullet" unicode="&#x2022;" horiz-adv-x="227" 
d="M113 514q29 0 49 -20t20 -48t-20.5 -48t-48.5 -20t-48 20t-20 48t20 48t48 20z" />
    <glyph glyph-name="ellipsis" unicode="&#x2026;" horiz-adv-x="701" 
d="M113 129q29 0 49 -20t20 -48t-20.5 -48t-48.5 -20t-48 20t-20 48t20 48t48 20zM350 129q29 0 49 -20t20 -48t-20.5 -48t-48.5 -20t-48 20t-20 48t20 48t48 20zM587 129q29 0 49 -20t20 -48t-20.5 -48t-48.5 -20t-48 20t-20 48t20 48t48 20z" />
    <glyph glyph-name="perthousand" unicode="&#x2030;" horiz-adv-x="1269" 
d="M400 532q0 -76 -49 -124.5t-128 -48.5q-80 0 -129 48.5t-49 124.5t49 124t129 48q79 0 128 -48t49 -124zM150 532q0 -76 20 -118.5t53 -42.5t52.5 42.5t19.5 118.5t-19.5 118.5t-52.5 42.5t-53 -42.5t-20 -118.5zM637 339q80 0 128.5 -48.5t48.5 -124.5t-48.5 -124
t-128.5 -48t-129 48t-49 124t49 124.5t129 48.5zM637 5q33 0 52.5 42.5t19.5 118.5q0 77 -19.5 119.5t-52.5 42.5t-52.5 -42.5t-19.5 -119.5q0 -76 19.5 -118.5t52.5 -42.5zM683 701h22l-536 -700h-22zM1047 339q80 0 128.5 -48.5t48.5 -124.5t-48.5 -124t-128.5 -48
t-129 48t-49 124t49 124.5t129 48.5zM1047 5q33 0 52.5 42.5t19.5 118.5q0 77 -19.5 119.5t-52.5 42.5t-52.5 -42.5t-19.5 -119.5q0 -76 19.5 -118.5t52.5 -42.5z" />
    <glyph glyph-name="guilsinglleft" unicode="&#x2039;" horiz-adv-x="260" 
d="M215 470l-87 -146l87 -147l-7 -6l-173 146v13l173 146z" />
    <glyph glyph-name="guilsinglright" unicode="&#x203a;" horiz-adv-x="260" 
d="M51 476l174 -146v-13l-174 -146l-6 6l86 147l-86 146z" />
    <glyph glyph-name="fraction" unicode="&#x2044;" horiz-adv-x="378" 
d="M293 700h40l-247 -778h-41z" />
    <glyph glyph-name="Euro" unicode="&#x20ac;" horiz-adv-x="831" 
d="M775 154l11 -9q-92 -152 -288 -152q-137 0 -244.5 76.5t-130.5 211.5h-98l9 22h86q-3 21 -3 45q0 25 3 49h-95l9 22h89q25 136 134 210t244 74q108 0 266 -60v-221h-13q-43 145 -99.5 205t-130.5 60q-98 0 -174.5 -70.5t-88.5 -197.5h374l-8 -22h-367q-1 -24 0 -49
q1 -18 5 -45h337l-8 -22h-324q26 -107 107.5 -164.5t186.5 -57.5q135 0 211 95z" />
    <glyph glyph-name="Ruble" unicode="&#x20bd;" horiz-adv-x="684" 
d="M373 256h-133v-71h236v-21h-236v-151h98v-13h-293v13h64v151h-64v21h64v71h-64v13h64v418h-64v13h328q271 0 271 -222q0 -114 -71.5 -168t-199.5 -54zM240 679v-410h98q83 0 130.5 52.5t47.5 156.5q0 101 -47.5 151t-130.5 50h-98z" />
    <glyph glyph-name="Bitcoin" unicode="&#x20bf;" horiz-adv-x="742" 
d="M702 189q0 -43 -14 -75.5t-37 -53t-58.5 -34t-74 -19.5t-86.5 -7v-82h-21v82h-5h-75v-82h-21v82h-257v13h65v674h-73v13h265v83h21v-83h17q43 0 63 -2v85h21v-86q101 -10 156.5 -49t55.5 -121q0 -71 -61 -111.5t-146 -41.5v-3q120 5 192.5 -42t72.5 -140zM249 679v-306
h89q36 0 63.5 6.5t53 22t39.5 47.5t14 78q0 47 -14 78.5t-39.5 46.5t-53 21t-63.5 6h-89zM387 22q37 0 65.5 6t56 22.5t42.5 51.5t15 87q0 171 -187 171h-130v-338h138z" />
    <glyph glyph-name="afii61352" unicode="&#x2116;" horiz-adv-x="1309" 
d="M566 687v13h266v-13q-61 -12 -91.5 -64.5t-30.5 -133.5v-489h-60l-475 583v-372q0 -79 34 -132.5t96 -65.5v-13h-265v13q61 12 91.5 64.5t30.5 133.5v388l-72 88h-49v13h215l441 -540v329q0 79 -34.5 132.5t-96.5 65.5zM841 301h423v-22h-423v22zM1053 358
q-80 0 -129 48.5t-49 124.5t49 124t129 48q79 0 128 -48t49 -124t-49 -124.5t-128 -48.5zM1053 692q-33 0 -52.5 -42.5t-19.5 -118.5t19.5 -118.5t52.5 -42.5t52.5 42.5t19.5 118.5t-19.5 118.5t-52.5 42.5z" />
    <glyph glyph-name="minus" unicode="&#x2212;" horiz-adv-x="443" 
d="M45 350h353v-41h-353v41z" />
    <glyph glyph-name="approxequal" unicode="&#x2248;" horiz-adv-x="484" 
d="M196 425q-49 23 -79 6.5t-39 -56.5h-9q4 91 34.5 128t86.5 30q32 -4 83.5 -36.5t65.5 -37.5q36 -14 59.5 1t32.5 50h8q-2 -71 -30 -109t-82 -35q-17 1 -35.5 7t-30 12.5t-33.5 20zM314 261q36 -14 60 1.5t32 49.5h9q-2 -71 -30 -109t-82 -35q-17 1 -36 7.5t-30 12.5
t-33.5 20t-31.5 19q-49 23 -79.5 6.5t-39.5 -56.5h-8q4 91 34.5 128t86.5 30q32 -4 83.5 -36.5t64.5 -37.5z" />
    <glyph glyph-name="notequal" unicode="&#x2260;" horiz-adv-x="444" 
d="M399 369h-136l-62 -79h198v-41h-229l-75 -97l-12 10l67 87h-105v41h137l61 79h-198v41h230l75 97l12 -10l-68 -87h105v-41z" />
    <glyph glyph-name="lessequal" unicode="&#x2264;" horiz-adv-x="439" 
d="M40 167v40h354v-40h-354zM394 579v-41l-305 -113l305 -114v-40l-354 132v44z" />
    <glyph glyph-name="greaterequal" unicode="&#x2265;" horiz-adv-x="439" 
d="M45 167v40h354v-40h-354zM45 579l354 -132v-44l-354 -132v40l304 114l-304 113v41z" />
    <glyph glyph-name="commaaccent" unicode="&#xf6c3;" horiz-adv-x="226" 
d="M113 -80q28 0 48 -20.5t20 -48.5q0 -45 -34 -89.5t-67 -65.5l-4 8q20 14 38.5 41t25.5 44q-12 -6 -27 -6q-28 0 -48 20t-20 48q0 29 20 49t48 20z" />
    </font>
</defs>
</svg>
