<svg xmlns="http://www.w3.org/2000/svg"><symbol id="add" viewBox="0 0 42 42"><path d="M42 19H23V0h-4v19H0v4h19v19h4V23h19z"/></symbol><symbol id="back" viewBox="0 0 477.175 477.175"><path d="M145.188 238.575l215.5-215.5c5.3-5.3 5.3-13.8 0-19.1s-13.8-5.3-19.1 0l-225.1 225.1c-5.3 5.3-5.3 13.8 0 19.1l225.1 225c2.6 2.6 6.1 4 9.5 4s6.9-1.3 9.5-4c5.3-5.3 5.3-13.8 0-19.1l-215.4-215.5z"/></symbol><symbol id="bar" viewBox="0 -24 512.001 512"><path d="M504.426 142.39H436.89l3.386-42.316a7.575 7.575 0 0 0-7.55-8.176h-48.473a7.583 7.583 0 0 0-5.566 2.434 7.582 7.582 0 0 0-1.985 5.742l3.387 42.317h-17.55V72.676c0-11.961-4.43-23.418-12.474-32.27l-7.722-8.492V7.574A7.574 7.574 0 0 0 334.77 0a7.574 7.574 0 0 0-7.575 7.574v24.34l-7.722 8.492a47.887 47.887 0 0 0-12.477 32.27v69.715H166.86c2.274-1.309 3.809-3.754 3.809-6.563a7.574 7.574 0 0 0-7.574-7.574h-12.625v-20.066l38.734-48.418a7.57 7.57 0 0 0 .914-8.012 7.577 7.577 0 0 0-6.828-4.293H102.5a7.577 7.577 0 0 0-5.914 12.305l38.734 48.417v20.063H122.7a7.572 7.572 0 1 0-3.77 14.14H7.574A7.574 7.574 0 0 0 0 149.966v38.375a7.574 7.574 0 0 0 7.574 7.574h8.582v160.754a7.576 7.576 0 0 0 7.574 7.574 7.574 7.574 0 0 0 7.575-7.574V195.914h63.62c4.184 0 7.575-3.39 7.575-7.574s-3.39-7.574-7.574-7.574H15.148v-23.227h481.704v23.227H130.305c-4.184 0-7.575 3.39-7.575 7.574s3.391 7.574 7.575 7.574h350.39v19.356a7.574 7.574 0 0 0 7.575 7.574 7.574 7.574 0 0 0 7.574-7.574v-19.356h8.582A7.574 7.574 0 0 0 512 188.34v-38.375a7.574 7.574 0 0 0-7.574-7.574zM167.53 62.614l-24.636 30.793-24.633-30.793zm154.614 79.778V72.676a32.773 32.773 0 0 1 8.535-22.078l4.09-4.5 4.085 4.5a32.758 32.758 0 0 1 8.54 22.078v69.715zm73.14 0l-2.828-35.344h32.066l-2.828 35.344zm0 0"/><path d="M488.27 242.871a7.574 7.574 0 0 0-7.575 7.574v198.942H439.29v-11.61a7.568 7.568 0 0 0-5.394-7.254l-45.098-13.53v-67.579h32.82c4.184 0 7.574-3.39 7.574-7.574s-3.39-7.574-7.574-7.574h-32.82v-61.602h53.02c4.18 0 7.574-3.39 7.574-7.574v-34.336a7.576 7.576 0 0 0-7.575-7.574H320.633a7.574 7.574 0 0 0-7.574 7.574v34.336a7.574 7.574 0 0 0 7.574 7.574h53.015v61.602h-32.82c-4.183 0-7.574 3.39-7.574 7.574s3.39 7.574 7.574 7.574h32.82v67.578l-45.093 13.531a7.572 7.572 0 0 0-5.399 7.254v11.61H188.844v-11.61a7.572 7.572 0 0 0-5.399-7.254l-45.093-13.53v-67.579h32.82c4.183 0 7.574-3.39 7.574-7.574s-3.39-7.574-7.574-7.574h-32.82v-61.602h53.015a7.574 7.574 0 0 0 7.574-7.574v-34.336a7.574 7.574 0 0 0-7.574-7.574H70.184a7.576 7.576 0 0 0-7.575 7.574v34.336a7.576 7.576 0 0 0 7.575 7.574h53.02v61.602H90.382c-4.184 0-7.574 3.39-7.574 7.574s3.39 7.574 7.574 7.574h32.82v67.578L78.11 430.523a7.572 7.572 0 0 0-5.398 7.254v11.61H31.305v-57.528a7.574 7.574 0 0 0-7.575-7.574 7.576 7.576 0 0 0-7.574 7.574v65.106a7.576 7.576 0 0 0 7.574 7.574h464.54c4.18 0 7.574-3.39 7.574-7.574v-206.52a7.574 7.574 0 0 0-7.574-7.574zm-160.067-4.543h106.035v19.188H328.203zm-250.445 0h106.039v19.188H77.757zm10.101 211.059v-5.977l42.918-12.875 42.918 12.875v5.977zm250.446 0v-5.977l42.918-12.875 42.918 12.875v5.977zm0 0"/></symbol><symbol id="bathroom" viewBox="0 0 480 480"><path d="M472 256H328v-24a8 8 0 0 0-8-8h-32a8 8 0 0 0-8 8v24h-16v-64h16v8a8 8 0 0 0 8 8h32a8 8 0 0 0 8-8v-24c0-17.672-14.328-32-32-32h-48c-17.672 0-32 14.328-32 32v80h-16v-24a8 8 0 0 0-8-8h-32a8 8 0 0 0-8 8v24H8a8 8 0 0 0-8 8v32a8 8 0 0 0 8 8h25.887l22.351 81.945a62.646 62.646 0 0 0 45.09 44.797L90.238 464H0v16h168v-16h-28.902l10.664-32h180.476l10.664 32H216v16h264v-16h-90.238l-11.09-33.273a62.55 62.55 0 0 0 45.047-44.622L446.113 304H472a8 8 0 0 0 8-8v-32a8 8 0 0 0-8-8zm-176-16h16v16h-16zm-64-64c0-8.836 7.164-16 16-16h48c8.836 0 16 7.164 16 16v16h-16v-8a8 8 0 0 0-8-8h-32a8 8 0 0 0-8 8v72h-16zm-56 96h32v64h-32zm-8-32h16v16h-16zm-8 32v80H96v-80zm-144 0h64v16H16zm106.23 192h-15.125l10.665-32h15.125zm235.54 0l-10.665-32h15.125l10.665 32zm50.468-81.945C403.496 400.828 387.305 414.488 368 416H112c-19.36-1.531-35.574-15.262-40.281-34.105L50.48 304H80v56a8 8 0 0 0 8 8h80a8 8 0 0 0 8-8v-8h40a8 8 0 0 0 8-8v-40h205.52zM464 288H224v-16h240zm0 0"/><path d="M184 464h16v16h-16zm0 0M383.2 395.574l16-32-14.321-7.148L371.055 384H344v16h32a7.997 7.997 0 0 0 7.2-4.426zm0 0M312 384h16v16h-16zm0 0M16 160v16h160v-16h-16V16h16V0H16v16h16v144zm88 0V64h40v96zm40-112h-40V16h40zM88 16v32H48V16zM48 64h40v96H48zm0 0M424 64c30.91-.04 55.96-25.09 56-56a8 8 0 0 0-8-8h-16a56.002 56.002 0 0 0-48 27.305A56.002 56.002 0 0 0 360 0h-16a8 8 0 0 0-8 8c.04 30.91 25.09 55.96 56 56h8v16h-16a7.998 7.998 0 0 0-7.887 9.313L382.56 128H352v16h128v-16h-46.559l6.446-38.688A7.994 7.994 0 0 0 432 80h-16V64zm32-48h7.2C459.374 34.613 443 47.98 424 48h-7.2c3.825-18.613 20.2-31.98 39.2-32zm-64 32c-19-.02-35.375-13.387-39.2-32h7.2c19 .02 35.375 13.387 39.2 32zm25.223 80h-18.446l-5.328-32h29.102zm0 0M400 160h80v16h-80zm0 0"/></symbol><symbol id="call-answer" viewBox="0 0 348.077 348.077"><path d="M340.273 275.083l-53.755-53.761c-10.707-10.664-28.438-10.34-39.518.744l-27.082 27.076a792.327 792.327 0 0 1-5.344-2.973c-17.102-9.476-40.509-22.464-65.14-47.113-24.704-24.701-37.704-48.144-47.209-65.257-1.003-1.813-1.964-3.561-2.913-5.221l18.176-18.149 8.936-8.947c11.097-11.1 11.403-28.826.721-39.521L73.39 8.194c-10.682-10.68-28.421-10.356-39.518.744l-15.15 15.237.414.411c-5.08 6.482-9.325 13.958-12.484 22.02C3.74 54.28 1.927 61.603 1.098 68.941-6 127.785 20.89 181.564 93.866 254.541c100.875 100.868 182.167 93.248 185.674 92.876 7.638-.913 14.958-2.738 22.397-5.627 7.992-3.122 15.463-7.361 21.941-12.43l.331.294 15.348-15.029c11.074-11.098 11.393-28.83.716-39.542z"/></symbol><symbol id="close" viewBox="0 0 512 512"><path d="M505.943 6.058c-8.077-8.077-21.172-8.077-29.249 0L6.058 476.693c-8.077 8.077-8.077 21.172 0 29.249A20.612 20.612 0 0 0 20.683 512a20.614 20.614 0 0 0 14.625-6.059L505.943 35.306c8.076-8.076 8.076-21.171 0-29.248z"/><path d="M505.942 476.694L35.306 6.059c-8.076-8.077-21.172-8.077-29.248 0-8.077 8.076-8.077 21.171 0 29.248l470.636 470.636a20.616 20.616 0 0 0 14.625 6.058 20.615 20.615 0 0 0 14.624-6.057c8.075-8.078 8.075-21.173-.001-29.25z"/></symbol><symbol id="computer" viewBox="0 0 512 512.001"><path d="M348.07 305.219h19.239a7.485 7.485 0 0 0 0-14.969H348.07a7.483 7.483 0 0 0-7.484 7.484 7.48 7.48 0 0 0 7.484 7.485zm0 0M367.309 372.805H348.07a7.483 7.483 0 0 0-7.484 7.484 7.484 7.484 0 0 0 7.484 7.488h19.239a7.486 7.486 0 0 0 7.484-7.488 7.483 7.483 0 0 0-7.484-7.484zm0 0M367.309 455.363H348.07a7.483 7.483 0 0 0-7.484 7.485 7.483 7.483 0 0 0 7.484 7.484h19.239a7.485 7.485 0 0 0 0-14.969zm0 0"/><path d="M499.078 214.29h-37.945V83.577c0-5.683-4.621-10.305-10.301-10.305h-29.2v-3.39c0-5.68-4.62-10.301-10.3-10.301H374.34c-5.68 0-10.3 4.621-10.3 10.3v32.192h-29.087c-5.68 0-10.3 4.621-10.3 10.305v101.91H211.233v-20.785h60.196c14.398 0 26.113-11.715 26.113-26.113V26.109C297.543 11.715 285.828 0 271.43 0h-25.75a7.485 7.485 0 0 0 0 14.969h25.75c6.144 0 11.144 5 11.144 11.14v107.899H75.121V26.109c0-6.14 5-11.14 11.14-11.14h124.606a7.485 7.485 0 0 0 0-14.969H86.262c-14.395 0-26.11 11.715-26.11 26.11v141.285c0 14.394 11.715 26.109 26.11 26.109h58.504v20.785H12.473C5.593 214.29 0 219.887 0 226.766v25.015c0 6.88 5.598 12.477 12.473 12.477h17.152v240.258A7.485 7.485 0 0 0 37.109 512h32.703a7.485 7.485 0 0 0 7.485-7.484v-69.059a7.485 7.485 0 0 0-14.969 0v61.574H44.594V264.254h17.73v136.523a7.485 7.485 0 0 0 7.485 7.485 7.484 7.484 0 0 0 7.488-7.485V264.254h181.379v74.445c0 .106.011.207.015.313-.004.105-.015.207-.015.312v81.93c0 .105.011.207.015.312-.004.106-.015.207-.015.313v81.93a7.485 7.485 0 0 0 7.484 7.484l208.285.707a7.485 7.485 0 0 0 7.485-7.484V264.254h17.148c6.879 0 12.477-5.594 12.477-12.473v-25.02c-.004-6.874-5.598-12.472-12.477-12.472zM75.121 167.394v-18.418h207.45v18.418c0 6.144-4.997 11.14-11.141 11.14H86.262c-6.14 0-11.14-5-11.14-11.14zm84.613 46.351v-20.059h36.532v20.06zm179.887-45.191h24.418v45.191h-24.418zm0-23.551h24.418v8.582h-24.418zm82.012 8.035h24.531v60.707h-24.531zm24.531-14.969h-24.531v-14.656h24.531zm0-49.828v20.203h-24.531V88.242zm-39.5-13.691v139.195h-27.543V109.56c0-.426-.047-.84-.113-1.246V74.55zm-42.625 42.496v12.988h-24.418v-12.988zm-90.39 229.766h160.609v66.957h-160.61zm160.609-15.598h-160.61v-66.961h160.61zm-160.61 98.152h160.61v66.957h-160.61zm193.313 67.664h-17.734V264.254h17.734zm29.621-247.746H14.969v-20.027h481.613zm0 0"/></symbol><symbol id="construction-and-tools" viewBox="0 -40 511.998 511"><path d="M217.371 48.61l-1.402-.012h-.059c-32.25.004-62.5 12.64-85.168 35.586-22.664 22.941-34.93 53.355-34.539 85.64.793 65.192 56.348 118.227 123.836 118.227h84.059c17.394 0 31.547-14.153 31.547-31.551v-8.016a7.5 7.5 0 1 0-15 0v8.016c0 9.125-7.422 16.55-16.547 16.55h-84.059c-59.32 0-108.144-46.39-108.836-103.41-.344-28.242 10.387-54.847 30.207-74.913 19.828-20.07 46.278-31.122 74.488-31.13l1.336.008c57.024.692 103.41 49.52 103.41 108.84v43.977a7.5 7.5 0 1 0 15 0v-43.977c0-67.492-53.035-123.047-118.273-123.836zm0 0"/><path d="M280.047 208.922c-12.977 0-23.531 10.555-23.531 23.531s10.558 23.531 23.53 23.531c12.977 0 23.532-10.554 23.532-23.53s-10.555-23.532-23.531-23.532zm0 32.062c-4.703 0-8.531-3.828-8.531-8.53s3.828-8.532 8.53-8.532c4.708 0 8.532 3.828 8.532 8.531s-3.824 8.531-8.531 8.531zm0 0"/><path d="M303.582 172.445c0-50.027-38.828-91.195-86.602-91.777l-1.09-.004h-.062c-23.582.023-45.7 9.277-62.277 26.055-16.594 16.797-25.574 39.066-25.285 62.715.578 47.722 41.75 86.55 91.773 86.55h11.914c4.14 0 7.5-3.359 7.5-7.5s-3.36-7.5-7.5-7.5H220.04c-41.852 0-76.297-32.18-76.773-71.734-.243-19.605 7.203-38.066 20.957-51.992 13.734-13.899 32.058-21.57 51.597-21.594l1.028.004c39.554.48 71.73 34.922 71.73 76.777v11.91a7.5 7.5 0 0 0 7.5 7.5c4.145 0 7.5-3.355 7.5-7.5v-11.91zm0 0"/><path d="M496.484 289.082H383.742V172.445a174.39 174.39 0 0 0-6.16-46.015l7.27-2.239a23.725 23.725 0 0 0 14.476-12.605c2.793-5.973 2.942-12.856.41-18.89a205.697 205.697 0 0 0-31.14-51.466c-4.153-5.02-10.29-8.074-16.844-8.386a23.727 23.727 0 0 0-17.867 6.906l-5.446 5.441C299.105 17.902 260.391 1.027 218 .511c-45.61-.554-88.508 16.9-120.75 49.141-32.242 32.246-49.695 75.13-49.14 120.754.437 36.047 12.71 69.442 33.156 96.672-8.399 3.442-14.739 10.91-16.586 19.996H39.562C17.75 287.078 0 304.828 0 326.644v10.02c0 35.074 28.535 63.613 63.613 63.613h116.352c6.558 0 12.73 2.555 17.37 7.192l17.974 17.976c4.445 4.446 10.355 6.895 16.644 6.895s12.2-2.45 16.637-6.89c4.445-4.446 6.894-10.352 6.894-16.641 0-6.286-2.449-12.196-6.894-16.637l-17.977-17.977c-13.527-13.53-31.511-20.984-50.648-20.984H87.656a7.5 7.5 0 1 0 0 15h92.309c15.129 0 29.347 5.894 40.043 16.59l17.976 17.976a8.471 8.471 0 0 1 2.5 6.032 8.461 8.461 0 0 1-2.504 6.035 8.468 8.468 0 0 1-6.027 2.496 8.458 8.458 0 0 1-6.031-2.5l-17.98-17.98c-7.477-7.47-17.415-11.583-27.977-11.583H63.613c-16.414 0-30.941-8.187-39.75-20.68a40.328 40.328 0 0 0 16.703 3.614h15.036a7.5 7.5 0 1 0 0-15H40.566C26.47 353.21 15 341.742 15 327.645c0-14.098 11.469-25.567 25.566-25.567H65.82c3.88 10.52 14 18.035 25.848 18.035h55.312c22.22 10.274 46.997 16.035 73.06 16.035H352.19c17.399 0 31.547-14.152 31.547-31.55v-.516h81.196v32.582c0 8.555 6.96 15.516 15.515 15.516h16.031c8.56 0 15.516-6.961 15.516-15.516v-32.066c.004-8.555-6.957-15.516-15.512-15.516zM91.668 305.113c-6.914 0-12.54-5.625-12.54-12.539s5.626-12.543 12.54-12.543h.367a173.075 173.075 0 0 0 28.75 25.082zm277.074-.515c0 9.125-7.422 16.55-16.547 16.55H220.04c-85.52 0-155.922-67.703-156.93-150.921-.504-41.551 15.387-80.602 44.746-109.965C136.765 31.352 175.07 15.5 215.902 15.5c.637 0 1.278.004 1.918.016 83.22 1.007 150.922 71.406 150.922 156.93zm4.254-192.453a173.621 173.621 0 0 0-34.027-56.266l5.523-5.52a8.696 8.696 0 0 1 6.555-2.53c2.375.112 4.504 1.163 5.988 2.96A190.68 190.68 0 0 1 385.906 98.5c.91 2.168.852 4.559-.164 6.73a8.697 8.697 0 0 1-5.305 4.625zM497 336.665c0 .28-.23.515-.516.515h-16.03a.515.515 0 0 1-.517-.516v-32.582h16.547c.286 0 .516.23.516.516zm0 0"/></symbol><symbol id="cross" viewBox="0 0 612 612"><path d="M612 36.004L576.521.603 306 270.608 35.478.603 0 36.004l270.522 270.007L0 575.997l35.478 35.4L306 341.411l270.521 269.986 35.479-35.4-270.541-269.986z"/></symbol><symbol id="diamond" viewBox="0 0 512 512"><path d="M510.362 215.571l-81.99-125.025a10 10 0 0 0-8.361-4.516H92.378c-3.363 0-6.5 1.69-8.35 4.499L1.906 215.181a9.997 9.997 0 0 0 .572 12.46l41.625 47.527c3.639 4.155 9.955 4.573 14.109.935 4.154-3.639 4.572-9.956.934-14.109l-27.097-30.941H166.55L234.137 461.8l-76.375-87.205c-3.638-4.155-9.956-4.573-14.109-.935-4.154 3.639-4.572 9.956-.934 14.109l105.79 120.791a9.993 9.993 0 0 0 15.043-.001l112.63-128.632c3.639-4.155 3.22-10.472-.936-14.109-4.156-3.639-10.473-3.22-14.109.936l-83.21 95.033 67.584-230.735h134.445l-62.183 71.02c-3.639 4.155-3.22 10.472.936 14.109a9.957 9.957 0 0 0 6.583 2.477 9.972 9.972 0 0 0 7.526-3.413l76.706-87.605a9.997 9.997 0 0 0 .838-12.069zm-481.789-4.516l63.785-96.821 63.495 96.821H28.573zm82.319-105.026h126.623l-63.311 96.541-63.312-96.541zm145.138 8.234l63.475 96.792h-126.95l63.475-96.792zm0 351.14l-68.642-234.35h137.284l-68.642 234.35zm81.99-262.582l-63.475-96.792h126.952l-63.477 96.792zm18.515 8.234l63.476-96.792 63.474 96.792h-126.95z"/><path d="M157.189 327.017c-25.793 0-46.778-20.985-46.778-46.778 0-5.522-4.477-9.999-9.999-9.999s-9.999 4.477-9.999 9.999c0 25.793-20.985 46.778-46.778 46.778-5.521 0-9.999 4.477-9.999 9.999s4.478 9.999 9.999 9.999c25.793 0 46.778 20.985 46.778 46.778 0 5.522 4.478 9.999 9.999 9.999s9.999-4.477 9.999-9.999c0-25.793 20.985-46.778 46.778-46.778 5.522 0 9.999-4.477 9.999-9.999s-4.477-9.999-9.999-9.999zm-56.777 31.66a67.301 67.301 0 0 0-21.66-21.661 67.291 67.291 0 0 0 21.66-21.661 67.301 67.301 0 0 0 21.66 21.661 67.301 67.301 0 0 0-21.66 21.661zM502.001 40.023c-16.54 0-29.997-13.457-29.997-29.997 0-5.522-4.478-9.999-9.999-9.999s-9.999 4.477-9.999 9.999c0 16.54-13.457 29.997-29.997 29.997-5.521 0-9.999 4.477-9.999 9.999s4.478 9.999 9.999 9.999c16.54 0 29.997 13.457 29.997 29.997 0 5.522 4.478 9.999 9.999 9.999s9.999-4.477 9.999-9.999c0-16.54 13.457-29.997 29.997-29.997 5.521 0 9.999-4.477 9.999-9.999s-4.478-9.999-9.999-9.999zm-39.996 20.029a50.434 50.434 0 0 0-10.03-10.03 50.434 50.434 0 0 0 10.03-10.03 50.434 50.434 0 0 0 10.03 10.03 50.382 50.382 0 0 0-10.03 10.03zM402.783 335.371a10.028 10.028 0 0 0-7.068-2.93c-2.631 0-5.199 1.06-7.069 2.93-1.86 1.86-2.93 4.44-2.93 7.069s1.069 5.209 2.93 7.069a10.072 10.072 0 0 0 7.069 2.93c2.63 0 5.209-1.07 7.068-2.93 1.86-1.86 2.931-4.44 2.931-7.069s-1.07-5.209-2.931-7.069z"/></symbol><symbol id="door (1)" viewBox="-65 0 511 512"><path d="M370.5 0h-240c-5.523 0-10 4.477-10 10s4.477 10 10 10h230v472h-20v-10.008c0-5.52-4.477-9.996-10-9.996s-10 4.477-10 9.996V492h-260V60h260v341.996c0 5.52 4.477 10 10 10s10-4.48 10-10V50c0-5.523-4.477-10-10-10h-280c-5.523 0-10 4.477-10 10v442h-20V20h30c5.523 0 10-4.477 10-10s-4.477-10-10-10h-40C4.977 0 .5 4.477.5 10v492c0 5.523 4.477 10 10 10h360c5.523 0 10-4.477 10-10V10c0-5.523-4.477-10-10-10zm0 0"/><path d="M250.496 276c0 16.543 13.457 30 30 30s30.004-13.457 30.004-30-13.46-30-30.004-30c-16.543 0-30 13.457-30 30zm40.004 0c0 5.516-4.488 10-10.004 10-5.512 0-10-4.484-10-10s4.488-10 10-10c5.516 0 10.004 4.484 10.004 10zm0 0M140.5 150v292c0 5.52 4.477 10 10 10h80c5.523 0 10-4.48 10-10V150c0-27.57-22.43-50-50-50s-50 22.43-50 50zm20 282V286h60v146zm60-282v116h-60V150c0-16.54 13.457-30 30-30s30 13.46 30 30zm0 0M90.504 20c5.523 0 10-4.477 10-10s-4.477-10-10-10h-.008C84.973 0 80.5 4.477 80.5 10s4.48 10 10.004 10zm0 0M330.5 431.996c-5.523 0-10 4.48-10 10.004 0 5.52 4.477 10 10 10s10-4.48 10-10v-.008c0-5.523-4.477-9.996-10-9.996zm0 0"/></symbol><symbol id="email" viewBox="0 0 512 512"><path d="M502.857 64H9.143A9.142 9.142 0 0 0 0 73.143v365.714A9.142 9.142 0 0 0 9.143 448h493.714a9.143 9.143 0 0 0 9.143-9.143V73.143A9.142 9.142 0 0 0 502.857 64zM162.112 289.664l-128 137.143a9.143 9.143 0 1 1-13.367-12.471l128-137.143a9.143 9.143 0 1 1 13.367 12.471zm328.695 137.591c-3.692 3.442-9.475 3.242-12.919-.448l-128-137.143a9.143 9.143 0 1 1 13.367-12.471l128 137.143c3.442 3.692 3.242 9.475-.448 12.919zm-.357-328.823L279.525 275.611A36.49 36.49 0 0 1 256 284.196a36.491 36.491 0 0 1-23.525-8.585L21.55 98.432a9.144 9.144 0 1 1 11.758-14.007l210.926 177.189a18.285 18.285 0 0 0 23.534 0L478.693 84.425a9.143 9.143 0 0 1 12.882 1.125 9.143 9.143 0 0 1-1.125 12.882z"/></symbol><symbol id="envelope" viewBox="0 0 511.626 511.626"><path d="M49.106 178.729c6.472 4.567 25.981 18.131 58.528 40.685 32.548 22.554 57.482 39.92 74.803 52.099 1.903 1.335 5.946 4.237 12.131 8.71 6.186 4.476 11.326 8.093 15.416 10.852 4.093 2.758 9.041 5.852 14.849 9.277 5.806 3.422 11.279 5.996 16.418 7.7 5.14 1.718 9.898 2.569 14.275 2.569h.575c4.377 0 9.137-.852 14.277-2.569 5.137-1.704 10.615-4.281 16.416-7.7 5.804-3.429 10.752-6.52 14.845-9.277 4.093-2.759 9.229-6.376 15.417-10.852 6.184-4.477 10.232-7.375 12.135-8.71 17.508-12.179 62.051-43.11 133.615-92.79 13.894-9.703 25.502-21.411 34.827-35.116 9.332-13.699 13.993-28.07 13.993-43.105 0-12.564-4.523-23.319-13.565-32.264-9.041-8.947-19.749-13.418-32.117-13.418H45.679c-14.655 0-25.933 4.948-33.832 14.844C3.949 79.562 0 91.934 0 106.779c0 11.991 5.236 24.985 15.703 38.974 10.466 13.99 21.604 24.983 33.403 32.976z"/><path d="M483.072 209.275c-62.424 42.251-109.824 75.087-142.177 98.501-10.849 7.991-19.65 14.229-26.409 18.699-6.759 4.473-15.748 9.041-26.98 13.702-11.228 4.668-21.692 6.995-31.401 6.995h-.578c-9.707 0-20.177-2.327-31.405-6.995-11.228-4.661-20.223-9.229-26.98-13.702-6.755-4.47-15.559-10.708-26.407-18.699-25.697-18.842-72.995-51.68-141.896-98.501C17.987 202.047 8.375 193.762 0 184.437v226.685c0 12.57 4.471 23.319 13.418 32.265 8.945 8.949 19.701 13.422 32.264 13.422h420.266c12.56 0 23.315-4.473 32.261-13.422 8.949-8.949 13.418-19.694 13.418-32.265V184.437c-8.186 9.132-17.7 17.417-28.555 24.838z"/></symbol><symbol id="facebook-letter-logo" viewBox="0 0 430.113 430.114"><path d="M158.081 83.3v59.218h-43.385v72.412h43.385v215.183h89.122V214.936h59.805s5.601-34.721 8.316-72.685H247.54V92.74c0-7.4 9.717-17.354 19.321-17.354h48.557V.001h-66.021C155.878-.004 158.081 72.48 158.081 83.3z"/></symbol><symbol id="facebook-placeholder-for-locate-places-on-maps" viewBox="0 0 430.114 430.114"><path d="M356.208 107.051c-1.531-5.738-4.64-11.852-6.94-17.205C321.746 23.704 261.611 0 213.055 0 148.054 0 76.463 43.586 66.905 133.427v18.355c0 .766.264 7.647.639 11.089 5.358 42.816 39.143 88.32 64.375 131.136 27.146 45.873 55.314 90.999 83.221 136.106 17.208-29.436 34.354-59.259 51.17-87.933 4.583-8.415 9.903-16.825 14.491-24.857 3.058-5.348 8.9-10.696 11.569-15.672 27.145-49.699 70.838-99.782 70.838-149.104v-20.262c.001-5.347-6.627-24.081-7-25.234zm-141.963 92.142c-19.107 0-40.021-9.554-50.344-35.939-1.538-4.2-1.414-12.617-1.414-13.388v-11.852c0-33.636 28.56-48.932 53.406-48.932 30.588 0 54.245 24.472 54.245 55.06 0 30.587-25.305 55.051-55.893 55.051z"/></symbol><symbol id="floor (1)" viewBox="0 -69 512.00052 512"><path d="M485.48 141.418h-47.539c-4.144 0-7.5 3.355-7.5 7.5s3.356 7.5 7.5 7.5h47.54c6.351 0 11.519 5.168 11.519 11.523v18.68h-25.207a7.497 7.497 0 0 0-7.5 7.5 7.5 7.5 0 0 0 7.5 7.5H497v80.41l-39.113 10.492h-156.57a7.497 7.497 0 0 0-7.5 7.5 7.5 7.5 0 0 0 7.5 7.5h156.011L497 324.63v23.27c0 6.355-5.168 11.523-11.52 11.523H123.082c-6.355 0-11.523-5.168-11.523-11.524v-69.187h87.082a7.5 7.5 0 0 0 7.5-7.5c0-4.145-3.356-7.5-7.5-7.5h-87.082v-8.215a7.5 7.5 0 1 0-15 0v92.402c0 14.625 11.898 26.524 26.523 26.524H485.48c14.622 0 26.52-11.899 26.52-26.524v-28.203a7.505 7.505 0 0 0-4.531-6.89l-25.813-11.13 24.79-6.648a7.508 7.508 0 0 0 5.554-7.246v-119.84c0-14.625-11.898-26.523-26.52-26.523zm0 0"/><path d="M415.441 206.484V26.524C415.441 11.897 403.547 0 388.921 0H167.06a7.5 7.5 0 0 0-7.5 7.5c0 4.145 3.355 7.5 7.5 7.5h49.41c6.16 8.344 13.207 19.77 15.965 31.266 2.851 11.886.421 20.992-7.418 27.843-11.23 9.805-27.551 10.02-36.286 9.286-18.976-1.594-38.394-7.016-57.718-16.114-10.504-4.949-20.809-10.629-31.715-16.636-25.285-13.938-51.336-28.29-80.078-33.028a11.485 11.485 0 0 1 7.304-2.613H137.06a7.5 7.5 0 1 0 0-15H26.523C11.898.004 0 11.898 0 26.524v179.96c0 14.625 11.898 26.52 26.523 26.52h362.399c14.621 0 26.52-11.895 26.52-26.52zm-15-179.96v81.574a172.066 172.066 0 0 1-22.601 23.699c-30.098 26.105-69.653 42.652-111.375 46.594-64.293 6.047-131.758-17.938-198.278-13.489-19.09 1.286-37.246 5.055-53.187 11.008v-34.758a348.32 348.32 0 0 1 19.047-3.222c53.144-7.512 106.742-3.82 156.742 1.285l2.45.254c15.265 1.57 31.054 3.191 46.898 1.691 19.582-1.86 36.25-8.5 48.191-19.2 24.04-21.534 26.567-55.792 20.922-80.663-1.926-8.516-4.875-17.195-8.938-26.297h88.61c6.351 0 11.52 5.168 11.52 11.523zm-275.82 54.324c20.945 9.863 42.094 15.75 62.848 17.492 2.527.215 5.011.32 7.453.32 16.055-.004 30.05-4.601 39.96-13.254 18.43-16.101 18.173-41.324-.226-70.406h49.082c5.184 10.488 8.754 20.21 10.883 29.61 5.91 26.035-.488 52.011-16.3 66.175-12.051 10.8-28.188 14.356-39.602 15.442-14.367 1.363-29.403-.188-43.946-1.68l-2.46-.254c-50.942-5.203-105.63-8.95-160.364-1.219-5.672.801-11.344 1.739-16.949 2.797v-93.73c26.95 4.023 52.387 18.043 77.059 31.636 10.628 5.86 21.625 11.922 32.562 17.07zM15 206.484v-14.437c15.746-6.652 34.371-10.848 54.191-12.18 65.516-4.39 131 19.817 198.68 13.457 44.813-4.234 87.36-22.058 119.797-50.191a187.048 187.048 0 0 0 12.773-12.172v75.523c0 6.352-5.168 11.52-11.52 11.52H26.524c-6.355 0-11.523-5.168-11.523-11.52zm0 0"/></symbol><symbol id="floor (2)" viewBox="0 0 512.00081 512"><path d="M421.242 220.29A15.003 15.003 0 0 0 407 210H105a15.006 15.006 0 0 0-14.242 10.29l-90 272a15.005 15.005 0 0 0 2.082 13.495A15.004 15.004 0 0 0 15 512h482c4.816 0 9.34-2.313 12.16-6.215a15.005 15.005 0 0 0 2.082-13.496zM426.273 331H271v-91h125.164zm-310.437-91H241v91H85.727zM75.8 361H241v121H35.762zM271 482V361h165.2l40.038 121zm0 0M331 135c0 8.285 6.715 15 15 15s15-6.715 15-15c0-24.813 20.188-45 45-45 8.285 0 15-6.715 15-15s-6.715-15-15-15c-24.813 0-45-20.188-45-45 0-8.285-6.715-15-15-15s-15 6.715-15 15c0 24.813-20.188 45-45 45-8.285 0-15 6.715-15 15s6.715 15 15 15c24.813 0 45 20.188 45 45zm15-75.047A75.646 75.646 0 0 0 361.047 75 75.749 75.749 0 0 0 346 90.047 75.543 75.543 0 0 0 330.953 75 75.44 75.44 0 0 0 346 59.953zm0 0M106 120c24.813 0 45 20.188 45 45 0 8.285 6.715 15 15 15s15-6.715 15-15c0-24.813 20.188-45 45-45 8.285 0 15-6.715 15-15s-6.715-15-15-15c-24.813 0-45-20.188-45-45 0-8.285-6.715-15-15-15s-15 6.715-15 15c0 24.813-20.188 45-45 45-8.285 0-15 6.715-15 15s6.715 15 15 15zm60-30.047A75.646 75.646 0 0 0 181.047 105 75.749 75.749 0 0 0 166 120.047 75.543 75.543 0 0 0 150.953 105 75.44 75.44 0 0 0 166 89.953zm0 0"/></symbol><symbol id="instagram" viewBox="0 0 512 512"><path d="M352 0H160C71.648 0 0 71.648 0 160v192c0 88.352 71.648 160 160 160h192c88.352 0 160-71.648 160-160V160C512 71.648 440.352 0 352 0zm112 352c0 61.76-50.24 112-112 112H160c-61.76 0-112-50.24-112-112V160C48 98.24 98.24 48 160 48h192c61.76 0 112 50.24 112 112v192z"/><path d="M256 128c-70.688 0-128 57.312-128 128s57.312 128 128 128 128-57.312 128-128-57.312-128-128-128zm0 208c-44.096 0-80-35.904-80-80 0-44.128 35.904-80 80-80s80 35.872 80 80c0 44.096-35.904 80-80 80z"/><circle cx="393.6" cy="118.4" r="17.056"/></symbol><symbol id="kitchen" viewBox="0 0 480 480"><path d="M472 96H328a8 8 0 0 0-8 8v184H144v-24a8 8 0 0 0-8-8h-24v16h16v16H96v-32H80v32H48v-16h16v-16H40a8 8 0 0 0-8 8v24H8a8 8 0 0 0-8 8v176a8 8 0 0 0 8 8h464a8 8 0 0 0 8-8V104a8 8 0 0 0-8-8zm-136 16h128v96H336zm-16 224H176v-32h144zM16 304h144v32H16zm0 48h144v112H16zm160 0h64v112h-64zm80 0h64v112h-64zm80 112V224h128v240zm0 0"/><path d="M352 144h16v32h-16zm0 0M352 256h16v32h-16zm0 0M48 320a8 8 0 1 1-16 0 8 8 0 0 1 16 0zm0 0M80 320a8 8 0 1 1-16 0 8 8 0 0 1 16 0zm0 0M112 320a8 8 0 1 1-16 0 8 8 0 0 1 16 0zm0 0M144 320a8 8 0 1 1-16 0 8 8 0 0 1 16 0zm0 0M8 152h160a8 8 0 0 0 8-8v-24a8.001 8.001 0 0 0-2.344-5.656l-32-32A8.001 8.001 0 0 0 136 80h-8V8a8 8 0 0 0-8-8H56a8 8 0 0 0-8 8v72h-8a8.001 8.001 0 0 0-5.656 2.344l-32 32A8.001 8.001 0 0 0 0 120v24a8 8 0 0 0 8 8zM64 16h48v64H64zM16 123.313L43.313 96h89.374L160 123.313V136H16zm0 0M136 368H40a8 8 0 0 0-8 8v64a8 8 0 0 0 8 8h96a8 8 0 0 0 8-8v-64a8 8 0 0 0-8-8zm-8 64H48v-48h80zm0 0M232 312h32v16h-32zm0 0M208 392h16v32h-16zm0 0M272 392h16v32h-16zm0 0M192 200h48a8 8 0 0 0 8-8v-8c-.055-14.547-9.914-27.227-24-30.863V0h-16v153.137c-14.086 3.636-23.945 16.316-24 30.863v8a8 8 0 0 0 8 8zm24-32c8.836 0 16 7.164 16 16h-32c0-8.836 7.164-16 16-16zm0 0"/><path d="M248 136h48a8 8 0 0 0 8-8v-8c-.055-14.547-9.914-27.227-24-30.863V0h-16v89.137c-14.086 3.636-23.945 16.316-24 30.863v8a8 8 0 0 0 8 8zm24-32c8.836 0 16 7.164 16 16h-32c0-8.836 7.164-16 16-16zm0 0"/></symbol><symbol id="login" viewBox="0 0 512 512"><path d="M131.5 472H60.693c-8.538 0-13.689-4.765-15.999-7.606-3.988-4.906-5.533-11.29-4.236-17.519 20.769-99.761 108.809-172.616 210.445-174.98 1.693.063 3.39.105 5.097.105 1.722 0 3.434-.043 5.142-.107 24.853.567 49.129 5.24 72.236 13.917 10.34 3.885 21.871-1.352 25.754-11.693 3.883-10.34-1.352-21.871-11.693-25.754a258.015 258.015 0 0 0-9.995-3.512C370.545 220.021 392 180.469 392 136 392 61.01 330.991 0 256 0S120 61.01 120 136c0 44.509 21.492 84.092 54.643 108.918-30.371 9.998-58.871 25.546-83.813 46.062-45.732 37.617-77.529 90.086-89.532 147.743-3.762 18.066.744 36.622 12.363 50.908C25.221 503.847 42.364 512 60.693 512H131.5c11.046 0 20-8.954 20-20s-8.954-20-20-20zM160 136c0-52.935 43.065-96 96-96s96 43.065 96 96c0 51.367-40.554 93.438-91.326 95.885a259.819 259.819 0 0 0-4.674-.052c-1.564 0-3.127.023-4.689.051C200.546 229.43 160 187.362 160 136z"/><path d="M496.689 344.607c-8.561-19.15-27.845-31.558-49.176-31.607h-62.505c-22.5 0-42.13 13.26-50.029 33.807A239.822 239.822 0 0 0 331.302 357H200.356a20.003 20.003 0 0 0-14.35 6.068l-34.356 35.388c-7.567 7.794-7.529 20.203.085 27.95l35 35.612a20 20 0 0 0 14.264 5.981h65c11.046 0 20-8.954 20-20s-8.954-20-20-20h-56.614l-15.428-15.698L208.814 397h137.491a20 20 0 0 0 19.426-15.244c1.618-6.607 3.648-12.959 6.584-20.596 1.936-5.036 6.798-8.16 12.741-8.16H447.466c5.656.013 10.524 3.053 12.705 7.932 5.369 12.012 11.78 30.608 11.828 50.986.048 20.529-6.356 39.551-11.739 51.894-2.17 4.978-7.079 8.188-12.56 8.188h-63.158c-5.533-.013-10.716-3.573-12.896-8.858-2.339-5.671-4.366-12.146-6.197-19.797-2.571-10.742-13.367-17.366-24.105-14.796-10.743 2.571-17.367 13.364-14.796 24.106 2.321 9.699 4.978 18.118 8.121 25.738 8.399 20.364 27.939 33.555 49.827 33.606h63.251a53.623 53.623 0 0 0 49.18-32.201c6.912-15.851 15.137-40.511 15.072-67.975-.064-27.389-8.361-51.67-15.31-67.216z"/><circle cx="431" cy="412" r="20"/></symbol><symbol id="phone-receiver" viewBox="0 0 578.106 578.106"><path d="M577.83 456.128c1.225 9.385-1.635 17.545-8.568 24.48l-81.396 80.781c-3.672 4.08-8.465 7.551-14.381 10.404-5.916 2.857-11.729 4.693-17.439 5.508-.408 0-1.635.105-3.676.309-2.037.203-4.689.307-7.953.307-7.754 0-20.301-1.326-37.641-3.979s-38.555-9.182-63.645-19.584c-25.096-10.404-53.553-26.012-85.376-46.818-31.823-20.805-65.688-49.367-101.592-85.68-28.56-28.152-52.224-55.08-70.992-80.783-18.768-25.705-33.864-49.471-45.288-71.299-11.425-21.828-19.993-41.616-25.705-59.364S4.59 177.362 2.55 164.51-.306 141.56.102 134.216c.408-7.344.612-11.424.612-12.24.816-5.712 2.652-11.526 5.508-17.442s6.324-10.71 10.404-14.382L98.022 8.756c5.712-5.712 12.24-8.568 19.584-8.568 5.304 0 9.996 1.53 14.076 4.59s7.548 6.834 10.404 11.322l65.484 124.236c3.672 6.528 4.692 13.668 3.06 21.42-1.632 7.752-5.1 14.28-10.404 19.584l-29.988 29.988c-.816.816-1.53 2.142-2.142 3.978s-.918 3.366-.918 4.59c1.632 8.568 5.304 18.36 11.016 29.376 4.896 9.792 12.444 21.726 22.644 35.802s24.684 30.293 43.452 48.653c18.36 18.77 34.68 33.354 48.96 43.76 14.277 10.4 26.215 18.053 35.803 22.949 9.588 4.896 16.932 7.854 22.031 8.871l7.648 1.531c.816 0 2.145-.307 3.979-.918 1.836-.613 3.162-1.326 3.979-2.143l34.883-35.496c7.348-6.527 15.912-9.791 25.705-9.791 6.938 0 12.443 1.223 16.523 3.672h.611l118.115 69.768c8.571 5.308 13.67 12.038 15.303 20.198z"/></symbol><symbol id="profits (1)" viewBox="0 0 512 512"><path d="M44.306 218.849h80.573a381.234 381.234 0 0 0 198.008-55.442 381.233 381.233 0 0 0 133.1-136.775l4.549 14.554a7.503 7.503 0 0 0 7.156 5.265 7.5 7.5 0 0 0 7.16-9.739l-9.827-31.447a7.497 7.497 0 0 0-9.396-4.922l-31.447 9.827a7.499 7.499 0 0 0-4.921 9.395 7.498 7.498 0 0 0 9.396 4.922l13.736-4.292C377.101 133.876 256.872 203.849 124.88 203.849H44.306a7.5 7.5 0 0 0-7.5 7.5 7.5 7.5 0 0 0 7.5 7.5zM504.5 497h-66.275V238.528c0-4.142-3.357-7.5-7.5-7.5s-7.5 3.358-7.5 7.5V497h-43.242V182.228a2.21 2.21 0 0 1 2.207-2.207h38.828a2.21 2.21 0 0 1 2.207 2.207v28.15c0 4.142 3.357 7.5 7.5 7.5s7.5-3.358 7.5-7.5v-28.15c0-9.488-7.719-17.207-17.207-17.207H382.19c-9.488 0-17.207 7.719-17.207 17.207V497h-23.828V240.47c0-9.488-7.719-17.207-17.207-17.207H285.12c-9.488 0-17.207 7.719-17.207 17.207v101.438c0 4.142 3.357 7.5 7.5 7.5s7.5-3.358 7.5-7.5V240.47a2.21 2.21 0 0 1 2.207-2.207h38.828a2.21 2.21 0 0 1 2.207 2.207V497h-43.242V370.543c0-4.142-3.357-7.5-7.5-7.5s-7.5 3.358-7.5 7.5V497h-23.828V289.005c0-9.488-7.719-17.207-17.207-17.207H188.05c-9.488 0-17.207 7.719-17.207 17.207V497h-23.828v-42.491c0-4.142-3.357-7.5-7.5-7.5s-7.5 3.358-7.5 7.5V497H88.773V318.126a2.21 2.21 0 0 1 2.207-2.207h38.828a2.21 2.21 0 0 1 2.207 2.207v107.262c0 4.142 3.357 7.5 7.5 7.5s7.5-3.358 7.5-7.5V318.126c0-9.488-7.719-17.207-17.207-17.207H90.98c-9.488 0-17.207 7.719-17.207 17.207V497H7.5a7.5 7.5 0 0 0-7.5 7.5 7.5 7.5 0 0 0 7.5 7.5h497a7.5 7.5 0 0 0 7.5-7.5 7.5 7.5 0 0 0-7.5-7.5zm-275.414 0h-43.242V289.005a2.21 2.21 0 0 1 2.207-2.207h38.828a2.21 2.21 0 0 1 2.207 2.207V497z"/></symbol><symbol id="refer" viewBox="0 0 512 512"><path d="M250.902 271.895c1.692.062 3.387.105 5.098.105 1.586 0 3.164-.035 4.738-.094 35.813.774 71.035 10.25 102.157 27.57 9.652 5.372 21.832 1.903 27.203-7.75 5.37-9.652 1.902-21.831-7.75-27.203a258.238 258.238 0 0 0-44.934-19.652C370.531 220.043 392 180.481 392 136 392 61.008 330.988 0 256 0c-74.992 0-136 61.008-136 136 0 44.508 21.492 84.094 54.645 108.918-30.372 9.996-58.872 25.547-83.817 46.062-45.73 37.618-77.527 90.086-89.531 147.743-3.762 18.066.746 36.62 12.363 50.91C25.22 503.848 42.363 512 60.691 512H217c11.043 0 20-8.953 20-20s-8.957-20-20-20H60.691c-8.539 0-13.687-4.766-16-7.605-3.988-4.907-5.53-11.29-4.234-17.52 20.77-99.762 108.809-172.617 210.445-174.98zM160 136c0-52.934 43.063-96 96-96 52.934 0 96 43.066 96 96 0 51.34-40.508 93.39-91.238 95.883-1.59-.031-3.176-.051-4.762-.051-1.563 0-3.121.023-4.68.05C200.55 229.438 160 187.368 160 136zm352 235.828c.02 13.36-5.203 25.914-14.7 35.36l-37.198 36.992A19.93 19.93 0 0 1 446 450a19.95 19.95 0 0 1-14.184-5.898c-7.789-7.832-7.753-20.493.079-28.282l24.933-24.797h-113.34c-22.328 0-40.488 18.164-40.488 40.489S320.941 472 343 472c11.043 0 20 8.953 20 20s-8.957 20-20 20c-21.512 0-41.668-8.398-56.75-23.652C271.254 473.184 263 453 263 431.512c0-44.383 36.105-80.489 80.488-80.489h111.504l-23.058-22.8c-7.852-7.77-7.926-20.434-.157-28.285 7.766-7.852 20.43-7.926 28.286-.157l37.14 36.727c9.524 9.418 14.777 21.96 14.797 35.32zm0 0"/></symbol><symbol id="squares (1)" viewBox="-19 -19 600 600"><path d="M251.25 12.5c0-6.906-5.594-12.5-12.5-12.5H12.5C5.594 0 0 5.594 0 12.5v226.25c0 6.906 5.594 12.5 12.5 12.5h226.25c6.906 0 12.5-5.594 12.5-12.5zm-25 213.75H25V25h201.25zm0 0M562.5 12.5C562.5 5.594 556.906 0 550 0H323.75c-6.906 0-12.5 5.594-12.5 12.5v226.25c0 6.906 5.594 12.5 12.5 12.5H550c6.906 0 12.5-5.594 12.5-12.5zm-25 213.75H336.25V25H537.5zm0 0M251.25 323.75c0-6.906-5.594-12.5-12.5-12.5H12.5c-6.906 0-12.5 5.594-12.5 12.5V550c0 6.906 5.594 12.5 12.5 12.5h226.25c6.906 0 12.5-5.594 12.5-12.5zm-25 212.5H25v-200h201.25zm0 0M562.5 323.75c0-6.906-5.594-12.5-12.5-12.5H323.75c-6.906 0-12.5 5.594-12.5 12.5V550c0 6.906 5.594 12.5 12.5 12.5H550c6.906 0 12.5-5.594 12.5-12.5zm-25 212.5H336.25v-200H537.5zm0 0"/></symbol><symbol id="tv" viewBox="0 -16 512 512"><path d="M482 300H366v-10c0-16.543-13.457-30-30-30h-39.46l-6.669-20H436c5.523 0 10-4.477 10-10V10c0-5.523-4.477-10-10-10H268c-5.523 0-10 4.477-10 10s4.477 10 10 10h158v200H86V20h102c5.523 0 10-4.477 10-10s-4.477-10-10-10H76c-5.523 0-10 4.477-10 10v220c0 5.523 4.477 10 10 10h146.129l-6.668 20H176c-16.543 0-30 13.457-30 30v10H30c-16.543 0-30 13.457-30 30v100c0 5.523 4.477 10 10 10h30v30c0 5.523 4.477 10 10 10h40c4.168 0 7.898-2.586 9.363-6.488L111.93 440h288.14l12.567 33.512A10.002 10.002 0 0 0 422 480h40c5.523 0 10-4.477 10-10v-30h30c5.523 0 10-4.477 10-10V330c0-16.543-13.457-30-30-30zm-238.793-60h25.582l6.668 20h-38.914zM166 290c0-5.516 4.484-10 10-10h160c5.516 0 10 4.484 10 10v10H166zM20 330c0-5.516 4.484-10 10-10h216v100H20zm63.07 130H60v-20h30.57zM452 460h-23.07l-7.5-20H452zm40-40H266V320h216c5.516 0 10 4.484 10 10zm0 0"/><path d="M462 340H296c-5.523 0-10 4.477-10 10v40c0 5.523 4.477 10 10 10h166c5.523 0 10-4.477 10-10v-40c0-5.523-4.477-10-10-10zm-10 40H306v-20h146zm0 0M216 400c5.523 0 10-4.477 10-10v-40c0-5.523-4.477-10-10-10H50c-5.523 0-10 4.477-10 10v40c0 5.523 4.477 10 10 10zM60 360h146v20H60zm0 0M238 10c0-5.52-4.48-10-10-10s-10 4.48-10 10 4.48 10 10 10 10-4.48 10-10zm0 0"/></symbol><symbol id="washing-machine" viewBox="-71 0 512 512"><path d="M340 0H30C13.46 0 0 13.46 0 30v452c0 16.54 13.46 30 30 30h310c16.54 0 30-13.46 30-30V30c0-16.54-13.46-30-30-30zM200.93 20h90v28.36c0 5.519-4.489 10-10 10h-70c-5.52 0-10-4.481-10-10zM350 482c0 5.512-4.488 10-10 10H30c-5.512 0-10-4.488-10-10V117.871h180c5.52 0 10-4.48 10-10s-4.48-10-10-10H20V30c0-5.512 4.488-10 10-10h150.93v28.36c0 16.538 13.46 30 30 30h70c16.539 0 30-13.462 30-30V20H340c5.512 0 10 4.488 10 10v67.871h-70c-5.52 0-10 4.48-10 10s4.48 10 10 10h70zm0 0"/><path d="M130 59.125H70c-5.523 0-10-4.477-10-10s4.477-10 10-10h60c5.523 0 10 4.477 10 10s-4.477 10-10 10zm0 0M185.328 415.27c-60.652 0-110-49.344-110-110 0-60.653 49.348-110 110-110 34.93 0 67 16.035 88 43.996 14.395 19.152 22 41.976 22 66.004 0 24.03-7.61 46.855-22.004 66.007-20.992 27.957-53.066 43.993-87.996 43.993zm0-200c-49.625 0-90 40.375-90 90s40.375 90 90 90c28.578 0 54.824-13.122 72.004-36.004 11.773-15.664 17.996-34.336 17.996-53.996 0-19.66-6.219-38.332-17.992-53.993l-.004-.004c-17.18-22.878-43.426-36.003-72.004-36.003zm0 160c-38.598 0-70-31.403-70-70 0-38.598 31.402-70 70-70a69.885 69.885 0 0 1 46.684 17.84 10.006 10.006 0 0 1-.008 14.91c-10.598 9.464-16.676 23.042-16.676 37.25s6.078 27.789 16.676 37.265a10 10 0 0 1 .008 14.906c-12.84 11.496-29.418 17.829-46.684 17.829zm0-120c-27.566 0-50 22.43-50 50s22.434 50 50 50a49.915 49.915 0 0 0 25.016-6.696c-9.645-12.254-15.016-27.504-15.016-43.304a70.035 70.035 0 0 1 15.016-43.297 49.903 49.903 0 0 0-25.016-6.703zm0 0M240.02 117.871c-5.524 0-10.004-4.476-10.004-10 0-5.523 4.472-10 9.996-10h.008c5.523 0 10 4.477 10 10 0 5.524-4.477 10-10 10zm0 0"/></symbol><symbol id="youtube" viewBox="0 0 461.001 461.001"><path d="M365.257 67.393H95.744C42.866 67.393 0 110.259 0 163.137v134.728c0 52.878 42.866 95.744 95.744 95.744h269.513c52.878 0 95.744-42.866 95.744-95.744V163.137c0-52.878-42.866-95.744-95.744-95.744zm-64.751 169.663l-126.06 60.123c-3.359 1.602-7.239-.847-7.239-4.568V168.607c0-3.774 3.982-6.22 7.348-4.514l126.06 63.881c3.748 1.899 3.683 7.274-.109 9.082z"/></symbol></svg>